<?xml version="1.0" encoding="UTF-8"?>
<svg width="106px" height="110px" viewBox="0 0 106 110" version="1.1" xmlns="http://www.w3.org/2000/svg" xmlns:xlink="http://www.w3.org/1999/xlink">
    <!-- Generator: Sketch 53.1 (72631) - https://sketchapp.com -->
    <title>Artboard</title>
    <desc>Created with Sketch.</desc>
    <g id="Artboard" stroke="none" stroke-width="1" fill="none" fill-rule="evenodd">
        <g id="safe-banner" fill="#28B2FA" fill-rule="nonzero">
            <path d="M36.13,55.751 L20.371,40.084 C18.8945193,42.0556328 18.0950931,44.4518066 18.092,46.915 C18.092,53.099 23.126,58.122 29.296,58.122 C31.859,58.122 34.235,57.265 36.13,55.752 L36.13,55.751 Z" id="Shape"></path>
            <g id="Group" transform="translate(0.055000, 0.000000)">
                <g id="Clipped">
                    <path d="M17.171,20.099 C26.713,10.729 39.215,5.639 52.623,5.639 L52.707,5.639 C52.855,5.639 53.003,5.647 53.149,5.65 L53.149,56.55 L17.171,20.1 L17.171,20.099 Z M52.526,0.547 C36.965,0.547 22.483,6.917 11.866,18.272 L10.152,20.1 L53.15,63.74 L53.15,71.565 L52.98,71.736 L41.918,60.465 C36.6498705,64.0199706 30.0067459,64.8624227 24.018,62.735 C13.578,58.915 8.176,47.369 11.959,36.915 C12.496,35.28 13.305,33.822 14.203,32.462 L9.437,27.641 L8.537,29.187 C3.54038466,37.4429147 0.896052349,46.9078054 0.89,56.558 C0.803,85.565 24.189,109.283 52.886,109.283 L61.67,109.285 L61.67,0.555 L52.526,0.548 L52.526,0.547 Z" id="Shape"></path>
                </g>
            </g>
            <path d="M105.8,56.12 C105.8,31.813 86.022,12.038 61.708,12.025 L61.708,17.301 C83.112,17.312 100.524,34.72 100.524,56.119 C100.524,77.513 83.112,94.923 61.708,94.934 L61.708,100.21 C86.022,100.197 105.801,80.422 105.801,56.12" id="Path"></path>
            <path d="M71.688,55.225 L69.585,68.143 L79.882,68.143 L77.782,55.225 C80.124,54.102 81.75,51.743 81.75,49.002 C81.75,45.186 78.61,42.088 74.736,42.088 C70.863,42.088 67.721,45.186 67.721,49.002 C67.717,51.746 69.341,54.102 71.688,55.225 M69.227,25.98 C71.807,26.637 72.801,22.785 70.222,22.122 C67.644,21.462 66.65,25.316 69.227,25.979 M80.483,31.57 C82.497,33.258 85.031,30.242 83.017,28.555 C81.003,26.869 78.471,29.885 80.483,31.57 M87.993,42.96 C89.153,45.338 92.702,43.59 91.541,41.212 C90.384,38.842 86.833,40.586 87.993,42.96 M69.227,86.257 C71.807,85.596 72.801,89.452 70.222,90.113 C67.644,90.774 66.65,86.92 69.227,86.257 M80.483,78.66 C82.497,76.973 85.031,79.99 83.017,81.675 C81.003,83.363 78.471,80.346 80.483,78.661 M87.993,69.274 C89.153,66.898 92.702,68.645 91.541,71.024 C90.384,73.394 86.833,71.649 87.993,69.274 M91.771,56.117 C91.771,58.79 95.78,58.79 95.78,56.117 C95.78,53.446 91.771,53.446 91.771,56.117" id="Shape"></path>
        </g>
    </g>
</svg>