<svg width="58" height="58" xmlns="http://www.w3.org/2000/svg">
 <!-- Generator: Sketch 53.1 (72631) - https://sketchapp.com -->

 <title>Artboard</title>
 <desc>Created with Sketch.</desc>
 <g>
  <title>background</title>
  <rect height="60" width="60" y="-1" x="-1" fill="none" id="canvas_background"/>
 </g>
 <g>
  <title>Layer 1</title>
  <g fill-rule="evenodd" fill="none" id="Artboard">
   <rect rx="5" height="37" width="52" y="11" x="0" fill="#2e2e2e" id="Rectangle"/>
   <path d="m42,20.75l10.5,0c2.071072,0 3.75,1.67893 3.75,3.75l0,9c0,2.071068 -1.678928,3.75 -3.75,3.75l-10.5,0c-4.556351,0 -8.25,-3.693649 -8.25,-8.25c0,-4.556351 3.693649,-8.25 8.25,-8.25z" stroke-width="2.5" stroke="#ffffff" fill="#6c6c6c" id="Rectangle"/>
   <circle r="3" cy="29" cx="42" fill="#ffffff" id="Oval"/>
   <g transform="translate(16 18.5) scale(-1, 1) translate(-16 -18.5) translate(8 5)" fill-rule="nonzero" fill="#ffffff" id="Ethereum_logo_2014">
    <polygon points="8,11 8,29 16,24.2719" id="Path"/>
    <polygon points="8,11 0,24.2719 8,29 8,20.6362" id="Path"/>
    <polygon points="8.09721,31.6118 8,31.7289 8,37.7193 8.09721,38 16,27" id="Path"/>
    <polygon points="8,38 8,31.6118 0,27" id="Path"/>
   </g>
  </g>
 </g>
</svg>
