<svg xmlns="http://www.w3.org/2000/svg" viewBox="0 0 585.5 346.77"><defs><style>.a{fill:#48e3e6;}.b{fill:#1aaaad;}.c{fill:#3dbb7e;}.d{fill:#181a19;}.e{fill:#007bbc;}.f{fill:#9b9b9b;}</style></defs><title>Asset 1</title><path class="a" d="M284.08,281a81.91,81.91,0,0,1-55.92-141.81l-44.89-48a147.91,147.91,0,0,1,30.2-21.84A147.68,147.68,0,1,0,385.75,306.15l-45.27-47.68A81.66,81.66,0,0,1,284.08,281Z"/><path class="b" d="M424.6,244.59l-62.54-20.26a82.3,82.3,0,0,1-21.58,34.14l45.27,47.68a147.29,147.29,0,0,0,44.92-89.06A148.34,148.34,0,0,1,424.6,244.59Z"/><path class="c" d="M265.7,52.53l-1.91.25-1.66.24-2,.32-1.55.25L256.5,54l-1.41.28c-.73.14-1.46.29-2.18.45l-1.27.28-2.29.53-1.11.27c-.81.21-1.62.41-2.42.63l-.92.25c-.86.23-1.72.48-2.57.73l-.71.21-2.74.85-.45.15c-1,.32-2,.65-3,1l-.11,0q-4.51,1.57-8.88,3.44c-.9.38-1.79.77-2.68,1.17-.4.18-.8.35-1.2.54-.88.4-1.77.82-2.64,1.25l-1,.5c-1.83.9-3.64,1.83-5.43,2.81h0a147.91,147.91,0,0,0-30.2,21.84l44.89,48A82.45,82.45,0,0,1,250,124.57l.16-.07c.66-.3,1.31-.6,2-.88.29-.13.59-.23.88-.35l1.46-.58c.71-.28,1.42-.55,2.14-.81l1.62-.55c.69-.23,1.38-.46,2.08-.67s1.18-.34,1.78-.51,1.33-.38,2-.54,1.29-.31,1.94-.46,1.28-.29,1.92-.42,1.41-.26,2.11-.38,1.22-.22,1.83-.31,1.39-.19,2.08-.27l-8.13-65.22Z"/><path class="d" d="M279.33,51.48c-4.56.15-9.06.53-13.51,1.07L274,117.77l.23,0c.57-.07,1.13-.15,1.7-.21.73-.07,1.47-.11,2.21-.17l1.08-.08.78,0,.83,0c1.09,0,2.19-.08,3.3-.08l1.29,0,1-65.69c2.31,0,4.6.13,6.87.27-1.72-.11-3.45-.2-5.19-.26-1.33,0-2.66-.07-4-.07-1.51,0-3,0-4.53.08Z"/><path class="e" d="M431.77,198.58c0-1.1,0-2.2,0-3.29l-.06-1.41c0-.79-.05-1.58-.09-2.36,0-.55-.07-1.1-.1-1.65,0-.7-.08-1.4-.13-2.09s-.11-1.2-.16-1.8-.11-1.28-.17-1.92-.14-1.25-.22-1.88-.13-1.21-.2-1.81-.18-1.31-.28-2-.15-1.13-.23-1.69-.22-1.37-.34-2.05c-.09-.52-.17-1-.26-1.57-.13-.72-.27-1.43-.4-2.14-.1-.48-.19-1-.28-1.46-.15-.74-.32-1.47-.48-2.21-.1-.45-.19-.9-.29-1.35-.18-.76-.37-1.51-.55-2.26-.11-.43-.2-.85-.31-1.27-.2-.78-.41-1.55-.62-2.33-.11-.38-.21-.78-.32-1.16-.23-.81-.47-1.61-.71-2.41-.1-.35-.2-.7-.31-1.05-.26-.83-.53-1.66-.8-2.48l-.3-.94c-.29-.86-.6-1.72-.9-2.57-.1-.27-.19-.54-.28-.8-.33-.89-.66-1.77-1-2.65l-.26-.69c-.36-.92-.73-1.83-1.11-2.74-.08-.18-.15-.37-.23-.55-.39-.95-.8-1.89-1.22-2.82-.06-.15-.12-.29-.19-.44-.43-1-.88-1.94-1.34-2.9l-.14-.3q-.72-1.51-1.47-3l-.09-.17c-.52-1-1.05-2.05-1.6-3.06l0-.06a148.08,148.08,0,0,0-88-71.73l-1-.28c-1-.3-2.09-.59-3.14-.87-.69-.19-1.39-.37-2.09-.54l-2.17-.53c-1.79-.41-3.58-.81-5.4-1.16l-.35-.07c-1.12-.22-2.25-.42-3.38-.61l-.41-.07c-4.47-.74-9-1.27-13.62-1.6l-.26,0-1.22-.08c-2.27-.14-4.56-.24-6.87-.27l-1,65.69c.74,0,1.47,0,2.2.06l.55,0,.45,0c1.06.06,2.12.13,3.17.23l.32,0h0l.9.09c.79.09,1.58.18,2.36.29l.47.07.51.07.9.14,2.06.36.29.06.2,0,1.27.25,2,.46h0l.71.17c.56.13,1.11.28,1.66.43l1.13.32.28.08.13,0c1,.28,1.93.58,2.88.89l.89.31c1,.34,2,.71,3,1.09l1,.4h0q3.28,1.32,6.41,2.93a81.61,81.61,0,0,1,12.49,7.83l.06,0c1,.77,2,1.56,3,2.38l.14.12c.94.79,1.87,1.61,2.78,2.44l.21.2c.88.82,1.74,1.65,2.58,2.5l.28.3c.81.82,1.61,1.67,2.38,2.53l.36.41c.74.83,1.46,1.67,2.17,2.54l.42.53c.67.84,1.33,1.68,2,2.54l.47.67c.61.83,1.21,1.66,1.78,2.52.18.26.34.54.52.81.54.82,1.07,1.64,1.58,2.48.19.32.36.64.55,1,.47.81.94,1.62,1.39,2.45.2.36.38.74.57,1.11.41.79.83,1.59,1.22,2.39.2.42.38.85.57,1.27.36.78.71,1.55,1.05,2.34.19.46.37.94.56,1.42.3.75.61,1.5.89,2.27.19.52.35,1,.53,1.58.25.73.51,1.46.74,2.2.18.58.33,1.17.5,1.75s.41,1.4.59,2.11.3,1.28.45,1.92.32,1.34.46,2,.25,1.4.38,2.1.24,1.27.34,1.91.2,1.54.29,2.32c.07.58.16,1.16.22,1.75.09.9.15,1.8.21,2.7,0,.48.08,1,.11,1.44.07,1.39.1,2.79.1,4.19,0,1,0,2-.06,3,0,.21,0,.43,0,.65q-.13,3-.49,6l0,.25a81.53,81.53,0,0,1-3.38,15.37l62.54,20.26a148.34,148.34,0,0,0,6.07-27.5c0-.31.08-.63.11-1,.09-.72.17-1.45.24-2.17.06-.54.1-1.07.15-1.61q.12-1.31.21-2.61c.06-.76.11-1.52.15-2.27,0-.45.05-.9.07-1.36,0-.78.07-1.57.09-2.35,0-.39,0-.78,0-1.17,0-1.16,0-2.33,0-3.5v-.52Z"/><path d="M54.18,10.29a3.78,3.78,0,0,1-3,1.2H47.28V.1h3.91a3.75,3.75,0,0,1,3,1.2c1,1.08,1,2.73,1,4.49S55.2,9.24,54.18,10.29ZM53.22,2A2.84,2.84,0,0,0,51,1.18H48.5V10.4H51a2.83,2.83,0,0,0,2.24-.83C54,8.8,54,7.36,54,5.79S54,2.79,53.22,2Z"/><path d="M64.29,11.49l-.91-2.57h-5l-.91,2.57h-1.3L60.39.1h1l4.18,11.39ZM60.91,1.84l-2.14,6H63Z"/><path d="M73.41,10.47a3.85,3.85,0,0,1-2.83,1.12,3.89,3.89,0,0,1-2.85-1.12c-1.09-1.09-1.14-2.07-1.14-4.68s0-3.58,1.14-4.67A3.89,3.89,0,0,1,70.58,0a3.85,3.85,0,0,1,2.83,1.12c1.07,1.07,1.15,2.07,1.15,4.67S74.48,9.4,73.41,10.47Zm-.86-8.58a2.83,2.83,0,0,0-3.94,0c-.74.74-.8,1.57-.8,3.9s.06,3.17.8,3.91a2.83,2.83,0,0,0,3.94,0c.73-.74.8-1.57.8-3.91S73.28,2.63,72.55,1.89Z"/><path d="M83.54,11.59a4.9,4.9,0,0,1-3.89-1.51l.81-.81a3.93,3.93,0,0,0,3.11,1.23c1.68,0,2.7-.77,2.7-2.11A1.82,1.82,0,0,0,85.71,7a2.58,2.58,0,0,0-1.48-.56L82.9,6.21a4,4,0,0,1-2.08-.86,2.7,2.7,0,0,1-.88-2.15c0-1.94,1.4-3.2,3.65-3.2A4.71,4.71,0,0,1,87,1.25L86.19,2a3.51,3.51,0,0,0-2.65-1c-1.54,0-2.42.85-2.42,2.13a1.72,1.72,0,0,0,.51,1.33,3.36,3.36,0,0,0,1.49.59l1.33.21a3.55,3.55,0,0,1,2.06.81,2.81,2.81,0,0,1,1,2.25C87.48,10.36,85.92,11.59,83.54,11.59Z"/><path d="M91.62,11.49a1.94,1.94,0,0,1-2-2.11V4.5h-1V3.62h1V1.2h1.15V3.62h1.68V4.5H90.75V9.35c0,.72.32,1.15,1.07,1.15h.61v1Z"/><path d="M99.38,10.69a3.29,3.29,0,0,1-4.52,0,4.2,4.2,0,0,1-1-3.13,4.18,4.18,0,0,1,1-3.14,3.29,3.29,0,0,1,4.52,0,4.18,4.18,0,0,1,1,3.14A4.3,4.3,0,0,1,99.38,10.69Zm-.82-5.57a2.08,2.08,0,0,0-2.86,0,3.42,3.42,0,0,0-.64,2.44A3.32,3.32,0,0,0,95.7,10a2.08,2.08,0,0,0,2.86,0,3.41,3.41,0,0,0,.63-2.43A3.41,3.41,0,0,0,98.56,5.12Z"/><path d="M106.8,5.12a1.63,1.63,0,0,0-1.36-.57,1.92,1.92,0,0,0-1.89,2.11v4.83H102.4V3.62h1.15v1a2.64,2.64,0,0,1,2.21-1.06,2.44,2.44,0,0,1,1.89.74Z"/><path d="M110.69,13.4a2.42,2.42,0,0,1-.56.93,2.19,2.19,0,0,1-1.54.54h-.49v-1h.35c.78,0,1-.26,1.29-1l.56-1.54-2.83-7.71h1.25l2.16,6.32L113,3.62h1.24Z"/><path d="M117.7,11.49a1.94,1.94,0,0,1-2-2.11V4.5h-1V3.62h1V1.2h1.15V3.62h1.68V4.5h-1.68V9.35c0,.72.32,1.15,1.07,1.15h.61v1Z"/><path d="M121.12,7.86c0,1.73.78,2.72,2.32,2.72a2.59,2.59,0,0,0,2.07-.9l.78.69a3.63,3.63,0,0,1-2.88,1.22c-2.11,0-3.44-1.27-3.44-4,0-2.58,1.23-4,3.23-4s3.23,1.44,3.23,3.83v.51ZM125.3,7A3.57,3.57,0,0,0,125,5.68a2,2,0,0,0-3.68,0A3,3,0,0,0,121.12,7Z"/><path d="M130.45,11.49a1.86,1.86,0,0,1-2-2.09V.1h1.15V9.35c0,.77.24,1.15,1.06,1.15h.62v1Z"/><path d="M134.75,11.49a1.86,1.86,0,0,1-2-2.09V.1h1.15V9.35c0,.77.24,1.15,1.06,1.15h.62v1Z"/><path d="M137.81,7.86c0,1.73.78,2.72,2.32,2.72a2.56,2.56,0,0,0,2.06-.9l.79.69a3.64,3.64,0,0,1-2.88,1.22c-2.12,0-3.45-1.27-3.45-4,0-2.58,1.24-4,3.24-4s3.23,1.44,3.23,3.83v.51ZM142,7a3.59,3.59,0,0,0-.25-1.31,2,2,0,0,0-3.68,0A2.89,2.89,0,0,0,137.81,7Z"/><path d="M149.57,5.12a1.63,1.63,0,0,0-1.36-.57,1.92,1.92,0,0,0-1.89,2.11v4.83h-1.15V3.62h1.15v1a2.64,2.64,0,0,1,2.21-1.06,2.44,2.44,0,0,1,1.89.74Z"/><path d="M154,11.59a4.31,4.31,0,0,1-3.23-1.14l.77-.77a3.28,3.28,0,0,0,2.45.92c1.33,0,2.09-.45,2.09-1.4,0-.7-.36-1.07-1.31-1.15l-1.29-.11c-1.54-.13-2.36-.79-2.36-2.11s1.2-2.31,2.9-2.31a4.4,4.4,0,0,1,2.83.85l-.75.75A3.37,3.37,0,0,0,154,4.5c-1.15,0-1.76.48-1.76,1.29s.44,1,1.41,1.16l1.23.11c1.38.13,2.33.64,2.33,2.13S155.9,11.59,154,11.59Z"/><path class="f" d="M46.72,30V29l4.5-5.72a2.6,2.6,0,0,0,.64-1.68,2,2,0,1,0-4,0H46.74a3,3,0,0,1,3.13-3.09A2.92,2.92,0,0,1,53,21.58a3.48,3.48,0,0,1-.91,2.31l-4,5.09H53v1Z"/><path class="f" d="M55,30V28.5H56.5V30Z"/><path class="f" d="M64.8,27a3.12,3.12,0,1,1-6.24,0V21.65a3.12,3.12,0,1,1,6.24,0Zm-1.15-5.25a2,2,0,1,0-3.94,0V26.9a2,2,0,1,0,3.94,0Z"/><path class="f" d="M70.82,22.33a2.16,2.16,0,0,1-4.32,0V20.65a2.16,2.16,0,0,1,4.32,0Zm-.93-1.65c0-.88-.34-1.39-1.23-1.39s-1.25.51-1.25,1.39V22.3c0,.88.35,1.38,1.25,1.38s1.23-.5,1.23-1.38Zm0,9.32H69l5.34-11.4h1Zm7.82-2a2.16,2.16,0,0,1-4.32,0V26.29a2.16,2.16,0,0,1,4.32,0Zm-.92-1.65c0-.88-.34-1.39-1.24-1.39s-1.25.51-1.25,1.39v1.6c0,.9.36,1.39,1.25,1.39s1.24-.49,1.24-1.39Z"/><path d="M8,58.24a3.9,3.9,0,0,1-1,2.93,4,4,0,0,1-3,1.32,3.89,3.89,0,0,1-2.85-1.12C.05,60.28,0,59.3,0,56.69S.05,53.11,1.14,52A3.85,3.85,0,0,1,4,50.9a3.93,3.93,0,0,1,4,3.41H6.75A2.7,2.7,0,0,0,4,52a2.62,2.62,0,0,0-2,.8c-.74.73-.8,1.56-.8,3.9s.06,3.17.8,3.91a2.62,2.62,0,0,0,2,.8,2.79,2.79,0,0,0,2.16-1,3,3,0,0,0,.64-2.06v-.88H4v-1H8Z"/><path d="M10.43,62.39V51h7.08v1.09H11.65v4h5v1.09h-5V61.3h5.86v1.09Z"/><path d="M26.9,62.39l-6-9.14v9.14H19.63V51h1.15l6,9.11V51h1.22v11.4Z"/><path d="M36.29,62.39a1.87,1.87,0,0,1-2-2.1V51h1.15v9.25c0,.77.24,1.16,1.06,1.16h.62v1Z"/><path d="M43.68,61.59a3.28,3.28,0,0,1-4.51,0,4.21,4.21,0,0,1-1-3.14,4.17,4.17,0,0,1,1-3.14,3.3,3.3,0,0,1,4.51,0,4.17,4.17,0,0,1,1,3.14A4.28,4.28,0,0,1,43.68,61.59ZM42.87,56a2,2,0,0,0-1.45-.58A1.91,1.91,0,0,0,40,56a3.4,3.4,0,0,0-.64,2.43A3.4,3.4,0,0,0,40,60.89a1.94,1.94,0,0,0,1.42.57,2,2,0,0,0,1.45-.57,3.48,3.48,0,0,0,.62-2.44A3.44,3.44,0,0,0,42.87,56Z"/><path d="M52.35,61.32a3.11,3.11,0,0,1-2.59,1.17c-2,0-3.49-1.33-3.49-4s1.51-4,3.49-4a3.11,3.11,0,0,1,2.59,1.17l-.78.73a2.18,2.18,0,0,0-1.81-.88,2.15,2.15,0,0,0-1.82.9,3.32,3.32,0,0,0-.52,2.11,3.32,3.32,0,0,0,.52,2.11,2.12,2.12,0,0,0,1.82.9,2.18,2.18,0,0,0,1.81-.9Z"/><path d="M59.33,62.39l-2.5-4L55.3,60.12v2.27H54.14V51H55.3v7.62l3.55-4.1h1.44l-2.67,3,3.13,4.87Z"/><path d="M62.26,52.27V51h1.29v1.29Zm.06,10.12V54.51h1.15v7.88Z"/><path d="M71,62.39V57.54c0-1.41-.73-2.1-1.93-2.1a1.85,1.85,0,0,0-2,2.1v4.85H66V54.51H67.1v.87a2.83,2.83,0,0,1,2.21-1,2.75,2.75,0,0,1,2,.73,3,3,0,0,1,.82,2.2v5Z"/><path d="M80.35,62.63A3.13,3.13,0,0,1,77.07,66,3.41,3.41,0,0,1,74.4,65l.75-.74A2.43,2.43,0,0,0,77,65c1.54,0,2.16-1.07,2.16-2.42V61.35a2.52,2.52,0,0,1-2.21,1,2.64,2.64,0,0,1-1.9-.7,4.49,4.49,0,0,1-1-3.28,4.49,4.49,0,0,1,1-3.28A2.63,2.63,0,0,1,77,54.42a2.47,2.47,0,0,1,2.21,1v-.93h1.13Zm-3.1-7.19c-1.73,0-2,1.48-2,3s.24,2.94,2,2.94,2-1.47,2-2.94S79,55.44,77.25,55.44Z"/><path class="f" d="M2.91,80.9V70.78L.78,72.65V71.34L2.91,69.5H4.07V80.9Z"/><path class="f" d="M14,77.86A3,3,0,0,1,10.91,81a3,3,0,0,1-3.12-3.13V72.54a3,3,0,0,1,3.12-3.14A3,3,0,0,1,14,72.54Zm-1.15-5.25a2,2,0,1,0-3.94,0v5.18a2,2,0,1,0,3.94,0Z"/><path class="f" d="M16.1,80.9V79.39h1.5V80.9Z"/><path class="f" d="M25.91,77.86A3,3,0,0,1,22.78,81a3,3,0,0,1-3.12-3.13V72.54a3,3,0,0,1,3.12-3.14,3,3,0,0,1,3.13,3.14Zm-1.16-5.25a2,2,0,1,0-3.93,0v5.18a2,2,0,1,0,3.93,0Z"/><path class="f" d="M31.92,73.23a2.16,2.16,0,0,1-4.32,0V71.55a2.16,2.16,0,0,1,4.32,0ZM31,71.58c0-.88-.33-1.39-1.23-1.39s-1.25.51-1.25,1.39V73.2c0,.88.35,1.37,1.25,1.37S31,74.08,31,73.2ZM31,80.9h-1l5.35-11.4h1Zm7.83-2a2.16,2.16,0,0,1-4.32,0V77.18a2.16,2.16,0,1,1,4.32,0Zm-.93-1.64c0-.88-.34-1.4-1.23-1.4s-1.25.52-1.25,1.4v1.6c0,.89.35,1.39,1.25,1.39s1.23-.5,1.23-1.39Z"/><path d="M55.83,312.25v-8.66l-3.12,6.87h-1l-3.17-6.87v8.66H47.28v-11.4H48.5l3.71,8.09,3.62-8.09H57v11.4Z"/><path d="M67.51,308.1a3.86,3.86,0,0,1-1,2.93,4,4,0,0,1-3,1.31,3.85,3.85,0,0,1-2.85-1.12c-1.09-1.08-1.14-2.06-1.14-4.67s0-3.59,1.14-4.67a3.85,3.85,0,0,1,2.85-1.12,3.94,3.94,0,0,1,4,3.4H66.26a2.72,2.72,0,0,0-2.77-2.32,2.66,2.66,0,0,0-2,.8c-.74.74-.8,1.57-.8,3.91s.06,3.17.8,3.91a2.66,2.66,0,0,0,2,.8,2.79,2.79,0,0,0,2.16-1,3,3,0,0,0,.64-2.07v-.88h-2.8v-1h4Z"/><path d="M77.2,312.25l-6-9.14v9.14H69.94v-11.4h1.15l6,9.11v-9.11h1.22v11.4Z"/><path d="M86.59,312.25a1.87,1.87,0,0,1-2-2.1v-9.3h1.15v9.25c0,.77.24,1.16,1.06,1.16h.63v1Z"/><path d="M94,311.45a3.31,3.31,0,0,1-4.52,0,5.62,5.62,0,0,1,0-6.28,3.31,3.31,0,0,1,4.52,0,4.19,4.19,0,0,1,1,3.14A4.32,4.32,0,0,1,94,311.45Zm-.82-5.57a1.92,1.92,0,0,0-1.44-.58,2,2,0,0,0-1.43.58,3.42,3.42,0,0,0-.64,2.43,3.36,3.36,0,0,0,.64,2.43,2,2,0,0,0,1.43.58,1.92,1.92,0,0,0,1.44-.58,5.07,5.07,0,0,0,0-4.86Z"/><path d="M102.66,311.18a3.12,3.12,0,0,1-2.59,1.16c-2,0-3.49-1.32-3.49-4s1.5-4,3.49-4a3.1,3.1,0,0,1,2.59,1.17l-.79.73a2.3,2.3,0,0,0-3.63,0,4.62,4.62,0,0,0,0,4.22,2.28,2.28,0,0,0,3.63,0Z"/><path d="M109.63,312.25l-2.49-4L105.6,310v2.27h-1.15v-11.4h1.15v7.62l3.55-4.1h1.44l-2.67,3,3.14,4.87Z"/><path d="M112.56,302.13v-1.29h1.3v1.29Zm.06,10.12v-7.88h1.16v7.88Z"/><path d="M121.3,312.25V307.4c0-1.41-.74-2.1-1.94-2.1a1.84,1.84,0,0,0-2,2.1v4.85h-1.15v-7.88h1.15v.87a2.81,2.81,0,0,1,2.21-1,2.71,2.71,0,0,1,2,.73,2.92,2.92,0,0,1,.82,2.2v5Z"/><path d="M130.66,312.49a3.14,3.14,0,0,1-3.28,3.38,3.44,3.44,0,0,1-2.68-1.06l.76-.74a2.41,2.41,0,0,0,1.88.79c1.54,0,2.17-1.08,2.17-2.42v-1.23a2.57,2.57,0,0,1-2.21,1,2.65,2.65,0,0,1-1.91-.7,6.08,6.08,0,0,1,0-6.56,2.65,2.65,0,0,1,1.92-.69,2.47,2.47,0,0,1,2.21,1v-.93h1.14Zm-3.11-7.19c-1.73,0-2,1.47-2,2.95s.24,2.94,2,2.94,2-1.47,2-2.94S129.27,305.3,127.55,305.3Z"/><path class="f" d="M52.11,330a3,3,0,0,1-2.27.85,3.16,3.16,0,0,1-2.29-.82,3.12,3.12,0,0,1-.8-2H47.9a1.76,1.76,0,0,0,1.94,1.77,1.9,1.9,0,0,0,1.41-.52,3.18,3.18,0,0,0,.62-2.33c0-1.39-.27-2.76-1.92-2.76a1.81,1.81,0,0,0-1.89,1.12H47v-6h5.77v1H48.06V324a3.07,3.07,0,0,1,4-.06A4.17,4.17,0,0,1,53,327,4,4,0,0,1,52.11,330Z"/><path class="f" d="M60.88,327.72a3.12,3.12,0,1,1-6.24,0V322.4a3.12,3.12,0,1,1,6.24,0Zm-1.15-5.26a2,2,0,1,0-3.94,0v5.19a2,2,0,1,0,3.94,0Z"/><path class="f" d="M62.94,330.76v-1.51h1.51v1.51Z"/><path class="f" d="M72.75,327.72a3.12,3.12,0,1,1-6.24,0V322.4a3.12,3.12,0,1,1,6.24,0Zm-1.15-5.26a2,2,0,1,0-3.94,0v5.19a2,2,0,1,0,3.94,0Z"/><path class="f" d="M78.77,323.09a2.16,2.16,0,0,1-4.32,0v-1.68a2.16,2.16,0,0,1,4.32,0Zm-.93-1.65c0-.88-.34-1.39-1.23-1.39s-1.25.51-1.25,1.39v1.62c0,.88.35,1.37,1.25,1.37s1.23-.49,1.23-1.37Zm0,9.32h-1l5.34-11.4h1Zm7.83-2a2.17,2.17,0,0,1-4.33,0V327a2.17,2.17,0,0,1,4.33,0Zm-.93-1.65c0-.88-.34-1.39-1.23-1.39s-1.25.51-1.25,1.39v1.61c0,.89.35,1.39,1.25,1.39s1.23-.5,1.23-1.39Z"/><path d="M512.35,101a3.86,3.86,0,0,1-1,2.93,4,4,0,0,1-3,1.32,3.89,3.89,0,0,1-2.85-1.12c-1.09-1.09-1.14-2.07-1.14-4.68s.05-3.58,1.14-4.67a3.85,3.85,0,0,1,2.85-1.12,3.93,3.93,0,0,1,4,3.41H511.1a2.71,2.71,0,0,0-2.77-2.32,2.62,2.62,0,0,0-2,.8c-.74.73-.8,1.56-.8,3.9s.06,3.17.8,3.91a2.66,2.66,0,0,0,2,.8,2.79,2.79,0,0,0,2.16-1,3,3,0,0,0,.64-2.06v-.88h-2.8v-1h4Z"/><path d="M522,105.19l-6-9.14v9.14h-1.21V93.79h1.15L522,102.9V93.79h1.22v11.4Z"/><path d="M532.47,104.17a3.85,3.85,0,0,1-2.83,1.12,3.91,3.91,0,0,1-2.85-1.12c-1.09-1.09-1.13-2.07-1.13-4.68s0-3.58,1.13-4.67a3.87,3.87,0,0,1,2.85-1.12,3.81,3.81,0,0,1,2.83,1.12c1.08,1.07,1.16,2.06,1.16,4.67S533.55,103.09,532.47,104.17Zm-.86-8.58a2.83,2.83,0,0,0-3.94,0c-.73.73-.8,1.56-.8,3.9s.07,3.17.8,3.91a2.83,2.83,0,0,0,3.94,0c.74-.74.8-1.57.8-3.91S532.35,96.32,531.61,95.59Z"/><path d="M541.43,105.19a1.87,1.87,0,0,1-2-2.1v-9.3h1.15V103c0,.77.24,1.16,1.06,1.16h.62v1Z"/><path d="M548.83,104.39a3.29,3.29,0,0,1-4.52,0,5.62,5.62,0,0,1,0-6.28,3.31,3.31,0,0,1,4.52,0,4.21,4.21,0,0,1,1,3.14A4.32,4.32,0,0,1,548.83,104.39ZM548,98.82a2.07,2.07,0,0,0-2.87,0,3.45,3.45,0,0,0-.64,2.43,3.4,3.4,0,0,0,.64,2.44,2.09,2.09,0,0,0,2.87,0,3.48,3.48,0,0,0,.62-2.44A3.44,3.44,0,0,0,548,98.82Z"/><path d="M557.5,104.12a3.14,3.14,0,0,1-2.6,1.17c-2,0-3.48-1.33-3.48-4s1.5-4,3.48-4a3.14,3.14,0,0,1,2.6,1.17l-.79.73a2.3,2.3,0,0,0-3.63,0,4.62,4.62,0,0,0,0,4.22,2.14,2.14,0,0,0,1.82.9,2.16,2.16,0,0,0,1.81-.9Z"/><path d="M564.47,105.19l-2.49-4-1.54,1.76v2.27h-1.15V93.79h1.15v7.62l3.55-4.1h1.44l-2.67,3,3.14,4.87Z"/><path d="M567.4,95.07V93.78h1.3v1.29Zm.06,10.12V97.31h1.16v7.88Z"/><path d="M576.14,105.19v-4.85c0-1.41-.74-2.1-1.94-2.1a1.84,1.84,0,0,0-2,2.1v4.85h-1.16V97.31h1.16v.87a2.81,2.81,0,0,1,2.21-1,2.73,2.73,0,0,1,2,.73,2.92,2.92,0,0,1,.82,2.2v5Z"/><path d="M585.5,105.43a3.14,3.14,0,0,1-3.28,3.38,3.44,3.44,0,0,1-2.68-1.06l.75-.74a2.44,2.44,0,0,0,1.89.79c1.54,0,2.16-1.07,2.16-2.42v-1.23a2.52,2.52,0,0,1-2.2,1,2.65,2.65,0,0,1-1.91-.7,6.08,6.08,0,0,1,0-6.56,2.65,2.65,0,0,1,1.92-.69,2.47,2.47,0,0,1,2.21,1v-.93h1.14Zm-3.11-7.19c-1.73,0-2,1.48-2,3s.24,2.94,2,2.94,2-1.47,2-2.94S584.1,98.24,582.39,98.24Z"/><path class="f" d="M507.14,123.81a3,3,0,0,1-3.34-3H505a2,2,0,0,0,2.19,2,2.08,2.08,0,0,0,2.2-2.2,2,2,0,0,0-2.24-2.21h-.24v-1h.24a1.83,1.83,0,0,0,2-2.07,2,2,0,0,0-4-.17h-1.16a3,3,0,0,1,3.2-2.93,3,3,0,0,1,3.14,3.09,2.54,2.54,0,0,1-1.53,2.53,2.65,2.65,0,0,1,1.74,2.78A3.09,3.09,0,0,1,507.14,123.81Z"/><path class="f" d="M518.38,120.66a3.12,3.12,0,1,1-6.24,0v-5.32a3.12,3.12,0,1,1,6.24,0Zm-1.15-5.25a2,2,0,1,0-3.94,0v5.18a2,2,0,1,0,3.94,0Z"/><path class="f" d="M520.44,123.7v-1.51h1.5v1.51Z"/><path class="f" d="M530.25,120.66a3.12,3.12,0,1,1-6.24,0v-5.32a3.12,3.12,0,1,1,6.24,0Zm-1.15-5.25a2,2,0,1,0-3.94,0v5.18a2,2,0,1,0,3.94,0Z"/><path class="f" d="M536.26,116a2.16,2.16,0,0,1-4.32,0v-1.68a2.16,2.16,0,0,1,4.32,0Zm-.92-1.65c0-.88-.34-1.39-1.24-1.39s-1.24.51-1.24,1.39V116c0,.88.35,1.37,1.24,1.37s1.24-.49,1.24-1.37Zm0,9.32h-1l5.35-11.4h1Zm7.83-2a2.16,2.16,0,0,1-4.32,0V120a2.16,2.16,0,0,1,4.32,0Zm-.93-1.64c0-.88-.33-1.4-1.23-1.4s-1.25.52-1.25,1.4v1.6c0,.89.35,1.39,1.25,1.39s1.23-.5,1.23-1.39Z"/><path d="M490.89,269.92v-11.4H498v1.09h-5.86v4h5v1.09h-5v4.11H498v1.09Z"/><path d="M503.44,259.61v10.31h-1.22V259.61h-3.29v-1.09h7.81v1.09Z"/><path d="M515.09,269.92v-5.2h-5.41v5.2h-1.22v-11.4h1.22v5.11h5.41v-5.11h1.22v11.4Z"/><path d="M524.54,269.92a1.87,1.87,0,0,1-2-2.1v-9.3h1.16v9.25c0,.77.24,1.16,1,1.16h.63v1Z"/><path d="M531.94,269.12a3.29,3.29,0,0,1-4.52,0,5.62,5.62,0,0,1,0-6.28,3.31,3.31,0,0,1,4.52,0,4.19,4.19,0,0,1,1,3.14A4.32,4.32,0,0,1,531.94,269.12Zm-.82-5.57a1.92,1.92,0,0,0-1.44-.58,2,2,0,0,0-1.43.58,3.42,3.42,0,0,0-.64,2.43,3.36,3.36,0,0,0,.64,2.43,2,2,0,0,0,1.43.58,1.92,1.92,0,0,0,1.44-.58,5.07,5.07,0,0,0,0-4.86Z"/><path d="M540.61,268.85A3.13,3.13,0,0,1,538,270c-2,0-3.49-1.33-3.49-4s1.5-4,3.49-4a3.13,3.13,0,0,1,2.59,1.17l-.79.73a2.3,2.3,0,0,0-3.63,0,4.62,4.62,0,0,0,0,4.22,2.28,2.28,0,0,0,3.63,0Z"/><path d="M547.58,269.92l-2.49-4-1.54,1.76v2.27H542.4v-11.4h1.15v7.62l3.55-4.1h1.44l-2.67,3,3.14,4.87Z"/><path d="M550.51,259.8v-1.29h1.3v1.29Zm.06,10.12V262h1.16v7.88Z"/><path d="M559.25,269.92v-4.85c0-1.41-.74-2.1-1.94-2.1a1.84,1.84,0,0,0-1.95,2.1v4.85h-1.15V262h1.15v.87a2.81,2.81,0,0,1,2.21-1,2.71,2.71,0,0,1,2,.73,2.92,2.92,0,0,1,.82,2.2v5Z"/><path d="M568.61,270.16a3.14,3.14,0,0,1-3.28,3.38,3.44,3.44,0,0,1-2.68-1.06l.76-.74a2.41,2.41,0,0,0,1.88.79c1.54,0,2.17-1.07,2.17-2.42v-1.23a2.56,2.56,0,0,1-2.21,1,2.65,2.65,0,0,1-1.91-.7,6.08,6.08,0,0,1,0-6.56,2.65,2.65,0,0,1,1.92-.69,2.47,2.47,0,0,1,2.21,1V262h1.14ZM565.5,263c-1.73,0-2,1.47-2,2.95s.24,2.94,2,2.94,2-1.47,2-2.94S567.22,263,565.5,263Z"/><path class="f" d="M493.42,288.52a3.2,3.2,0,0,1-3.36-3.23,3.1,3.1,0,0,1,1.72-2.77,2.76,2.76,0,0,1-1.49-2.53,3.14,3.14,0,0,1,6.27,0,2.75,2.75,0,0,1-1.47,2.53,3.09,3.09,0,0,1,1.7,2.77A3.2,3.2,0,0,1,493.42,288.52Zm0-5.47a2.23,2.23,0,1,0,2.21,2.22A2.18,2.18,0,0,0,493.42,283.05Zm0-5.09a1.94,1.94,0,0,0-2,2.05,2,2,0,1,0,4,0A1.94,1.94,0,0,0,493.42,278Z"/><path class="f" d="M498.61,288.43v-1.51h1.5v1.51Z"/><path class="f" d="M508.42,285.39a3.13,3.13,0,1,1-6.25,0v-5.32a3.13,3.13,0,1,1,6.25,0Zm-1.16-5.25a2,2,0,1,0-3.93,0v5.18a2,2,0,1,0,3.93,0Z"/><path class="f" d="M514.43,280.76a2.16,2.16,0,0,1-4.32,0v-1.68a2.16,2.16,0,1,1,4.32,0Zm-.93-1.65c0-.88-.33-1.39-1.23-1.39s-1.25.51-1.25,1.39v1.62c0,.88.36,1.37,1.25,1.37s1.23-.49,1.23-1.37Zm0,9.32h-1l5.35-11.4h1Zm7.83-2a2.16,2.16,0,0,1-4.32,0v-1.68a2.16,2.16,0,0,1,4.32,0Zm-.93-1.65c0-.88-.34-1.39-1.23-1.39s-1.25.51-1.25,1.39v1.61c0,.89.35,1.39,1.25,1.39s1.23-.5,1.23-1.39Z"/><polygon class="f" points="275.42 57.19 273.92 57.19 273.92 30.75 85.54 30.75 85.54 29.25 275.42 29.25 275.42 57.19"/><rect class="f" x="45.63" y="77.83" width="168.31" height="1.5"/><rect class="f" x="92.48" y="330.01" width="154.43" height="1.5"/><rect class="f" x="392.08" y="268.74" width="90.8" height="1.5"/><rect class="f" x="376.46" y="104.44" width="120.88" height="1.5"/></svg>