<?xml version="1.0" encoding="UTF-8" standalone="no"?>
<svg
   xmlns:dc="http://purl.org/dc/elements/1.1/"
   xmlns:cc="http://creativecommons.org/ns#"
   xmlns:rdf="http://www.w3.org/1999/02/22-rdf-syntax-ns#"
   xmlns:svg="http://www.w3.org/2000/svg"
   xmlns="http://www.w3.org/2000/svg"
   id="svg3927"
   version="1.1"
   width="18.580496"
   viewBox="0 0 18.580496 19.410133"
   height="19.410133">
  <metadata
     id="metadata3933">
    <rdf:RDF>
      <cc:Work
         rdf:about="">
        <dc:format>image/svg+xml</dc:format>
        <dc:type
           rdf:resource="http://purl.org/dc/dcmitype/StillImage" />
        <dc:title></dc:title>
      </cc:Work>
    </rdf:RDF>
  </metadata>
  <defs
     id="defs3931" />
  <mask
     fill="#fff"
     id="a">
    <path
       style="fill:#ffffff;fill-rule:evenodd"
       id="path3899"
       d="M 0.08046977,0.04810727 H 18.81215 V 19.388203 H 0.08046977 Z" />
  </mask>
  <mask
     fill="#fff"
     id="b">
    <path
       style="fill:#ffffff;fill-rule:evenodd"
       id="path3902"
       d="M 0,0.16675888 H 7.7529068 V 14.183698 H 0 Z" />
  </mask>
  <g
     style="fill:#ffffff;fill-rule:evenodd"
     id="g3925"
     transform="translate(1.971e-5,-0.21309378)">
    <path
       id="path3917"
       d="m 10.82755,8.9818803 v 3.896e-4 c 2.241052,2.2694161 4.287582,4.9347931 5.514042,7.8800481 1.388857,-1.507101 2.238884,-3.508519 2.238884,-5.703535 V 2.8453794 C 16.583218,3.9535995 12.560123,6.4006429 10.82755,8.9818803" />
    <path
       id="path3919"
       d="m 3.5246273,17.998098 c 1.4148726,1.022133 3.1604537,1.62513 5.0437972,1.62513 h 7.883e-4 0.7209366 0.7211336 7.88e-4 c 1.883344,0 3.628925,-0.602997 5.043798,-1.62513 C 13.903513,14.913779 11.699118,12.107197 9.2901494,9.7427348 6.8813776,12.107197 4.6769828,14.913779 3.5246273,17.998098" />
    <path
       id="path3921"
       d="m 9.2901297,8.2318159 c 0,0 1.9635573,-2.2290999 2.9521353,-3.0574409 C 11.981521,3.3601272 10.349264,1.3150813 9.2901297,0.21309378 8.2311925,1.3150813 6.5989352,3.3601272 6.3381918,5.174375 7.3267698,6.002716 9.2901297,8.2318159 9.2901297,8.2318159" />
    <path
       id="path3923"
       transform="translate(0,2.678621)"
       mask="url(#b)"
       d="M 7.7529068,6.3032598 C 6.0201362,3.7220224 1.9972388,1.274979 -1.971e-5,0.16675888 V 8.4801624 c 0,2.1950156 0.85002725,4.1964336 2.23888471,5.7035356 1.2264594,-2.945256 3.2729892,-5.6106321 5.5140418,-7.8800487 z" />
  </g>
</svg>
