<svg xmlns="http://www.w3.org/2000/svg" viewBox="0 0 102.61 144.14"><defs><style>.a{fill:#fff;}</style></defs><title>Asset 11</title><path class="a" d="M92.2,61.71,102.61,51.3,51.3,0,0,51.3,10.4,61.71,0,72.11,10.36,82.47,0,92.83l51.3,51.31,51.31-51.31L92.25,82.47l10.36-10.36ZM9.19,51.3,51.3,9.19,93.42,51.3l-5.81,5.81L51.3,20.81,15,57.11ZM51.3,93.42,30,72.07,51.3,50.72,72.65,72.07Zm26-16.76,5.81,5.81L51.3,114.23,19.55,82.47l5.81-5.81,25.94,26ZM51.3,41.53,25.36,67.47l-5.77-5.76L51.3,30,83,61.71l-5.76,5.76ZM9.19,72.11,15,66.3l5.76,5.77L15,77.88ZM93.42,92.83,51.3,135,9.19,92.83,15,87.07,51.3,123.42,87.65,87.07ZM81.84,72.07l5.77-5.77,5.81,5.81-5.77,5.77Z"/></svg>