<svg id="Layer_1" data-name="Layer 1" xmlns="http://www.w3.org/2000/svg" viewBox="0 0 162 162"><defs><style>.cls-1{fill:#fff;}</style></defs><title>gno_token copy 7</title><path class="cls-1" d="M121.9,70.64l10.4-10.4L81,8.93,29.7,60.24l10.4,10.4L29.7,81.05,40.06,91.4,29.7,101.76,81,153.07l51.3-51.31L121.94,91.4,132.3,81.05Zm-83-10.4L81,18.12l42.12,42.12-5.82,5.81L81,29.74,44.7,66.05ZM81,102.35,59.65,81,81,59.65,102.35,81Zm25.94-16.76,5.82,5.81L81,123.16,49.24,91.4l5.82-5.81,25.94,26ZM81,50.46,55.06,76.41l-5.77-5.77L81,38.93l31.71,31.71-5.77,5.77ZM38.88,81.05l5.82-5.82L50.46,81l-5.81,5.81Zm84.24,20.71L81,143.88,38.88,101.76,44.65,96,81,132.35,117.35,96ZM111.54,81l5.76-5.77,5.82,5.82-5.77,5.76Z"/></svg>