<svg xmlns="http://www.w3.org/2000/svg" viewBox="0 0 123.13 127.14"><defs><style>.a{fill:#1aaaad;}</style></defs><title>Asset 6</title><path class="a" d="M113.18,31.74l-4.58,4.59A23.09,23.09,0,0,1,81.45,70.55a21.7,21.7,0,0,1-4.78-2.3L61.75,83.17,48.56,70A23.68,23.68,0,0,1,13,42.44a22.08,22.08,0,0,1,2.68-5.16l-5.55-5.54L9,33.46A60.56,60.56,0,0,0,0,65.39a61.76,61.76,0,0,0,61.37,61.75h.19a61.61,61.61,0,0,0,61.57-61.37,60.56,60.56,0,0,0-9-31.93Z"/><path class="a" d="M22.75,44.16a13.23,13.23,0,0,0-2.68,7.65A12.41,12.41,0,0,0,32.5,64.24a12,12,0,0,0,7.65-2.68Z"/><path class="a" d="M84.31,60.61a12.56,12.56,0,0,0,19.51-10.33,12.81,12.81,0,0,0-2.11-7.07Z"/><path class="a" d="M62,73.8,11.09,22.94,13,20.84A65.84,65.84,0,0,1,61.18,0h.19a66.34,66.34,0,0,1,48.95,21.8l1.91,2.1Zm-42.45-51L62,65.39l41.87-41.87A60.37,60.37,0,0,0,61.18,5.74H61A60.41,60.41,0,0,0,19.5,22.75Z"/></svg>