<?xml version="1.0" encoding="UTF-8" standalone="no"?>
<svg
   xmlns:dc="http://purl.org/dc/elements/1.1/"
   xmlns:cc="http://creativecommons.org/ns#"
   xmlns:rdf="http://www.w3.org/1999/02/22-rdf-syntax-ns#"
   xmlns:svg="http://www.w3.org/2000/svg"
   xmlns="http://www.w3.org/2000/svg"
   height="127.14012"
   width="123.14033"
   id="Layer_1"
   data-name="Layer 1"
   viewBox="0 0 123.14033 127.14012"
   version="1.1">
  <metadata
     id="metadata21">
    <rdf:RDF>
      <cc:Work
         rdf:about="">
        <dc:format>image/svg+xml</dc:format>
        <dc:type
           rdf:resource="http://purl.org/dc/dcmitype/StillImage" />
        <dc:title>gno_token</dc:title>
      </cc:Work>
    </rdf:RDF>
  </metadata>
  <defs
     id="defs4">
    <style
       id="style2">.cls-1{fill:#1AAAAD;}.cls-2{fill:#fff;}</style>
  </defs>
  <title
     id="title6">gno_token</title>
  <path
     style="opacity:1;fill:#1aaaad;fill-opacity:1"
     class="cls-2"
     d="m 113.20016,31.740123 -4.62,4.59 a 22.78,22.78 0 0 1 2.3,20.26 23,23 0 0 1 -29.449996,14 22.16,22.16 0 0 1 -4.78,-2.3 l -14.88,14.88 -13.19,-13.2 a 23.67,23.67 0 0 1 -35.56,-27.53 22.06,22.06 0 0 1 2.67,-5.16 l -5.54,-5.54 -1.1499999,1.72 A 60.64,60.64 0 0 0 1.6405752e-4,65.390123 61.76,61.76 0 0 0 61.370164,127.14012 h 0.21 a 61.6,61.6 0 0 0 61.559996,-61.369997 60.64,60.64 0 0 0 -9,-31.93 z"
     id="path10" />
  <path
     style="fill:#1aaaad;fill-opacity:1"
     class="cls-2"
     d="m 22.770164,44.160123 a 13.23,13.23 0 0 0 -2.68,7.65 12.41,12.41 0 0 0 12.43,12.43 12,12 0 0 0 7.65,-2.68 z"
     id="path12" />
  <path
     style="fill:#1aaaad;fill-opacity:1"
     class="cls-2"
     d="m 84.330164,60.570123 a 12.55,12.55 0 0 0 19.499996,-10.33 12.8,12.8 0 0 0 -2.1,-7.07 z"
     id="path14" />
  <path
     style="fill:#1aaaad;fill-opacity:1"
     class="cls-2"
     d="m 61.960164,73.800123 -50.85,-50.86 1.91,-2.1 a 65.82,65.82 0 0 1 48.18,-20.84000032023 h 0.19 A 66.32,66.32 0 0 1 110.33016,21.800123 l 1.92,2.1 z m -42.44,-51 42.44,42.64 41.869996,-41.87 A 60.35,60.35 0 0 0 61.200164,5.7901227 h -0.19 a 60.41,60.41 0 0 0 -41.49,16.9600003 z"
     id="path16" />
</svg>
