<svg id="Layer_1" data-name="Layer 1" xmlns="http://www.w3.org/2000/svg" viewBox="0 0 162 162"><defs><style>.cls-1{fill:#1aaaad;}</style></defs><title>gno_token copy 2</title><path class="cls-1" d="M132.62,49.17,128,53.76A22.78,22.78,0,0,1,130.33,74a23,23,0,0,1-29.45,14,22.16,22.16,0,0,1-4.78-2.3L81.19,100.6,68,87.4A23.67,23.67,0,0,1,32.44,59.87a22.06,22.06,0,0,1,2.67-5.16l-5.54-5.54-1.15,1.72a60.64,60.64,0,0,0-9,31.93,61.76,61.76,0,0,0,61.37,61.75H81A61.6,61.6,0,0,0,142.56,83.2a60.64,60.64,0,0,0-9-31.93Z"/><path class="cls-1" d="M42.19,61.59a13.23,13.23,0,0,0-2.68,7.65A12.41,12.41,0,0,0,51.94,81.67,12,12,0,0,0,59.59,79Z"/><path class="cls-1" d="M103.75,78a12.55,12.55,0,0,0,19.5-10.33,12.8,12.8,0,0,0-2.1-7.07Z"/><path class="cls-1" d="M81.38,91.23,30.53,40.37l1.91-2.1A65.82,65.82,0,0,1,80.62,17.43h.19a66.32,66.32,0,0,1,48.94,21.8l1.92,2.1ZM38.94,40.18,81.38,82.82,123.25,41A60.35,60.35,0,0,0,80.62,23.17h-.19A60.41,60.41,0,0,0,38.94,40.18Z"/></svg>