<svg xmlns="http://www.w3.org/2000/svg" viewBox="0 0 196.48 196.48"><defs><style>.a,.b,.g{fill:none;}.a,.g{stroke:#000;stroke-miterlimit:10;}.a{stroke-width:1.2px;}.c{fill:#e6e7e8;}.d{fill:#3dbb7e;}.e{fill:#1aaaad;}.f{fill:#007bbc;}.g{stroke-width:3.93px;}</style></defs><title>Asset 5</title><line class="a" x1="69.21" y1="89.63" x2="41.73" y2="137.19"/><line class="a" x1="101.13" y1="140.05" x2="131.37" y2="102.87"/><line class="a" x1="26.69" y1="75.98" x2="69.21" y2="89.63"/><line class="a" x1="131.37" y1="102.87" x2="169.01" y2="112"/><line class="a" x1="163.74" y1="67.72" x2="131.37" y2="102.87"/><line class="a" x1="101.13" y1="140.05" x2="122.12" y2="169.82"/><line class="a" x1="69.21" y1="89.63" x2="101.13" y2="140.05"/><line class="a" x1="41.73" y1="137.19" x2="101.13" y2="140.05"/><line class="a" x1="108.35" y1="66.15" x2="131.37" y2="102.87"/><line class="a" x1="69.21" y1="32.55" x2="108.35" y2="66.15"/><line class="a" x1="129.53" y1="34.08" x2="108.35" y2="66.15"/><line class="a" x1="108.35" y1="66.15" x2="69.21" y2="89.63"/><line class="a" x1="69.21" y1="32.55" x2="69.21" y2="89.63"/><path class="b" d="M55.44,91.09l13.77,13.77L83,91.09,69.21,77.32Zm25.71,0L69.21,103,57.28,91.09,69.21,79.16Z"/><polygon class="b" points="82.98 32.96 75.52 25.5 74.61 26.42 81.15 32.96 69.21 44.9 62.67 38.35 61.75 39.27 69.21 46.73 82.98 32.96"/><path class="b" d="M101.13,126.28,87.36,140.05l13.77,13.77,13.77-13.77ZM89.2,140.05l11.93-11.94,11.94,11.94L101.13,152Z"/><polygon class="b" points="111.21 172.97 115.09 176.85 116.01 175.93 113.04 172.97 124.98 161.03 127.94 163.99 128.86 163.08 124.98 159.19 111.21 172.97"/><polygon class="b" points="40.63 126.12 35.65 131.11 36.57 132.02 40.63 127.96 52.57 139.89 48.5 143.96 49.42 144.88 54.4 139.89 40.63 126.12"/><polygon class="b" points="40.09 75.86 32.63 68.4 31.71 69.31 38.25 75.86 26.32 87.79 19.77 81.25 18.86 82.17 26.32 89.63 40.09 75.86"/><polygon class="b" points="165.63 78.78 169.93 74.47 169.01 73.56 165.63 76.94 153.69 65.01 157.08 61.62 156.16 60.7 151.86 65.01 165.63 78.78"/><path class="b" d="M131.37,116.64l13.78-13.77L131.37,89.1,117.6,102.87Zm0-25.71,11.94,11.94L131.37,114.8l-11.93-11.93Z"/><path class="b" d="M122.12,66.15,108.35,52.38,94.58,66.15l13.77,13.77Zm-25.71,0,11.94-11.94,11.93,11.94L108.35,78.08Z"/><polygon class="b" points="156.27 112.68 167.76 124.18 168.68 123.26 158.1 112.68 170.04 100.75 180.62 111.32 181.53 110.41 170.04 98.91 156.27 112.68"/><path class="c" d="M101.13,124.93,86,140.05l15.11,15.11,15.12-15.11ZM87.36,140.05l13.77-13.77,13.77,13.77-13.77,13.77Z"/><path class="c" d="M131.37,118l15.12-15.11L131.37,87.75l-15.11,15.12Zm13.78-15.11-13.78,13.77L117.6,102.87,131.37,89.1Z"/><path class="c" d="M54.1,91.09l15.11,15.12L84.33,91.09,69.21,76Zm15.11,13.77L55.44,91.09,69.21,77.32,83,91.09Z"/><path class="c" d="M123.46,66.15,108.35,51,93.23,66.15l15.12,15.11ZM108.35,52.38l13.77,13.77L108.35,79.92,94.58,66.15Z"/><polygon class="c" points="154.92 112.68 167.09 124.85 167.76 124.18 156.27 112.68 170.04 98.91 181.53 110.41 182.21 109.73 170.04 97.57 154.92 112.68"/><polygon class="c" points="109.86 172.97 114.42 177.52 115.09 176.85 111.21 172.97 124.98 159.19 128.86 163.08 129.53 162.4 124.98 157.85 109.86 172.97"/><polygon class="c" points="84.33 32.96 76.19 24.83 75.52 25.5 82.98 32.96 69.21 46.73 61.75 39.27 61.08 39.94 69.21 48.08 84.33 32.96"/><polygon class="c" points="165.63 80.12 170.6 75.15 169.93 74.47 165.63 78.78 151.86 65.01 156.16 60.7 155.49 60.03 150.51 65.01 165.63 80.12"/><polygon class="c" points="41.43 75.86 33.3 67.72 32.63 68.4 40.09 75.86 26.32 89.63 18.86 82.17 18.18 82.84 26.32 90.97 41.43 75.86"/><polygon class="c" points="40.63 124.78 34.98 130.43 35.65 131.11 40.63 126.12 54.4 139.89 49.42 144.88 50.09 145.55 55.75 139.89 40.63 124.78"/><rect class="d" x="92.69" y="131.61" width="16.88" height="16.88" transform="translate(-69.41 112.53) rotate(-45)"/><rect class="e" x="122.93" y="94.43" width="16.88" height="16.88" transform="translate(-34.26 123.02) rotate(-45)"/><rect class="e" x="60.77" y="82.65" width="16.88" height="16.88" transform="translate(-44.14 75.62) rotate(-45)"/><rect class="f" x="99.91" y="57.71" width="16.88" height="16.88" transform="translate(-15.04 95.99) rotate(-45)"/><rect class="f" x="160.92" y="104.52" width="16.88" height="14.96" transform="translate(-29.59 152.56) rotate(-45)"/><rect class="e" x="112.05" y="166.38" width="16.88" height="4.19" transform="translate(-83.84 134.54) rotate(-45)"/><rect class="d" x="63.47" y="31.03" width="16.88" height="9.26" transform="translate(-4.15 61.29) rotate(-45)"/><rect class="e" x="158.96" y="60.84" width="4.79" height="16.88" transform="translate(-1.73 134.39) rotate(-45)"/><rect class="f" x="20.57" y="73.93" width="16.88" height="9.26" transform="translate(-47.05 43.52) rotate(-45)"/><rect class="e" x="41.69" y="127.52" width="5.75" height="16.88" transform="translate(-83.08 71.34) rotate(-45)"/><rect class="g" x="30.74" y="30.74" width="135" height="135" transform="translate(-40.69 98.24) rotate(-45)"/></svg>