<svg xmlns="http://www.w3.org/2000/svg" viewBox="0 0 196.48 196.48"><defs><style>.a,.d,.f{fill:none;stroke-miterlimit:10;}.a{stroke:#000;stroke-width:3.93px;}.b{fill:#1aaaad;}.c{fill:#098bb7;}.d{stroke:#ededed;}.d,.f{stroke-width:1.14px;}.e{fill:#3dbb7e;}.f{stroke:#1aaaad;}</style></defs><title>Asset 6</title><rect class="a" x="30.74" y="30.74" width="135" height="135" transform="translate(-40.69 98.24) rotate(-45)"/><rect class="b" x="38.81" y="95.05" width="6.37" height="6.37" transform="translate(-57.17 58.47) rotate(-45)"/><rect class="b" x="66.93" y="98.73" width="6.37" height="55.27" transform="translate(-68.81 86.59) rotate(-45)"/><rect class="c" x="83.66" y="102.13" width="9.52" height="37.29" transform="translate(-59.5 97.9) rotate(-45)"/><rect class="c" x="72.41" y="77.31" width="19.31" height="9.52" transform="translate(-33.99 82.07) rotate(-45)"/><rect class="c" x="104.76" y="109.66" width="19.31" height="9.52" transform="translate(-47.39 114.41) rotate(-45)"/><rect class="c" x="103.13" y="56.89" width="9.52" height="37.29" transform="translate(-21.81 98.41) rotate(-45)"/><rect class="b" x="123.17" y="42.49" width="6.37" height="55.27" transform="translate(-12.57 109.89) rotate(-45)"/><rect class="b" x="98.73" y="123.17" width="55.27" height="6.37" transform="translate(-52.34 126.36) rotate(-45)"/><rect class="b" x="42.49" y="66.93" width="55.27" height="6.37" transform="translate(-29.04 70.12) rotate(-45)"/><rect class="c" x="61.13" y="93.48" width="9.52" height="9.52" transform="translate(-50.17 75.37) rotate(-45)"/><rect class="c" x="125.83" y="93.48" width="9.52" height="9.52" transform="translate(-31.22 121.11) rotate(-45)"/><rect class="b" x="151.29" y="95.05" width="6.37" height="6.37" transform="translate(-24.22 138.01) rotate(-45)"/><rect class="b" x="95.05" y="38.81" width="6.37" height="6.37" transform="translate(-0.92 81.77) rotate(-45)"/><rect class="b" x="95.05" y="151.29" width="6.37" height="6.37" transform="translate(-80.46 114.71) rotate(-45)"/><rect class="d" x="50.02" y="50.02" width="96.43" height="96.43" transform="translate(-40.69 98.24) rotate(-45)"/><rect class="d" x="66.92" y="66.92" width="62.64" height="62.64" transform="translate(-40.69 98.24) rotate(-45)"/><rect class="d" x="83.81" y="83.81" width="28.85" height="28.85" transform="translate(-40.69 98.24) rotate(-45)"/><rect class="e" x="88.59" y="88.59" width="19.31" height="19.31" transform="translate(-40.69 98.24) rotate(-45)"/><line class="f" x1="77.84" y1="98.24" x2="65.89" y2="110.19"/><line class="d" x1="98.24" y1="118.64" x2="110.19" y2="130.59"/><line class="d" x1="98.24" y1="142.54" x2="86.29" y2="154.48"/><line class="d" x1="53.94" y1="98.24" x2="42" y2="86.29"/><line class="d" x1="42" y1="110.19" x2="53.94" y2="98.24"/><line class="d" x1="98.24" y1="53.94" x2="86.29" y2="42"/><line class="d" x1="110.19" y1="42" x2="98.24" y2="53.94"/><line class="d" x1="110.19" y1="154.48" x2="98.24" y2="142.54"/><line class="d" x1="154.48" y1="110.19" x2="142.54" y2="98.24"/><line class="d" x1="154.48" y1="86.29" x2="142.54" y2="98.24"/><line class="f" x1="118.64" y1="98.24" x2="130.59" y2="86.29"/><line class="d" x1="77.84" y1="98.24" x2="65.89" y2="110.19"/><line class="d" x1="118.64" y1="98.24" x2="130.59" y2="86.29"/><line class="d" x1="98.24" y1="77.84" x2="86.29" y2="65.89"/><line class="d" x1="118.64" y1="98.24" x2="130.59" y2="110.19"/><line class="d" x1="77.84" y1="98.24" x2="65.89" y2="86.29"/></svg>