<svg xmlns="http://www.w3.org/2000/svg" viewBox="0 0 196.48 196.48"><defs><style>.a,.b,.f{fill:none;stroke-miterlimit:10;}.a,.f{stroke:#000;}.a{stroke-width:3.93px;}.b{stroke:#e6e7e8;stroke-width:0.95px;}.c{fill:#007bbc;}.d{fill:#1aaaad;}.e{fill:#3dbb7e;}.f{stroke-width:2.73px;}</style></defs><title>Asset 4</title><rect class="a" x="30.74" y="30.74" width="135" height="135" transform="translate(-40.69 98.24) rotate(-45)"/><rect class="b" x="51.92" y="106.08" width="20.43" height="20.43" transform="translate(-64.03 77.99) rotate(-45)"/><rect class="b" x="33.86" y="88.03" width="20.43" height="20.43" transform="translate(-56.56 59.94) rotate(-45)"/><rect class="b" x="69.97" y="124.14" width="20.43" height="20.43" transform="translate(-71.51 96.05) rotate(-45)"/><rect class="b" x="69.97" y="88.03" width="20.43" height="20.43" transform="translate(-45.98 85.47) rotate(-45)"/><rect class="b" x="51.92" y="69.97" width="20.43" height="20.43" transform="translate(-38.5 67.42) rotate(-45)"/><rect class="b" x="88.03" y="106.08" width="20.43" height="20.43" transform="translate(-53.46 103.53) rotate(-45)"/><rect class="b" x="69.97" y="51.92" width="20.43" height="20.43" transform="translate(-20.45 74.9) rotate(-45)"/><rect class="b" x="106.08" y="88.03" width="20.43" height="20.43" transform="translate(-35.4 111.01) rotate(-45)"/><rect class="b" x="88.03" y="69.97" width="20.43" height="20.43" transform="translate(-27.93 92.95) rotate(-45)"/><rect class="c" x="53.69" y="107.85" width="16.88" height="16.88" transform="translate(-64.03 77.99) rotate(-45)"/><path d="M44.08,88.75l9.49,9.49-9.49,9.49-9.49-9.49,9.49-9.49m0-2.45L32.14,98.24l11.94,11.94L56,98.24,44.08,86.3Z"/><path d="M80.19,124.86l9.48,9.49-9.48,9.49-9.49-9.49,9.49-9.49m0-2.45L68.25,134.35l11.94,11.94,11.93-11.94L80.19,122.41Z"/><rect class="d" x="71.74" y="89.8" width="16.88" height="16.88" transform="translate(-45.98 85.47) rotate(-45)"/><path d="M62.13,70.7l9.49,9.49-9.49,9.48-9.49-9.48,9.49-9.49m0-2.45L50.19,80.19,62.13,92.12,74.07,80.19,62.13,68.25Z"/><path d="M98.24,106.81l9.49,9.48-9.49,9.49-9.49-9.49,9.49-9.48m0-2.45L86.3,116.29l11.94,11.94,11.94-11.94L98.24,104.36Z"/><path d="M98.24,70.7l9.49,9.49-9.49,9.48-9.49-9.48,9.49-9.49m0-2.45L86.3,80.19,98.24,92.12l11.94-11.93L98.24,68.25Z"/><rect class="e" x="71.74" y="53.69" width="16.88" height="16.88" transform="translate(-20.45 74.9) rotate(-45)"/><rect class="c" x="107.85" y="89.8" width="16.88" height="16.88" transform="translate(-35.4 111.01) rotate(-45)"/><line class="f" x1="80.19" y1="98.24" x2="68.1" y2="86.15"/><line class="f" x1="80.19" y1="62.13" x2="92.27" y2="74.22"/><rect class="b" x="88.03" y="33.86" width="20.43" height="20.43" transform="translate(-2.39 82.38) rotate(-45)"/><rect class="b" x="124.14" y="69.97" width="20.43" height="20.43" transform="translate(-17.35 118.48) rotate(-45)"/><rect class="b" x="106.08" y="51.92" width="20.43" height="20.43" transform="translate(-9.87 100.43) rotate(-45)"/><path d="M116.29,52.64l9.49,9.49-9.49,9.49-9.48-9.49,9.48-9.49m0-2.45L104.36,62.13l11.93,11.94,11.94-11.94L116.29,50.19Z"/><rect class="d" x="89.8" y="35.64" width="16.88" height="16.88" transform="translate(-2.39 82.38) rotate(-45)"/><rect class="d" x="125.91" y="71.74" width="16.88" height="16.88" transform="translate(-17.35 118.48) rotate(-45)"/><rect class="b" x="88.03" y="142.19" width="20.43" height="20.43" transform="translate(-78.99 114.1) rotate(-45)"/><rect class="b" x="106.08" y="124.14" width="20.43" height="20.43" transform="translate(-60.94 121.58) rotate(-45)"/><rect class="b" x="124.14" y="106.08" width="20.43" height="20.43" transform="translate(-42.88 129.06) rotate(-45)"/><path d="M98.24,142.91l9.49,9.49-9.49,9.49-9.49-9.49,9.49-9.49m0-2.44L86.3,152.4l11.94,11.94,11.94-11.94L98.24,140.47Z"/><rect class="c" x="107.85" y="125.91" width="16.88" height="16.88" transform="translate(-60.94 121.58) rotate(-45)"/><rect class="e" x="125.91" y="107.85" width="16.88" height="16.88" transform="translate(-42.88 129.06) rotate(-45)"/><rect class="b" x="142.19" y="88.03" width="20.43" height="20.43" transform="translate(-24.83 136.54) rotate(-45)"/><path d="M152.4,88.75l9.49,9.49-9.49,9.49-9.49-9.49,9.49-9.49m0-2.45L140.47,98.24l11.93,11.94,11.94-11.94L152.4,86.3Z"/><line class="f" x1="98.24" y1="44.08" x2="110.33" y2="56.16"/><line class="f" x1="134.35" y1="80.19" x2="146.44" y2="92.27"/><line class="f" x1="116.29" y1="98.24" x2="104.21" y2="110.33"/><line class="f" x1="116.29" y1="134.35" x2="104.21" y2="146.44"/><line class="f" x1="74.22" y1="128.38" x2="62.13" y2="116.29"/></svg>