<svg id="Layer_1" data-name="Layer 1" xmlns="http://www.w3.org/2000/svg" viewBox="0 0 162 162"><defs><style>.cls-1{fill:#007bbc;}</style></defs><title>gno_token copy 5</title><path class="cls-1" d="M56.81,90.59c4.13-5.08,8.39-10,13-14.71.32-.33.6-.71.93-1.11a8.39,8.39,0,0,0-.68-1.27c-1.41-1.82-2.75-3.7-4.3-5.39A131.1,131.1,0,0,0,48.48,52.42Q39.8,45.85,30.54,40.13c-3.5-2.17-7-4.25-11-6.6v2.33q0,24,0,48c0,3.65-.27,7.32.31,11,.34,2.09.52,4.2.94,6.27A55.76,55.76,0,0,0,28,118.91a59,59,0,0,0,6.36,8.46c.36-.75.69-1.36,1-2a129.33,129.33,0,0,1,8.19-15.87A168,168,0,0,1,56.81,90.59Z"/><path class="cls-1" d="M81,69.59c6.5-7,12.44-14.16,19.53-20.38-1.1-6.67-4-12.43-7.52-17.92a100.09,100.09,0,0,0-10.81-14c-.34-.37-.73-.72-1.2-1.17-.47.45-.86.8-1.2,1.17A100.09,100.09,0,0,0,69,31.29c-3.53,5.49-6.42,11.25-7.52,17.92C68.56,55.43,74.5,62.62,81,69.59Z"/><path class="cls-1" d="M107.74,112.36A161.06,161.06,0,0,0,97.11,97.59c-2.44-3-5-5.94-7.64-8.82S84,82.92,81.23,80c0,0-.1,0-.23-.07s-.2,0-.23.07c-2.75,2.91-5.55,5.79-8.24,8.76s-5.2,5.79-7.64,8.82a159.18,159.18,0,0,0-10.63,14.77,126.35,126.35,0,0,0-10.4,20.07c-.33.81-.61,1.64-.92,2.46.24.23.39.41.57.55A57.09,57.09,0,0,0,55.61,142a53.72,53.72,0,0,0,19.1,3.84H87.29A53.62,53.62,0,0,0,106.38,142a56.92,56.92,0,0,0,12.11-6.55c.18-.14.33-.32.57-.55-.31-.82-.59-1.65-.92-2.46A126.35,126.35,0,0,0,107.74,112.36Z"/><path class="cls-1" d="M142.41,83.88q0-24,0-48V33.53c-3.91,2.35-7.46,4.43-11,6.6q-9.25,5.74-17.94,12.29A131.1,131.1,0,0,0,96.25,68.11C94.7,69.8,93.36,71.68,92,73.5a8.39,8.39,0,0,0-.68,1.27c.33.4.61.78.93,1.11,4.6,4.67,8.86,9.63,13,14.71a168,168,0,0,1,13.34,18.92,129.33,129.33,0,0,1,8.19,15.87c.27.63.6,1.24,1,2a59,59,0,0,0,6.36-8.46,55.76,55.76,0,0,0,7.12-17.8c.42-2.07.6-4.18.94-6.27C142.68,91.2,142.4,87.53,142.41,83.88Z"/></svg>