<svg xmlns="http://www.w3.org/2000/svg" viewBox="0 0 122.93 129.67"><defs><style>.a{fill:#007bbc;}</style></defs><title>Asset 9</title><path class="a" d="M37.28,74.43c4.13-5.09,8.39-10,13-14.72.33-.33.6-.7.94-1.11a8.39,8.39,0,0,0-.68-1.27c-1.41-1.81-2.75-3.7-4.3-5.38A131.1,131.1,0,0,0,29,36.26Q20.27,29.69,11,24c-3.5-2.17-7-4.25-11-6.6V19.7q0,24,0,48c0,3.65-.27,7.31.31,11,.33,2.09.52,4.21.94,6.27a55.93,55.93,0,0,0,7.11,17.81,59.78,59.78,0,0,0,6.37,8.45c.36-.74.68-1.35,1-2a126.56,126.56,0,0,1,8.19-15.87A168,168,0,0,1,37.28,74.43Z"/><path class="a" d="M61.47,53.42C68,46.46,73.91,39.27,81,33.05c-1.1-6.67-4-12.43-7.51-17.92a100.18,100.18,0,0,0-10.81-14C62.32.79,61.94.45,61.47,0c-.48.45-.86.79-1.2,1.16a98.69,98.69,0,0,0-10.81,14C45.92,20.62,43,26.38,41.94,33.05,49,39.27,55,46.46,61.47,53.42Z"/><path class="a" d="M88.2,96.2A156,156,0,0,0,77.57,81.43c-2.44-3-5-5.94-7.64-8.83s-5.48-5.84-8.23-8.75c0,0-.1,0-.23-.07a.69.69,0,0,0-.24.07c-2.75,2.91-5.54,5.78-8.23,8.75s-5.2,5.8-7.64,8.83A157.85,157.85,0,0,0,34.73,96.2a125.11,125.11,0,0,0-10.4,20.07c-.33.81-.62,1.63-.92,2.46a4.53,4.53,0,0,0,.57.54,57.13,57.13,0,0,0,12.1,6.56,53.71,53.71,0,0,0,19.1,3.83H67.75a53.62,53.62,0,0,0,19.1-3.83A56.65,56.65,0,0,0,99,119.27a5.31,5.31,0,0,0,.58-.54c-.31-.83-.6-1.65-.92-2.46A126,126,0,0,0,88.2,96.2Z"/><path class="a" d="M122.88,67.72q0-24,0-48V17.37c-3.91,2.35-7.47,4.43-11,6.6Q102.68,29.72,94,36.26A130.47,130.47,0,0,0,76.72,52c-1.56,1.68-2.89,3.57-4.3,5.38a8.39,8.39,0,0,0-.68,1.27c.33.41.61.78.93,1.11,4.59,4.68,8.86,9.63,13,14.72A169.24,169.24,0,0,1,99,93.35a127.91,127.91,0,0,1,8.19,15.87c.27.63.59,1.24,1,2a59,59,0,0,0,6.37-8.45,55.7,55.7,0,0,0,7.11-17.81c.43-2.06.61-4.18.94-6.27C123.14,75,122.87,71.37,122.88,67.72Z"/></svg>