<svg xmlns="http://www.w3.org/2000/svg" xmlns:xlink="http://www.w3.org/1999/xlink" viewBox="0 0 1064.7 392.4"><defs><style>.a{fill:none;}.b{fill:#1f5e3f;}.c{fill:#38aa73;}.d{fill:#0e0f0f;}.e{fill:#161817;}.f{fill:#383a39;}.g{fill:#004569;}.h{fill:#015377;}.i{clip-path:url(#a);}.j{isolation:isolate;}.k{fill:#0070ab;}.l{fill:#083f3f;}.m{clip-path:url(#b);}.n{fill:#0d5657;}.o{fill:#189a9d;}.p{fill:#257678;}.q{clip-path:url(#c);}.r{fill:#42ced1;}.s{fill:#fff;}.t{fill:url(#d);}.u{fill:url(#e);}.v{opacity:0.5;}</style><clipPath id="a"><path class="a" d="M709.4,170.6v57.6a82.29,82.29,0,0,1-8.7,36.4V207A81.27,81.27,0,0,0,709.4,170.6Z"/></clipPath><clipPath id="b"><path class="a" d="M700.7,186.8v76.8c-9.2,18.6-25.2,35.2-46,48.4V235.2C675.6,221.9,691.6,205.4,700.7,186.8Z"/></clipPath><clipPath id="c"><path class="a" d="M654.7,292.9v19.2c-31.7,20-74.6,32.3-121.8,32.3-97.5,0-176.5-52.4-176.5-117.1V208.1c0,64.7,79,117.1,176.5,117.1C580.1,325.2,623,313,654.7,292.9Z"/></clipPath><linearGradient id="d" x1="585.48" y1="99.85" x2="730.1" y2="99.85" gradientTransform="matrix(1, 0, 0, -1, 0, 404.6)" gradientUnits="userSpaceOnUse"><stop offset="0" stop-color="#fff"/><stop offset="1" stop-color="#fff" stop-opacity="0"/></linearGradient><linearGradient id="e" x1="335.7" y1="99.85" x2="480.32" y2="99.85" gradientTransform="matrix(1, 0, 0, -1, 0, 404.6)" gradientUnits="userSpaceOnUse"><stop offset="0" stop-color="#fff" stop-opacity="0"/><stop offset="1" stop-color="#fff"/></linearGradient></defs><title>Asset 12</title><polygon class="b" points="532.9 190.3 532.9 209.5 411.8 124.4 411.8 105.1 532.9 190.3"/><path class="c" d="M510.9,74.1l22,116.2L411.8,105.1C438.4,88.5,472.8,77.3,510.9,74.1Z"/><polygon class="d" points="535.9 34.8 535.9 73.2 534.3 134.7 534.3 96.3 535.9 34.8"/><polygon class="e" points="522.5 96.7 510.9 35.7 510.9 74.1 522.5 135.2 532.9 190.3 532.9 151.9 522.5 96.7"/><polygon class="d" points="534.3 96.3 534.3 134.7 532.9 190.3 532.9 151.9 534.3 96.3"/><path class="f" d="M532.9,34.8h2.9l-1.5,61.5-1.4,55.6L522.5,96.8l-11.6-61C518.1,35.1,525.5,34.8,532.9,34.8Z"/><polygon class="g" points="612.6 187.8 612.6 245.5 532.9 228.2 532.9 170.6 612.6 187.8"/><polygon class="g" points="700.7 207 700.7 264.6 612.6 245.5 612.6 187.8 700.7 207"/><path class="h" d="M709.4,170.6v57.6a82.29,82.29,0,0,1-8.7,36.4V207A81.27,81.27,0,0,0,709.4,170.6Z"/><g class="i"><g class="j"><path class="h" d="M709.4,170.6v0"/><path class="h" d="M709.4,173.3v57.6a79.75,79.75,0,0,1-4,22.2V195.5a79.1,79.1,0,0,0,4-22.2"/><path class="h" d="M705.4,195.5v57.6a80.45,80.45,0,0,1-4.7,11.4V206.9a80.45,80.45,0,0,0,4.7-11.4"/></g></g><path class="k" d="M535.9,53.5c96.1,1,173.6,53.1,173.6,117.1a82.29,82.29,0,0,1-8.7,36.4l-88.2-19.1L533,170.6l1.4-55.6Z"/><path class="l" d="M700.7,186.8v76.8c-9.2,18.6-25.2,35.2-46,48.4V235.2C675.6,221.9,691.6,205.4,700.7,186.8Z"/><g class="m"><g class="j"><path class="l" d="M700.7,186.8v76.8a107.81,107.81,0,0,1-17.1,24.6V211.4a104.75,104.75,0,0,0,17.1-24.6"/><path class="l" d="M683.6,211.4v76.8A139.68,139.68,0,0,1,663,306.3V229.5a140.37,140.37,0,0,0,20.6-18.1"/><path class="l" d="M663.1,229.5v76.8q-4.05,2.85-8.4,5.7V235.2q4.35-2.85,8.4-5.7"/></g></g><polygon class="n" points="654.7 235.1 654.7 312 532.9 227.2 532.9 150.4 654.7 235.1"/><path class="o" d="M532.9,150.4l167.8,36.4c-9.2,18.6-25.2,35.2-46,48.4Z"/><path class="p" d="M654.7,292.9v19.2c-31.7,20-74.6,32.3-121.8,32.3-97.5,0-176.5-52.4-176.5-117.1V208.1c0,64.7,79,117.1,176.5,117.1C580.1,325.2,623,313,654.7,292.9Z"/><g class="q"><g class="j"><path class="p" d="M654.7,292.9v19.2a189.21,189.21,0,0,1-38.1,18.3V311.3a195,195,0,0,0,38.1-18.4"/><path class="p" d="M616.6,311.3v19.2a225.77,225.77,0,0,1-30.9,8.6V319.9a225.77,225.77,0,0,0,30.9-8.6"/><path class="p" d="M585.7,319.9v19.2a262.45,262.45,0,0,1-28.8,4.3V324.2a255.42,255.42,0,0,0,28.8-4.3"/><path class="p" d="M557,324.2v19.2c-7.9.7-15.9,1.1-24.1,1.1-2,0-4,0-6.1-.1V325.2c2,0,4,.1,6.1.1,8.2-.1,16.2-.4,24.1-1.1"/><path class="p" d="M526.9,325.2v19.2a265.34,265.34,0,0,1-33.9-3V322.2a263.73,263.73,0,0,0,33.9,3"/><path class="p" d="M492.9,322.2v19.2c-78.2-12-136.5-58.5-136.5-114.1V208.1c0,55.6,58.3,102.1,136.5,114.1"/></g></g><path class="r" d="M411.8,123l121.1,85.2L654.7,293c-31.7,20-74.6,32.3-121.8,32.3-97.5,0-176.5-52.4-176.5-117.1C356.4,174.6,377.7,144.3,411.8,123Z"/><path class="s" d="M496.8,380.5V364.8l-3.6,3.2v-3l3.6-3.1h2.7v18.7h-2.7Z"/><path class="s" d="M518.2,380.5V368l-4.3,9.1h-2.1l-4.4-9.1v12.5h-2.8V361.8h2.8l5.4,11.6,5.3-11.6h2.8v18.7Z"/><path class="s" d="M538.6,380.5l-3.9-7.9h-3.5v7.9h-2.9V361.8h7.2c3.5,0,5.8,2.3,5.8,5.4a5,5,0,0,1-3.7,5l4.3,8.3Zm-3.3-16.1h-4.2v5.8h4.2c1.9,0,3.2-1,3.2-2.9S537.2,364.4,535.3,364.4Z"/><path class="s" d="M543.5,380.5V361.8h11.9v2.5h-9.1v5.4h7.8v2.5h-7.8v5.6h9.1v2.5H543.5Z"/><path class="s" d="M564.4,373.1h-4.2v7.4h-2.9V361.8h7.1c3.6,0,6,2.4,6,5.7S568,373.1,564.4,373.1Zm-.2-8.7h-4.1v6.2h4.1c2,0,3.3-1.1,3.3-3.1S566.2,364.4,564.2,364.4Z"/><path class="t" d="M586.5,370.5a1,1,0,0,1-1-.8,1,1,0,0,1,.8-1.2c40.1-7.8,76.2-24.6,101.7-47.4,26.2-23.5,40.1-51.5,40.1-81.1a1,1,0,0,1,2,0c0,30.2-14.1,58.8-40.8,82.6-25.8,23-62.2,40-102.7,47.9C586.6,370.4,586.6,370.5,586.5,370.5Z"/><path class="u" d="M479.4,370.5h-.2c-40.4-7.9-76.9-24.9-102.7-47.9-26.7-23.9-40.8-52.4-40.8-82.6a1,1,0,0,1,2,0c0,29.6,13.9,57.7,40.1,81.1,25.5,22.8,61.6,39.6,101.7,47.4a1,1,0,0,1,.8,1.2A1,1,0,0,1,479.4,370.5Z"/><path class="s" d="M525.5,63.7h0L301.1,39.1a.75.75,0,1,1,.1-1.5L525.6,62.2a.77.77,0,0,1,.7.8A.85.85,0,0,1,525.5,63.7Z"/><path class="s" d="M525.1,65.7a2.8,2.8,0,0,0,3.1-2.5,2.75,2.75,0,0,0-2.5-3.1,2.8,2.8,0,0,0-3.1,2.5A2.75,2.75,0,0,0,525.1,65.7Z"/><path class="s" d="M301.1,181.6a.75.75,0,0,1-.7-.5.73.73,0,0,1,.4-1l172.3-74.5a.76.76,0,0,1,.6,1.4L301.4,181.5A.37.37,0,0,1,301.1,181.6Z"/><path class="s" d="M474.5,109a2.82,2.82,0,1,0-3.7-1.5A2.83,2.83,0,0,0,474.5,109Z"/><path class="s" d="M301.1,346.6a.75.75,0,0,1-.7-.4.69.69,0,0,1,.3-1l130.6-74.4a.74.74,0,0,1,.7,1.3L301.5,346.5C301.4,346.6,301.3,346.6,301.1,346.6Z"/><path class="s" d="M432.9,274a2.8,2.8,0,1,0-3.8-1.1A2.72,2.72,0,0,0,432.9,274Z"/><g class="v"><path class="s" d="M798.9,69.5c-4.6,0-8.5-2.5-8.7-7.8h3c.2,3.7,2.9,5.2,5.7,5.2a5.43,5.43,0,0,0,5.7-5.8c0-3.6-1.8-5.8-5.8-5.8h-.6V52.7h.6c3.7,0,5.3-2,5.3-5.4s-2.3-5.4-5.2-5.4c-3.2,0-5,1.9-5.3,5h-3c.3-4.8,3.8-7.6,8.3-7.6,4.8,0,8.2,3.2,8.2,8.1,0,3.2-1.3,5.4-4,6.6,3,1.1,4.5,3.5,4.5,7.3C807.6,66.6,803.7,69.5,798.9,69.5Z"/><path class="s" d="M827.1,61.3a8.1,8.1,0,1,1-16.2,0V47.5a8.1,8.1,0,1,1,16.2,0Zm-3-13.7c0-3.3-1.8-5.7-5.1-5.7s-5.1,2.4-5.1,5.7V61.1c0,3.3,1.8,5.7,5.1,5.7s5.1-2.4,5.1-5.7Z"/><path class="s" d="M841.8,49.3a5.6,5.6,0,1,1-11.2,0V44.9a5.6,5.6,0,1,1,11.2,0ZM839.3,45c0-2.3-.9-3.6-3.2-3.6s-3.3,1.3-3.3,3.6v4.2c0,2.3.9,3.6,3.3,3.6s3.2-1.3,3.2-3.6Zm.2,24.2H837l13.9-29.7h2.5Zm20.4-5.3a5.6,5.6,0,0,1-11.2,0V59.5a5.6,5.6,0,0,1,11.2,0Zm-2.5-4.3c0-2.3-.9-3.6-3.2-3.6s-3.3,1.3-3.3,3.6v4.2c0,2.3.9,3.6,3.3,3.6s3.2-1.3,3.2-3.6Z"/></g><path class="s" d="M799.6,100l-1-2.9H793l-1,2.9h-1.5l4.7-12.8h1.2l4.7,12.8Zm-3.8-10.9-2.4,6.8h4.8Z"/><path class="s" d="M808.5,100V94.5c0-1.6-.8-2.4-2.2-2.4s-2.2.8-2.2,2.4V100h-1.3V91.1h1.3v1a3.25,3.25,0,0,1,2.5-1.1,3.37,3.37,0,0,1,2.3.8,3.33,3.33,0,0,1,.9,2.5V100Z"/><path class="s" d="M815.2,102.1a2.89,2.89,0,0,1-.6,1,2.24,2.24,0,0,1-1.7.6h-.6v-1.2h.4c.9,0,1.2-.3,1.5-1.1l.6-1.7L811.6,91H813l2.4,7.1,2.4-7.1h1.4Z"/><path class="s" d="M828,100a2.23,2.23,0,0,1-2.3-2.4V92.1h-1.1v-1h1.1V88.4H827v2.7h1.9v1H827v5.5c0,.8.4,1.3,1.2,1.3h.7V100Z"/><path class="s" d="M837.2,99.1a3.63,3.63,0,0,1-5,0,6.12,6.12,0,0,1,0-7,3.63,3.63,0,0,1,5,0,4.77,4.77,0,0,1,1.1,3.5A5.24,5.24,0,0,1,837.2,99.1Zm-1-6.3a2.43,2.43,0,0,0-3.2,0,5.56,5.56,0,0,0,0,5.4,2.43,2.43,0,0,0,3.2,0,4.07,4.07,0,0,0,.7-2.7A3.7,3.7,0,0,0,836.2,92.8Z"/><path class="s" d="M846.8,100,844,95.5l-1.7,2v2.6H841V87.3h1.3v8.6l4-4.6h1.6l-3,3.4,3.5,5.5h-1.6Z"/><path class="s" d="M850.7,95.9c0,1.9.9,3.1,2.6,3.1a2.9,2.9,0,0,0,2.3-1l.9.8a4,4,0,0,1-3.2,1.4c-2.4,0-3.9-1.4-3.9-4.5,0-2.9,1.4-4.5,3.6-4.5s3.6,1.6,3.6,4.3v.6h-5.9Zm4.7-1a5.67,5.67,0,0,0-.3-1.5,2.35,2.35,0,0,0-4.2,0,5.67,5.67,0,0,0-.3,1.5Z"/><path class="s" d="M865.1,100V94.5c0-1.6-.8-2.4-2.2-2.4s-2.2.8-2.2,2.4V100h-1.3V91.1h1.3v1a3.25,3.25,0,0,1,2.5-1.1,3.37,3.37,0,0,1,2.3.8,3.33,3.33,0,0,1,.9,2.5V100Z"/><path class="s" d="M879.1,100v-.8a3.25,3.25,0,0,1-2.6,1,3.15,3.15,0,0,1-2.5-.8,2.27,2.27,0,0,1-.7-1.8c0-1.6,1.1-2.6,3.1-2.6H879v-.8c0-1.3-.6-1.9-2.3-1.9a2.35,2.35,0,0,0-2.2,1l-.9-.8a3.48,3.48,0,0,1,3.1-1.3c2.4,0,3.5,1,3.5,3v6h-1.1Zm0-4.1h-2.5c-1.3,0-2,.5-2,1.6s.6,1.5,2.1,1.5a3,3,0,0,0,2-.6,2.07,2.07,0,0,0,.5-1.5v-1Z"/><path class="s" d="M886.5,100h-1.2l-3.2-8.9h1.4l2.4,7.1,2.4-7.1h1.4Z"/><path class="s" d="M896.6,100v-.8a3.25,3.25,0,0,1-2.6,1,3.15,3.15,0,0,1-2.5-.8,2.27,2.27,0,0,1-.7-1.8c0-1.6,1.1-2.6,3.1-2.6h2.6v-.8c0-1.3-.6-1.9-2.3-1.9a2.35,2.35,0,0,0-2.2,1l-.9-.8a3.48,3.48,0,0,1,3.1-1.3c2.4,0,3.5,1,3.5,3v6h-1.1Zm0-4.1h-2.5c-1.3,0-2,.5-2,1.6s.6,1.5,2.1,1.5a3,3,0,0,0,2-.6,2.07,2.07,0,0,0,.5-1.5v-1Z"/><path class="s" d="M901,88.6V87.1h1.5v1.5Zm.1,11.4V91.1h1.3V100Z"/><path class="s" d="M907.8,100a2.13,2.13,0,0,1-2.3-2.4V87.1h1.3V97.5c0,.9.3,1.3,1.2,1.3h.7v1.1h-.9Z"/><path class="s" d="M915.9,100v-.8a3.25,3.25,0,0,1-2.6,1,3.15,3.15,0,0,1-2.5-.8,2.27,2.27,0,0,1-.7-1.8c0-1.6,1.1-2.6,3.1-2.6h2.6v-.8c0-1.3-.6-1.9-2.3-1.9a2.35,2.35,0,0,0-2.2,1l-.9-.8a3.48,3.48,0,0,1,3.1-1.3c2.4,0,3.5,1,3.5,3v6h-1.1Zm0-4.1h-2.5c-1.3,0-2,.5-2,1.6s.6,1.5,2.1,1.5a3,3,0,0,0,2-.6,2.07,2.07,0,0,0,.5-1.5v-1Z"/><path class="s" d="M926.3,99.3a3,3,0,0,1-2.2.8,2.67,2.67,0,0,1-2.5-1.2V100h-1.3V87.2h1.3v5a2.81,2.81,0,0,1,2.5-1.1,3.11,3.11,0,0,1,2.2.8,5.23,5.23,0,0,1,1.1,3.8A4.74,4.74,0,0,1,926.3,99.3Zm-2.4-7.1c-1.9,0-2.2,1.7-2.2,3.4s.3,3.4,2.2,3.4,2.2-1.7,2.2-3.4S925.8,92.2,923.9,92.2Z"/><path class="s" d="M932.4,100a2.13,2.13,0,0,1-2.3-2.4V87.1h1.3V97.5c0,.9.3,1.3,1.2,1.3h.7v1.1h-.9Z"/><path class="s" d="M936.3,95.9c0,1.9.9,3.1,2.6,3.1a2.9,2.9,0,0,0,2.3-1l.9.8a4,4,0,0,1-3.2,1.4c-2.4,0-3.9-1.4-3.9-4.5,0-2.9,1.4-4.5,3.6-4.5s3.6,1.6,3.6,4.3v.6h-5.9Zm4.7-1a5.67,5.67,0,0,0-.3-1.5,2.35,2.35,0,0,0-4.2,0,5.67,5.67,0,0,0-.3,1.5Z"/><path class="s" d="M955.2,99.1a3.55,3.55,0,0,1-2.5,1,3.38,3.38,0,0,1-2.5-1,6.12,6.12,0,0,1,0-7,3.55,3.55,0,0,1,2.5-1,3.38,3.38,0,0,1,2.5,1,4.77,4.77,0,0,1,1.1,3.5A5.24,5.24,0,0,1,955.2,99.1Zm-1-6.3a2.43,2.43,0,0,0-3.2,0,5.56,5.56,0,0,0,0,5.4,2.43,2.43,0,0,0,3.2,0,4.07,4.07,0,0,0,.7-2.7A3.7,3.7,0,0,0,954.2,92.8Z"/><path class="s" d="M964.7,100V94.5c0-1.6-.8-2.4-2.2-2.4s-2.2.8-2.2,2.4V100H959V91.1h1.3v1a3.25,3.25,0,0,1,2.5-1.1,3.37,3.37,0,0,1,2.3.8,3.33,3.33,0,0,1,.9,2.5V100Z"/><path class="s" d="M976.1,100a2.23,2.23,0,0,1-2.3-2.4V92.1h-1.1v-1h1.1V88.4h1.3v2.7H977v1h-1.9v5.5c0,.8.4,1.3,1.2,1.3h.7V100Z"/><path class="s" d="M985.3,100V94.5c0-1.6-.8-2.3-2.2-2.3a2,2,0,0,0-2.2,2.3V100h-1.3V87.2h1.3v4.9a3.25,3.25,0,0,1,2.5-1.1,3,3,0,0,1,3.2,3.3V100Z"/><path class="s" d="M990.5,95.9c0,1.9.9,3.1,2.6,3.1a2.9,2.9,0,0,0,2.3-1l.9.8a4,4,0,0,1-3.2,1.4c-2.4,0-3.9-1.4-3.9-4.5,0-2.9,1.4-4.5,3.6-4.5s3.6,1.6,3.6,4.3v.6h-5.9Zm4.7-1a5.67,5.67,0,0,0-.3-1.5,2.35,2.35,0,0,0-4.2,0,5.67,5.67,0,0,0-.3,1.5Z"/><path class="s" d="M1011.7,98.7a4.44,4.44,0,0,1-3.4,1.4h-4.4V87.3h4.4a4.25,4.25,0,0,1,3.4,1.4c1.1,1.2,1.1,3.1,1.1,5.1C1012.9,95.5,1012.9,97.5,1011.7,98.7Zm-1.1-9.4a3.11,3.11,0,0,0-2.5-.9h-2.8V98.8h2.8a3.11,3.11,0,0,0,2.5-.9c.8-.9.8-2.5.8-4.2S1011.5,90.2,1010.6,89.3Z"/><path class="s" d="M1021.4,100V99a3.25,3.25,0,0,1-2.5,1.1,3.37,3.37,0,0,1-2.3-.8,3.49,3.49,0,0,1-.9-2.5V91.1h1.3v5.5c0,1.6.8,2.4,2.2,2.4s2.2-.8,2.2-2.4V91.1h1.3V100Z"/><path class="s" d="M1028.4,100a2.23,2.23,0,0,1-2.3-2.4V92.1H1025v-1h1.1V88.4h1.3v2.7h1.9v1h-1.9v5.5c0,.8.4,1.3,1.2,1.3h.7V100Z"/><path class="s" d="M1038.3,98.8a3.44,3.44,0,0,1-2.9,1.3c-2.2,0-3.9-1.5-3.9-4.5s1.7-4.5,3.9-4.5a3.44,3.44,0,0,1,2.9,1.3l-.9.8a2.6,2.6,0,0,0-2-1,2.39,2.39,0,0,0-2.1,1,3.84,3.84,0,0,0-.6,2.4,4,4,0,0,0,.6,2.4,2.39,2.39,0,0,0,2.1,1,2.46,2.46,0,0,0,2-1Z"/><path class="s" d="M1046.4,100V94.5c0-1.6-.8-2.3-2.2-2.3a2,2,0,0,0-2.2,2.3V100h-1.3V87.2h1.3v4.9a3.25,3.25,0,0,1,2.5-1.1,3,3,0,0,1,3.2,3.3V100Z"/><path class="s" d="M1057.3,100l-3.1-5.4-3.1,5.4h-1.5l3.9-6.6-3.7-6.2h1.6l2.8,5.1,2.8-5.1h1.6l-3.7,6.2,4,6.6Z"/><path class="s" d="M803.2,120v-5.5c0-1.6-.8-2.4-2.2-2.4a2,2,0,0,0-2.2,2.2v5.6h-1.3v-5.5c0-1.6-.8-2.4-2.2-2.4s-2.2.8-2.2,2.4v5.5h-1.3V111h1.3v1a3.25,3.25,0,0,1,2.5-1.1,2.84,2.84,0,0,1,2.7,1.5,3.33,3.33,0,0,1,6.2,1.8v5.7h-1.3Z"/><path class="s" d="M812.7,120v-.8a3.25,3.25,0,0,1-2.6,1,3.15,3.15,0,0,1-2.5-.8,2.27,2.27,0,0,1-.7-1.8c0-1.6,1.1-2.6,3.1-2.6h2.6v-.8c0-1.3-.6-1.9-2.3-1.9a2.35,2.35,0,0,0-2.2,1l-.9-.8a3.48,3.48,0,0,1,3.1-1.3c2.4,0,3.5,1,3.5,3v6h-1.1Zm0-4.1h-2.5c-1.3,0-2,.5-2,1.6s.6,1.5,2.1,1.5a3,3,0,0,0,2-.6,2.07,2.07,0,0,0,.5-1.5v-1Z"/><path class="s" d="M819.3,122.2a2.89,2.89,0,0,1-.6,1,2.24,2.24,0,0,1-1.7.6h-.6v-1.2h.4c.9,0,1.2-.3,1.5-1.1l.6-1.7-3.2-8.7h1.4l2.4,7.1,2.4-7.1h1.4Z"/><path class="s" d="M835.6,119.4a3,3,0,0,1-2.2.8,2.67,2.67,0,0,1-2.5-1.2v1.1h-1.3V107.3h1.3v5a2.81,2.81,0,0,1,2.5-1.1,3.11,3.11,0,0,1,2.2.8,5.23,5.23,0,0,1,1.1,3.8A4.87,4.87,0,0,1,835.6,119.4Zm-2.4-7.2c-1.9,0-2.2,1.7-2.2,3.4s.3,3.4,2.2,3.4,2.2-1.7,2.2-3.4S835.1,112.2,833.2,112.2Z"/><path class="s" d="M840.3,115.9c0,1.9.9,3.1,2.6,3.1a2.9,2.9,0,0,0,2.3-1l.9.8a4,4,0,0,1-3.2,1.4c-2.4,0-3.9-1.4-3.9-4.5,0-2.9,1.4-4.5,3.6-4.5s3.6,1.6,3.6,4.3v.6h-5.9Zm4.7-.9a5.67,5.67,0,0,0-.3-1.5,2.35,2.35,0,0,0-4.2,0,5.67,5.67,0,0,0-.3,1.5Z"/><path class="s" d="M855.7,120a2.13,2.13,0,0,1-2.3-2.4V107.1h1.3v10.4c0,.9.3,1.3,1.2,1.3h.7v1.1h-.9Z"/><path class="s" d="M864.5,119.1a3.63,3.63,0,0,1-5,0,4.77,4.77,0,0,1-1.1-3.5,4.63,4.63,0,0,1,1.1-3.5,3.63,3.63,0,0,1,5,0,4.77,4.77,0,0,1,1.1,3.5A4.63,4.63,0,0,1,864.5,119.1Zm-.9-6.2a2.43,2.43,0,0,0-3.2,0,5.56,5.56,0,0,0,0,5.4,2.43,2.43,0,0,0,3.2,0,4.07,4.07,0,0,0,.7-2.7A3.92,3.92,0,0,0,863.6,112.9Z"/><path class="s" d="M874.7,118.8a3.44,3.44,0,0,1-2.9,1.3c-2.2,0-3.9-1.5-3.9-4.5s1.7-4.5,3.9-4.5a3.44,3.44,0,0,1,2.9,1.3l-.9.8a2.6,2.6,0,0,0-2-1,2.39,2.39,0,0,0-2.1,1,3.84,3.84,0,0,0-.6,2.4,4,4,0,0,0,.6,2.4,2.39,2.39,0,0,0,2.1,1,2.46,2.46,0,0,0,2-1Z"/><path class="s" d="M883,120l-2.8-4.5-1.7,2v2.6h-1.3V107.3h1.3v8.6l4-4.6h1.6l-3,3.4,3.5,5.5H883Z"/><path class="s" d="M886.9,115.9c0,1.9.9,3.1,2.6,3.1a2.9,2.9,0,0,0,2.3-1l.9.8a4,4,0,0,1-3.2,1.4c-2.4,0-3.9-1.4-3.9-4.5,0-2.9,1.4-4.5,3.6-4.5s3.6,1.6,3.6,4.3v.6h-5.9Zm4.7-.9a5.67,5.67,0,0,0-.3-1.5,2.35,2.35,0,0,0-4.2,0,5.67,5.67,0,0,0-.3,1.5Z"/><path class="s" d="M900.9,120v-1.1a2.9,2.9,0,0,1-2.5,1.2,3.11,3.11,0,0,1-2.2-.8,7.11,7.11,0,0,1,0-7.6,3,3,0,0,1,2.2-.8,2.81,2.81,0,0,1,2.5,1.1v-5h1.3v12.8h-1.3Zm-2.2-7.8c-1.9,0-2.2,1.7-2.2,3.4s.3,3.4,2.2,3.4,2.2-1.7,2.2-3.4S900.6,112.2,898.7,112.2Z"/><path class="s" d="M912.4,120a2.23,2.23,0,0,1-2.3-2.4v-5.5H909v-1h1.1v-2.7h1.3v2.7h1.9v1h-1.9v5.5c0,.8.4,1.3,1.2,1.3h.7V120Z"/><path class="s" d="M921.6,119.1a3.63,3.63,0,0,1-5,0,4.77,4.77,0,0,1-1.1-3.5,4.63,4.63,0,0,1,1.1-3.5,3.63,3.63,0,0,1,5,0,4.77,4.77,0,0,1,1.1,3.5A4.63,4.63,0,0,1,921.6,119.1Zm-.9-6.2a2.43,2.43,0,0,0-3.2,0,5.56,5.56,0,0,0,0,5.4,2.43,2.43,0,0,0,3.2,0,4.07,4.07,0,0,0,.7-2.7A3.92,3.92,0,0,0,920.7,112.9Z"/><path class="s" d="M936.4,120.3a3.54,3.54,0,0,1-3.7,3.8,3.72,3.72,0,0,1-3-1.2l.8-.8a2.58,2.58,0,0,0,2.1.9c1.7,0,2.4-1.2,2.4-2.7v-1.4a2.9,2.9,0,0,1-2.5,1.2,2.71,2.71,0,0,1-2.1-.8,6.77,6.77,0,0,1,0-7.4,3,3,0,0,1,2.2-.8,2.67,2.67,0,0,1,2.5,1.2v-1h1.3Zm-3.4-8.1c-1.9,0-2.2,1.7-2.2,3.3s.3,3.3,2.2,3.3,2.2-1.7,2.2-3.3S934.9,112.2,933,112.2Z"/><path class="s" d="M940.5,115.9c0,1.9.9,3.1,2.6,3.1a2.9,2.9,0,0,0,2.3-1l.9.8a4,4,0,0,1-3.2,1.4c-2.4,0-3.9-1.4-3.9-4.5,0-2.9,1.4-4.5,3.6-4.5s3.6,1.6,3.6,4.3v.6h-5.9Zm4.7-.9a5.67,5.67,0,0,0-.3-1.5,2.35,2.35,0,0,0-4.2,0,5.67,5.67,0,0,0-.3,1.5Z"/><path class="s" d="M954.9,120v-5.5c0-1.6-.8-2.4-2.2-2.4s-2.2.8-2.2,2.4V120h-1.3v-8.9h1.3v1A3.25,3.25,0,0,1,953,111a3.37,3.37,0,0,1,2.3.8,3.33,3.33,0,0,1,.9,2.5V120Z"/><path class="s" d="M960.1,115.9c0,1.9.9,3.1,2.6,3.1a2.9,2.9,0,0,0,2.3-1l.9.8a4,4,0,0,1-3.2,1.4c-2.4,0-3.9-1.4-3.9-4.5,0-2.9,1.4-4.5,3.6-4.5s3.6,1.6,3.6,4.3v.6h-5.9Zm4.7-.9a5.67,5.67,0,0,0-.3-1.5,2.35,2.35,0,0,0-4.2,0,5.67,5.67,0,0,0-.3,1.5Z"/><path class="s" d="M973.8,112.9a1.72,1.72,0,0,0-1.5-.6,2.14,2.14,0,0,0-2.1,2.4v5.4h-1.3v-8.9h1.3v1.1a3.18,3.18,0,0,1,2.5-1.2,2.78,2.78,0,0,1,2.1.8Z"/><path class="s" d="M981.5,120v-.8a3.25,3.25,0,0,1-2.6,1,3.15,3.15,0,0,1-2.5-.8,2.27,2.27,0,0,1-.7-1.8c0-1.6,1.1-2.6,3.1-2.6h2.6v-.8c0-1.3-.6-1.9-2.3-1.9a2.35,2.35,0,0,0-2.2,1l-.9-.8a3.48,3.48,0,0,1,3.1-1.3c2.4,0,3.5,1,3.5,3v6h-1.1Zm0-4.1H979c-1.3,0-2,.5-2,1.6s.6,1.5,2.1,1.5a3,3,0,0,0,2-.6,2.07,2.07,0,0,0,.5-1.5v-1Z"/><path class="s" d="M988.4,120a2.23,2.23,0,0,1-2.3-2.4v-5.5H985v-1h1.1v-2.7h1.3v2.7h1.9v1h-1.9v5.5c0,.8.4,1.3,1.2,1.3h.7V120Z"/><path class="s" d="M992.7,115.9c0,1.9.9,3.1,2.6,3.1a2.9,2.9,0,0,0,2.3-1l.9.8a4,4,0,0,1-3.2,1.4c-2.4,0-3.9-1.4-3.9-4.5,0-2.9,1.4-4.5,3.6-4.5s3.6,1.6,3.6,4.3v.6h-5.9Zm4.7-.9a5.67,5.67,0,0,0-.3-1.5,2.35,2.35,0,0,0-4.2,0,5.67,5.67,0,0,0-.3,1.5Z"/><path class="s" d="M799.4,140.1l-2.9-5.7h-3.1v5.7H792V127.3h4.9a3.47,3.47,0,0,1,3.8,3.6,3.21,3.21,0,0,1-2.8,3.4l3,5.8Zm-2.5-11.6h-3.4v4.7h3.4c1.5,0,2.6-.8,2.6-2.3A2.31,2.31,0,0,0,796.9,128.5Z"/><path class="s" d="M803.9,136c0,1.9.9,3.1,2.6,3.1a2.9,2.9,0,0,0,2.3-1l.9.8a4,4,0,0,1-3.2,1.4c-2.4,0-3.9-1.4-3.9-4.5,0-2.9,1.4-4.5,3.6-4.5s3.6,1.6,3.6,4.3v.6h-5.9Zm4.7-1a5.67,5.67,0,0,0-.3-1.5,2.35,2.35,0,0,0-4.2,0,5.67,5.67,0,0,0-.3,1.5Z"/><path class="s" d="M818.6,139.4a3,3,0,0,1-2.2.8,2.67,2.67,0,0,1-2.5-1.2v5h-1.3V131.2h1.3v1a2.9,2.9,0,0,1,2.5-1.2,3.11,3.11,0,0,1,2.2.8,7.11,7.11,0,0,1,0,7.6Zm-2.4-7.2c-1.9,0-2.2,1.7-2.2,3.4s.3,3.4,2.2,3.4,2.2-1.7,2.2-3.4S818.1,132.2,816.2,132.2Z"/><path class="s" d="M828.1,140.1v-1a3.25,3.25,0,0,1-2.5,1.1,3.37,3.37,0,0,1-2.3-.8,3.49,3.49,0,0,1-.9-2.5v-5.7h1.3v5.5c0,1.6.8,2.4,2.2,2.4s2.2-.8,2.2-2.4v-5.5h1.3v8.9Z"/><path class="s" d="M835.1,140.1a2.23,2.23,0,0,1-2.3-2.4v-5.5h-1.1v-1h1.1v-2.7h1.3v2.7H836v1h-1.9v5.5c0,.8.4,1.3,1.2,1.3h.7v1.1Z"/><path class="s" d="M843.6,140.1v-.8a3.25,3.25,0,0,1-2.6,1,3.15,3.15,0,0,1-2.5-.8,2.27,2.27,0,0,1-.7-1.8c0-1.6,1.1-2.6,3.1-2.6h2.6v-.8c0-1.3-.6-1.9-2.3-1.9a2.35,2.35,0,0,0-2.2,1l-.9-.8a3.48,3.48,0,0,1,3.1-1.3c2.4,0,3.5,1,3.5,3v6h-1.1Zm0-4.1h-2.5c-1.3,0-2,.5-2,1.6s.6,1.5,2.1,1.5a3,3,0,0,0,2-.6,2.07,2.07,0,0,0,.5-1.5v-1Z"/><path class="s" d="M850.5,140.1a2.23,2.23,0,0,1-2.3-2.4v-5.5h-1.1v-1h1.1v-2.7h1.3v2.7h1.9v1h-1.9v5.5c0,.8.4,1.3,1.2,1.3h.7v1.1Z"/><path class="s" d="M853.9,128.7v-1.5h1.5v1.5Zm.1,11.4v-8.9h1.3v8.9Z"/><path class="s" d="M864.2,139.2a3.63,3.63,0,0,1-5,0,4.77,4.77,0,0,1-1.1-3.5,4.63,4.63,0,0,1,1.1-3.5,3.63,3.63,0,0,1,5,0,4.77,4.77,0,0,1,1.1,3.5A4.91,4.91,0,0,1,864.2,139.2Zm-.9-6.3a2.43,2.43,0,0,0-3.2,0,5.56,5.56,0,0,0,0,5.4,2.43,2.43,0,0,0,3.2,0,4.07,4.07,0,0,0,.7-2.7C864,134.6,864,133.5,863.3,132.9Z"/><path class="s" d="M873.7,140.1v-5.5c0-1.6-.8-2.4-2.2-2.4s-2.2.8-2.2,2.4v5.5H868v-8.9h1.3v1a3.25,3.25,0,0,1,2.5-1.1,3.37,3.37,0,0,1,2.3.8,3.33,3.33,0,0,1,.9,2.5v5.7Z"/><path class="s" d="M878.2,140.1v-1.7h1.7v1.7Z"/><path class="s" d="M792.1,299.3V286.5h8v1.2h-6.6v4.5h5.6v1.2h-5.6V298h6.6v1.2h-8Z"/><path class="s" d="M805.1,299.3a2.23,2.23,0,0,1-2.3-2.4v-5.5h-1.1v-1h1.1v-2.7h1.3v2.7H806v1h-1.9v5.5c0,.8.4,1.3,1.2,1.3h.7v1.1Z"/><path class="s" d="M814.3,299.3v-5.5c0-1.6-.8-2.3-2.2-2.3a2,2,0,0,0-2.2,2.3v5.5h-1.3V286.5h1.3v4.9a3.25,3.25,0,0,1,2.5-1.1,3,3,0,0,1,3.2,3.3v5.7Z"/><path class="s" d="M819.6,295.2c0,1.9.9,3.1,2.6,3.1a2.9,2.9,0,0,0,2.3-1l.9.8a4,4,0,0,1-3.2,1.4c-2.4,0-3.9-1.4-3.9-4.5,0-2.9,1.4-4.5,3.6-4.5s3.6,1.6,3.6,4.3v.6h-5.9Zm4.6-1a5.67,5.67,0,0,0-.3-1.5,2.35,2.35,0,0,0-4.2,0,5.67,5.67,0,0,0-.3,1.5Z"/><path class="s" d="M833.2,292.1a1.72,1.72,0,0,0-1.5-.6,2.14,2.14,0,0,0-2.1,2.4v5.4h-1.3v-8.9h1.3v1.1a3.18,3.18,0,0,1,2.5-1.2,2.78,2.78,0,0,1,2.1.8Z"/><path class="s" d="M836.1,295.2c0,1.9.9,3.1,2.6,3.1a2.9,2.9,0,0,0,2.3-1l.9.8a4,4,0,0,1-3.2,1.4c-2.4,0-3.9-1.4-3.9-4.5,0-2.9,1.4-4.5,3.6-4.5s3.6,1.6,3.6,4.3v.6h-5.9Zm4.7-1a5.67,5.67,0,0,0-.3-1.5,2.35,2.35,0,0,0-4.2,0,5.67,5.67,0,0,0-.3,1.5Z"/><path class="s" d="M850.5,299.3v-1a3.25,3.25,0,0,1-2.5,1.1,3.37,3.37,0,0,1-2.3-.8,3.49,3.49,0,0,1-.9-2.5v-5.7h1.3v5.5c0,1.6.8,2.4,2.2,2.4s2.2-.8,2.2-2.4v-5.5h1.3v8.9Z"/><path class="s" d="M866.4,299.3v-5.5c0-1.6-.8-2.4-2.2-2.4a2,2,0,0,0-2.2,2.2v5.6h-1.3v-5.5c0-1.6-.8-2.4-2.2-2.4a2.11,2.11,0,0,0-2.2,2.4v5.5H855v-8.9h1.3v1a3.25,3.25,0,0,1,2.5-1.1,2.84,2.84,0,0,1,2.7,1.5,3.33,3.33,0,0,1,6.2,1.8v5.7h-1.3Z"/><path class="s" d="M886.7,299.3v-5.5c0-1.6-.8-2.4-2.2-2.4a2,2,0,0,0-2.2,2.2v5.6H881v-5.5c0-1.6-.8-2.4-2.2-2.4a2.11,2.11,0,0,0-2.2,2.4v5.5h-1.3v-8.9h1.3v1a3.25,3.25,0,0,1,2.5-1.1,2.84,2.84,0,0,1,2.7,1.5,3.33,3.33,0,0,1,6.2,1.8v5.7h-1.3Z"/><path class="s" d="M896.1,299.3v-.8a3.25,3.25,0,0,1-2.6,1,3.15,3.15,0,0,1-2.5-.8,2.27,2.27,0,0,1-.7-1.8c0-1.6,1.1-2.6,3.1-2.6H896v-.8c0-1.3-.6-1.9-2.3-1.9a2.35,2.35,0,0,0-2.2,1l-.9-.8a3.48,3.48,0,0,1,3.1-1.3c2.4,0,3.5,1,3.5,3v6h-1.1Zm0-4.1h-2.5c-1.3,0-2,.5-2,1.6s.6,1.5,2.1,1.5a3,3,0,0,0,2-.6,2.07,2.07,0,0,0,.5-1.5v-1Z"/><path class="s" d="M902.8,301.4a2.89,2.89,0,0,1-.6,1,2.24,2.24,0,0,1-1.7.6h-.6v-1.2h.4c.9,0,1.2-.3,1.5-1.1l.6-1.7-3.2-8.7h1.4l2.4,7.1,2.4-7.1h1.4Z"/><path class="s" d="M919.1,298.6a3,3,0,0,1-2.2.8,2.67,2.67,0,0,1-2.5-1.2v1.1h-1.3V286.5h1.3v5a2.81,2.81,0,0,1,2.5-1.1,3.11,3.11,0,0,1,2.2.8,5.23,5.23,0,0,1,1.1,3.8A5.18,5.18,0,0,1,919.1,298.6Zm-2.5-7.1c-1.9,0-2.2,1.7-2.2,3.4s.3,3.4,2.2,3.4,2.2-1.7,2.2-3.4S918.6,291.5,916.6,291.5Z"/><path class="s" d="M923.7,295.2c0,1.9.9,3.1,2.6,3.1a2.9,2.9,0,0,0,2.3-1l.9.8a4,4,0,0,1-3.2,1.4c-2.4,0-3.9-1.4-3.9-4.5,0-2.9,1.4-4.5,3.6-4.5s3.6,1.6,3.6,4.3v.6h-5.9Zm4.7-1a5.67,5.67,0,0,0-.3-1.5,2.35,2.35,0,0,0-4.2,0,5.67,5.67,0,0,0-.3,1.5Z"/><path class="s" d="M939.1,299.3a2.13,2.13,0,0,1-2.3-2.4V286.4h1.3v10.4c0,.9.3,1.3,1.2,1.3h.7v1.1h-.9Z"/><path class="s" d="M947.9,298.4a3.55,3.55,0,0,1-2.5,1,3.38,3.38,0,0,1-2.5-1,6.12,6.12,0,0,1,0-7,3.55,3.55,0,0,1,2.5-1,3.38,3.38,0,0,1,2.5,1,4.77,4.77,0,0,1,1.1,3.5A4.91,4.91,0,0,1,947.9,298.4Zm-.9-6.3a2.43,2.43,0,0,0-3.2,0,5.56,5.56,0,0,0,0,5.4,2.43,2.43,0,0,0,3.2,0,4.07,4.07,0,0,0,.7-2.7A3.92,3.92,0,0,0,947,292.1Z"/><path class="s" d="M958.1,298.1a3.44,3.44,0,0,1-2.9,1.3c-2.2,0-3.9-1.5-3.9-4.5s1.7-4.5,3.9-4.5a3.44,3.44,0,0,1,2.9,1.3l-.9.8a2.6,2.6,0,0,0-2-1,2.39,2.39,0,0,0-2.1,1,3.84,3.84,0,0,0-.6,2.4,4,4,0,0,0,.6,2.4,2.39,2.39,0,0,0,2.1,1,2.46,2.46,0,0,0,2-1Z"/><path class="s" d="M966.4,299.3l-2.8-4.5-1.7,2v2.6h-1.3V286.6h1.3v8.6l4-4.6h1.6l-3,3.4,3.5,5.5h-1.6Z"/><path class="s" d="M970.3,295.2c0,1.9.9,3.1,2.6,3.1a2.9,2.9,0,0,0,2.3-1l.9.8a4,4,0,0,1-3.2,1.4c-2.4,0-3.9-1.4-3.9-4.5,0-2.9,1.4-4.5,3.6-4.5s3.6,1.6,3.6,4.3v.6h-5.9Zm4.7-1a5.67,5.67,0,0,0-.3-1.5,2.35,2.35,0,0,0-4.2,0,5.67,5.67,0,0,0-.3,1.5Z"/><path class="s" d="M984.3,299.3v-1.1a2.9,2.9,0,0,1-2.5,1.2,3.11,3.11,0,0,1-2.2-.8,7.11,7.11,0,0,1,0-7.6,3,3,0,0,1,2.2-.8,2.81,2.81,0,0,1,2.5,1.1v-5h1.3v13Zm-2.2-7.8c-1.9,0-2.2,1.7-2.2,3.4s.3,3.4,2.2,3.4,2.2-1.7,2.2-3.4S984.1,291.5,982.1,291.5Z"/><path class="s" d="M995.8,299.3a2.23,2.23,0,0,1-2.3-2.4v-5.5h-1.1v-1h1.1v-2.7h1.3v2.7h1.9v1h-1.9v5.5c0,.8.4,1.3,1.2,1.3h.7v1.1Z"/><path class="s" d="M1005,298.4a3.55,3.55,0,0,1-2.5,1,3.38,3.38,0,0,1-2.5-1,6.12,6.12,0,0,1,0-7,3.55,3.55,0,0,1,2.5-1,3.38,3.38,0,0,1,2.5,1,4.77,4.77,0,0,1,1.1,3.5A4.91,4.91,0,0,1,1005,298.4Zm-.9-6.3a2.43,2.43,0,0,0-3.2,0,5.56,5.56,0,0,0,0,5.4,2.43,2.43,0,0,0,3.2,0,4.07,4.07,0,0,0,.7-2.7A3.92,3.92,0,0,0,1004.1,292.1Z"/><path class="s" d="M798.4,319.6a3.54,3.54,0,0,1-3.7,3.8,3.72,3.72,0,0,1-3-1.2l.8-.8a2.58,2.58,0,0,0,2.1.9c1.7,0,2.4-1.2,2.4-2.7v-1.4a2.9,2.9,0,0,1-2.5,1.2,2.71,2.71,0,0,1-2.1-.8,6.77,6.77,0,0,1,0-7.4,3,3,0,0,1,2.2-.8,2.67,2.67,0,0,1,2.5,1.2v-1h1.3Zm-3.5-8.1c-1.9,0-2.2,1.7-2.2,3.3s.3,3.3,2.2,3.3,2.2-1.7,2.2-3.3S796.8,311.5,794.9,311.5Z"/><path class="s" d="M802.4,315.2c0,1.9.9,3.1,2.6,3.1a2.9,2.9,0,0,0,2.3-1l.9.8a4,4,0,0,1-3.2,1.4c-2.4,0-3.9-1.4-3.9-4.5,0-2.9,1.4-4.5,3.6-4.5s3.6,1.6,3.6,4.3v.6h-5.9Zm4.7-1a5.67,5.67,0,0,0-.3-1.5,2.35,2.35,0,0,0-4.2,0,5.67,5.67,0,0,0-.3,1.5Z"/><path class="s" d="M816.8,319.3v-5.5c0-1.6-.8-2.4-2.2-2.4s-2.2.8-2.2,2.4v5.5h-1.3v-8.9h1.3v1a3.25,3.25,0,0,1,2.5-1.1,3.37,3.37,0,0,1,2.3.8,3.33,3.33,0,0,1,.9,2.5v5.7Z"/><path class="s" d="M822.1,315.2c0,1.9.9,3.1,2.6,3.1a2.9,2.9,0,0,0,2.3-1l.9.8a4,4,0,0,1-3.2,1.4c-2.4,0-3.9-1.4-3.9-4.5,0-2.9,1.4-4.5,3.6-4.5s3.6,1.6,3.6,4.3v.6h-5.9Zm4.7-1a5.67,5.67,0,0,0-.3-1.5,2.35,2.35,0,0,0-4.2,0,5.67,5.67,0,0,0-.3,1.5Z"/><path class="s" d="M835.8,312.1a1.72,1.72,0,0,0-1.5-.6,2.14,2.14,0,0,0-2.1,2.4v5.4h-1.3v-8.9h1.3v1.1a3.18,3.18,0,0,1,2.5-1.2,2.78,2.78,0,0,1,2.1.8Z"/><path class="s" d="M843.4,319.3v-.8a3.25,3.25,0,0,1-2.6,1,3.15,3.15,0,0,1-2.5-.8,2.27,2.27,0,0,1-.7-1.8c0-1.6,1.1-2.6,3.1-2.6h2.6v-.8c0-1.3-.6-1.9-2.3-1.9a2.35,2.35,0,0,0-2.2,1l-.9-.8a3.48,3.48,0,0,1,3.1-1.3c2.4,0,3.5,1,3.5,3v6h-1.1Zm0-4.1h-2.5c-1.3,0-2,.5-2,1.6s.6,1.5,2.1,1.5a3,3,0,0,0,2-.6,2.07,2.07,0,0,0,.5-1.5v-1Z"/><path class="s" d="M850.3,319.3a2.23,2.23,0,0,1-2.3-2.4v-5.5h-1.1v-1H848v-2.7h1.3v2.7h1.9v1h-1.9v5.5c0,.8.4,1.3,1.2,1.3h.7v1.1Z"/><path class="s" d="M854.6,315.2c0,1.9.9,3.1,2.6,3.1a2.9,2.9,0,0,0,2.3-1l.9.8a4,4,0,0,1-3.2,1.4c-2.4,0-3.9-1.4-3.9-4.5,0-2.9,1.4-4.5,3.6-4.5s3.6,1.6,3.6,4.3v.6h-5.9Zm4.7-1a5.67,5.67,0,0,0-.3-1.5,2.35,2.35,0,0,0-4.2,0,5.67,5.67,0,0,0-.3,1.5Z"/><path class="s" d="M875.5,319.3l-2.9-5.7h-3.1v5.7h-1.4V306.5H873a3.47,3.47,0,0,1,3.8,3.6,3.21,3.21,0,0,1-2.8,3.4l3,5.8Zm-2.6-11.6h-3.4v4.7h3.4c1.5,0,2.6-.8,2.6-2.3A2.36,2.36,0,0,0,872.9,307.7Z"/><path class="s" d="M879.9,315.2c0,1.9.9,3.1,2.6,3.1a2.9,2.9,0,0,0,2.3-1l.9.8a4,4,0,0,1-3.2,1.4c-2.4,0-3.9-1.4-3.9-4.5,0-2.9,1.4-4.5,3.6-4.5s3.6,1.6,3.6,4.3v.6h-5.9Zm4.7-1a5.67,5.67,0,0,0-.3-1.5,2.35,2.35,0,0,0-4.2,0,5.67,5.67,0,0,0-.3,1.5Z"/><path class="s" d="M894.6,318.6a3,3,0,0,1-2.2.8,2.67,2.67,0,0,1-2.5-1.2v5h-1.3V310.4h1.3v1a2.9,2.9,0,0,1,2.5-1.2,3.11,3.11,0,0,1,2.2.8,7.11,7.11,0,0,1,0,7.6Zm-2.4-7.1c-1.9,0-2.2,1.7-2.2,3.4s.3,3.4,2.2,3.4,2.2-1.7,2.2-3.4S894.1,311.5,892.2,311.5Z"/><path class="s" d="M904.1,319.3v-1a3.25,3.25,0,0,1-2.5,1.1,3.37,3.37,0,0,1-2.3-.8,3.49,3.49,0,0,1-.9-2.5v-5.7h1.3v5.5c0,1.6.8,2.4,2.2,2.4s2.2-.8,2.2-2.4v-5.5h1.3v8.9Z"/><path class="s" d="M911.1,319.3a2.23,2.23,0,0,1-2.3-2.4v-5.5h-1.1v-1h1.1v-2.7h1.3v2.7H912v1h-1.9v5.5c0,.8.4,1.3,1.2,1.3h.7v1.1Z"/><path class="s" d="M919.6,319.3v-.8a3.25,3.25,0,0,1-2.6,1,3.15,3.15,0,0,1-2.5-.8,2.27,2.27,0,0,1-.7-1.8c0-1.6,1.1-2.6,3.1-2.6h2.6v-.8c0-1.3-.6-1.9-2.3-1.9a2.35,2.35,0,0,0-2.2,1l-.9-.8a3.48,3.48,0,0,1,3.1-1.3c2.4,0,3.5,1,3.5,3v6h-1.1Zm0-4.1h-2.5c-1.3,0-2,.5-2,1.6s.6,1.5,2.1,1.5a3,3,0,0,0,2-.6,2.07,2.07,0,0,0,.5-1.5v-1Z"/><path class="s" d="M926.5,319.3a2.23,2.23,0,0,1-2.3-2.4v-5.5h-1.1v-1h1.1v-2.7h1.3v2.7h1.9v1h-1.9v5.5c0,.8.4,1.3,1.2,1.3h.7v1.1Z"/><path class="s" d="M929.9,307.9v-1.5h1.5v1.5Zm.1,11.4v-8.9h1.3v8.9Z"/><path class="s" d="M940.2,318.4a3.63,3.63,0,0,1-5,0,4.77,4.77,0,0,1-1.1-3.5,4.63,4.63,0,0,1,1.1-3.5,3.63,3.63,0,0,1,5,0,6.12,6.12,0,0,1,0,7Zm-.9-6.3a2.43,2.43,0,0,0-3.2,0,5.56,5.56,0,0,0,0,5.4,2.43,2.43,0,0,0,3.2,0,4.07,4.07,0,0,0,.7-2.7A3.7,3.7,0,0,0,939.3,312.1Z"/><path class="s" d="M949.8,319.3v-5.5c0-1.6-.8-2.4-2.2-2.4s-2.2.8-2.2,2.4v5.5h-1.3v-8.9h1.3v1a3.25,3.25,0,0,1,2.5-1.1,3.37,3.37,0,0,1,2.3.8,3.33,3.33,0,0,1,.9,2.5v5.7Z"/><path class="s" d="M954.2,319.3v-1.7h1.7v1.7Z"/><path class="s" d="M1064,78.3H790.2a.79.79,0,0,1-.8-.8.74.74,0,0,1,.8-.8h273.7a.79.79,0,0,1,.8.8A.71.71,0,0,1,1064,78.3Z"/><path class="s" d="M640,105.6a.67.67,0,0,1-.7-.6.78.78,0,0,1,.6-.9L790.1,76.9a.76.76,0,0,1,.3,1.5L640.2,105.6Z"/><path class="s" d="M639.6,102a2.92,2.92,0,0,0-2.3,3.3,2.79,2.79,0,0,0,3.3,2.3,2.92,2.92,0,0,0,2.3-3.3A2.85,2.85,0,0,0,639.6,102Z"/><path class="s" d="M881.6,52.6h-1.7l-2.7-9.2-2.6,9.2h-1.7l-3.4-13.1h2.1l2.3,9.3,2.6-9.3h1.6l2.6,9.3,2.3-9.3h2.1Z"/><path class="s" d="M891.5,52.6V46.9c0-1.5-.8-2.1-1.9-2.1a1.9,1.9,0,0,0-1.9,2.1v5.7h-1.9v-13h1.9v4.7a3.1,3.1,0,0,1,2.4-1,3.37,3.37,0,0,1,2.3.8,3.46,3.46,0,0,1,.9,2.6v5.9Z"/><path class="s" d="M895.3,41.5v-2h2v2Zm0,11.1V43.3h1.9v9.3Z"/><path class="s" d="M902,52.6a2.52,2.52,0,0,1-2.6-2.6V44.7h-1.1V43.3h1.1V40.6h1.9v2.7h1.8v1.4h-1.8v5.2c0,.7.3,1.1,1,1.1h.8v1.6Z"/><path class="s" d="M906,48.5c0,1.6.8,2.6,2.4,2.6a2.9,2.9,0,0,0,2.3-1l1.2,1.1a4.4,4.4,0,0,1-3.5,1.5c-2.3,0-4.2-1.2-4.2-4.8,0-3.1,1.5-4.8,3.9-4.8s3.9,1.8,3.9,4.5v.8h-6Zm4.2-1.3a5,5,0,0,0-.3-1.3,2,2,0,0,0-1.8-1.2,2.12,2.12,0,0,0-1.9,1.2,2.55,2.55,0,0,0-.2,1.3Z"/><path class="s" d="M916.1,52.6a2.41,2.41,0,0,1-2.6-2.6V39.6h1.9V50c0,.7.3,1.1,1,1.1h.8v1.6h-1.1Z"/><path class="s" d="M918.3,41.5v-2h2v2Zm.1,11.1V43.3h1.9v9.3Z"/><path class="s" d="M925.3,52.7a5.44,5.44,0,0,1-3.9-1.3l1.2-1.2a3.52,3.52,0,0,0,2.7,1c1.2,0,2-.4,2-1.3,0-.6-.3-1-1.2-1.1l-1.5-.1c-1.8-.2-2.8-.9-2.8-2.6s1.6-2.8,3.5-2.8a5.58,5.58,0,0,1,3.5,1l-1.2,1.2a3.51,3.51,0,0,0-2.3-.7c-1.2,0-1.7.5-1.7,1.2s.3,1,1.3,1.1l1.3.1c1.9.2,2.9,1,2.9,2.6C929.2,51.7,927.6,52.7,925.3,52.7Z"/><path class="s" d="M933.3,52.6a2.52,2.52,0,0,1-2.6-2.6V44.7h-1.1V43.3h1.1V40.6h1.9v2.7h1.8v1.4h-1.8v5.2c0,.7.3,1.1,1,1.1h.8v1.6Z"/><path class="s" d="M937.3,48.5c0,1.6.8,2.6,2.4,2.6a2.9,2.9,0,0,0,2.3-1l1.2,1.1a4.4,4.4,0,0,1-3.5,1.5c-2.3,0-4.2-1.2-4.2-4.8,0-3.1,1.5-4.8,3.9-4.8s3.9,1.8,3.9,4.5v.8h-6Zm4.2-1.3a5,5,0,0,0-.3-1.3,2,2,0,0,0-1.8-1.2,2.12,2.12,0,0,0-1.9,1.2,2.55,2.55,0,0,0-.2,1.3Z"/><path class="s" d="M950.2,52.6v-1a2.71,2.71,0,0,1-2.5,1.1,3.37,3.37,0,0,1-2.3-.8c-.9-.9-1-2.4-1-3.9s.1-3,1-3.9a3.2,3.2,0,0,1,2.3-.8,2.69,2.69,0,0,1,2.4,1V39.6H952V52.7h-1.8Zm-1.9-7.7c-1.7,0-1.9,1.4-1.9,3.1s.2,3.1,1.9,3.1,1.9-1.4,1.9-3.1S950,44.9,948.3,44.9Z"/><path class="s" d="M966.1,51a4.25,4.25,0,0,1-3.7,1.7h-4.6V39.6h4.6a4.25,4.25,0,0,1,3.7,1.7c.9,1.2,1,2.8,1,4.9S967.1,49.8,966.1,51Zm-1.6-8.8a2.94,2.94,0,0,0-2.2-.9h-2.4v9.5h2.4a2.79,2.79,0,0,0,2.2-.9c.6-.7.7-1.9.7-3.9S965.1,42.9,964.5,42.2Z"/><path class="s" d="M974.6,52.6v-.9a3.17,3.17,0,0,1-2.5,1,3.37,3.37,0,0,1-2.3-.8,3.46,3.46,0,0,1-.9-2.6v-6h1.9V49c0,1.5.8,2.1,1.9,2.1a1.84,1.84,0,0,0,1.9-2.1V43.3h1.9v9.3Z"/><path class="s" d="M981.2,52.6a2.52,2.52,0,0,1-2.6-2.6V44.7h-1.1V43.3h1.1V40.6h1.9v2.7h1.8v1.4h-1.8v5.2c0,.7.3,1.1,1,1.1h.8v1.6Z"/><path class="s" d="M990.5,51.4a4,4,0,0,1-3.1,1.3c-2.1,0-4.1-1.3-4.1-4.8s2.1-4.8,4.1-4.8a4,4,0,0,1,3.1,1.3l-1.3,1.2a2.27,2.27,0,0,0-1.8-.9,2,2,0,0,0-1.7.8,3.52,3.52,0,0,0-.6,2.3,3,3,0,0,0,.6,2.3,1.88,1.88,0,0,0,1.7.8,2.13,2.13,0,0,0,1.8-.9Z"/><path class="s" d="M997.5,52.6V46.9c0-1.5-.8-2.1-1.9-2.1a1.9,1.9,0,0,0-1.9,2.1v5.7h-1.9v-13h1.9v4.7a3.1,3.1,0,0,1,2.4-1,3.37,3.37,0,0,1,2.3.8,3.46,3.46,0,0,1,.9,2.6v5.9Z"/><path class="s" d="M1007.9,52.6l-2.8-5-2.8,5H1000l4-6.7-3.8-6.4h2.3l2.6,4.7,2.6-4.7h2.3l-3.8,6.4,4.1,6.7Z"/><path class="s" d="M875.4,58V69.3h-2V58h-3.6V56.2H879V58Z"/><path class="s" d="M884.9,68.3a4.11,4.11,0,0,1-5.6,0c-.9-.9-1.1-2.1-1.1-3.7a5,5,0,0,1,1.1-3.7,4.11,4.11,0,0,1,5.6,0c.9.9,1.1,2.1,1.1,3.7S885.8,67.4,884.9,68.3Zm-1.4-6.2a2,2,0,0,0-1.4-.5,2.17,2.17,0,0,0-1.4.5c-.6.6-.6,1.5-.6,2.6a4.2,4.2,0,0,0,.6,2.6,1.93,1.93,0,0,0,2.8,0c.6-.6.6-1.5.6-2.6A4,4,0,0,0,883.5,62.1Z"/><path class="s" d="M893.4,69.3,890.8,65l-1.4,1.6v2.7h-1.9V56.2h1.9v8.1L893,60h2.3l-3.2,3.7,3.6,5.7h-2.3Z"/><path class="s" d="M897.4,65.2c0,1.6.8,2.6,2.4,2.6a2.9,2.9,0,0,0,2.3-1l1.2,1.1a4.4,4.4,0,0,1-3.5,1.5c-2.3,0-4.2-1.2-4.2-4.8,0-3.1,1.5-4.8,3.9-4.8s3.9,1.8,3.9,4.5v.8h-6Zm4.2-1.3a5,5,0,0,0-.3-1.3,2,2,0,0,0-1.8-1.2,2.12,2.12,0,0,0-1.9,1.2,2.55,2.55,0,0,0-.2,1.3Z"/><path class="s" d="M910.6,69.3V63.6c0-1.5-.8-2.1-1.9-2.1a1.9,1.9,0,0,0-1.9,2.1v5.7h-1.9V60h1.8v.9a3.17,3.17,0,0,1,2.5-1,3.37,3.37,0,0,1,2.3.8,3.46,3.46,0,0,1,.9,2.6v6Z"/><path class="s" d="M918.2,69.3V56.2h2V67.5h6.3v1.8Z"/><path class="s" d="M933.8,68.3a4.11,4.11,0,0,1-5.6,0c-.9-.9-1.1-2.1-1.1-3.7a5,5,0,0,1,1.1-3.7,4.11,4.11,0,0,1,5.6,0c.9.9,1.1,2.1,1.1,3.7S934.7,67.4,933.8,68.3Zm-1.4-6.2a2,2,0,0,0-1.4-.5,2.17,2.17,0,0,0-1.4.5c-.6.6-.6,1.5-.6,2.6a4.2,4.2,0,0,0,.6,2.6,1.93,1.93,0,0,0,2.8,0c.6-.6.6-1.5.6-2.6S933,62.7,932.4,62.1Z"/><path class="s" d="M943.3,68.1a4,4,0,0,1-3.1,1.3c-2.1,0-4.1-1.3-4.1-4.8s2.1-4.8,4.1-4.8a4,4,0,0,1,3.1,1.3L942,62.3a2.27,2.27,0,0,0-1.8-.9,2,2,0,0,0-1.7.8,3.52,3.52,0,0,0-.6,2.3,3,3,0,0,0,.6,2.3,1.88,1.88,0,0,0,1.7.8,2.13,2.13,0,0,0,1.8-.9Z"/><path class="s" d="M950.4,69.3,947.8,65l-1.4,1.6v2.7h-1.9V56.2h1.9v8.1L950,60h2.3l-3.2,3.7,3.6,5.7h-2.3Z"/><g class="v"><path class="s" d="M799.3,268.7c-4.9,0-8.8-3.4-8.8-8.4a8,8,0,0,1,4.5-7.2,7.3,7.3,0,0,1-3.9-6.6,8.2,8.2,0,0,1,16.4,0,7.22,7.22,0,0,1-3.8,6.6c2.5,1.5,4.4,3.7,4.4,7.2A8.42,8.42,0,0,1,799.3,268.7Zm0-14.2a5.8,5.8,0,1,0,5.8,5.8A5.74,5.74,0,0,0,799.3,254.5Zm0-13.3a5.07,5.07,0,0,0-5.2,5.3,5.2,5.2,0,1,0,10.4,0A5.07,5.07,0,0,0,799.3,241.2Z"/><path class="s" d="M822.1,248.5a5.6,5.6,0,1,1-11.2,0v-4.4a5.6,5.6,0,0,1,11.2,0Zm-2.5-4.3c0-2.3-.9-3.6-3.2-3.6s-3.3,1.3-3.3,3.6v4.2c0,2.3.9,3.6,3.3,3.6s3.2-1.3,3.2-3.6Zm.2,24.3h-2.5l13.9-29.7h2.5Zm20.4-5.3a5.6,5.6,0,0,1-11.2,0v-4.4a5.6,5.6,0,0,1,11.2,0Zm-2.4-4.3c0-2.3-.9-3.6-3.2-3.6s-3.3,1.3-3.3,3.6v4.2c0,2.3.9,3.6,3.3,3.6s3.2-1.3,3.2-3.6Z"/></g><path class="s" d="M850.2,251.9V238.8h8.4v1.8h-6.4v3.8h5.4v1.8h-5.4v3.9h6.4v1.8Z"/><path class="s" d="M864.8,240.6v11.3h-2V240.6h-3.6v-1.8h9.2v1.8Z"/><path class="s" d="M877,251.9v-5.7h-5.3v5.7h-2V238.8h2v5.6H877v-5.6h2v13.1Z"/><path class="s" d="M850.2,268.6V255.5h2v11.3h6.3v1.8Z"/><path class="s" d="M865.9,267.6a4.11,4.11,0,0,1-5.6,0c-.9-.9-1.1-2.1-1.1-3.7a5,5,0,0,1,1.1-3.7,4.11,4.11,0,0,1,5.6,0c.9.9,1.1,2.1,1.1,3.7A5.45,5.45,0,0,1,865.9,267.6Zm-1.4-6.3a2,2,0,0,0-1.4-.5,2.17,2.17,0,0,0-1.4.5c-.6.6-.6,1.5-.6,2.6a4.2,4.2,0,0,0,.6,2.6,1.93,1.93,0,0,0,2.8,0c.6-.6.6-1.5.6-2.6A4.2,4.2,0,0,0,864.5,261.3Z"/><path class="s" d="M875.3,267.4a4,4,0,0,1-3.1,1.3c-2.1,0-4.1-1.3-4.1-4.8s2.1-4.8,4.1-4.8a4,4,0,0,1,3.1,1.3l-1.3,1.2a2.27,2.27,0,0,0-1.8-.9,2,2,0,0,0-1.7.8,3.52,3.52,0,0,0-.6,2.3,3,3,0,0,0,.6,2.3,1.88,1.88,0,0,0,1.7.8,2.13,2.13,0,0,0,1.8-.9Z"/><path class="s" d="M882.4,268.6l-2.6-4.3-1.4,1.6v2.7h-1.9V255.5h1.9v8.1l3.6-4.3h2.3l-3.2,3.7,3.6,5.7h-2.3Z"/><path class="s" d="M1064,277.6H790.2a.79.79,0,0,1-.8-.8.74.74,0,0,1,.8-.8h273.7a.79.79,0,0,1,.8.8A.71.71,0,0,1,1064,277.6Z"/><path class="s" d="M790.2,277.6a.37.37,0,0,1-.3-.1L659.9,210a.74.74,0,1,1,.7-1.3l130,67.5a.69.69,0,0,1,.3,1A.84.84,0,0,1,790.2,277.6Z"/><path class="s" d="M661.6,206.9a2.82,2.82,0,1,0,1.2,3.8A2.86,2.86,0,0,0,661.6,206.9Z"/><path class="s" d="M7.4,55.5H4v5.3H2.6V47.9H7.4a3.8,3.8,0,1,1,0,7.6Zm-.1-6.4H4v5.1H7.3a2.55,2.55,0,1,0,0-5.1Z"/><path class="s" d="M18.7,53.6a1.72,1.72,0,0,0-1.5-.6,2.14,2.14,0,0,0-2.1,2.4v5.4H13.8V51.9h1.3V53a3.18,3.18,0,0,1,2.5-1.2,2.78,2.78,0,0,1,2.1.8Z"/><path class="s" d="M21.6,56.6c0,1.9.9,3.1,2.6,3.1a2.9,2.9,0,0,0,2.3-1l.9.8a4,4,0,0,1-3.2,1.4c-2.4,0-3.9-1.4-3.9-4.5,0-2.9,1.4-4.5,3.6-4.5s3.6,1.6,3.6,4.3v.6H21.6Zm4.7-.9a5.67,5.67,0,0,0-.3-1.5,2.35,2.35,0,0,0-4.2,0,5.67,5.67,0,0,0-.3,1.5Z"/><path class="s" d="M30.1,56.5V55.3H35v1.2Z"/><path class="s" d="M40.2,60.7a2.13,2.13,0,0,1-2.3-2.4V47.9h1.3V58.3c0,.9.3,1.3,1.2,1.3h.7v1.1Z"/><path class="s" d="M49,59.8a3.55,3.55,0,0,1-2.5,1,3.38,3.38,0,0,1-2.5-1,4.77,4.77,0,0,1-1.1-3.5A4.77,4.77,0,0,1,44,52.8a3.55,3.55,0,0,1,2.5-1,3.38,3.38,0,0,1,2.5,1,4.77,4.77,0,0,1,1.1,3.5A4.77,4.77,0,0,1,49,59.8Zm-.9-6.2a2.43,2.43,0,0,0-3.2,0,3.92,3.92,0,0,0-.7,2.7,3.92,3.92,0,0,0,.7,2.7,2.43,2.43,0,0,0,3.2,0,4.07,4.07,0,0,0,.7-2.7A3.92,3.92,0,0,0,48.1,53.6Z"/><path class="s" d="M57.8,60.7v-.8a3.25,3.25,0,0,1-2.6,1,3.15,3.15,0,0,1-2.5-.8,2.27,2.27,0,0,1-.7-1.8c0-1.6,1.1-2.6,3.1-2.6h2.6v-.8c0-1.3-.6-1.9-2.3-1.9a2.35,2.35,0,0,0-2.2,1l-.9-.8a3.48,3.48,0,0,1,3.1-1.3c2.4,0,3.5,1,3.5,3v6H57.8Zm0-4.1H55.3c-1.3,0-2,.5-2,1.6s.6,1.5,2.1,1.5a3,3,0,0,0,2-.6,2.07,2.07,0,0,0,.5-1.5v-1Z"/><path class="s" d="M67.6,60.7V59.6a2.9,2.9,0,0,1-2.5,1.2,3.11,3.11,0,0,1-2.2-.8,5.23,5.23,0,0,1-1.1-3.8,5.23,5.23,0,0,1,1.1-3.8,3,3,0,0,1,2.2-.8,2.81,2.81,0,0,1,2.5,1.1v-5h1.3V60.5H67.6Zm-2.3-7.8c-1.9,0-2.2,1.7-2.2,3.4s.3,3.4,2.2,3.4,2.2-1.7,2.2-3.4S67.3,52.9,65.3,52.9Z"/><path class="s" d="M72.9,56.6c0,1.9.9,3.1,2.6,3.1a2.9,2.9,0,0,0,2.3-1l.9.8a4,4,0,0,1-3.2,1.4c-2.4,0-3.9-1.4-3.9-4.5,0-2.9,1.4-4.5,3.6-4.5s3.6,1.6,3.6,4.3v.6H72.9Zm4.7-.9a5.67,5.67,0,0,0-.3-1.5,2.35,2.35,0,0,0-4.2,0,5.67,5.67,0,0,0-.3,1.5Z"/><path class="s" d="M86.9,60.7V59.6a2.9,2.9,0,0,1-2.5,1.2,3.11,3.11,0,0,1-2.2-.8,5.23,5.23,0,0,1-1.1-3.8,5.23,5.23,0,0,1,1.1-3.8,3,3,0,0,1,2.2-.8,2.81,2.81,0,0,1,2.5,1.1v-5h1.3V60.5H86.9Zm-2.2-7.8c-1.9,0-2.2,1.7-2.2,3.4s.3,3.4,2.2,3.4,2.2-1.7,2.2-3.4S86.6,52.9,84.7,52.9Z"/><path class="s" d="M103.5,60.7,100.6,55H97.5v5.7H96.1V47.9H101a3.47,3.47,0,0,1,3.8,3.6,3.21,3.21,0,0,1-2.8,3.4l3,5.8ZM101,49.1H97.6v4.7H101c1.5,0,2.6-.8,2.6-2.3A2.36,2.36,0,0,0,101,49.1Z"/><path class="s" d="M108,56.6c0,1.9.9,3.1,2.6,3.1a2.9,2.9,0,0,0,2.3-1l.9.8a4,4,0,0,1-3.2,1.4c-2.4,0-3.9-1.4-3.9-4.5,0-2.9,1.4-4.5,3.6-4.5s3.6,1.6,3.6,4.3v.6H108Zm4.7-.9a5.67,5.67,0,0,0-.3-1.5,2.35,2.35,0,0,0-4.2,0,5.67,5.67,0,0,0-.3,1.5Z"/><path class="s" d="M122.7,60.1a3,3,0,0,1-2.2.8,2.67,2.67,0,0,1-2.5-1.2v5h-1.3V51.9H118v1a2.9,2.9,0,0,1,2.5-1.2,3.11,3.11,0,0,1,2.2.8,5.23,5.23,0,0,1,1.1,3.8A5.23,5.23,0,0,1,122.7,60.1Zm-2.4-7.2c-1.9,0-2.2,1.7-2.2,3.4s.3,3.4,2.2,3.4,2.2-1.7,2.2-3.4S122.2,52.9,120.3,52.9Z"/><path class="s" d="M132.1,60.7v-1a3.25,3.25,0,0,1-2.5,1.1,3.37,3.37,0,0,1-2.3-.8,3.49,3.49,0,0,1-.9-2.5V51.8h1.3v5.5c0,1.6.8,2.4,2.2,2.4s2.2-.8,2.2-2.4V51.8h1.3v8.9Z"/><path class="s" d="M139.1,60.7a2.23,2.23,0,0,1-2.3-2.4V52.8h-1.1v-1h1.1V49.1h1.3v2.7H140v1h-1.9v5.5c0,.8.4,1.3,1.2,1.3h.7v1.1Z"/><path class="s" d="M147.7,60.7v-.8a3.25,3.25,0,0,1-2.6,1,3.15,3.15,0,0,1-2.5-.8,2.27,2.27,0,0,1-.7-1.8c0-1.6,1.1-2.6,3.1-2.6h2.6v-.8c0-1.3-.6-1.9-2.3-1.9a2.35,2.35,0,0,0-2.2,1l-.9-.8a3.48,3.48,0,0,1,3.1-1.3c2.4,0,3.5,1,3.5,3v6h-1.1Zm0-4.1h-2.5c-1.3,0-2,.5-2,1.6s.6,1.5,2.1,1.5a3,3,0,0,0,2-.6,2.07,2.07,0,0,0,.5-1.5v-1Z"/><path class="s" d="M154.6,60.7a2.23,2.23,0,0,1-2.3-2.4V52.8h-1.1v-1h1.1V49.1h1.3v2.7h1.9v1h-1.9v5.5c0,.8.4,1.3,1.2,1.3h.7v1.1Z"/><path class="s" d="M158,49.4V47.9h1.5v1.5Zm.1,11.3V51.8h1.3v8.9Z"/><path class="s" d="M168.3,59.8a3.55,3.55,0,0,1-2.5,1,3.38,3.38,0,0,1-2.5-1,4.77,4.77,0,0,1-1.1-3.5,4.77,4.77,0,0,1,1.1-3.5,3.55,3.55,0,0,1,2.5-1,3.38,3.38,0,0,1,2.5,1,4.77,4.77,0,0,1,1.1,3.5A4.77,4.77,0,0,1,168.3,59.8Zm-.9-6.2a2.43,2.43,0,0,0-3.2,0,3.92,3.92,0,0,0-.7,2.7,3.92,3.92,0,0,0,.7,2.7,2.43,2.43,0,0,0,3.2,0,4.07,4.07,0,0,0,.7-2.7A3.92,3.92,0,0,0,167.4,53.6Z"/><path class="s" d="M177.8,60.7V55.3c0-1.6-.8-2.4-2.2-2.4s-2.2.8-2.2,2.4v5.5h-1.3V51.9h1.3v1a3.25,3.25,0,0,1,2.5-1.1,3.37,3.37,0,0,1,2.3.8,3.33,3.33,0,0,1,.9,2.5v5.7h-1.3Z"/><path class="s" d="M193.3,61a3.54,3.54,0,0,1-3.7,3.8,3.72,3.72,0,0,1-3-1.2l.8-.8a2.58,2.58,0,0,0,2.1.9c1.7,0,2.4-1.2,2.4-2.7V59.6a2.9,2.9,0,0,1-2.5,1.2,2.71,2.71,0,0,1-2.1-.8,5.12,5.12,0,0,1-1.1-3.7,5.12,5.12,0,0,1,1.1-3.7,3,3,0,0,1,2.2-.8A2.67,2.67,0,0,1,192,53V52h1.3Zm-3.5-8.1c-1.9,0-2.2,1.7-2.2,3.3s.3,3.3,2.2,3.3,2.2-1.7,2.2-3.3S191.7,52.9,189.8,52.9Z"/><path class="s" d="M196.5,49.4V47.9H198v1.5Zm0,11.3V51.8h1.3v8.9Z"/><path class="s" d="M202.7,52.9v7.9h-1.3V52.9h-1.1v-1h1.1V50.3a2.18,2.18,0,0,1,2.3-2.4h.9V49h-.7c-.8,0-1.2.5-1.2,1.3v1.6h1.9v1Z"/><path class="s" d="M209.2,60.7a2.23,2.23,0,0,1-2.3-2.4V52.8h-1.1v-1h1.1V49.1h1.3v2.7h1.9v1h-1.9v5.5c0,.8.4,1.3,1.2,1.3h.7v1.1Z"/><path class="s" d="M223.5,59.5a3.44,3.44,0,0,1-2.9,1.3c-2.2,0-3.9-1.5-3.9-4.5s1.7-4.5,3.9-4.5a3.44,3.44,0,0,1,2.9,1.3l-.9.8a2.6,2.6,0,0,0-2-1,2.39,2.39,0,0,0-2.1,1,3.84,3.84,0,0,0-.6,2.4,4,4,0,0,0,.6,2.4,2.39,2.39,0,0,0,2.1,1,2.46,2.46,0,0,0,2-1Z"/><path class="s" d="M231,60.7v-.8a3.25,3.25,0,0,1-2.6,1,3.15,3.15,0,0,1-2.5-.8,2.27,2.27,0,0,1-.7-1.8c0-1.6,1.1-2.6,3.1-2.6h2.6v-.8c0-1.3-.6-1.9-2.3-1.9a2.35,2.35,0,0,0-2.2,1l-.9-.8a3.48,3.48,0,0,1,3.1-1.3c2.4,0,3.5,1,3.5,3v6H231Zm0-4.1h-2.5c-1.3,0-2,.5-2,1.6s.6,1.5,2.1,1.5a3,3,0,0,0,2-.6,2.07,2.07,0,0,0,.5-1.5v-1Z"/><path class="s" d="M240.4,53.6a1.72,1.72,0,0,0-1.5-.6,2.14,2.14,0,0,0-2.1,2.4v5.4h-1.3V51.9h1.3V53a3.18,3.18,0,0,1,2.5-1.2,2.78,2.78,0,0,1,2.1.8Z"/><path class="s" d="M247.8,60.7V59.6a2.9,2.9,0,0,1-2.5,1.2,3.11,3.11,0,0,1-2.2-.8,5.23,5.23,0,0,1-1.1-3.8,5.23,5.23,0,0,1,1.1-3.8,3,3,0,0,1,2.2-.8,2.81,2.81,0,0,1,2.5,1.1v-5h1.3V60.5h-1.3Zm-2.2-7.8c-1.9,0-2.2,1.7-2.2,3.4s.3,3.4,2.2,3.4,2.2-1.7,2.2-3.4S247.5,52.9,245.6,52.9Z"/><path class="s" d="M255.1,60.8a4.47,4.47,0,0,1-3.6-1.3l.9-.9a3.86,3.86,0,0,0,2.8,1c1.5,0,2.4-.5,2.4-1.6,0-.8-.4-1.2-1.5-1.3l-1.5-.1c-1.7-.1-2.6-.9-2.6-2.4s1.4-2.6,3.3-2.6a4.72,4.72,0,0,1,3.2,1l-.8.8a3.61,3.61,0,0,0-2.4-.7c-1.3,0-2,.5-2,1.5,0,.8.5,1.2,1.6,1.3l1.4.1c1.5.1,2.6.7,2.6,2.4C258.7,59.9,257.3,60.8,255.1,60.8Z"/><path class="s" d="M4.1,82.5A8.09,8.09,0,0,1,2.8,81a4.06,4.06,0,0,1-.4-1.9V69.7a3.28,3.28,0,0,1,.4-1.9,5.8,5.8,0,0,1,1.3-1.5l.9.9c-.5.5-.8.7-1,1.2a2.9,2.9,0,0,0-.3,1.4V79A2.09,2.09,0,0,0,4,80.4a4.84,4.84,0,0,0,1,1.2Z"/><path class="s" d="M8,80.8V67.9h8v1.2H9.4v4.5H15v1.2H9.4v4.6H16v1.2H8Z"/><path class="s" d="M21.1,80.8a2.23,2.23,0,0,1-2.3-2.4V72.9H17.7v-1h1.1V69.2h1.3v2.7H22v1H20.1v5.5c0,.8.4,1.3,1.2,1.3H22v1.1Z"/><path class="s" d="M30.2,80.8V75.3c0-1.6-.8-2.3-2.2-2.3a2,2,0,0,0-2.2,2.3v5.5H24.5V67.9h1.3v4.9a3.25,3.25,0,0,1,2.5-1.1A3,3,0,0,1,31.5,75v5.7H30.2Z"/><path class="s" d="M35.5,76.7c0,1.9.9,3.1,2.6,3.1a2.9,2.9,0,0,0,2.3-1l.9.8A4,4,0,0,1,38.1,81c-2.4,0-3.9-1.4-3.9-4.5,0-2.9,1.4-4.5,3.6-4.5s3.6,1.6,3.6,4.3v.6H35.5Zm4.7-1a5.67,5.67,0,0,0-.3-1.5,2.35,2.35,0,0,0-4.2,0,5.67,5.67,0,0,0-.3,1.5Z"/><path class="s" d="M49.2,73.6a1.72,1.72,0,0,0-1.5-.6,2.14,2.14,0,0,0-2.1,2.4v5.4H44.3V71.9h1.3V73a3.18,3.18,0,0,1,2.5-1.2,2.78,2.78,0,0,1,2.1.8Z"/><path class="s" d="M57.6,79.6a3.44,3.44,0,0,1-2.9,1.3c-2.2,0-3.9-1.5-3.9-4.5s1.7-4.5,3.9-4.5a3.44,3.44,0,0,1,2.9,1.3l-.9.8a2.6,2.6,0,0,0-2-1,2.39,2.39,0,0,0-2.1,1,3.84,3.84,0,0,0-.6,2.4,4,4,0,0,0,.6,2.4,2.39,2.39,0,0,0,2.1,1,2.46,2.46,0,0,0,2-1Z"/><path class="s" d="M65.1,80.8V80a3.25,3.25,0,0,1-2.6,1,3.15,3.15,0,0,1-2.5-.8,2.27,2.27,0,0,1-.7-1.8c0-1.6,1.1-2.6,3.1-2.6H65V75c0-1.3-.6-1.9-2.3-1.9a2.35,2.35,0,0,0-2.2,1l-.9-.8A3.48,3.48,0,0,1,62.7,72c2.4,0,3.5,1,3.5,3v6H65.1Zm0-4.1H62.6c-1.3,0-2,.5-2,1.6s.6,1.5,2.1,1.5a3,3,0,0,0,2-.6,2.07,2.07,0,0,0,.5-1.5v-1Z"/><path class="s" d="M74.5,73.6A1.72,1.72,0,0,0,73,73a2.14,2.14,0,0,0-2.1,2.4v5.4H69.6V71.9h1.3V73a3.18,3.18,0,0,1,2.5-1.2,2.78,2.78,0,0,1,2.1.8Z"/><path class="s" d="M81.9,80.8V79.7a2.9,2.9,0,0,1-2.5,1.2,3.11,3.11,0,0,1-2.2-.8,5.23,5.23,0,0,1-1.1-3.8,5.23,5.23,0,0,1,1.1-3.8,3,3,0,0,1,2.2-.8,2.81,2.81,0,0,1,2.5,1.1v-5h1.3V80.6H81.9Zm-2.3-7.9c-1.9,0-2.2,1.7-2.2,3.4s.3,3.4,2.2,3.4,2.2-1.7,2.2-3.4S81.6,72.9,79.6,72.9Z"/><path class="s" d="M89.2,80.9a4.47,4.47,0,0,1-3.6-1.3l.9-.9a3.86,3.86,0,0,0,2.8,1c1.5,0,2.4-.5,2.4-1.6,0-.8-.4-1.2-1.5-1.3l-1.5-.1c-1.7-.1-2.6-.9-2.6-2.4s1.4-2.6,3.3-2.6a4.72,4.72,0,0,1,3.2,1l-.8.8a3.61,3.61,0,0,0-2.4-.7c-1.3,0-2,.5-2,1.5,0,.8.5,1.2,1.6,1.3l1.4.1c1.5.1,2.6.7,2.6,2.4C92.8,79.9,91.3,80.9,89.2,80.9Z"/><path class="s" d="M94.8,81.5c.5-.5.8-.7,1-1.2a2.9,2.9,0,0,0,.3-1.4V69.7a2.65,2.65,0,0,0-.3-1.4,4.84,4.84,0,0,0-1-1.2l.9-.9A8.09,8.09,0,0,1,97,67.7a4.06,4.06,0,0,1,.4,1.9V79a3.28,3.28,0,0,1-.4,1.9,5.8,5.8,0,0,1-1.3,1.5Z"/><path class="s" d="M113.6,80.8h-1.2l-2.3-6.9-2.3,6.9h-1.2l-2.8-8.9h1.4l2,7.1,2.3-7.1h1.1l2.3,7.1,2-7.1h1.4Z"/><path class="s" d="M119,76.7c0,1.9.9,3.1,2.6,3.1a2.9,2.9,0,0,0,2.3-1l.9.8a4,4,0,0,1-3.2,1.4c-2.4,0-3.9-1.4-3.9-4.5,0-2.9,1.4-4.5,3.6-4.5s3.6,1.6,3.6,4.3v.6H119Zm4.7-1a5.67,5.67,0,0,0-.3-1.5,2.35,2.35,0,0,0-4.2,0,5.67,5.67,0,0,0-.3,1.5Z"/><path class="s" d="M132.7,73.6a1.72,1.72,0,0,0-1.5-.6,2.14,2.14,0,0,0-2.1,2.4v5.4h-1.3V71.9h1.3V73a3.18,3.18,0,0,1,2.5-1.2,2.78,2.78,0,0,1,2.1.8Z"/><path class="s" d="M135.6,76.7c0,1.9.9,3.1,2.6,3.1a2.9,2.9,0,0,0,2.3-1l.9.8a4,4,0,0,1-3.2,1.4c-2.4,0-3.9-1.4-3.9-4.5,0-2.9,1.4-4.5,3.6-4.5s3.6,1.6,3.6,4.3v.6h-5.9Zm4.7-1a5.67,5.67,0,0,0-.3-1.5,2.35,2.35,0,0,0-4.2,0,5.67,5.67,0,0,0-.3,1.5Z"/><path class="s" d="M155.3,81a3.54,3.54,0,0,1-3.7,3.8,3.72,3.72,0,0,1-3-1.2l.8-.8a2.58,2.58,0,0,0,2.1.9c1.7,0,2.4-1.2,2.4-2.7V79.6a2.9,2.9,0,0,1-2.5,1.2,2.71,2.71,0,0,1-2.1-.8,5.12,5.12,0,0,1-1.1-3.7,5.12,5.12,0,0,1,1.1-3.7,3,3,0,0,1,2.2-.8A2.67,2.67,0,0,1,154,73V72h1.3Zm-3.5-8.1c-1.9,0-2.2,1.7-2.2,3.3s.3,3.3,2.2,3.3,2.2-1.7,2.2-3.3S153.7,72.9,151.8,72.9Z"/><path class="s" d="M158.5,69.4V67.9H160v1.5Zm.1,11.4V71.9h1.3v8.9Z"/><path class="s" d="M166.1,80.8h-1.2l-3.2-8.9h1.4l2.4,7.1,2.4-7.1h1.4Z"/><path class="s" d="M171.9,76.7c0,1.9.9,3.1,2.6,3.1a2.9,2.9,0,0,0,2.3-1l.9.8a4,4,0,0,1-3.2,1.4c-2.4,0-3.9-1.4-3.9-4.5,0-2.9,1.4-4.5,3.6-4.5s3.6,1.6,3.6,4.3v.6h-5.9Zm4.7-1a5.67,5.67,0,0,0-.3-1.5,2.35,2.35,0,0,0-4.2,0,5.67,5.67,0,0,0-.3,1.5Z"/><path class="s" d="M186.3,80.8V75.3c0-1.6-.8-2.4-2.2-2.4s-2.2.8-2.2,2.4v5.5h-1.3V71.9h1.3v1a3.25,3.25,0,0,1,2.5-1.1,3.37,3.37,0,0,1,2.3.8,3.33,3.33,0,0,1,.9,2.5v5.7Z"/><path class="s" d="M201,79.9a3.55,3.55,0,0,1-2.5,1,3.38,3.38,0,0,1-2.5-1,4.77,4.77,0,0,1-1.1-3.5,4.63,4.63,0,0,1,1.1-3.5,3.55,3.55,0,0,1,2.5-1,3.38,3.38,0,0,1,2.5,1,4.77,4.77,0,0,1,1.1,3.5A6.06,6.06,0,0,1,201,79.9Zm-1-6.3a2.43,2.43,0,0,0-3.2,0,3.92,3.92,0,0,0-.7,2.7,3.92,3.92,0,0,0,.7,2.7,2.43,2.43,0,0,0,3.2,0,4.07,4.07,0,0,0,.7-2.7C200.7,75.3,200.7,74.2,200,73.6Z"/><path class="s" d="M210.4,80.8v-1a3.25,3.25,0,0,1-2.5,1.1,3.37,3.37,0,0,1-2.3-.8,3.49,3.49,0,0,1-.9-2.5V71.9H206v5.5c0,1.6.8,2.4,2.2,2.4s2.2-.8,2.2-2.4V71.9h1.3v8.9Z"/><path class="s" d="M217.4,80.8a2.23,2.23,0,0,1-2.3-2.4V72.9H214v-1h1.1V69.2h1.3v2.7h1.9v1h-1.9v5.5c0,.8.4,1.3,1.2,1.3h.7v1.1Z"/><path class="s" d="M230.4,80.8V80a3.25,3.25,0,0,1-2.6,1,3.15,3.15,0,0,1-2.5-.8,2.27,2.27,0,0,1-.7-1.8c0-1.6,1.1-2.6,3.1-2.6h2.6V75c0-1.3-.6-1.9-2.3-1.9a2.35,2.35,0,0,0-2.2,1l-.9-.8A3.48,3.48,0,0,1,228,72c2.4,0,3.5,1,3.5,3v6h-1.1Zm0-4.1h-2.5c-1.3,0-2,.5-2,1.6s.6,1.5,2.1,1.5a3,3,0,0,0,2-.6,2.07,2.07,0,0,0,.5-1.5v-1Z"/><path class="s" d="M237.3,80.8a2.23,2.23,0,0,1-2.3-2.4V72.9h-1.1v-1H235V69.2h1.3v2.7h1.9v1h-1.9v5.5c0,.8.4,1.3,1.2,1.3h.7v1.1Z"/><path class="s" d="M10.4,99.4A4.44,4.44,0,0,1,7,100.8H2.6V88H7a4.25,4.25,0,0,1,3.4,1.4c1.1,1.2,1.1,3.1,1.1,5.1C11.5,96.3,11.6,98.3,10.4,99.4ZM9.3,90.1a3.11,3.11,0,0,0-2.5-.9H4V99.6H6.8a3.11,3.11,0,0,0,2.5-.9c.8-.9.8-2.5.8-4.3S10.1,91,9.3,90.1Z"/><path class="s" d="M19.5,100.8V100a3.25,3.25,0,0,1-2.6,1,3.15,3.15,0,0,1-2.5-.8,2.27,2.27,0,0,1-.7-1.8c0-1.6,1.1-2.6,3.1-2.6h2.6V95c0-1.3-.6-1.9-2.3-1.9a2.35,2.35,0,0,0-2.2,1l-.9-.8A3.48,3.48,0,0,1,17.1,92c2.4,0,3.5,1,3.5,3v6H19.5Zm0-4.1H17c-1.3,0-2,.5-2,1.6s.6,1.5,2.1,1.5a3,3,0,0,0,2-.6,2.07,2.07,0,0,0,.5-1.5v-1Z"/><path class="s" d="M29.9,100.1a3,3,0,0,1-2.2.8,2.67,2.67,0,0,1-2.5-1.2v5H23.9V91.9h1.4v1a2.9,2.9,0,0,1,2.5-1.2,3.11,3.11,0,0,1,2.2.8,5.23,5.23,0,0,1,1.1,3.8A5.27,5.27,0,0,1,29.9,100.1ZM27.5,93c-1.9,0-2.2,1.7-2.2,3.4s.3,3.4,2.2,3.4,2.2-1.7,2.2-3.4S29.5,93,27.5,93Z"/><path class="s" d="M39.8,100.1a3,3,0,0,1-2.2.8,2.67,2.67,0,0,1-2.5-1.2v5H33.8V91.9h1.3v1a2.9,2.9,0,0,1,2.5-1.2,3.11,3.11,0,0,1,2.2.8,5.23,5.23,0,0,1,1.1,3.8A5.73,5.73,0,0,1,39.8,100.1ZM37.3,93c-1.9,0-2.2,1.7-2.2,3.4s.3,3.4,2.2,3.4,2.2-1.7,2.2-3.4S39.3,93,37.3,93Z"/><path class="s" d="M52.3,97.1a4.49,4.49,0,0,1-7.6,2.5c-1.2-1.2-1.3-2.3-1.3-5.3s.1-4,1.3-5.3a4.45,4.45,0,0,1,3.2-1.3,4.26,4.26,0,0,1,4.4,3.8H50.9a3.07,3.07,0,0,0-5.2-1.7c-.8.8-.9,1.8-.9,4.4s.1,3.6.9,4.4a2.94,2.94,0,0,0,2.2.9A3.11,3.11,0,0,0,51,96.9h1.3Z"/><path class="s" d="M60.8,99.9a3.55,3.55,0,0,1-2.5,1,3.38,3.38,0,0,1-2.5-1,4.77,4.77,0,0,1-1.1-3.5,4.63,4.63,0,0,1,1.1-3.5,3.55,3.55,0,0,1,2.5-1,3.38,3.38,0,0,1,2.5,1,4.77,4.77,0,0,1,1.1,3.5A5.84,5.84,0,0,1,60.8,99.9Zm-1-6.3a2.43,2.43,0,0,0-3.2,0,5.56,5.56,0,0,0,0,5.4,2.43,2.43,0,0,0,3.2,0,4.07,4.07,0,0,0,.7-2.7A3.7,3.7,0,0,0,59.8,93.6Z"/><path class="s" d="M70.3,100.8V95.3c0-1.6-.8-2.4-2.2-2.4s-2.2.8-2.2,2.4v5.5H64.6V91.9h1.3v1a3.25,3.25,0,0,1,2.5-1.1,3.37,3.37,0,0,1,2.3.8,3.33,3.33,0,0,1,.9,2.5v5.7Z"/><path class="s" d="M84.2,100.8V100a3.25,3.25,0,0,1-2.6,1,3.15,3.15,0,0,1-2.5-.8,2.27,2.27,0,0,1-.7-1.8c0-1.6,1.1-2.6,3.1-2.6h2.6V95c0-1.3-.6-1.9-2.3-1.9a2.35,2.35,0,0,0-2.2,1l-.9-.8A3.48,3.48,0,0,1,81.8,92c2.4,0,3.5,1,3.5,3v6H84.2Zm0-4.1H81.7c-1.3,0-2,.5-2,1.6s.6,1.5,2.1,1.5a3,3,0,0,0,2-.6,2.07,2.07,0,0,0,.5-1.5v-1Z"/><path class="s" d="M91.5,100.9a4.47,4.47,0,0,1-3.6-1.3l.9-.9a3.86,3.86,0,0,0,2.8,1c1.5,0,2.4-.5,2.4-1.6,0-.8-.4-1.2-1.5-1.3L91,96.7c-1.7-.1-2.6-.9-2.6-2.4s1.4-2.6,3.3-2.6a4.72,4.72,0,0,1,3.2,1l-.8.8a3.61,3.61,0,0,0-2.4-.7c-1.3,0-2,.5-2,1.5,0,.8.5,1.2,1.6,1.3l1.4.1c1.5.1,2.6.7,2.6,2.4C95.1,99.9,93.6,100.9,91.5,100.9Z"/><path class="s" d="M107.1,100.8V100a3.25,3.25,0,0,1-2.6,1,3.15,3.15,0,0,1-2.5-.8,2.27,2.27,0,0,1-.7-1.8c0-1.6,1.1-2.6,3.1-2.6H107V95c0-1.3-.6-1.9-2.3-1.9a2.35,2.35,0,0,0-2.2,1l-.9-.8a3.48,3.48,0,0,1,3.1-1.3c2.4,0,3.5,1,3.5,3v6h-1.1Zm0-4.1h-2.5c-1.3,0-2,.5-2,1.6s.6,1.5,2.1,1.5a3,3,0,0,0,2-.6,2.07,2.07,0,0,0,.5-1.5v-1Z"/><path class="s" d="M118.8,100.9a4.47,4.47,0,0,1-3.6-1.3l.9-.9a3.86,3.86,0,0,0,2.8,1c1.5,0,2.4-.5,2.4-1.6,0-.8-.4-1.2-1.5-1.3l-1.5-.1c-1.7-.1-2.6-.9-2.6-2.4s1.4-2.6,3.3-2.6a4.72,4.72,0,0,1,3.2,1l-.8.8a3.61,3.61,0,0,0-2.4-.7c-1.3,0-2,.5-2,1.5,0,.8.5,1.2,1.6,1.3l1.4.1c1.5.1,2.6.7,2.6,2.4C122.4,99.9,121,100.9,118.8,100.9Z"/><path class="s" d="M130.9,100.1a3,3,0,0,1-2.2.8,2.67,2.67,0,0,1-2.5-1.2v5h-1.3V91.9h1.3v1a2.9,2.9,0,0,1,2.5-1.2,3.11,3.11,0,0,1,2.2.8,5.23,5.23,0,0,1,1.1,3.8A5.23,5.23,0,0,1,130.9,100.1ZM128.5,93c-1.9,0-2.2,1.7-2.2,3.4s.3,3.4,2.2,3.4,2.2-1.7,2.2-3.4S130.4,93,128.5,93Z"/><path class="s" d="M135.6,96.7c0,1.9.9,3.1,2.6,3.1a2.9,2.9,0,0,0,2.3-1l.9.8a4,4,0,0,1-3.2,1.4c-2.4,0-3.9-1.4-3.9-4.5,0-2.9,1.4-4.5,3.6-4.5s3.6,1.6,3.6,4.3v.6h-5.9Zm4.7-1a5.67,5.67,0,0,0-.3-1.5,2.35,2.35,0,0,0-4.2,0,5.67,5.67,0,0,0-.3,1.5Z"/><path class="s" d="M150.7,99.6a3.44,3.44,0,0,1-2.9,1.3c-2.2,0-3.9-1.5-3.9-4.5s1.7-4.5,3.9-4.5a3.44,3.44,0,0,1,2.9,1.3l-.9.8a2.6,2.6,0,0,0-2-1,2.39,2.39,0,0,0-2.1,1,3.84,3.84,0,0,0-.6,2.4,4,4,0,0,0,.6,2.4,2.39,2.39,0,0,0,2.1,1,2.46,2.46,0,0,0,2-1Z"/><path class="s" d="M153.1,89.4V87.9h1.5v1.5Zm0,11.4V91.9h1.3v8.9Z"/><path class="s" d="M162.7,100.8V100a3.25,3.25,0,0,1-2.6,1,3.15,3.15,0,0,1-2.5-.8,2.27,2.27,0,0,1-.7-1.8c0-1.6,1.1-2.6,3.1-2.6h2.6V95c0-1.3-.6-1.9-2.3-1.9a2.35,2.35,0,0,0-2.2,1l-.9-.8a3.48,3.48,0,0,1,3.1-1.3c2.4,0,3.5,1,3.5,3v6h-1.1Zm0-4.1h-2.5c-1.3,0-2,.5-2,1.6s.6,1.5,2.1,1.5a3,3,0,0,0,2-.6,2.07,2.07,0,0,0,.5-1.5v-1Z"/><path class="s" d="M169.4,100.8a2.13,2.13,0,0,1-2.3-2.4V87.9h1.3V98.3c0,.9.3,1.3,1.2,1.3h.7v1.1h-.9Z"/><path class="s" d="M182.9,100.1a3,3,0,0,1-2.2.8,2.67,2.67,0,0,1-2.5-1.2v5h-1.3V91.9h1.3v1a2.9,2.9,0,0,1,2.5-1.2,3.11,3.11,0,0,1,2.2.8,5.23,5.23,0,0,1,1.1,3.8A5.23,5.23,0,0,1,182.9,100.1ZM180.4,93c-1.9,0-2.2,1.7-2.2,3.4s.3,3.4,2.2,3.4,2.2-1.7,2.2-3.4S182.4,93,180.4,93Z"/><path class="s" d="M191.7,93.6a1.72,1.72,0,0,0-1.5-.6,2.14,2.14,0,0,0-2.1,2.4v5.4h-1.3V91.9h1.3V93a3.18,3.18,0,0,1,2.5-1.2,2.78,2.78,0,0,1,2.1.8Z"/><path class="s" d="M199.4,99.9a3.55,3.55,0,0,1-2.5,1,3.38,3.38,0,0,1-2.5-1,4.77,4.77,0,0,1-1.1-3.5,4.63,4.63,0,0,1,1.1-3.5,3.55,3.55,0,0,1,2.5-1,3.38,3.38,0,0,1,2.5,1,6.12,6.12,0,0,1,0,7Zm-.9-6.3a2.43,2.43,0,0,0-3.2,0,5.56,5.56,0,0,0,0,5.4,2.43,2.43,0,0,0,3.2,0,4.07,4.07,0,0,0,.7-2.7A3.7,3.7,0,0,0,198.5,93.6Z"/><path class="s" d="M214.7,100.8V95.3c0-1.6-.8-2.4-2.2-2.4a2,2,0,0,0-2.2,2.2v5.6H209V95.3c0-1.6-.8-2.4-2.2-2.4s-2.2.8-2.2,2.4v5.5h-1.3V91.9h1.3v1a3.25,3.25,0,0,1,2.5-1.1,2.84,2.84,0,0,1,2.7,1.5,3.33,3.33,0,0,1,6.2,1.8v5.7Z"/><path class="s" d="M224.8,99.9a3.55,3.55,0,0,1-2.5,1,3.38,3.38,0,0,1-2.5-1,4.77,4.77,0,0,1-1.1-3.5,4.63,4.63,0,0,1,1.1-3.5,3.55,3.55,0,0,1,2.5-1,3.38,3.38,0,0,1,2.5,1,6.12,6.12,0,0,1,0,7Zm-.9-6.3a2.43,2.43,0,0,0-3.2,0,5.56,5.56,0,0,0,0,5.4,2.43,2.43,0,0,0,3.2,0,4.07,4.07,0,0,0,.7-2.7A4.23,4.23,0,0,0,223.9,93.6Z"/><path class="s" d="M231.1,100.8a2.23,2.23,0,0,1-2.3-2.4V92.9h-1.1v-1h1.1V89.2h1.3v2.7H232v1h-1.9v5.5c0,.8.4,1.3,1.2,1.3h.7v1.1Z"/><path class="s" d="M234.6,89.4V87.9h1.5v1.5Zm0,11.4V91.9h1.3v8.9Z"/><path class="s" d="M244.9,99.9a3.55,3.55,0,0,1-2.5,1,3.38,3.38,0,0,1-2.5-1,4.77,4.77,0,0,1-1.1-3.5,4.63,4.63,0,0,1,1.1-3.5,3.55,3.55,0,0,1,2.5-1,3.38,3.38,0,0,1,2.5,1,4.77,4.77,0,0,1,1.1,3.5A5.84,5.84,0,0,1,244.9,99.9Zm-1-6.3a2.43,2.43,0,0,0-3.2,0,5.56,5.56,0,0,0,0,5.4,2.43,2.43,0,0,0,3.2,0,4.07,4.07,0,0,0,.7-2.7A3.7,3.7,0,0,0,243.9,93.6Z"/><path class="s" d="M254.4,100.8V95.3c0-1.6-.8-2.4-2.2-2.4s-2.2.8-2.2,2.4v5.5h-1.3V91.9H250v1a3.25,3.25,0,0,1,2.5-1.1,3.37,3.37,0,0,1,2.3.8,3.33,3.33,0,0,1,.9,2.5v5.7Z"/><path class="s" d="M258.8,100.8V99.1h1.7v1.7Z"/><path class="s" d="M301.1,39.1H.8a.79.79,0,0,1-.8-.8.74.74,0,0,1,.8-.8H301.2a.79.79,0,0,1,.8.8A.88.88,0,0,1,301.1,39.1Z"/><g class="v"><path class="s" d="M4.1,30V27.3L15.8,12.4A7.17,7.17,0,0,0,17.5,8c0-3.2-1.9-5.3-5.2-5.3-2.8,0-5.2,1.5-5.2,5.4h-3C4.1,3.4,7.3,0,12.3,0s8.2,3.1,8.2,8c0,2.4-.8,3.9-2.4,6L7.7,27.3H20.5V30Z"/><path class="s" d="M34.9,10a5.25,5.25,0,0,1-5.6,5.6A5.25,5.25,0,0,1,23.7,10V5.6A5.25,5.25,0,0,1,29.3,0a5.25,5.25,0,0,1,5.6,5.6ZM32.5,5.7c0-2.3-.9-3.6-3.2-3.6S26,3.4,26,5.7V9.9c0,2.3.9,3.6,3.3,3.6s3.2-1.3,3.2-3.6ZM32.6,30H30.1L44,.3h2.5ZM53,24.7a5.25,5.25,0,0,1-5.6,5.6,5.25,5.25,0,0,1-5.6-5.6V20.3a5.25,5.25,0,0,1,5.6-5.6A5.25,5.25,0,0,1,53,20.3Zm-2.4-4.3c0-2.3-.9-3.6-3.2-3.6s-3.3,1.3-3.3,3.6v4.2c0,2.3.9,3.6,3.3,3.6s3.2-1.3,3.2-3.6Z"/></g><path class="s" d="M71.4,11.7a4.57,4.57,0,0,1-3.7,1.6H63.1V.3h4.6A4.25,4.25,0,0,1,71.4,2c.9,1.2,1,2.8,1,4.9S72.3,10.5,71.4,11.7ZM69.7,2.9A2.94,2.94,0,0,0,67.5,2H65.1v9.5h2.4a2.79,2.79,0,0,0,2.2-.9c.6-.7.7-1.9.7-3.9S70.3,3.6,69.7,2.9Z"/><path class="s" d="M79.2,13.3v-.8a3,3,0,0,1-2.5,1,3.56,3.56,0,0,1-2.5-.8,2.72,2.72,0,0,1-.7-2c0-1.6,1.1-2.7,3.2-2.7h2.4V7.3c0-1.2-.6-1.7-2-1.7a2.26,2.26,0,0,0-2,.9L73.9,5.3a3.92,3.92,0,0,1,3.3-1.4C79.8,3.9,81,5,81,7.1v6.2Zm-.1-4.1H77c-1.1,0-1.7.4-1.7,1.3s.5,1.3,1.8,1.3a2.46,2.46,0,0,0,1.7-.5,1.81,1.81,0,0,0,.4-1.4V9.2Z"/><path class="s" d="M89.6,12.6a3.2,3.2,0,0,1-2.3.8,2.54,2.54,0,0,1-2.4-1.1V17H83V4h1.8V5a2.81,2.81,0,0,1,2.5-1.1,3.2,3.2,0,0,1,2.3.8c.9.9,1,2.4,1,3.9A6.29,6.29,0,0,1,89.6,12.6Zm-2.8-7c-1.7,0-1.9,1.4-1.9,3.1s.2,3.1,1.9,3.1,1.9-1.4,1.9-3.1S88.5,5.6,86.8,5.6Z"/><path class="s" d="M98.8,12.6a3.2,3.2,0,0,1-2.3.8,2.54,2.54,0,0,1-2.4-1.1V17H92.2V4H94V5a2.81,2.81,0,0,1,2.5-1.1,3.2,3.2,0,0,1,2.3.8c.9.9,1,2.4,1,3.9S99.7,11.7,98.8,12.6ZM96,5.6c-1.7,0-1.9,1.4-1.9,3.1s.2,3.1,1.9,3.1,1.9-1.4,1.9-3.1S97.7,5.6,96,5.6Z"/><path class="s" d="M110.6,9.4a4.55,4.55,0,0,1-4.7,4,4.76,4.76,0,0,1-3.4-1.3c-1.3-1.3-1.3-2.6-1.3-5.3s0-4,1.3-5.3A4.38,4.38,0,0,1,105.9.2a4.55,4.55,0,0,1,4.7,4h-2A2.68,2.68,0,0,0,106,1.9a2.56,2.56,0,0,0-1.9.8c-.7.7-.8,1.5-.8,4.1s.1,3.4.8,4.1a2.56,2.56,0,0,0,1.9.8,2.62,2.62,0,0,0,2.7-2.3Z"/><path class="s" d="M118.3,12.4a4.11,4.11,0,0,1-5.6,0c-.9-.9-1.1-2.1-1.1-3.7A5,5,0,0,1,112.7,5a4.11,4.11,0,0,1,5.6,0c.9.9,1.1,2.1,1.1,3.7A5,5,0,0,1,118.3,12.4Zm-1.4-6.3a2,2,0,0,0-1.4-.5,2.17,2.17,0,0,0-1.4.5c-.6.6-.6,1.5-.6,2.6a4.2,4.2,0,0,0,.6,2.6,1.93,1.93,0,0,0,2.8,0c.6-.6.6-1.5.6-2.6A4.2,4.2,0,0,0,116.9,6.1Z"/><path class="s" d="M126.7,13.3V7.6c0-1.5-.8-2.1-1.9-2.1a1.85,1.85,0,0,0-1.9,2.1v5.7H121V4h1.8v.9a3.17,3.17,0,0,1,2.5-1,3.37,3.37,0,0,1,2.3.8,3.46,3.46,0,0,1,.9,2.6v6Z"/><path class="s" d="M70.6,30l-.9-2.6H64.5L63.6,30H61.5l4.8-13h1.6l4.8,13.1H70.6ZM67.2,19.9l-2,5.8h4Z"/><path class="s" d="M76.2,30a2.52,2.52,0,0,1-2.6-2.6V22.1H72.5V20.7h1.1V18h1.9v2.7h1.8v1.4H75.5v5.2c0,.7.3,1.1,1,1.1h.8V30Z"/><path class="s" d="M81.5,30a2.52,2.52,0,0,1-2.6-2.6V22.1H77.8V20.7h1.1V18h1.9v2.7h1.8v1.4H80.8v5.2c0,.7.3,1.1,1,1.1h.8V30Z"/><path class="s" d="M85.5,25.9c0,1.6.8,2.6,2.4,2.6a2.9,2.9,0,0,0,2.3-1l1.2,1.1a4.4,4.4,0,0,1-3.5,1.5c-2.3,0-4.2-1.2-4.2-4.8,0-3.1,1.5-4.8,3.9-4.8s3.9,1.8,3.9,4.5v.8h-6Zm4.2-1.3a5,5,0,0,0-.3-1.3,2,2,0,0,0-1.8-1.2,2.12,2.12,0,0,0-1.9,1.2,2.55,2.55,0,0,0-.2,1.3Z"/><path class="s" d="M98.8,30V24.3c0-1.5-.8-2.1-1.9-2.1A1.85,1.85,0,0,0,95,24.3V30H93.1V20.7h1.8v.9a3.17,3.17,0,0,1,2.5-1,3.37,3.37,0,0,1,2.3.8,3.46,3.46,0,0,1,.9,2.6v5.9H98.8Z"/><path class="s" d="M108,30V29a2.71,2.71,0,0,1-2.5,1.1,3.37,3.37,0,0,1-2.3-.8c-.9-.9-1-2.4-1-3.9s.1-3,1-3.9a3.2,3.2,0,0,1,2.3-.8,2.69,2.69,0,0,1,2.4,1V17h1.9V30.1H108Zm-2-7.7c-1.7,0-1.9,1.4-1.9,3.1s.2,3.1,1.9,3.1,1.9-1.4,1.9-3.1S107.7,22.3,106,22.3Z"/><path class="s" d="M113.2,25.9c0,1.6.8,2.6,2.4,2.6a2.9,2.9,0,0,0,2.3-1l1.2,1.1a4.4,4.4,0,0,1-3.5,1.5c-2.3,0-4.2-1.2-4.2-4.8,0-3.1,1.5-4.8,3.9-4.8s3.9,1.8,3.9,4.5v.8h-6Zm4.2-1.3a5,5,0,0,0-.3-1.3,2,2,0,0,0-1.8-1.2,2.12,2.12,0,0,0-1.9,1.2,2.55,2.55,0,0,0-.2,1.3Z"/><path class="s" d="M122.2,25.9c0,1.6.8,2.6,2.4,2.6a2.9,2.9,0,0,0,2.3-1l1.2,1.1a4.4,4.4,0,0,1-3.5,1.5c-2.3,0-4.2-1.2-4.2-4.8,0-3.1,1.5-4.8,3.9-4.8s3.9,1.8,3.9,4.5v.8h-6Zm4.2-1.3a5,5,0,0,0-.3-1.3,2,2,0,0,0-1.8-1.2,2.12,2.12,0,0,0-1.9,1.2,2.55,2.55,0,0,0-.2,1.3Z"/><path class="s" d="M132.8,30.1a5.44,5.44,0,0,1-3.9-1.3l1.2-1.2a3.52,3.52,0,0,0,2.7,1c1.2,0,2-.4,2-1.3,0-.6-.3-1-1.2-1.1l-1.5-.1c-1.8-.2-2.8-.9-2.8-2.6s1.6-2.8,3.5-2.8a5.58,5.58,0,0,1,3.5,1l-1.2,1.2a3.51,3.51,0,0,0-2.3-.7c-1.2,0-1.7.5-1.7,1.2s.3,1,1.3,1.1l1.3.1c1.9.2,2.9,1,2.9,2.6C136.7,29.2,135,30.1,132.8,30.1Z"/><g class="v"><path class="s" d="M12,172.5V146.1L6.4,151v-3.4l5.6-4.8h3v29.7Z"/><path class="s" d="M39.9,164.6a7.85,7.85,0,0,1-8.1,8.2,7.8,7.8,0,0,1-8.1-8.2V150.7a7.85,7.85,0,0,1,8.1-8.2,7.85,7.85,0,0,1,8.1,8.2Zm-3-13.7c0-3.3-1.8-5.7-5.1-5.7s-5.1,2.4-5.1,5.7v13.5c0,3.3,1.8,5.7,5.1,5.7s5.1-2.4,5.1-5.7Z"/><path class="s" d="M54.6,152.5a5.25,5.25,0,0,1-5.6,5.6,5.25,5.25,0,0,1-5.6-5.6v-4.4a5.25,5.25,0,0,1,5.6-5.6,5.25,5.25,0,0,1,5.6,5.6Zm-2.4-4.3c0-2.3-.9-3.6-3.2-3.6s-3.3,1.3-3.3,3.6v4.2c0,2.3.9,3.6,3.3,3.6s3.2-1.3,3.2-3.6Zm.1,24.3H49.8l13.9-29.7h2.5Zm20.4-5.3a5.25,5.25,0,0,1-5.6,5.6,5.25,5.25,0,0,1-5.6-5.6v-4.4a5.25,5.25,0,0,1,5.6-5.6,5.25,5.25,0,0,1,5.6,5.6Zm-2.4-4.3c0-2.3-.9-3.6-3.2-3.6s-3.3,1.3-3.3,3.6v4.2c0,2.3.9,3.6,3.3,3.6s3.2-1.3,3.2-3.6Z"/></g><path class="s" d="M91.5,150.8a4.74,4.74,0,0,1-1.2,3.7,4.91,4.91,0,0,1-3.6,1.5,4.76,4.76,0,0,1-3.4-1.3c-1.3-1.3-1.3-2.6-1.3-5.3s0-4,1.3-5.3a4.38,4.38,0,0,1,3.4-1.3,4.46,4.46,0,0,1,4.7,4h-2a2.64,2.64,0,0,0-2.8-2.3,2.56,2.56,0,0,0-1.9.8c-.7.7-.8,1.5-.8,4.1s.1,3.4.8,4.1a2.73,2.73,0,0,0,1.9.8,2.58,2.58,0,0,0,2.1-.9,2.92,2.92,0,0,0,.6-2.1v-.7H86.5v-1.7h4.8v1.9Z"/><path class="s" d="M93.5,155.9V142.8h8.4v1.8H95.5v3.8h5.4v1.8H95.5v3.9h6.4v1.8Z"/><path class="s" d="M111.7,155.9l-6-9.2v9.2h-2V142.8h1.8l6,9.2v-9.2h2v13.1Z"/><path class="s" d="M90,172.6l-.9-2.6H83.9l-.9,2.6H80.9l4.8-13.1h1.6l4.8,13.1Zm-3.4-10.2-2,5.8h4Z"/><path class="s" d="M98.5,172.6v-.9a3.17,3.17,0,0,1-2.5,1,3.37,3.37,0,0,1-2.3-.8,3.46,3.46,0,0,1-.9-2.6v-6h1.9V169c0,1.5.8,2.1,1.9,2.1s1.9-.6,1.9-2.1v-5.7h1.9v9.3Z"/><path class="s" d="M109.1,171.4a4,4,0,0,1-3.1,1.3c-2.1,0-4.1-1.3-4.1-4.8s2.1-4.8,4.1-4.8a4,4,0,0,1,3.1,1.3l-1.3,1.2a2.27,2.27,0,0,0-1.8-.9,2,2,0,0,0-1.7.8,3.52,3.52,0,0,0-.6,2.3,3,3,0,0,0,.6,2.3,1.88,1.88,0,0,0,1.7.8,2.13,2.13,0,0,0,1.8-.9Z"/><path class="s" d="M113.1,172.6a2.52,2.52,0,0,1-2.6-2.6v-5.3h-1.1v-1.4h1.1v-2.7h1.9v2.7h1.8v1.4h-1.8v5.2c0,.7.3,1.1,1,1.1h.8v1.6Z"/><path class="s" d="M115.7,161.4v-2h2v2Zm0,11.2v-9.3h1.9v9.3Z"/><path class="s" d="M125.9,171.6a4.11,4.11,0,0,1-5.6,0c-.9-.9-1.1-2.1-1.1-3.7a5,5,0,0,1,1.1-3.7,4.11,4.11,0,0,1,5.6,0c.9.9,1.1,2.1,1.1,3.7A5,5,0,0,1,125.9,171.6Zm-1.4-6.3a2,2,0,0,0-1.4-.5,2.17,2.17,0,0,0-1.4.5c-.6.6-.6,1.5-.6,2.6a4.2,4.2,0,0,0,.6,2.6,1.93,1.93,0,0,0,2.8,0c.6-.6.6-1.5.6-2.6A4.2,4.2,0,0,0,124.5,165.3Z"/><path class="s" d="M134.3,172.6v-5.7c0-1.5-.8-2.1-1.9-2.1a1.85,1.85,0,0,0-1.9,2.1v5.7h-1.9v-9.3h1.8v.9a3.17,3.17,0,0,1,2.5-1,3.37,3.37,0,0,1,2.3.8,3.46,3.46,0,0,1,.9,2.6v5.9h-1.8Z"/><g class="v"><path class="s" d="M18.1,335.6a7.92,7.92,0,0,1-5.9,2.2,8.38,8.38,0,0,1-6-2.1,8,8,0,0,1-2.1-5.2h3c.4,3,1.9,4.6,5,4.6a5.14,5.14,0,0,0,3.7-1.4c1.5-1.5,1.6-3.9,1.6-6.1,0-3.6-.7-7.2-5-7.2-2.6,0-4.3,1.1-4.9,2.9H4.8V307.7h15v2.7H7.6v9.4a6.93,6.93,0,0,1,5.3-2,6.79,6.79,0,0,1,5.1,1.9c2.1,2.3,2.5,5.1,2.5,8S20.2,333.5,18.1,335.6Z"/><path class="s" d="M39.9,329.6a7.85,7.85,0,0,1-8.1,8.2,7.8,7.8,0,0,1-8.1-8.2V315.7a7.85,7.85,0,0,1,8.1-8.2,7.85,7.85,0,0,1,8.1,8.2Zm-3-13.7c0-3.3-1.8-5.7-5.1-5.7s-5.1,2.4-5.1,5.7v13.5c0,3.3,1.8,5.7,5.1,5.7s5.1-2.4,5.1-5.7Z"/><path class="s" d="M54.6,317.5a5.25,5.25,0,0,1-5.6,5.6,5.25,5.25,0,0,1-5.6-5.6v-4.4a5.25,5.25,0,0,1,5.6-5.6,5.25,5.25,0,0,1,5.6,5.6Zm-2.4-4.3c0-2.3-.9-3.6-3.2-3.6s-3.3,1.3-3.3,3.6v4.2c0,2.3.9,3.6,3.3,3.6s3.2-1.3,3.2-3.6Zm.1,24.3H49.8l13.9-29.7h2.5Zm20.4-5.3a5.25,5.25,0,0,1-5.6,5.6,5.25,5.25,0,0,1-5.6-5.6v-4.4a5.25,5.25,0,0,1,5.6-5.6,5.25,5.25,0,0,1,5.6,5.6Zm-2.4-4.3c0-2.3-.9-3.6-3.2-3.6s-3.3,1.3-3.3,3.6v4.2c0,2.3.9,3.6,3.3,3.6s3.2-1.3,3.2-3.6Z"/></g><path class="s" d="M92.1,320.9v-8.7l-3,6.4H87.6l-3.1-6.4v8.7h-2V307.8h2l3.8,8.1,3.7-8.1h2v13.1Z"/><path class="s" d="M105.5,315.8a4.74,4.74,0,0,1-1.2,3.7,4.91,4.91,0,0,1-3.6,1.5,4.76,4.76,0,0,1-3.4-1.3c-1.3-1.3-1.3-2.6-1.3-5.3s0-4,1.3-5.3a4.38,4.38,0,0,1,3.4-1.3,4.46,4.46,0,0,1,4.7,4h-2a2.64,2.64,0,0,0-2.8-2.3,2.56,2.56,0,0,0-1.9.8c-.7.7-.8,1.5-.8,4.1s.1,3.4.8,4.1a2.73,2.73,0,0,0,1.9.8,2.58,2.58,0,0,0,2.1-.9,2.92,2.92,0,0,0,.6-2.1v-.7h-2.8v-1.7h4.8v1.9Z"/><path class="s" d="M115.6,320.9l-6-9.2v9.2h-2V307.8h1.8l6,9.2v-9.2h2v13.1Z"/><path class="s" d="M127.8,309.6v11.3h-2V309.6h-3.6v-1.8h9.2v1.8Z"/><path class="s" d="M137.3,319.9a4.11,4.11,0,0,1-5.6,0c-.9-.9-1.1-2.1-1.1-3.7a5,5,0,0,1,1.1-3.7,4.11,4.11,0,0,1,5.6,0c.9.9,1.1,2.1,1.1,3.7A5.29,5.29,0,0,1,137.3,319.9Zm-1.5-6.2a2,2,0,0,0-1.4-.5,2.17,2.17,0,0,0-1.4.5c-.6.6-.6,1.5-.6,2.6a4.2,4.2,0,0,0,.6,2.6,1.93,1.93,0,0,0,2.8,0c.6-.6.6-1.5.6-2.6A3.11,3.11,0,0,0,135.8,313.7Z"/><path class="s" d="M145.8,320.9l-2.6-4.3-1.4,1.6v2.7h-1.9V307.8h1.9v8.1l3.6-4.3h2.3l-3.2,3.7,3.6,5.7h-2.3Z"/><path class="s" d="M149.8,316.8c0,1.6.8,2.6,2.4,2.6a2.9,2.9,0,0,0,2.3-1l1.2,1.1a4.4,4.4,0,0,1-3.5,1.5c-2.3,0-4.2-1.2-4.2-4.8,0-3.1,1.5-4.8,3.9-4.8s3.9,1.8,3.9,4.5v.8h-6Zm4.1-1.3a5,5,0,0,0-.3-1.3,2,2,0,0,0-1.8-1.2,2.12,2.12,0,0,0-1.9,1.2,2.55,2.55,0,0,0-.2,1.3Z"/><path class="s" d="M163,320.9v-5.7c0-1.5-.8-2.1-1.9-2.1a1.85,1.85,0,0,0-1.9,2.1v5.7h-1.9v-9.3h1.8v.9a3.17,3.17,0,0,1,2.5-1,3.37,3.37,0,0,1,2.3.8,3.46,3.46,0,0,1,.9,2.6v5.9H163Z"/><path class="s" d="M90,337.6l-.9-2.6H83.9l-.9,2.6H80.9l4.8-13.1h1.6l4.8,13.1Zm-3.4-10.1-2,5.8h4Z"/><path class="s" d="M99.6,336.4a4,4,0,0,1-3.1,1.3c-2.1,0-4.1-1.3-4.1-4.8s2.1-4.8,4.1-4.8a4,4,0,0,1,3.1,1.3l-1.3,1.2a2.27,2.27,0,0,0-1.8-.9,2,2,0,0,0-1.7.8,3.52,3.52,0,0,0-.6,2.3,3,3,0,0,0,.6,2.3,1.88,1.88,0,0,0,1.7.8,2.13,2.13,0,0,0,1.8-.9Z"/><path class="s" d="M103.6,337.6A2.52,2.52,0,0,1,101,335v-5.3H99.9v-1.4H101v-2.7h1.9v2.7h1.8v1.4h-1.8v5.2c0,.7.3,1.1,1,1.1h.8v1.6Z"/><path class="s" d="M106.2,326.5v-2h2v2Zm0,11.1v-9.3h1.9v9.3Z"/><path class="s" d="M113.7,337.6h-1.5l-3.4-9.3h2l2.2,6.6,2.2-6.6h2Z"/><path class="s" d="M122.9,337.6v-.8a3,3,0,0,1-2.5,1,3.56,3.56,0,0,1-2.5-.8,2.72,2.72,0,0,1-.7-2c0-1.6,1.1-2.7,3.2-2.7h2.4v-.7c0-1.2-.6-1.7-2-1.7a2.26,2.26,0,0,0-2,.9l-1.2-1.2a3.92,3.92,0,0,1,3.3-1.4c2.6,0,3.8,1.1,3.8,3.2v6.2Zm-.1-4.1h-2.1c-1.1,0-1.7.4-1.7,1.3s.5,1.3,1.8,1.3a2.46,2.46,0,0,0,1.7-.5,1.81,1.81,0,0,0,.4-1.4v-.7Z"/><path class="s" d="M129.5,337.6a2.52,2.52,0,0,1-2.6-2.6v-5.3h-1.1v-1.4h1.1v-2.7h1.9v2.7h1.8v1.4h-1.8v5.2c0,.7.3,1.1,1,1.1h.8v1.6Z"/><path class="s" d="M132,326.5v-2h2v2Zm0,11.1v-9.3h1.9v9.3Z"/><path class="s" d="M142.2,336.6a4.11,4.11,0,0,1-5.6,0c-.9-.9-1.1-2.1-1.1-3.7a5,5,0,0,1,1.1-3.7,4.11,4.11,0,0,1,5.6,0c.9.9,1.1,2.1,1.1,3.7S143.1,335.7,142.2,336.6Zm-1.4-6.2a2,2,0,0,0-1.4-.5,2.17,2.17,0,0,0-1.4.5c-.6.6-.6,1.5-.6,2.6a4.2,4.2,0,0,0,.6,2.6,1.93,1.93,0,0,0,2.8,0c.6-.6.6-1.5.6-2.6S141.4,330.9,140.8,330.4Z"/><path class="s" d="M150.6,337.6v-5.7c0-1.5-.8-2.1-1.9-2.1a1.85,1.85,0,0,0-1.9,2.1v5.7h-1.9v-9.3h1.8v.9a3.17,3.17,0,0,1,2.5-1,3.37,3.37,0,0,1,2.3.8,3.46,3.46,0,0,1,.9,2.6v5.9h-1.8Z"/><path class="s" d="M5.4,203.3V191.9L3,194v-1.5l2.4-2.1H6.7v12.9Z"/><path class="s" d="M18.4,199.8a3.36,3.36,0,0,1-3.5,3.5,3.36,3.36,0,0,1-3.5-3.5v-6a3.36,3.36,0,0,1,3.5-3.5,3.36,3.36,0,0,1,3.5,3.5Zm-1.3-5.9a2.21,2.21,0,1,0-4.4,0v5.8a2.21,2.21,0,1,0,4.4,0Z"/><path class="s" d="M25.6,194.6a2.26,2.26,0,0,1-2.4,2.4,2.26,2.26,0,0,1-2.4-2.4v-1.9a2.26,2.26,0,0,1,2.4-2.4,2.26,2.26,0,0,1,2.4,2.4Zm-1-1.8c0-1-.4-1.6-1.4-1.6s-1.4.6-1.4,1.6v1.8c0,1,.4,1.5,1.4,1.5s1.4-.6,1.4-1.5Zm0,10.5H23.5l6-12.8h1.1Zm8.8-2.3a2.4,2.4,0,0,1-4.8,0v-1.9a2.4,2.4,0,1,1,4.8,0Zm-1-1.9c0-1-.4-1.6-1.4-1.6s-1.4.6-1.4,1.6v1.8c0,1,.4,1.6,1.4,1.6s1.4-.6,1.4-1.6Z"/><path class="s" d="M46.4,202.4a3.55,3.55,0,0,1-2.5,1,3.38,3.38,0,0,1-2.5-1,4.77,4.77,0,0,1-1.1-3.5,4.63,4.63,0,0,1,1.1-3.5,3.55,3.55,0,0,1,2.5-1,3.38,3.38,0,0,1,2.5,1,4.77,4.77,0,0,1,1.1,3.5A6.06,6.06,0,0,1,46.4,202.4Zm-1-6.3a2.43,2.43,0,0,0-3.2,0,5.56,5.56,0,0,0,0,5.4,2.43,2.43,0,0,0,3.2,0,4.07,4.07,0,0,0,.7-2.7C46.1,197.8,46.1,196.7,45.4,196.1Z"/><path class="s" d="M51.8,195.4v7.9H50.5v-7.9H49.4v-1h1.1v-1.6a2.18,2.18,0,0,1,2.3-2.4h.9v1.1H53c-.8,0-1.2.5-1.2,1.3v1.6h1.9v1Z"/><path class="s" d="M67.9,203.3,65,197.6H61.9v5.7H60.5V190.5h4.9a3.47,3.47,0,0,1,3.8,3.6,3.21,3.21,0,0,1-2.8,3.4l3,5.8Zm-2.5-11.6H62v4.7h3.4c1.5,0,2.6-.8,2.6-2.3A2.31,2.31,0,0,0,65.4,191.7Z"/><path class="s" d="M72.4,199.2c0,1.9.9,3.1,2.6,3.1a2.9,2.9,0,0,0,2.3-1l.9.8a4,4,0,0,1-3.2,1.4c-2.4,0-3.9-1.4-3.9-4.5,0-2.9,1.4-4.5,3.6-4.5s3.6,1.6,3.6,4.3v.6H72.4Zm4.7-1a5.67,5.67,0,0,0-.3-1.5,2.35,2.35,0,0,0-4.2,0,5.67,5.67,0,0,0-.3,1.5Z"/><path class="s" d="M87.1,202.6a3,3,0,0,1-2.2.8,2.67,2.67,0,0,1-2.5-1.2v5H81.1V194.4h1.3v1a2.9,2.9,0,0,1,2.5-1.2,3.11,3.11,0,0,1,2.2.8,7.11,7.11,0,0,1,0,7.6Zm-2.4-7.1c-1.9,0-2.2,1.7-2.2,3.4s.3,3.4,2.2,3.4,2.2-1.7,2.2-3.4S86.6,195.5,84.7,195.5Z"/><path class="s" d="M96.6,203.3v-1a3.25,3.25,0,0,1-2.5,1.1,3.37,3.37,0,0,1-2.3-.8,3.49,3.49,0,0,1-.9-2.5v-5.7h1.3v5.5c0,1.6.8,2.4,2.2,2.4s2.2-.8,2.2-2.4v-5.5h1.3v8.9Z"/><path class="s" d="M103.6,203.3a2.23,2.23,0,0,1-2.3-2.4v-5.5h-1.1v-1h1.1v-2.7h1.3v2.7h1.9v1h-1.9v5.5c0,.8.4,1.3,1.2,1.3h.7v1.1Z"/><path class="s" d="M112.1,203.3v-.8a3.25,3.25,0,0,1-2.6,1,3.15,3.15,0,0,1-2.5-.8,2.27,2.27,0,0,1-.7-1.8c0-1.6,1.1-2.6,3.1-2.6H112v-.8c0-1.3-.6-1.9-2.3-1.9a2.35,2.35,0,0,0-2.2,1l-.9-.8a3.48,3.48,0,0,1,3.1-1.3c2.4,0,3.5,1,3.5,3v6h-1.1Zm0-4.1h-2.5c-1.3,0-2,.5-2,1.6s.6,1.5,2.1,1.5a3,3,0,0,0,2-.6,2.07,2.07,0,0,0,.5-1.5v-1Z"/><path class="s" d="M119,203.3a2.23,2.23,0,0,1-2.3-2.4v-5.5h-1.1v-1h1.1v-2.7H118v2.7h1.9v1H118v5.5c0,.8.4,1.3,1.2,1.3h.7v1.1Z"/><path class="s" d="M122.4,191.9v-1.5h1.5v1.5Zm.1,11.4v-8.9h1.3v8.9Z"/><path class="s" d="M132.7,202.4a3.55,3.55,0,0,1-2.5,1,3.38,3.38,0,0,1-2.5-1,4.77,4.77,0,0,1-1.1-3.5,4.63,4.63,0,0,1,1.1-3.5,3.55,3.55,0,0,1,2.5-1,3.38,3.38,0,0,1,2.5,1,4.77,4.77,0,0,1,1.1,3.5A4.91,4.91,0,0,1,132.7,202.4Zm-.9-6.3a2.43,2.43,0,0,0-3.2,0,5.56,5.56,0,0,0,0,5.4,2.43,2.43,0,0,0,3.2,0,4.07,4.07,0,0,0,.7-2.7C132.5,197.8,132.5,196.7,131.8,196.1Z"/><path class="s" d="M142.2,203.3v-5.5c0-1.6-.8-2.4-2.2-2.4s-2.2.8-2.2,2.4v5.5h-1.3v-8.9h1.3v1a3.25,3.25,0,0,1,2.5-1.1,3.37,3.37,0,0,1,2.3.8,3.33,3.33,0,0,1,.9,2.5v5.7Z"/><path class="s" d="M159.6,203.3h-1.2l-2.3-6.9-2.3,6.9h-1.2l-2.8-8.9h1.4l2,7.1,2.3-7.1h1.1l2.3,7.1,2-7.1h1.4Z"/><path class="s" d="M164.1,191.9v-1.5h1.5v1.5Zm.1,11.4v-8.9h1.3v8.9Z"/><path class="s" d="M171,203.3a2.13,2.13,0,0,1-2.3-2.4V190.4H170v10.4c0,.9.3,1.3,1.2,1.3h.7v1.1H171Z"/><path class="s" d="M176.2,203.3a2.13,2.13,0,0,1-2.3-2.4V190.4h1.3v10.4c0,.9.3,1.3,1.2,1.3h.7v1.1h-.9Z"/><path class="s" d="M189.8,202.6a3,3,0,0,1-2.2.8,2.67,2.67,0,0,1-2.5-1.2v1.1h-1.3V190.5h1.3v5a2.81,2.81,0,0,1,2.5-1.1,3.11,3.11,0,0,1,2.2.8,5.23,5.23,0,0,1,1.1,3.8A5.18,5.18,0,0,1,189.8,202.6Zm-2.5-7.1c-1.9,0-2.2,1.7-2.2,3.4s.3,3.4,2.2,3.4,2.2-1.7,2.2-3.4S189.3,195.5,187.3,195.5Z"/><path class="s" d="M194.4,199.2c0,1.9.9,3.1,2.6,3.1a2.9,2.9,0,0,0,2.3-1l.9.8a4,4,0,0,1-3.2,1.4c-2.4,0-3.9-1.4-3.9-4.5,0-2.9,1.4-4.5,3.6-4.5s3.6,1.6,3.6,4.3v.6h-5.9Zm4.7-1a5.67,5.67,0,0,0-.3-1.5,2.35,2.35,0,0,0-4.2,0,5.67,5.67,0,0,0-.3,1.5Z"/><path class="s" d="M212.7,203.3v-.8a3.25,3.25,0,0,1-2.6,1,3.15,3.15,0,0,1-2.5-.8,2.27,2.27,0,0,1-.7-1.8c0-1.6,1.1-2.6,3.1-2.6h2.6v-.8c0-1.3-.6-1.9-2.3-1.9a2.35,2.35,0,0,0-2.2,1l-.9-.8a3.48,3.48,0,0,1,3.1-1.3c2.4,0,3.5,1,3.5,3v6h-1.1Zm0-4.1h-2.5c-1.3,0-2,.5-2,1.6s.6,1.5,2.1,1.5a3,3,0,0,0,2-.6,2.07,2.07,0,0,0,.5-1.5v-1Z"/><path class="s" d="M222.7,203.3v-1a3.25,3.25,0,0,1-2.5,1.1,3.37,3.37,0,0,1-2.3-.8,3.49,3.49,0,0,1-.9-2.5v-5.7h1.3v5.5c0,1.6.8,2.4,2.2,2.4s2.2-.8,2.2-2.4v-5.5H224v8.9Z"/><path class="s" d="M233.6,202.1a3.44,3.44,0,0,1-2.9,1.3c-2.2,0-3.9-1.5-3.9-4.5s1.7-4.5,3.9-4.5a3.44,3.44,0,0,1,2.9,1.3l-.9.8a2.6,2.6,0,0,0-2-1,2.39,2.39,0,0,0-2.1,1,3.84,3.84,0,0,0-.6,2.4,4,4,0,0,0,.6,2.4,2.39,2.39,0,0,0,2.1,1,2.46,2.46,0,0,0,2-1Z"/><path class="s" d="M238.5,203.3a2.23,2.23,0,0,1-2.3-2.4v-5.5h-1.1v-1h1.1v-2.7h1.3v2.7h1.9v1h-1.9v5.5c0,.8.4,1.3,1.2,1.3h.7v1.1Z"/><path class="s" d="M241.9,191.9v-1.5h1.5v1.5Zm.1,11.4v-8.9h1.3v8.9Z"/><path class="s" d="M252.2,202.4a3.55,3.55,0,0,1-2.5,1,3.38,3.38,0,0,1-2.5-1,4.77,4.77,0,0,1-1.1-3.5,4.63,4.63,0,0,1,1.1-3.5,3.55,3.55,0,0,1,2.5-1,3.38,3.38,0,0,1,2.5,1,4.77,4.77,0,0,1,1.1,3.5A4.91,4.91,0,0,1,252.2,202.4Zm-.9-6.3a2.43,2.43,0,0,0-3.2,0,5.56,5.56,0,0,0,0,5.4,2.43,2.43,0,0,0,3.2,0,4.07,4.07,0,0,0,.7-2.7C252,197.8,252,196.7,251.3,196.1Z"/><path class="s" d="M261.8,203.3v-5.5c0-1.6-.8-2.4-2.2-2.4s-2.2.8-2.2,2.4v5.5h-1.3v-8.9h1.3v1a3.25,3.25,0,0,1,2.5-1.1,3.37,3.37,0,0,1,2.3.8,3.33,3.33,0,0,1,.9,2.5v5.7Z"/><path class="s" d="M267,199.2c0,1.9.9,3.1,2.6,3.1a2.9,2.9,0,0,0,2.3-1l.9.8a4,4,0,0,1-3.2,1.4c-2.4,0-3.9-1.4-3.9-4.5,0-2.9,1.4-4.5,3.6-4.5s3.6,1.6,3.6,4.3v.6H267Zm4.7-1a5.67,5.67,0,0,0-.3-1.5,2.35,2.35,0,0,0-4.2,0,5.67,5.67,0,0,0-.3,1.5Z"/><path class="s" d="M281,203.3v-1.1a2.9,2.9,0,0,1-2.5,1.2,3.11,3.11,0,0,1-2.2-.8,7.11,7.11,0,0,1,0-7.6,3,3,0,0,1,2.2-.8,2.81,2.81,0,0,1,2.5,1.1v-5h1.3v13Zm-2.2-7.8c-1.9,0-2.2,1.7-2.2,3.4s.3,3.4,2.2,3.4,2.2-1.7,2.2-3.4S280.8,195.5,278.8,195.5Z"/><path class="s" d="M290,191.9v-1.5h1.5v1.5Zm0,11.4v-8.9h1.3v8.9Z"/><path class="s" d="M300.2,203.3v-5.5c0-1.6-.8-2.4-2.2-2.4s-2.2.8-2.2,2.4v5.5h-1.3v-8.9h1.3v1a3.25,3.25,0,0,1,2.5-1.1,3.37,3.37,0,0,1,2.3.8,3.33,3.33,0,0,1,.9,2.5v5.7Z"/><path class="s" d="M3.2,219.2c0,1.9.9,3.1,2.6,3.1a2.9,2.9,0,0,0,2.3-1l.9.8a4,4,0,0,1-3.2,1.4c-2.4,0-3.9-1.4-3.9-4.5,0-2.9,1.4-4.5,3.6-4.5s3.6,1.6,3.6,4.3v.6H3.2Zm4.7-1a5.67,5.67,0,0,0-.3-1.5,2.23,2.23,0,0,0-2.1-1.3,2.23,2.23,0,0,0-2.1,1.3,5.67,5.67,0,0,0-.3,1.5Z"/><path class="s" d="M16.8,223.3l-2.1-3.4-2.2,3.4H10.9l3-4.5L11,214.5h1.6l2,3.3,2-3.3h1.6l-2.9,4.3,3,4.5Z"/><path class="s" d="M26.9,222.1a3.44,3.44,0,0,1-2.9,1.3c-2.2,0-3.9-1.5-3.9-4.5s1.7-4.5,3.9-4.5a3.44,3.44,0,0,1,2.9,1.3l-.9.8a2.6,2.6,0,0,0-2-1,2.39,2.39,0,0,0-2.1,1,3.84,3.84,0,0,0-.6,2.4,4,4,0,0,0,.6,2.4,2.39,2.39,0,0,0,2.1,1,2.46,2.46,0,0,0,2-1Z"/><path class="s" d="M35,223.3v-5.5c0-1.6-.8-2.3-2.2-2.3a2,2,0,0,0-2.2,2.3v5.5H29.3V210.5h1.3v4.9a3.25,3.25,0,0,1,2.5-1.1,3,3,0,0,1,3.2,3.3v5.7Z"/><path class="s" d="M44.5,223.3v-.8a3.25,3.25,0,0,1-2.6,1,3.15,3.15,0,0,1-2.5-.8,2.27,2.27,0,0,1-.7-1.8c0-1.6,1.1-2.6,3.1-2.6h2.6v-.8c0-1.3-.6-1.9-2.3-1.9a2.35,2.35,0,0,0-2.2,1l-.9-.8a3.48,3.48,0,0,1,3.1-1.3c2.4,0,3.5,1,3.5,3v6H44.5Zm0-4.1H42c-1.3,0-2,.5-2,1.6s.6,1.5,2.1,1.5a3,3,0,0,0,2-.6,2.07,2.07,0,0,0,.5-1.5v-1Z"/><path class="s" d="M54.6,223.3v-5.5c0-1.6-.8-2.4-2.2-2.4s-2.2.8-2.2,2.4v5.5H48.9v-8.9h1.3v1a3.25,3.25,0,0,1,2.5-1.1,3.37,3.37,0,0,1,2.3.8,3.33,3.33,0,0,1,.9,2.5v5.7Z"/><path class="s" d="M65.6,223.6a3.54,3.54,0,0,1-3.7,3.8,3.72,3.72,0,0,1-3-1.2l.8-.8a2.58,2.58,0,0,0,2.1.9c1.7,0,2.4-1.2,2.4-2.7v-1.4a2.9,2.9,0,0,1-2.5,1.2,2.71,2.71,0,0,1-2.1-.8,6.77,6.77,0,0,1,0-7.4,3,3,0,0,1,2.2-.8,2.67,2.67,0,0,1,2.5,1.2v-1h1.3Zm-3.5-8.1c-1.9,0-2.2,1.7-2.2,3.3s.3,3.3,2.2,3.3,2.2-1.7,2.2-3.3S64,215.5,62.1,215.5Z"/><path class="s" d="M69.7,219.2c0,1.9.9,3.1,2.6,3.1a2.9,2.9,0,0,0,2.3-1l.9.8a4,4,0,0,1-3.2,1.4c-2.4,0-3.9-1.4-3.9-4.5,0-2.9,1.4-4.5,3.6-4.5s3.6,1.6,3.6,4.3v.6H69.7Zm4.7-1a5.67,5.67,0,0,0-.3-1.5,2.35,2.35,0,0,0-4.2,0,5.67,5.67,0,0,0-.3,1.5Z"/><path class="s" d="M84.4,215.4v7.9H83.1v-7.9H82v-1h1.1v-1.6a2.18,2.18,0,0,1,2.3-2.4h.9v1.1h-.7c-.8,0-1.2.5-1.2,1.3v1.6h1.9v1Z"/><path class="s" d="M94.2,222.4a3.55,3.55,0,0,1-2.5,1,3.38,3.38,0,0,1-2.5-1,4.77,4.77,0,0,1-1.1-3.5,4.63,4.63,0,0,1,1.1-3.5,3.55,3.55,0,0,1,2.5-1,3.38,3.38,0,0,1,2.5,1,6.12,6.12,0,0,1,0,7Zm-.9-6.3a2.43,2.43,0,0,0-3.2,0,5.56,5.56,0,0,0,0,5.4,2.43,2.43,0,0,0,3.2,0,4.07,4.07,0,0,0,.7-2.7A4.23,4.23,0,0,0,93.3,216.1Z"/><path class="s" d="M103,216.1a1.72,1.72,0,0,0-1.5-.6,2.14,2.14,0,0,0-2.1,2.4v5.4H98.1v-8.9h1.3v1.1a3.18,3.18,0,0,1,2.5-1.2,2.78,2.78,0,0,1,2.1.8Z"/><path class="s" d="M118.1,221.9a4.44,4.44,0,0,1-3.4,1.4h-4.4V210.5h4.4a4.25,4.25,0,0,1,3.4,1.4c1.1,1.2,1.1,3.1,1.1,5.1C119.2,218.8,119.3,220.8,118.1,221.9Zm-1.1-9.3a3.11,3.11,0,0,0-2.5-.9h-2.8v10.4h2.8a3.11,3.11,0,0,0,2.5-.9c.8-.9.8-2.5.8-4.3S117.9,213.5,117,212.6Z"/><path class="s" d="M129.9,223.3l-1-2.9h-5.6l-1,2.9h-1.5l4.7-12.8h1.2l4.7,12.8Zm-3.8-10.9-2.4,6.8h4.8Z"/><path class="s" d="M140.6,222.1a4.59,4.59,0,0,1-6.4,0c-1.2-1.2-1.3-2.3-1.3-5.3s.1-4,1.3-5.3a4.45,4.45,0,0,1,3.2-1.3,4.28,4.28,0,0,1,3.2,1.3c1.2,1.2,1.3,2.3,1.3,5.3S141.9,220.9,140.6,222.1Zm-.9-9.6a3.14,3.14,0,0,0-4.4,0c-.8.8-.9,1.8-.9,4.4s.1,3.6.9,4.4a3.14,3.14,0,0,0,4.4,0c.8-.8.9-1.8.9-4.4S140.5,213.3,139.7,212.5Z"/><path class="s" d="M147.7,223.4a4.47,4.47,0,0,1-3.6-1.3l.9-.9a3.86,3.86,0,0,0,2.8,1c1.5,0,2.4-.5,2.4-1.6,0-.8-.4-1.2-1.5-1.3l-1.5-.1c-1.7-.1-2.6-.9-2.6-2.4s1.4-2.6,3.3-2.6a4.72,4.72,0,0,1,3.2,1l-.8.8a3.61,3.61,0,0,0-2.4-.7c-1.3,0-2,.5-2,1.5,0,.8.5,1.2,1.6,1.3l1.4.1c1.5.1,2.6.7,2.6,2.4C151.3,222.4,149.9,223.4,147.7,223.4Z"/><path class="s" d="M156.3,223.3a2.23,2.23,0,0,1-2.3-2.4v-5.5h-1.1v-1H154v-2.7h1.3v2.7h1.9v1h-1.9v5.5c0,.8.4,1.3,1.2,1.3h.7v1.1Z"/><path class="s" d="M164.9,223.3v-.8a3.25,3.25,0,0,1-2.6,1,3.15,3.15,0,0,1-2.5-.8,2.27,2.27,0,0,1-.7-1.8c0-1.6,1.1-2.6,3.1-2.6h2.6v-.8c0-1.3-.6-1.9-2.3-1.9a2.35,2.35,0,0,0-2.2,1l-.9-.8a3.48,3.48,0,0,1,3.1-1.3c2.4,0,3.5,1,3.5,3v6h-1.1Zm0-4.1h-2.5c-1.3,0-2,.5-2,1.6s.6,1.5,2.1,1.5a3,3,0,0,0,2-.6,2.07,2.07,0,0,0,.5-1.5v-1Z"/><path class="s" d="M175.7,222.1a3.44,3.44,0,0,1-2.9,1.3c-2.2,0-3.9-1.5-3.9-4.5s1.7-4.5,3.9-4.5a3.44,3.44,0,0,1,2.9,1.3l-.9.8a2.6,2.6,0,0,0-2-1,2.39,2.39,0,0,0-2.1,1,3.84,3.84,0,0,0-.6,2.4,4,4,0,0,0,.6,2.4,2.39,2.39,0,0,0,2.1,1,2.46,2.46,0,0,0,2-1Z"/><path class="s" d="M184,223.3l-2.8-4.5-1.7,2v2.6h-1.3V210.6h1.3v8.6l4-4.6h1.6l-3,3.4,3.5,5.5H184Z"/><path class="s" d="M201,218.6a4.41,4.41,0,0,1-1.1,3.3,4.48,4.48,0,0,1-3.4,1.5,4.28,4.28,0,0,1-3.2-1.3c-1.2-1.2-1.3-2.3-1.3-5.3s.1-4,1.3-5.3A4.57,4.57,0,0,1,201,214h-1.4a3,3,0,0,0-3.1-2.6,2.94,2.94,0,0,0-2.2.9c-.8.8-.9,1.8-.9,4.4s.1,3.6.9,4.4a2.94,2.94,0,0,0,2.2.9,3.19,3.19,0,0,0,2.4-1.1,3.33,3.33,0,0,0,.7-2.3v-1h-3.2v-1.2h4.5v2.2Z"/><path class="s" d="M204.2,223.3V210.5h8v1.2h-6.6v4.5h5.6v1.2h-5.6V222h6.6v1.2h-8Z"/><path class="s" d="M223.2,223.3,216.4,213v10.3H215V210.5h1.3l6.8,10.2V210.5h1.4v12.8Z"/><path class="s" d="M234.9,223.3a2.23,2.23,0,0,1-2.3-2.4v-5.5h-1.1v-1h1.1v-2.7h1.3v2.7h1.9v1h-1.9v5.5c0,.8.4,1.3,1.2,1.3h.7v1.1Z"/><path class="s" d="M244.1,222.4a3.55,3.55,0,0,1-2.5,1,3.38,3.38,0,0,1-2.5-1,4.77,4.77,0,0,1-1.1-3.5,4.63,4.63,0,0,1,1.1-3.5,3.55,3.55,0,0,1,2.5-1,3.38,3.38,0,0,1,2.5,1,4.77,4.77,0,0,1,1.1,3.5A5.24,5.24,0,0,1,244.1,222.4Zm-.9-6.3a2.43,2.43,0,0,0-3.2,0,5.56,5.56,0,0,0,0,5.4,2.43,2.43,0,0,0,3.2,0,4.07,4.07,0,0,0,.7-2.7A4.23,4.23,0,0,0,243.2,216.1Z"/><path class="s" d="M253.8,223.3l-2.8-4.5-1.7,2v2.6H248V210.6h1.3v8.6l4-4.6h1.6l-3,3.4,3.5,5.5h-1.6Z"/><path class="s" d="M257.7,219.2c0,1.9.9,3.1,2.6,3.1a2.9,2.9,0,0,0,2.3-1l.9.8a4,4,0,0,1-3.2,1.4c-2.4,0-3.9-1.4-3.9-4.5,0-2.9,1.4-4.5,3.6-4.5s3.6,1.6,3.6,4.3v.6h-5.9Zm4.7-1a5.67,5.67,0,0,0-.3-1.5,2.35,2.35,0,0,0-4.2,0,5.67,5.67,0,0,0-.3,1.5Z"/><path class="s" d="M272.1,223.3v-5.5c0-1.6-.8-2.4-2.2-2.4s-2.2.8-2.2,2.4v5.5h-1.3v-8.9h1.3v1a3.25,3.25,0,0,1,2.5-1.1,3.37,3.37,0,0,1,2.3.8,3.33,3.33,0,0,1,.9,2.5v5.7Z"/><path class="s" d="M279.3,223.4a4.47,4.47,0,0,1-3.6-1.3l.9-.9a3.86,3.86,0,0,0,2.8,1c1.5,0,2.4-.5,2.4-1.6,0-.8-.4-1.2-1.5-1.3l-1.5-.1c-1.7-.1-2.6-.9-2.6-2.4s1.4-2.6,3.3-2.6a4.72,4.72,0,0,1,3.2,1l-.8.8a3.61,3.61,0,0,0-2.4-.7c-1.3,0-2,.5-2,1.5,0,.8.5,1.2,1.6,1.3l1.4.1c1.5.1,2.6.7,2.6,2.4C282.9,222.4,281.5,223.4,279.3,223.4Z"/><path class="s" d="M285.4,225.9v-4.2H287v2.8Z"/><path class="s" d="M10.8,243.3H9.6l-2.3-6.9L5,243.3H3.8L1,234.4H2.4l2,7.1,2.3-7.1H7.8l2.3,7.1,2-7.1h1.4Z"/><path class="s" d="M21.1,243.3v-5.5c0-1.6-.8-2.3-2.2-2.3a2,2,0,0,0-2.2,2.3v5.5H15.4V230.5h1.3v4.9a3.25,3.25,0,0,1,2.5-1.1,3,3,0,0,1,3.2,3.3v5.7Z"/><path class="s" d="M25.5,231.9v-1.5H27v1.5Zm.1,11.4v-8.9h1.3v8.9Z"/><path class="s" d="M36.4,242.1a3.44,3.44,0,0,1-2.9,1.3c-2.2,0-3.9-1.5-3.9-4.5s1.7-4.5,3.9-4.5a3.44,3.44,0,0,1,2.9,1.3l-.9.8a2.6,2.6,0,0,0-2-1,2.39,2.39,0,0,0-2.1,1,3.84,3.84,0,0,0-.6,2.4,4,4,0,0,0,.6,2.4,2.39,2.39,0,0,0,2.1,1,2.46,2.46,0,0,0,2-1Z"/><path class="s" d="M44.6,243.3v-5.5c0-1.6-.8-2.3-2.2-2.3a2,2,0,0,0-2.2,2.3v5.5H38.9V230.5h1.3v4.9a3.25,3.25,0,0,1,2.5-1.1,3,3,0,0,1,3.2,3.3v5.7Z"/><path class="s" d="M61.9,243.3H60.7l-2.3-6.9-2.3,6.9H54.9l-2.8-8.9h1.4l2,7.1,2.3-7.1h1.1l2.3,7.1,2-7.1h1.4Z"/><path class="s" d="M66.5,231.9v-1.5H68v1.5Zm0,11.4v-8.9h1.3v8.9Z"/><path class="s" d="M73.3,243.3a2.13,2.13,0,0,1-2.3-2.4V230.4h1.3v10.4c0,.9.3,1.3,1.2,1.3h.7v1.1h-.9Z"/><path class="s" d="M78.6,243.3a2.13,2.13,0,0,1-2.3-2.4V230.4h1.3v10.4c0,.9.3,1.3,1.2,1.3h.7v1.1h-.9Z"/><path class="s" d="M92.1,242.7a3,3,0,0,1-2.2.8,2.67,2.67,0,0,1-2.5-1.2v1.1H86.1V230.6h1.3v5a2.81,2.81,0,0,1,2.5-1.1,3.11,3.11,0,0,1,2.2.8,5.23,5.23,0,0,1,1.1,3.8A4.87,4.87,0,0,1,92.1,242.7Zm-2.4-7.2c-1.9,0-2.2,1.7-2.2,3.4s.3,3.4,2.2,3.4,2.2-1.7,2.2-3.4S91.6,235.5,89.7,235.5Z"/><path class="s" d="M96.8,239.2c0,1.9.9,3.1,2.6,3.1a2.9,2.9,0,0,0,2.3-1l.9.8a4,4,0,0,1-3.2,1.4c-2.4,0-3.9-1.4-3.9-4.5,0-2.9,1.4-4.5,3.6-4.5s3.6,1.6,3.6,4.3v.6H96.8Zm4.7-.9a5.67,5.67,0,0,0-.3-1.5,2.35,2.35,0,0,0-4.2,0,5.67,5.67,0,0,0-.3,1.5Z"/><path class="s" d="M115.6,243.3v-1a3.25,3.25,0,0,1-2.5,1.1,3.37,3.37,0,0,1-2.3-.8,3.49,3.49,0,0,1-.9-2.5v-5.7h1.3v5.5c0,1.6.8,2.4,2.2,2.4s2.2-.8,2.2-2.4v-5.5h1.3v8.9Z"/><path class="s" d="M122.9,243.4a4.47,4.47,0,0,1-3.6-1.3l.9-.9a3.86,3.86,0,0,0,2.8,1c1.5,0,2.4-.5,2.4-1.6,0-.8-.4-1.2-1.5-1.3h-1.6c-1.7-.1-2.6-.9-2.6-2.4s1.4-2.6,3.3-2.6a4.72,4.72,0,0,1,3.2,1l-.8.8a3.61,3.61,0,0,0-2.4-.7c-1.3,0-2,.5-2,1.5,0,.8.5,1.2,1.6,1.3l1.4.1c1.5.1,2.6.7,2.6,2.4S125,243.4,122.9,243.4Z"/><path class="s" d="M129.8,239.2c0,1.9.9,3.1,2.6,3.1a2.9,2.9,0,0,0,2.3-1l.9.8a4,4,0,0,1-3.2,1.4c-2.4,0-3.9-1.4-3.9-4.5,0-2.9,1.4-4.5,3.6-4.5s3.6,1.6,3.6,4.3v.6h-5.9Zm4.7-.9a5.67,5.67,0,0,0-.3-1.5,2.35,2.35,0,0,0-4.2,0,5.67,5.67,0,0,0-.3,1.5Z"/><path class="s" d="M143.8,243.3v-1a2.9,2.9,0,0,1-2.5,1.2,3.11,3.11,0,0,1-2.2-.8,7.11,7.11,0,0,1,0-7.6,3,3,0,0,1,2.2-.8,2.81,2.81,0,0,1,2.5,1.1v-5h1.3v12.9Zm-2.2-7.8c-1.9,0-2.2,1.7-2.2,3.4s.3,3.4,2.2,3.4,2.2-1.7,2.2-3.4S143.6,235.5,141.6,235.5Z"/><path class="s" d="M155.3,243.3a2.23,2.23,0,0,1-2.3-2.4v-5.5h-1.1v-1H153v-2.7h1.3v2.7h1.9v1h-1.9v5.5c0,.8.4,1.3,1.2,1.3h.7v1.1Z"/><path class="s" d="M164.5,242.4a3.55,3.55,0,0,1-2.5,1,3.38,3.38,0,0,1-2.5-1,6.12,6.12,0,0,1,0-7,3.55,3.55,0,0,1,2.5-1,3.38,3.38,0,0,1,2.5,1,6.12,6.12,0,0,1,0,7Zm-.9-6.2a2.43,2.43,0,0,0-3.2,0,5.56,5.56,0,0,0,0,5.4,2.43,2.43,0,0,0,3.2,0,4.07,4.07,0,0,0,.7-2.7A3.92,3.92,0,0,0,163.6,236.2Z"/><path class="s" d="M175.6,243.4a4.47,4.47,0,0,1-3.6-1.3l.9-.9a3.86,3.86,0,0,0,2.8,1c1.5,0,2.4-.5,2.4-1.6,0-.8-.4-1.2-1.5-1.3l-1.5-.1c-1.7-.1-2.6-.9-2.6-2.4s1.4-2.6,3.3-2.6a4.72,4.72,0,0,1,3.2,1l-.8.8a3.61,3.61,0,0,0-2.4-.7c-1.3,0-2,.5-2,1.5,0,.8.5,1.2,1.6,1.3l1.4.1c1.5.1,2.6.7,2.6,2.4C179.2,242.4,177.8,243.4,175.6,243.4Z"/><path class="s" d="M187.4,243.3v-1a3.25,3.25,0,0,1-2.5,1.1,3.37,3.37,0,0,1-2.3-.8,3.49,3.49,0,0,1-.9-2.5v-5.7H183v5.5c0,1.6.8,2.4,2.2,2.4s2.2-.8,2.2-2.4v-5.5h1.3v8.9Z"/><path class="s" d="M197.8,242.7a3,3,0,0,1-2.2.8,2.67,2.67,0,0,1-2.5-1.2v1.1h-1.3V230.6h1.3v5a2.81,2.81,0,0,1,2.5-1.1,3.11,3.11,0,0,1,2.2.8,5.23,5.23,0,0,1,1.1,3.8A4.87,4.87,0,0,1,197.8,242.7Zm-2.4-7.2c-1.9,0-2.2,1.7-2.2,3.4s.3,3.4,2.2,3.4,2.2-1.7,2.2-3.4S197.4,235.5,195.4,235.5Z"/><path class="s" d="M204.5,243.4a4.47,4.47,0,0,1-3.6-1.3l.9-.9a3.86,3.86,0,0,0,2.8,1c1.5,0,2.4-.5,2.4-1.6,0-.8-.4-1.2-1.5-1.3l-1.5-.1c-1.7-.1-2.6-.9-2.6-2.4s1.4-2.6,3.3-2.6a4.72,4.72,0,0,1,3.2,1l-.8.8a3.61,3.61,0,0,0-2.4-.7c-1.3,0-2,.5-2,1.5,0,.8.5,1.2,1.6,1.3l1.4.1c1.5.1,2.6.7,2.6,2.4C208.1,242.4,206.6,243.4,204.5,243.4Z"/><path class="s" d="M210.6,231.9v-1.5h1.5v1.5Zm0,11.4v-8.9h1.3v8.9Z"/><path class="s" d="M220.5,243.3v-1a2.9,2.9,0,0,1-2.5,1.2,3.11,3.11,0,0,1-2.2-.8,7.11,7.11,0,0,1,0-7.6,3,3,0,0,1,2.2-.8,2.81,2.81,0,0,1,2.5,1.1v-5h1.3v12.9Zm-2.3-7.8c-1.9,0-2.2,1.7-2.2,3.4s.3,3.4,2.2,3.4,2.2-1.7,2.2-3.4S220.2,235.5,218.2,235.5Z"/><path class="s" d="M224.9,231.9v-1.5h1.5v1.5Zm.1,11.4v-8.9h1.3v8.9Z"/><path class="s" d="M228.8,243.3v-1.1l4.9-6.6H229v-1.2h6.2v1.1l-5,6.6h5v1.2Z"/><path class="s" d="M238.6,239.2c0,1.9.9,3.1,2.6,3.1a2.9,2.9,0,0,0,2.3-1l.9.8a4,4,0,0,1-3.2,1.4c-2.4,0-3.9-1.4-3.9-4.5,0-2.9,1.4-4.5,3.6-4.5s3.6,1.6,3.6,4.3v.6h-5.9Zm4.7-.9a5.67,5.67,0,0,0-.3-1.5,2.35,2.35,0,0,0-4.2,0,5.67,5.67,0,0,0-.3,1.5Z"/><path class="s" d="M254.3,243.3a2.23,2.23,0,0,1-2.3-2.4v-5.5h-1.1v-1H252v-2.7h1.3v2.7h1.9v1h-1.9v5.5c0,.8.4,1.3,1.2,1.3h.7v1.1Z"/><path class="s" d="M263.4,243.3v-5.5c0-1.6-.8-2.3-2.2-2.3a2,2,0,0,0-2.2,2.3v5.5h-1.3V230.5H259v4.9a3.25,3.25,0,0,1,2.5-1.1,3,3,0,0,1,3.2,3.3v5.7Z"/><path class="s" d="M268.7,239.2c0,1.9.9,3.1,2.6,3.1a2.9,2.9,0,0,0,2.3-1l.9.8a4,4,0,0,1-3.2,1.4c-2.4,0-3.9-1.4-3.9-4.5,0-2.9,1.4-4.5,3.6-4.5s3.6,1.6,3.6,4.3v.6h-5.9Zm4.7-.9a5.67,5.67,0,0,0-.3-1.5,2.35,2.35,0,0,0-4.2,0,5.67,5.67,0,0,0-.3,1.5Z"/><path class="s" d="M7.7,263.4v-1.1a2.9,2.9,0,0,1-2.5,1.2,3.11,3.11,0,0,1-2.2-.8,7.11,7.11,0,0,1,0-7.6,3,3,0,0,1,2.2-.8,2.81,2.81,0,0,1,2.5,1.1v-5H9v12.8H7.7Zm-2.2-7.9c-1.9,0-2.2,1.7-2.2,3.4s.3,3.4,2.2,3.4,2.2-1.7,2.2-3.4S7.4,255.5,5.5,255.5Z"/><path class="s" d="M17,263.4,14.9,260l-2.2,3.4H11.1l3-4.5-2.9-4.3h1.6l2,3.3,2-3.3h1.6l-2.9,4.3,3,4.5Z"/><path class="s" d="M28.8,262a4.44,4.44,0,0,1-3.4,1.4H21V250.6h4.4a4.25,4.25,0,0,1,3.4,1.4c1.1,1.2,1.1,3.1,1.1,5.1C29.9,258.9,30,260.8,28.8,262Zm-1.1-9.3a3.11,3.11,0,0,0-2.5-.9H22.4v10.4h2.8a3.11,3.11,0,0,0,2.5-.9c.8-.9.8-2.5.8-4.2S28.6,253.6,27.7,252.7Z"/><path class="s" d="M40.6,263.4l-1-2.9H34l-1,2.9H31.5l4.7-12.8h1.2l4.7,12.8Zm-3.8-10.9-2.4,6.8h4.8Z"/><path class="s" d="M51.3,262.2a4.59,4.59,0,0,1-6.4,0c-1.2-1.2-1.3-2.3-1.3-5.3s.1-4,1.3-5.3a4.45,4.45,0,0,1,3.2-1.3,4.28,4.28,0,0,1,3.2,1.3c1.2,1.2,1.3,2.3,1.3,5.3S52.6,261,51.3,262.2Zm-.9-9.7a3.14,3.14,0,0,0-4.4,0c-.8.8-.9,1.8-.9,4.4s.1,3.6.9,4.4a3.14,3.14,0,0,0,4.4,0c.8-.8.9-1.8.9-4.4S51.2,253.4,50.4,252.5Z"/><path class="s" d="M55.6,253.5v-2.9h1.6v1.5Z"/><path class="s" d="M62.1,263.5a4.47,4.47,0,0,1-3.6-1.3l.8-.9a3.86,3.86,0,0,0,2.8,1c1.5,0,2.4-.5,2.4-1.6,0-.8-.4-1.2-1.5-1.3l-1.5-.1c-1.7-.1-2.6-.9-2.6-2.4s1.4-2.6,3.3-2.6a4.72,4.72,0,0,1,3.2,1l-.8.8a3.61,3.61,0,0,0-2.4-.7c-1.3,0-2,.5-2,1.5,0,.8.5,1.2,1.6,1.3l1.4.1c1.5.1,2.6.7,2.6,2.4S64.2,263.5,62.1,263.5Z"/><path class="s" d="M79.2,263.6a3.54,3.54,0,0,1-3.7,3.8,3.72,3.72,0,0,1-3-1.2l.8-.8a2.58,2.58,0,0,0,2.1.9c1.7,0,2.4-1.2,2.4-2.7v-1.4a2.9,2.9,0,0,1-2.5,1.2,2.71,2.71,0,0,1-2.1-.8,6.77,6.77,0,0,1,0-7.4,3,3,0,0,1,2.2-.8,2.67,2.67,0,0,1,2.5,1.2v-1h1.3Zm-3.5-8.1c-1.9,0-2.2,1.7-2.2,3.3s.3,3.3,2.2,3.3,2.2-1.7,2.2-3.3S77.7,255.5,75.7,255.5Z"/><path class="s" d="M88.2,262.5a3.55,3.55,0,0,1-2.5,1,3.38,3.38,0,0,1-2.5-1,6.12,6.12,0,0,1,0-7,3.55,3.55,0,0,1,2.5-1,3.38,3.38,0,0,1,2.5,1,4.77,4.77,0,0,1,1.1,3.5A5.42,5.42,0,0,1,88.2,262.5Zm-1-6.3a2.43,2.43,0,0,0-3.2,0,5.56,5.56,0,0,0,0,5.4,2.43,2.43,0,0,0,3.2,0,4.07,4.07,0,0,0,.7-2.7C87.9,257.9,87.9,256.8,87.2,256.2Z"/><path class="s" d="M95,263.4H93.8l-3.2-8.9H92l2.4,7.1,2.4-7.1h1.4Z"/><path class="s" d="M100.9,259.3c0,1.9.9,3.1,2.6,3.1a2.9,2.9,0,0,0,2.3-1l.9.8a4,4,0,0,1-3.2,1.4c-2.4,0-3.9-1.4-3.9-4.5,0-2.9,1.4-4.5,3.6-4.5s3.6,1.6,3.6,4.3v.6h-5.9Zm4.7-1a5.67,5.67,0,0,0-.3-1.5,2.35,2.35,0,0,0-4.2,0,5.67,5.67,0,0,0-.3,1.5Z"/><path class="s" d="M114.5,256.2a1.72,1.72,0,0,0-1.5-.6,2.14,2.14,0,0,0-2.1,2.4v5.4h-1.3v-8.9h1.3v1.1a3.18,3.18,0,0,1,2.5-1.2,2.78,2.78,0,0,1,2.1.8Z"/><path class="s" d="M122.8,263.4v-5.5c0-1.6-.8-2.4-2.2-2.4s-2.2.8-2.2,2.4v5.5h-1.3v-8.9h1.3v1a3.25,3.25,0,0,1,2.5-1.1,3.37,3.37,0,0,1,2.3.8,3.33,3.33,0,0,1,.9,2.5v5.7Z"/><path class="s" d="M132.3,263.4v-.8a3.25,3.25,0,0,1-2.6,1,3.15,3.15,0,0,1-2.5-.8,2.27,2.27,0,0,1-.7-1.8c0-1.6,1.1-2.6,3.1-2.6h2.6v-.8c0-1.3-.6-1.9-2.3-1.9a2.35,2.35,0,0,0-2.2,1l-.9-.8a3.48,3.48,0,0,1,3.1-1.3c2.4,0,3.5,1,3.5,3v6h-1.1Zm0-4.1h-2.5c-1.3,0-2,.5-2,1.6s.6,1.5,2.1,1.5a3,3,0,0,0,2-.6,2.07,2.07,0,0,0,.5-1.5v-1Z"/><path class="s" d="M142.4,263.4v-5.5c0-1.6-.8-2.4-2.2-2.4s-2.2.8-2.2,2.4v5.5h-1.3v-8.9H138v1a3.25,3.25,0,0,1,2.5-1.1,3.37,3.37,0,0,1,2.3.8,3.33,3.33,0,0,1,.9,2.5v5.7Z"/><path class="s" d="M153.2,262.1a3.44,3.44,0,0,1-2.9,1.3c-2.2,0-3.9-1.5-3.9-4.5s1.7-4.5,3.9-4.5a3.44,3.44,0,0,1,2.9,1.3l-.9.8a2.6,2.6,0,0,0-2-1,2.39,2.39,0,0,0-2.1,1,3.84,3.84,0,0,0-.6,2.4,4,4,0,0,0,.6,2.4,2.39,2.39,0,0,0,2.1,1,2.46,2.46,0,0,0,2-1Z"/><path class="s" d="M156.5,259.3c0,1.9.9,3.1,2.6,3.1a2.9,2.9,0,0,0,2.3-1l.9.8a4,4,0,0,1-3.2,1.4c-2.4,0-3.9-1.4-3.9-4.5,0-2.9,1.4-4.5,3.6-4.5s3.6,1.6,3.6,4.3v.6h-5.9Zm4.7-1a5.67,5.67,0,0,0-.3-1.5,2.35,2.35,0,0,0-4.2,0,5.67,5.67,0,0,0-.3,1.5Z"/><path class="s" d="M175.7,262.7a3,3,0,0,1-2.2.8,2.67,2.67,0,0,1-2.5-1.2v1.1h-1.3V250.6H171v5a2.81,2.81,0,0,1,2.5-1.1,3.11,3.11,0,0,1,2.2.8,5.23,5.23,0,0,1,1.1,3.8A4.74,4.74,0,0,1,175.7,262.7Zm-2.5-7.2c-1.9,0-2.2,1.7-2.2,3.4s.3,3.4,2.2,3.4,2.2-1.7,2.2-3.4S175.2,255.5,173.2,255.5Z"/><path class="s" d="M185.1,263.4v-1a3.25,3.25,0,0,1-2.5,1.1,3.37,3.37,0,0,1-2.3-.8,3.49,3.49,0,0,1-.9-2.5v-5.7h1.3V260c0,1.6.8,2.4,2.2,2.4s2.2-.8,2.2-2.4v-5.5h1.3v8.9Z"/><path class="s" d="M194.9,263.4v-1.1a2.9,2.9,0,0,1-2.5,1.2,3.11,3.11,0,0,1-2.2-.8,7.11,7.11,0,0,1,0-7.6,3,3,0,0,1,2.2-.8,2.81,2.81,0,0,1,2.5,1.1v-5h1.3v12.8h-1.3Zm-2.2-7.9c-1.9,0-2.2,1.7-2.2,3.4s.3,3.4,2.2,3.4,2.2-1.7,2.2-3.4S194.6,255.5,192.7,255.5Z"/><path class="s" d="M206,263.6a3.54,3.54,0,0,1-3.7,3.8,3.72,3.72,0,0,1-3-1.2l.8-.8a2.58,2.58,0,0,0,2.1.9c1.7,0,2.4-1.2,2.4-2.7v-1.4a2.9,2.9,0,0,1-2.5,1.2,2.71,2.71,0,0,1-2.1-.8,6.77,6.77,0,0,1,0-7.4,3,3,0,0,1,2.2-.8,2.67,2.67,0,0,1,2.5,1.2v-1H206Zm-3.5-8.1c-1.9,0-2.2,1.7-2.2,3.3s.3,3.3,2.2,3.3,2.2-1.7,2.2-3.3S204.4,255.5,202.5,255.5Z"/><path class="s" d="M210,259.3c0,1.9.9,3.1,2.6,3.1a2.9,2.9,0,0,0,2.3-1l.9.8a4,4,0,0,1-3.2,1.4c-2.4,0-3.9-1.4-3.9-4.5,0-2.9,1.4-4.5,3.6-4.5s3.6,1.6,3.6,4.3v.6H210Zm4.7-1a5.67,5.67,0,0,0-.3-1.5,2.35,2.35,0,0,0-4.2,0,5.67,5.67,0,0,0-.3,1.5Z"/><path class="s" d="M221.2,263.4a2.23,2.23,0,0,1-2.3-2.4v-5.5h-1.1v-1h1.1v-2.7h1.3v2.7h1.9v1h-1.8V261c0,.8.4,1.3,1.2,1.3h.7v1.1Z"/><path class="s" d="M224.7,263.4v-1.7h1.7v1.7Z"/><path class="s" d="M301.1,181.6H.8a.79.79,0,0,1-.8-.8.74.74,0,0,1,.8-.8H301.2a.79.79,0,0,1,.8.8A.88.88,0,0,1,301.1,181.6Z"/><path class="s" d="M12.3,368.3v-9.7l-3.5,7.7H7.6L4,358.6v9.7H2.6V355.5H4l4.2,9.1,4.1-9.1h1.4v12.8Z"/><path class="s" d="M22.1,368.3v-.8a3.25,3.25,0,0,1-2.6,1,3.15,3.15,0,0,1-2.5-.8,2.27,2.27,0,0,1-.7-1.8c0-1.6,1.1-2.6,3.1-2.6H22v-.8c0-1.3-.6-1.9-2.3-1.9a2.35,2.35,0,0,0-2.2,1l-.9-.8a3.48,3.48,0,0,1,3.1-1.3c2.4,0,3.5,1,3.5,3v6H22.1Zm0-4.1H19.6c-1.3,0-2,.5-2,1.6s.6,1.5,2.1,1.5a3,3,0,0,0,2-.6,2.07,2.07,0,0,0,.5-1.5v-1Z"/><path class="s" d="M33.1,368.6a3.54,3.54,0,0,1-3.7,3.8,3.72,3.72,0,0,1-3-1.2l.8-.8a2.58,2.58,0,0,0,2.1.9c1.7,0,2.4-1.2,2.4-2.7v-1.4a2.9,2.9,0,0,1-2.5,1.2,2.71,2.71,0,0,1-2.1-.8,6.77,6.77,0,0,1,0-7.4,3,3,0,0,1,2.2-.8,2.67,2.67,0,0,1,2.5,1.2v-1h1.3Zm-3.5-8.1c-1.9,0-2.2,1.7-2.2,3.3s.3,3.3,2.2,3.3,2.2-1.7,2.2-3.3S31.5,360.5,29.6,360.5Z"/><path class="s" d="M42,368.3v-5.5c0-1.6-.8-2.4-2.2-2.4s-2.2.8-2.2,2.4v5.5H36.3v-8.9h1.3v1a3.25,3.25,0,0,1,2.5-1.1,3.37,3.37,0,0,1,2.3.8,3.33,3.33,0,0,1,.9,2.5v5.7Z"/><path class="s" d="M52.1,367.4a3.55,3.55,0,0,1-2.5,1,3.38,3.38,0,0,1-2.5-1,6.12,6.12,0,0,1,0-7,3.55,3.55,0,0,1,2.5-1,3.38,3.38,0,0,1,2.5,1,6.12,6.12,0,0,1,0,7Zm-.9-6.3a2.43,2.43,0,0,0-3.2,0,5.56,5.56,0,0,0,0,5.4,2.43,2.43,0,0,0,3.2,0,4.07,4.07,0,0,0,.7-2.7A3.7,3.7,0,0,0,51.2,361.1Z"/><path class="s" d="M58.2,368.3a2.13,2.13,0,0,1-2.3-2.4V355.4h1.3v10.4c0,.9.3,1.3,1.2,1.3h.7v1.1h-.9Z"/><path class="s" d="M61.2,356.9v-1.5h1.5v1.5Zm.1,11.4v-8.9h1.3v8.9Z"/><path class="s" d="M70.8,368.3v-.8a3.25,3.25,0,0,1-2.6,1,3.15,3.15,0,0,1-2.5-.8,2.27,2.27,0,0,1-.7-1.8c0-1.6,1.1-2.6,3.1-2.6h2.6v-.8c0-1.3-.6-1.9-2.3-1.9a2.35,2.35,0,0,0-2.2,1l-.9-.8a3.48,3.48,0,0,1,3.1-1.3c2.4,0,3.5,1,3.5,3v6H70.8Zm0-4.1H68.3c-1.3,0-2,.5-2,1.6s.6,1.5,2.1,1.5a3,3,0,0,0,2-.6,2.07,2.07,0,0,0,.5-1.5v-1Z"/><path class="s" d="M82.3,368.3a2.23,2.23,0,0,1-2.3-2.4v-5.5H78.9v-1H80v-2.7h1.3v2.7h1.9v1H81.3v5.5c0,.8.4,1.3,1.2,1.3h.7v1.1Z"/><path class="s" d="M91.4,367.4a3.55,3.55,0,0,1-2.5,1,3.38,3.38,0,0,1-2.5-1,6.12,6.12,0,0,1,0-7,3.55,3.55,0,0,1,2.5-1,3.38,3.38,0,0,1,2.5,1,6.12,6.12,0,0,1,0,7Zm-.9-6.3a2.43,2.43,0,0,0-3.2,0,5.56,5.56,0,0,0,0,5.4,2.43,2.43,0,0,0,3.2,0,4.07,4.07,0,0,0,.7-2.7A3.7,3.7,0,0,0,90.5,361.1Z"/><path class="s" d="M101.1,368.3l-2.8-4.5-1.7,2v2.6H95.3V355.6h1.3v8.6l4-4.6h1.6l-3,3.4,3.5,5.5h-1.6Z"/><path class="s" d="M105,364.2c0,1.9.9,3.1,2.6,3.1a2.9,2.9,0,0,0,2.3-1l.9.8a4,4,0,0,1-3.2,1.4c-2.4,0-3.9-1.4-3.9-4.5,0-2.9,1.4-4.5,3.6-4.5s3.6,1.6,3.6,4.3v.6H105Zm4.7-1a5.67,5.67,0,0,0-.3-1.5,2.35,2.35,0,0,0-4.2,0,5.67,5.67,0,0,0-.3,1.5Z"/><path class="s" d="M119.4,368.3v-5.5c0-1.6-.8-2.4-2.2-2.4s-2.2.8-2.2,2.4v5.5h-1.3v-8.9H115v1a3.25,3.25,0,0,1,2.5-1.1,3.37,3.37,0,0,1,2.3.8,3.33,3.33,0,0,1,.9,2.5v5.7Z"/><path class="s" d="M126.7,368.4a4.47,4.47,0,0,1-3.6-1.3l.9-.9a3.86,3.86,0,0,0,2.8,1c1.5,0,2.4-.5,2.4-1.6,0-.8-.4-1.2-1.5-1.3l-1.5-.1c-1.7-.1-2.6-.9-2.6-2.4s1.4-2.6,3.3-2.6a4.72,4.72,0,0,1,3.2,1l-.8.8a3.61,3.61,0,0,0-2.4-.7c-1.3,0-2,.5-2,1.5,0,.8.5,1.2,1.6,1.3l1.4.1c1.5.1,2.6.7,2.6,2.4C130.3,367.4,128.8,368.4,126.7,368.4Z"/><path class="s" d="M148.7,368.3v-5.5c0-1.6-.8-2.4-2.2-2.4a2,2,0,0,0-2.2,2.2v5.6H143v-5.5c0-1.6-.8-2.4-2.2-2.4s-2.2.8-2.2,2.4v5.5h-1.3v-8.9h1.3v1a3.25,3.25,0,0,1,2.5-1.1,2.84,2.84,0,0,1,2.7,1.5,3.33,3.33,0,0,1,6.2,1.8v5.7h-1.3Z"/><path class="s" d="M158.1,368.3v-.8a3.25,3.25,0,0,1-2.6,1,3.15,3.15,0,0,1-2.5-.8,2.27,2.27,0,0,1-.7-1.8c0-1.6,1.1-2.6,3.1-2.6H158v-.8c0-1.3-.6-1.9-2.3-1.9a2.35,2.35,0,0,0-2.2,1l-.9-.8a3.48,3.48,0,0,1,3.1-1.3c2.4,0,3.5,1,3.5,3v6h-1.1Zm0-4.1h-2.5c-1.3,0-2,.5-2,1.6s.6,1.5,2.1,1.5a3,3,0,0,0,2-.6,2.07,2.07,0,0,0,.5-1.5v-1Z"/><path class="s" d="M164.8,370.4a2.89,2.89,0,0,1-.6,1,2.24,2.24,0,0,1-1.7.6h-.6v-1.2h.4c.9,0,1.2-.3,1.5-1.1l.6-1.7-3.2-8.7h1.4l2.4,7.1,2.4-7.1h1.4Z"/><path class="s" d="M181.1,367.6a3,3,0,0,1-2.2.8,2.67,2.67,0,0,1-2.5-1.2v1.1h-1.3V355.5h1.3v5a2.81,2.81,0,0,1,2.5-1.1,3.11,3.11,0,0,1,2.2.8,5.23,5.23,0,0,1,1.1,3.8A5.18,5.18,0,0,1,181.1,367.6Zm-2.5-7.1c-1.9,0-2.2,1.7-2.2,3.4s.3,3.4,2.2,3.4,2.2-1.7,2.2-3.4S180.6,360.5,178.6,360.5Z"/><path class="s" d="M185.7,364.2c0,1.9.9,3.1,2.6,3.1a2.9,2.9,0,0,0,2.3-1l.9.8a4,4,0,0,1-3.2,1.4c-2.4,0-3.9-1.4-3.9-4.5,0-2.9,1.4-4.5,3.6-4.5s3.6,1.6,3.6,4.3v.6h-5.9Zm4.7-1a5.67,5.67,0,0,0-.3-1.5,2.35,2.35,0,0,0-4.2,0,5.67,5.67,0,0,0-.3,1.5Z"/><path class="s" d="M203.9,368.3v-.8a3.25,3.25,0,0,1-2.6,1,3.15,3.15,0,0,1-2.5-.8,2.27,2.27,0,0,1-.7-1.8c0-1.6,1.1-2.6,3.1-2.6h2.6v-.8c0-1.3-.6-1.9-2.3-1.9a2.35,2.35,0,0,0-2.2,1l-.9-.8a3.48,3.48,0,0,1,3.1-1.3c2.4,0,3.5,1,3.5,3v6h-1.1Zm0-4.1h-2.5c-1.3,0-2,.5-2,1.6s.6,1.5,2.1,1.5a3,3,0,0,0,2-.6,2.07,2.07,0,0,0,.5-1.5v-1Z"/><path class="s" d="M214.7,367.1a3.44,3.44,0,0,1-2.9,1.3c-2.2,0-3.9-1.5-3.9-4.5s1.7-4.5,3.9-4.5a3.44,3.44,0,0,1,2.9,1.3l-.9.8a2.6,2.6,0,0,0-2-1,2.39,2.39,0,0,0-2.1,1,3.84,3.84,0,0,0-.6,2.4,4,4,0,0,0,.6,2.4,2.39,2.39,0,0,0,2.1,1,2.46,2.46,0,0,0,2-1Z"/><path class="s" d="M219.7,368.3a2.23,2.23,0,0,1-2.3-2.4v-5.5h-1.1v-1h1.1v-2.7h1.3v2.7h1.9v1h-1.9v5.5c0,.8.4,1.3,1.2,1.3h.7v1.1Z"/><path class="s" d="M223.1,356.9v-1.5h1.5v1.5Zm.1,11.4v-8.9h1.3v8.9Z"/><path class="s" d="M230.7,368.3h-1.2l-3.2-8.9h1.4l2.4,7.1,2.4-7.1h1.4Z"/><path class="s" d="M240.8,368.3v-.8a3.25,3.25,0,0,1-2.6,1,3.15,3.15,0,0,1-2.5-.8,2.27,2.27,0,0,1-.7-1.8c0-1.6,1.1-2.6,3.1-2.6h2.6v-.8c0-1.3-.6-1.9-2.3-1.9a2.35,2.35,0,0,0-2.2,1l-.9-.8a3.48,3.48,0,0,1,3.1-1.3c2.4,0,3.5,1,3.5,3v6h-1.1Zm0-4.1h-2.5c-1.3,0-2,.5-2,1.6s.6,1.5,2.1,1.5a3,3,0,0,0,2-.6,2.07,2.07,0,0,0,.5-1.5v-1Z"/><path class="s" d="M247.7,368.3a2.23,2.23,0,0,1-2.3-2.4v-5.5h-1.1v-1h1.1v-2.7h1.3v2.7h1.9v1h-1.9v5.5c0,.8.4,1.3,1.2,1.3h.7v1.1Z"/><path class="s" d="M252,364.2c0,1.9.9,3.1,2.6,3.1a2.9,2.9,0,0,0,2.3-1l.9.8a4,4,0,0,1-3.2,1.4c-2.4,0-3.9-1.4-3.9-4.5,0-2.9,1.4-4.5,3.6-4.5s3.6,1.6,3.6,4.3v.6H252Zm4.7-1a5.67,5.67,0,0,0-.3-1.5,2.35,2.35,0,0,0-4.2,0,5.67,5.67,0,0,0-.3,1.5Z"/><path class="s" d="M266,368.3v-1.1a2.9,2.9,0,0,1-2.5,1.2,3.11,3.11,0,0,1-2.2-.8,7.11,7.11,0,0,1,0-7.6,3,3,0,0,1,2.2-.8,2.81,2.81,0,0,1,2.5,1.1v-5h1.3v13Zm-2.2-7.8c-1.9,0-2.2,1.7-2.2,3.4s.3,3.4,2.2,3.4,2.2-1.7,2.2-3.4S265.8,360.5,263.8,360.5Z"/><path class="s" d="M277.5,368.3a2.23,2.23,0,0,1-2.3-2.4v-5.5h-1.1v-1h1.1v-2.7h1.3v2.7h1.9v1h-1.9v5.5c0,.8.4,1.3,1.2,1.3h.7v1.1Z"/><path class="s" d="M286.7,367.4a3.55,3.55,0,0,1-2.5,1,3.38,3.38,0,0,1-2.5-1,6.12,6.12,0,0,1,0-7,3.55,3.55,0,0,1,2.5-1,3.38,3.38,0,0,1,2.5,1,6.12,6.12,0,0,1,0,7Zm-.9-6.3a2.43,2.43,0,0,0-3.2,0,5.56,5.56,0,0,0,0,5.4,2.43,2.43,0,0,0,3.2,0,4.07,4.07,0,0,0,.7-2.7A4.23,4.23,0,0,0,285.8,361.1Z"/><path class="s" d="M8.9,388.6a3.54,3.54,0,0,1-3.7,3.8,3.72,3.72,0,0,1-3-1.2l.8-.8a2.58,2.58,0,0,0,2.1.9c1.7,0,2.4-1.2,2.4-2.7v-1.4A2.9,2.9,0,0,1,5,388.4a2.71,2.71,0,0,1-2.1-.8,6.77,6.77,0,0,1,0-7.4,3,3,0,0,1,2.2-.8,2.67,2.67,0,0,1,2.5,1.2v-1H8.9Zm-3.5-8.1c-1.9,0-2.2,1.7-2.2,3.3s.3,3.3,2.2,3.3,2.2-1.7,2.2-3.3S7.4,380.5,5.4,380.5Z"/><path class="s" d="M13,384.2c0,1.9.9,3.1,2.6,3.1a2.9,2.9,0,0,0,2.3-1l.9.8a4,4,0,0,1-3.2,1.4c-2.4,0-3.9-1.4-3.9-4.5,0-2.9,1.4-4.5,3.6-4.5s3.6,1.6,3.6,4.3v.6H13Zm4.7-.9a5.67,5.67,0,0,0-.3-1.5,2.35,2.35,0,0,0-4.2,0,5.67,5.67,0,0,0-.3,1.5Z"/><path class="s" d="M27.4,388.3v-5.5c0-1.6-.8-2.4-2.2-2.4s-2.2.8-2.2,2.4v5.5H21.7v-8.9H23v1a3.25,3.25,0,0,1,2.5-1.1,3.37,3.37,0,0,1,2.3.8,3.33,3.33,0,0,1,.9,2.5v5.7Z"/><path class="s" d="M32.6,384.2c0,1.9.9,3.1,2.6,3.1a2.9,2.9,0,0,0,2.3-1l.9.8a4,4,0,0,1-3.2,1.4c-2.4,0-3.9-1.4-3.9-4.5,0-2.9,1.4-4.5,3.6-4.5s3.6,1.6,3.6,4.3v.6H32.6Zm4.7-.9a5.67,5.67,0,0,0-.3-1.5,2.35,2.35,0,0,0-4.2,0,5.67,5.67,0,0,0-.3,1.5Z"/><path class="s" d="M46.3,381.2a1.72,1.72,0,0,0-1.5-.6,2.14,2.14,0,0,0-2.1,2.4v5.4H41.4v-8.9h1.3v1.1a3.18,3.18,0,0,1,2.5-1.2,2.78,2.78,0,0,1,2.1.8Z"/><path class="s" d="M54,388.3v-.8a3.25,3.25,0,0,1-2.6,1,3.15,3.15,0,0,1-2.5-.8,2.27,2.27,0,0,1-.7-1.8c0-1.6,1.1-2.6,3.1-2.6h2.6v-.8c0-1.3-.6-1.9-2.3-1.9a2.35,2.35,0,0,0-2.2,1l-.9-.8a3.48,3.48,0,0,1,3.1-1.3c2.4,0,3.5,1,3.5,3v6H54Zm0-4.1H51.5c-1.3,0-2,.5-2,1.6s.6,1.5,2.1,1.5a3,3,0,0,0,2-.6,2.07,2.07,0,0,0,.5-1.5v-1Z"/><path class="s" d="M60.9,388.3a2.23,2.23,0,0,1-2.3-2.4v-5.5H57.5v-1h1.1v-2.7h1.3v2.7h1.9v1H59.9v5.5c0,.8.4,1.3,1.2,1.3h.7v1.1Z"/><path class="s" d="M65.2,384.2c0,1.9.9,3.1,2.6,3.1a2.9,2.9,0,0,0,2.3-1l.9.8a4,4,0,0,1-3.2,1.4c-2.4,0-3.9-1.4-3.9-4.5,0-2.9,1.4-4.5,3.6-4.5s3.6,1.6,3.6,4.3v.6H65.2Zm4.7-.9a5.67,5.67,0,0,0-.3-1.5,2.35,2.35,0,0,0-4.2,0,5.67,5.67,0,0,0-.3,1.5Z"/><path class="s" d="M86,388.3l-2.9-5.7H80v5.7H78.6V375.5h4.9a3.47,3.47,0,0,1,3.8,3.6,3.21,3.21,0,0,1-2.8,3.4l3,5.8Zm-2.6-11.6H80v4.7h3.4c1.5,0,2.6-.8,2.6-2.3S85,376.7,83.4,376.7Z"/><path class="s" d="M90.5,384.2c0,1.9.9,3.1,2.6,3.1a2.9,2.9,0,0,0,2.3-1l.9.8a4,4,0,0,1-3.2,1.4c-2.4,0-3.9-1.4-3.9-4.5,0-2.9,1.4-4.5,3.6-4.5s3.6,1.6,3.6,4.3v.6H90.5Zm4.7-.9a5.67,5.67,0,0,0-.3-1.5,2.35,2.35,0,0,0-4.2,0,5.67,5.67,0,0,0-.3,1.5Z"/><path class="s" d="M105.2,387.7a3,3,0,0,1-2.2.8,2.67,2.67,0,0,1-2.5-1.2v5H99.2V379.5h1.3v1a2.9,2.9,0,0,1,2.5-1.2,3.11,3.11,0,0,1,2.2.8,5.23,5.23,0,0,1,1.1,3.8A5.38,5.38,0,0,1,105.2,387.7Zm-2.4-7.2c-1.9,0-2.2,1.7-2.2,3.4s.3,3.4,2.2,3.4,2.2-1.7,2.2-3.4S104.7,380.5,102.8,380.5Z"/><path class="s" d="M114.6,388.3v-1a3.25,3.25,0,0,1-2.5,1.1,3.37,3.37,0,0,1-2.3-.8,3.49,3.49,0,0,1-.9-2.5v-5.7h1.3v5.5c0,1.6.8,2.4,2.2,2.4s2.2-.8,2.2-2.4v-5.5h1.3v8.9Z"/><path class="s" d="M121.6,388.3a2.23,2.23,0,0,1-2.3-2.4v-5.5h-1.1v-1h1.1v-2.7h1.3v2.7h1.9v1h-1.9v5.5c0,.8.4,1.3,1.2,1.3h.7v1.1Z"/><path class="s" d="M130.1,388.3v-.8a3.25,3.25,0,0,1-2.6,1,3.15,3.15,0,0,1-2.5-.8,2.27,2.27,0,0,1-.7-1.8c0-1.6,1.1-2.6,3.1-2.6H130v-.8c0-1.3-.6-1.9-2.3-1.9a2.35,2.35,0,0,0-2.2,1l-.9-.8a3.48,3.48,0,0,1,3.1-1.3c2.4,0,3.5,1,3.5,3v6h-1.1Zm0-4.1h-2.5c-1.3,0-2,.5-2,1.6s.6,1.5,2.1,1.5a3,3,0,0,0,2-.6,2.07,2.07,0,0,0,.5-1.5v-1Z"/><path class="s" d="M137.1,388.3a2.23,2.23,0,0,1-2.3-2.4v-5.5h-1.1v-1h1.1v-2.7h1.3v2.7H138v1h-1.9v5.5c0,.8.4,1.3,1.2,1.3h.7v1.1Z"/><path class="s" d="M140.5,376.9v-1.5H142v1.5Zm.1,11.4v-8.9h1.3v8.9Z"/><path class="s" d="M150.8,387.4a3.55,3.55,0,0,1-2.5,1,3.38,3.38,0,0,1-2.5-1,4.77,4.77,0,0,1-1.1-3.5,4.63,4.63,0,0,1,1.1-3.5,3.55,3.55,0,0,1,2.5-1,3.38,3.38,0,0,1,2.5,1,4.77,4.77,0,0,1,1.1,3.5A4.63,4.63,0,0,1,150.8,387.4Zm-.9-6.2a2.43,2.43,0,0,0-3.2,0,5.56,5.56,0,0,0,0,5.4,2.43,2.43,0,0,0,3.2,0,4.07,4.07,0,0,0,.7-2.7A3.92,3.92,0,0,0,149.9,381.2Z"/><path class="s" d="M160.3,388.3v-5.5c0-1.6-.8-2.4-2.2-2.4s-2.2.8-2.2,2.4v5.5h-1.3v-8.9h1.3v1a3.25,3.25,0,0,1,2.5-1.1,3.37,3.37,0,0,1,2.3.8,3.33,3.33,0,0,1,.9,2.5v5.7Z"/><path class="s" d="M164.7,388.3v-1.7h1.7v1.7Z"/><path class="s" d="M301.1,346.6H.8a.79.79,0,0,1-.8-.8.74.74,0,0,1,.8-.8H301.2a.79.79,0,0,1,.8.8A.88.88,0,0,1,301.1,346.6Z"/></svg>