<svg xmlns="http://www.w3.org/2000/svg" xmlns:xlink="http://www.w3.org/1999/xlink" viewBox="0 0 394.4 1065.1"><defs><style>.a{fill:none;}.b{fill:#1f5e3f;}.c{fill:#38aa73;}.d{fill:#0e0f0f;}.e{fill:#161817;}.f{fill:#383a39;}.g{fill:#004569;}.h{fill:#015377;}.i{clip-path:url(#a);}.j{isolation:isolate;}.k{fill:#0070ab;}.l{fill:#083f3f;}.m{clip-path:url(#b);}.n{fill:#0d5657;}.o{fill:#189a9d;}.p{fill:#257678;}.q{clip-path:url(#c);}.r{fill:#42ced1;}.s{fill:#fff;}.t{fill:url(#d);}.u{fill:url(#e);}.v{opacity:0.5;}</style><clipPath id="a"><path class="a" d="M373.8,855.1v57.6a82.29,82.29,0,0,1-8.7,36.4V891.5A82.62,82.62,0,0,0,373.8,855.1Z"/></clipPath><clipPath id="b"><path class="a" d="M365.1,871.3v76.8c-9.2,18.6-25.2,35.2-46,48.4V919.7C339.9,906.4,355.9,889.9,365.1,871.3Z"/></clipPath><clipPath id="c"><path class="a" d="M319,977.4v19.2c-31.7,20-74.6,32.3-121.8,32.3-97.5,0-176.5-52.4-176.5-117.1V892.6c0,64.7,79,117.1,176.5,117.1C244.5,1009.7,287.4,997.5,319,977.4Z"/></clipPath><linearGradient id="d" x1="249.78" y1="61.55" x2="394.4" y2="61.55" gradientTransform="matrix(1, 0, 0, -1, 0, 1050.8)" gradientUnits="userSpaceOnUse"><stop offset="0" stop-color="#fff"/><stop offset="1" stop-color="#fff" stop-opacity="0"/></linearGradient><linearGradient id="e" y1="61.55" x2="144.62" y2="61.55" gradientTransform="matrix(1, 0, 0, -1, 0, 1050.8)" gradientUnits="userSpaceOnUse"><stop offset="0" stop-color="#fff" stop-opacity="0"/><stop offset="1" stop-color="#fff"/></linearGradient></defs><title>Asset 1</title><polygon class="b" points="197.3 874.8 197.3 894 76.2 808.8 76.2 789.6 197.3 874.8"/><path class="c" d="M175.3,758.6l22,116.2L76.2,789.6C102.8,773,137.1,761.8,175.3,758.6Z"/><polygon class="d" points="200.2 719.3 200.2 757.7 198.7 819.2 198.7 780.8 200.2 719.3"/><polygon class="e" points="186.8 781.2 175.3 720.2 175.3 758.6 186.8 819.7 197.3 874.8 197.3 836.4 186.8 781.2"/><polygon class="d" points="198.7 780.8 198.7 819.2 197.3 874.8 197.3 836.4 198.7 780.8"/><path class="f" d="M197.3,719.3h2.9l-1.5,61.5-1.4,55.6-10.4-55.1-11.6-61C182.5,719.6,189.8,719.3,197.3,719.3Z"/><polygon class="g" points="276.9 872.3 276.9 930 197.3 912.7 197.3 855.1 276.9 872.3"/><polygon class="g" points="365.1 891.5 365.1 949.1 276.9 930 276.9 872.3 365.1 891.5"/><path class="h" d="M373.8,855.1v57.6a82.29,82.29,0,0,1-8.7,36.4V891.5A82.62,82.62,0,0,0,373.8,855.1Z"/><g class="i"><g class="j"><path class="h" d="M373.8,855.1v0"/><path class="h" d="M373.7,857.8v57.6a79.75,79.75,0,0,1-4,22.2V880a75.68,75.68,0,0,0,4-22.2"/><path class="h" d="M369.7,880v57.6A80.45,80.45,0,0,1,365,949V891.4a70.2,70.2,0,0,0,4.7-11.4"/></g></g><path class="k" d="M200.2,738c96.1,1,173.6,53.1,173.6,117.1a82.29,82.29,0,0,1-8.7,36.4l-88.2-19.1-79.6-17.3,1.4-55.6Z"/><path class="l" d="M365.1,871.3v76.8c-9.2,18.6-25.2,35.2-46,48.4V919.7C339.9,906.4,355.9,889.9,365.1,871.3Z"/><g class="m"><g class="j"><path class="l" d="M365.1,871.3v76.8A107.81,107.81,0,0,1,348,972.7V895.9a107.81,107.81,0,0,0,17.1-24.6"/><path class="l" d="M348,895.9v76.8a139.68,139.68,0,0,1-20.6,18.1V914A145.73,145.73,0,0,0,348,895.9"/><path class="l" d="M327.4,914v76.8q-4,2.85-8.4,5.7V919.7q4.35-2.85,8.4-5.7"/></g></g><polygon class="n" points="319 919.6 319 996.5 197.3 911.7 197.3 834.9 319 919.6"/><path class="o" d="M197.3,834.9l167.8,36.4c-9.2,18.6-25.2,35.2-46,48.4Z"/><path class="p" d="M319,977.4v19.2c-31.7,20-74.6,32.3-121.8,32.3-97.5,0-176.5-52.4-176.5-117.1V892.6c0,64.7,79,117.1,176.5,117.1C244.5,1009.7,287.4,997.5,319,977.4Z"/><g class="q"><g class="j"><path class="p" d="M319,977.4v19.2a189.21,189.21,0,0,1-38.1,18.3V995.7A184.16,184.16,0,0,0,319,977.4"/><path class="p" d="M281,995.8V1015a225.77,225.77,0,0,1-30.9,8.6v-19.2a225.77,225.77,0,0,0,30.9-8.6"/><path class="p" d="M250.1,1004.4v19.2a262.45,262.45,0,0,1-28.8,4.3v-19.2a262.45,262.45,0,0,0,28.8-4.3"/><path class="p" d="M221.3,1008.7v19.2c-7.9.7-15.9,1.1-24.1,1.1-2,0-4,0-6.1-.1v-19.2c2,0,4,.1,6.1.1,8.2-.1,16.3-.4,24.1-1.1"/><path class="p" d="M191.2,1009.7v19.2a265.34,265.34,0,0,1-33.9-3v-19.2a265.34,265.34,0,0,0,33.9,3"/><path class="p" d="M157.3,1006.7v19.2c-78.2-12-136.5-58.5-136.5-114.1V892.6c0,55.6,58.3,102.1,136.5,114.1"/></g></g><path class="r" d="M76.2,807.5l121.1,85.2,121.8,84.8c-31.7,20-74.6,32.3-121.8,32.3-97.5,0-176.5-52.4-176.5-117.1C20.8,859.1,42.1,828.8,76.2,807.5Z"/><path class="s" d="M161.1,1065v-15.7l-3.6,3.2v-3l3.6-3.1h2.7v18.7h-2.7Z"/><path class="s" d="M182.6,1065v-12.5l-4.3,9.1h-2.1l-4.4-9.1V1065H169v-18.7h2.8l5.4,11.6,5.3-11.6h2.8V1065Z"/><path class="s" d="M202.9,1065l-3.9-7.9h-3.5v7.9h-2.9v-18.7h7.2c3.5,0,5.8,2.3,5.8,5.4a5,5,0,0,1-3.7,5l4.3,8.3Zm-3.3-16.1h-4.2v5.8h4.2c1.9,0,3.2-1,3.2-2.9S201.5,1048.9,199.6,1048.9Z"/><path class="s" d="M207.8,1065v-18.7h11.9v2.5h-9.1v5.4h7.8v2.5h-7.8v5.6h9.1v2.5H207.8Z"/><path class="s" d="M228.7,1057.6h-4.2v7.4h-2.8v-18.7h7.1c3.6,0,6,2.4,6,5.7S232.4,1057.6,228.7,1057.6Zm-.1-8.7h-4.1v6.2h4.1c2,0,3.3-1.1,3.3-3.1S230.6,1048.9,228.6,1048.9Z"/><path class="t" d="M250.8,1055a1,1,0,0,1-1-.8,1,1,0,0,1,.8-1.2c40.1-7.8,76.2-24.6,101.7-47.4,26.2-23.5,40.1-51.5,40.1-81.1a1,1,0,0,1,2,0c0,30.2-14.1,58.8-40.8,82.6-25.8,23-62.2,40-102.7,47.9C251,1054.9,250.9,1055,250.8,1055Z"/><path class="u" d="M143.7,1055h-.2c-40.4-7.9-76.9-24.9-102.7-47.9C14.1,983.2,0,954.7,0,924.5a.94.94,0,0,1,1-1,.94.94,0,0,1,1,1c0,29.6,13.9,57.7,40.1,81.1,25.5,22.8,61.6,39.6,101.7,47.4a1,1,0,0,1,.8,1.2A.88.88,0,0,1,143.7,1055Z"/><g class="v"><path class="s" d="M20.8,477.9c-4.6,0-8.5-2.5-8.7-7.8h3c.2,3.7,2.9,5.2,5.7,5.2a5.43,5.43,0,0,0,5.7-5.8c0-3.6-1.8-5.8-5.8-5.8h-.6v-2.6h.5c3.7,0,5.3-2,5.3-5.4s-2.3-5.4-5.2-5.4c-3.2,0-5,1.9-5.3,5h-3c.3-4.8,3.8-7.6,8.3-7.6,4.8,0,8.2,3.2,8.2,8.1,0,3.2-1.3,5.4-4,6.6,3,1.1,4.5,3.5,4.5,7.3C29.5,475,25.6,477.9,20.8,477.9Z"/><path class="s" d="M49,469.7a7.85,7.85,0,0,1-8.1,8.2,7.8,7.8,0,0,1-8.1-8.2V455.8a7.85,7.85,0,0,1,8.1-8.2,7.85,7.85,0,0,1,8.1,8.2ZM46,456c0-3.3-1.8-5.7-5.1-5.7s-5.1,2.4-5.1,5.7v13.5c0,3.3,1.8,5.7,5.1,5.7s5.1-2.4,5.1-5.7Z"/><path class="s" d="M63.7,457.6a5.25,5.25,0,0,1-5.6,5.6,5.25,5.25,0,0,1-5.6-5.6v-4.4a5.25,5.25,0,0,1,5.6-5.6,5.25,5.25,0,0,1,5.6,5.6Zm-2.5-4.3c0-2.3-.9-3.6-3.2-3.6s-3.3,1.3-3.3,3.6v4.2c0,2.3.9,3.6,3.3,3.6s3.2-1.3,3.2-3.6Zm.2,24.3H58.9l13.9-29.7h2.5Zm20.4-5.3a5.6,5.6,0,1,1-11.2,0v-4.4a5.6,5.6,0,1,1,11.2,0ZM79.3,468c0-2.3-.9-3.6-3.2-3.6s-3.3,1.3-3.3,3.6v4.2c0,2.3.9,3.6,3.3,3.6s3.2-1.3,3.2-3.6Z"/></g><path class="s" d="M22.2,510.1l-1.1-3.2H14.9l-1.1,3.2H12.2l5.2-14.2h1.2l5.2,14.2ZM18,498l-2.7,7.5h5.3Z"/><path class="s" d="M32.2,510.1V504c0-1.8-.9-2.6-2.4-2.6s-2.4.9-2.4,2.6v6.1H26v-9.8h1.4v1.1a3.49,3.49,0,0,1,2.8-1.2,3.33,3.33,0,0,1,2.5.9,3.62,3.62,0,0,1,1,2.7v6.3Z"/><path class="s" d="M39.6,512.5a3.46,3.46,0,0,1-.7,1.2,2.64,2.64,0,0,1-1.9.7h-.6v-1.3h.4c1,0,1.3-.3,1.6-1.2l.7-1.9-3.5-9.6h1.6l2.7,7.9,2.7-7.9h1.6Z"/><path class="s" d="M53.8,510.1a2.39,2.39,0,0,1-2.5-2.6v-6.1H50.1v-1.1h1.2v-3h1.4v3h2.1v1.1H52.7v6.1c0,.9.4,1.4,1.3,1.4h.8v1.2Z"/><path class="s" d="M64,509.1a4.11,4.11,0,0,1-5.6,0,6.94,6.94,0,0,1,0-7.8,4.11,4.11,0,0,1,5.6,0,6.94,6.94,0,0,1,0,7.8Zm-1-7a2.66,2.66,0,0,0-3.6,0,6,6,0,0,0,0,6,2.66,2.66,0,0,0,3.6,0,4.26,4.26,0,0,0,.8-3A4.55,4.55,0,0,0,63,502.1Z"/><path class="s" d="M74.8,510.1l-3.1-5-1.9,2.2v2.8H68.4V495.9h1.4v9.5l4.4-5.1H76l-3.3,3.8,3.9,6.1H74.8Z"/><path class="s" d="M79.1,505.6c0,2.2,1,3.4,2.9,3.4a3.27,3.27,0,0,0,2.6-1.1l1,.9a4.47,4.47,0,0,1-3.6,1.5c-2.6,0-4.3-1.6-4.3-5,0-3.2,1.5-5,4-5s4,1.8,4,4.8v.6H79.1Zm5.2-1.1a5.69,5.69,0,0,0-.3-1.6,2.51,2.51,0,0,0-4.6,0c-.3.5-.2.8-.3,1.6Z"/><path class="s" d="M95.1,510.1V504c0-1.8-.9-2.6-2.4-2.6s-2.4.9-2.4,2.6v6.1H88.9v-9.8h1.4v1.1a3.49,3.49,0,0,1,2.8-1.2,3.33,3.33,0,0,1,2.5.9,3.62,3.62,0,0,1,1,2.7v6.3Z"/><path class="s" d="M110.6,510.1v-.9a4.43,4.43,0,0,1-5.6.2,2.72,2.72,0,0,1-.7-2c0-1.8,1.2-2.8,3.4-2.8h2.9v-.9c0-1.4-.7-2.2-2.5-2.2a2.63,2.63,0,0,0-2.5,1.1l-1-.9a4,4,0,0,1,3.5-1.5c2.7,0,3.9,1.1,3.9,3.3v6.7h-1.4Zm0-4.5h-2.7c-1.5,0-2.2.6-2.2,1.7s.7,1.7,2.3,1.7a3.06,3.06,0,0,0,2.2-.7,2.46,2.46,0,0,0,.5-1.7v-1Z"/><path class="s" d="M118.9,510.1h-1.3l-3.6-9.8h1.6l2.7,7.9,2.7-7.9h1.6Z"/><path class="s" d="M130.1,510.1v-.9a4.43,4.43,0,0,1-5.6.2,2.72,2.72,0,0,1-.7-2c0-1.8,1.2-2.8,3.4-2.8h2.9v-.9c0-1.4-.7-2.2-2.5-2.2a2.63,2.63,0,0,0-2.5,1.1l-1-.9a4,4,0,0,1,3.5-1.5c2.7,0,3.9,1.1,3.9,3.3v6.7h-1.4Zm0-4.5h-2.7c-1.5,0-2.2.6-2.2,1.7s.7,1.7,2.3,1.7a3.06,3.06,0,0,0,2.2-.7,2.46,2.46,0,0,0,.5-1.7v-1Z"/><path class="s" d="M134.9,497.5v-1.6h1.6v1.6Zm.1,12.6v-9.8h1.4v9.8Z"/><path class="s" d="M142.5,510.1a2.34,2.34,0,0,1-2.5-2.6V495.9h1.4v11.5c0,1,.3,1.4,1.3,1.4h.8V510h-1Z"/><path class="s" d="M151.5,510.1v-.9a4.43,4.43,0,0,1-5.6.2,2.72,2.72,0,0,1-.7-2c0-1.8,1.2-2.8,3.4-2.8h2.9v-.9c0-1.4-.7-2.2-2.5-2.2a2.63,2.63,0,0,0-2.5,1.1l-1-.9a4,4,0,0,1,3.5-1.5c2.7,0,3.9,1.1,3.9,3.3v6.7h-1.4Zm0-4.5h-2.7c-1.5,0-2.2.6-2.2,1.7s.7,1.7,2.3,1.7a3.06,3.06,0,0,0,2.2-.7,2.46,2.46,0,0,0,.5-1.7v-1Z"/><path class="s" d="M163.1,509.4a3.5,3.5,0,0,1-2.4.9,3.26,3.26,0,0,1-2.8-1.3v1.2h-1.4V496h1.4v5.5a3.26,3.26,0,0,1,2.8-1.3,3.09,3.09,0,0,1,2.4.9c1,1,1.2,2.6,1.2,4.2A5.87,5.87,0,0,1,163.1,509.4Zm-2.7-8c-2.2,0-2.5,1.8-2.5,3.8s.3,3.8,2.5,3.8,2.5-1.8,2.5-3.8S162.5,501.4,160.4,501.4Z"/><path class="s" d="M169.8,510.1a2.34,2.34,0,0,1-2.5-2.6V495.9h1.4v11.5c0,1,.3,1.4,1.3,1.4h.8V510h-1Z"/><path class="s" d="M174.1,505.6c0,2.2,1,3.4,2.9,3.4a3.27,3.27,0,0,0,2.6-1.1l1,.9a4.47,4.47,0,0,1-3.6,1.5c-2.6,0-4.3-1.6-4.3-5,0-3.2,1.5-5,4-5s4,1.8,4,4.8v.6h-6.6Zm5.3-1.1a5.69,5.69,0,0,0-.3-1.6,2.51,2.51,0,0,0-4.6,0c-.3.5-.2.8-.3,1.6Z"/><path class="s" d="M195.1,509.1a4.11,4.11,0,0,1-5.6,0,6.94,6.94,0,0,1,0-7.8,4.11,4.11,0,0,1,5.6,0,6.94,6.94,0,0,1,0,7.8Zm-1-7a2.66,2.66,0,0,0-3.6,0,6,6,0,0,0,0,6,2.66,2.66,0,0,0,3.6,0,4.26,4.26,0,0,0,.8-3A4.55,4.55,0,0,0,194.1,502.1Z"/><path class="s" d="M205.7,510.1V504c0-1.8-.9-2.6-2.4-2.6s-2.4.9-2.4,2.6v6.1h-1.4v-9.8h1.4v1.1a3.49,3.49,0,0,1,2.8-1.2,3.33,3.33,0,0,1,2.5.9,3.62,3.62,0,0,1,1,2.7v6.3Z"/><path class="s" d="M218.4,510.1a2.39,2.39,0,0,1-2.5-2.6v-6.1h-1.3v-1.1h1.2v-3h1.4v3h2.1v1.1h-2.1v6.1c0,.9.4,1.4,1.3,1.4h.8v1.2Z"/><path class="s" d="M228.6,510.1V504c0-1.8-.9-2.6-2.4-2.6a2.3,2.3,0,0,0-2.5,2.6v6.1h-1.4V495.9h1.4v5.5a3.49,3.49,0,0,1,2.8-1.2c2.3,0,3.5,1.4,3.5,3.6v6.3Z"/><path class="s" d="M234.4,505.6c0,2.2,1,3.4,2.9,3.4a3.27,3.27,0,0,0,2.6-1.1l1,.9a4.47,4.47,0,0,1-3.6,1.5c-2.6,0-4.3-1.6-4.3-5,0-3.2,1.5-5,4-5s4,1.8,4,4.8v.6h-6.6Zm5.2-1.1a5.69,5.69,0,0,0-.3-1.6,2.51,2.51,0,0,0-4.6,0c-.3.5-.2.8-.3,1.6Z"/><path class="s" d="M258,508.6a4.82,4.82,0,0,1-3.7,1.5h-4.9V495.9h4.9a4.68,4.68,0,0,1,3.7,1.5c1.3,1.4,1.3,3.4,1.3,5.6S259.3,507.3,258,508.6Zm-1.2-10.3a3.48,3.48,0,0,0-2.8-1h-3.1v11.5H254a3.48,3.48,0,0,0,2.8-1c.9-1,.9-2.8.9-4.7S257.7,499.2,256.8,498.3Z"/><path class="s" d="M268.8,510.1V509a3.63,3.63,0,0,1-2.8,1.2,3.33,3.33,0,0,1-2.5-.9,3.71,3.71,0,0,1-1-2.8v-6.3h1.4v6.1c0,1.8.9,2.6,2.4,2.6a2.34,2.34,0,0,0,2.5-2.6v-6.1h1.4V510h-1.4Z"/><path class="s" d="M276.6,510.1a2.39,2.39,0,0,1-2.5-2.6v-6.1h-1.2v-1.1h1.2v-3h1.4v3h2.1v1.1h-2.1v6.1c0,.9.4,1.4,1.3,1.4h.8v1.2Z"/><path class="s" d="M287.5,508.8a3.91,3.91,0,0,1-3.2,1.5c-2.5,0-4.4-1.7-4.4-5s1.9-5,4.4-5a3.79,3.79,0,0,1,3.2,1.5l-1,.9a2.7,2.7,0,0,0-2.3-1.1,2.84,2.84,0,0,0-2.3,1.1,3.87,3.87,0,0,0-.6,2.6,4.54,4.54,0,0,0,.6,2.6,2.71,2.71,0,0,0,2.3,1.1,3,3,0,0,0,2.3-1.1Z"/><path class="s" d="M296.5,510.1V504c0-1.8-.9-2.6-2.4-2.6a2.3,2.3,0,0,0-2.5,2.6v6.1h-1.4V495.9h1.4v5.5a3.49,3.49,0,0,1,2.8-1.2c2.3,0,3.5,1.4,3.5,3.6v6.3Z"/><path class="s" d="M308.6,510.1l-3.5-6-3.5,6h-1.7l4.4-7.3-4.1-6.9H302l3.2,5.6,3.2-5.6h1.8l-4.1,6.9,4.4,7.3Z"/><path class="s" d="M330.1,510.1V504c0-1.8-.9-2.6-2.4-2.6a2.36,2.36,0,0,0-2.5,2.5v6.2h-1.4V504c0-1.8-.9-2.6-2.4-2.6a2.34,2.34,0,0,0-2.5,2.6v6.1h-1.4v-9.8h1.4v1.1a3.63,3.63,0,0,1,2.8-1.2,3.11,3.11,0,0,1,3,1.6,3.76,3.76,0,0,1,3.2-1.6,3.33,3.33,0,0,1,2.5.9,3.69,3.69,0,0,1,1.1,2.7v6.3Z"/><path class="s" d="M340.6,510.1v-.9a4.43,4.43,0,0,1-5.6.2,2.72,2.72,0,0,1-.7-2c0-1.8,1.2-2.8,3.4-2.8h2.9v-.9c0-1.4-.7-2.2-2.5-2.2a2.63,2.63,0,0,0-2.5,1.1l-1-.9a4,4,0,0,1,3.5-1.5c2.7,0,3.9,1.1,3.9,3.3v6.7h-1.4Zm0-4.5h-2.7c-1.5,0-2.2.6-2.2,1.7s.7,1.7,2.3,1.7a3.06,3.06,0,0,0,2.2-.7,2.46,2.46,0,0,0,.5-1.7v-1Z"/><path class="s" d="M348,512.5a3.46,3.46,0,0,1-.7,1.2,2.64,2.64,0,0,1-1.9.7h-.6v-1.3h.4c1,0,1.3-.3,1.6-1.2l.7-1.9-3.5-9.6h1.6l2.7,7.9,2.7-7.9h1.6Z"/><path class="s" d="M366.1,509.4a3.5,3.5,0,0,1-2.4.9,3.26,3.26,0,0,1-2.8-1.3v1.2h-1.4V496h1.4v5.5a3.26,3.26,0,0,1,2.8-1.3,3.09,3.09,0,0,1,2.4.9c1,1,1.2,2.6,1.2,4.2A5.87,5.87,0,0,1,366.1,509.4Zm-2.7-8c-2.2,0-2.5,1.8-2.5,3.8s.3,3.8,2.5,3.8,2.5-1.8,2.5-3.8S365.6,501.4,363.4,501.4Z"/><path class="s" d="M371.3,505.6c0,2.2,1,3.4,2.9,3.4a3.27,3.27,0,0,0,2.6-1.1l1,.9a4.47,4.47,0,0,1-3.6,1.5c-2.6,0-4.3-1.6-4.3-5,0-3.2,1.5-5,4-5s4,1.8,4,4.8v.6h-6.6Zm5.2-1.1a5.69,5.69,0,0,0-.3-1.6,2.51,2.51,0,0,0-4.6,0c-.3.5-.2.8-.3,1.6Z"/><path class="s" d="M16.1,530.1a2.34,2.34,0,0,1-2.5-2.6V515.9H15v11.5c0,1,.3,1.4,1.3,1.4h.8V530h-1Z"/><path class="s" d="M25.9,529.1a3.76,3.76,0,0,1-2.8,1.1,3.76,3.76,0,0,1-2.8-1.1,6.94,6.94,0,0,1,0-7.8,3.76,3.76,0,0,1,2.8-1.1,3.76,3.76,0,0,1,2.8,1.1,6.94,6.94,0,0,1,0,7.8Zm-1-6.9a2.66,2.66,0,0,0-3.6,0,6,6,0,0,0,0,6,2.66,2.66,0,0,0,3.6,0,4.26,4.26,0,0,0,.8-3C25.6,524.1,25.6,522.9,24.9,522.2Z"/><path class="s" d="M37.2,528.8a3.91,3.91,0,0,1-3.2,1.5c-2.5,0-4.4-1.7-4.4-5s1.9-5,4.4-5a3.79,3.79,0,0,1,3.2,1.5l-1,.9a2.7,2.7,0,0,0-2.3-1.1,2.84,2.84,0,0,0-2.3,1.1,3.87,3.87,0,0,0-.6,2.6,4.54,4.54,0,0,0,.6,2.6,2.71,2.71,0,0,0,2.3,1.1,3,3,0,0,0,2.3-1.1Z"/><path class="s" d="M46.4,530.1l-3.1-5-1.9,2.2v2.8H40V515.9h1.4v9.5l4.4-5.1h1.8l-3.3,3.8,3.9,6.1H46.4Z"/><path class="s" d="M50.8,525.6c0,2.2,1,3.4,2.9,3.4a3.27,3.27,0,0,0,2.6-1.1l1,.9a4.47,4.47,0,0,1-3.6,1.5c-2.6,0-4.3-1.6-4.3-5,0-3.2,1.5-5,4-5s4,1.8,4,4.8v.6H50.8Zm5.2-1.1a5.69,5.69,0,0,0-.3-1.6,2.51,2.51,0,0,0-4.6,0c-.3.5-.2.8-.3,1.6Z"/><path class="s" d="M66.4,530.1v-1.2a3.26,3.26,0,0,1-2.8,1.3,3.09,3.09,0,0,1-2.4-.9c-1-1-1.2-2.6-1.2-4.2s.2-3.2,1.2-4.2a3.5,3.5,0,0,1,2.4-.9,3,3,0,0,1,2.8,1.3v-5.5h1.4V530H66.4Zm-2.5-8.7c-2.2,0-2.5,1.8-2.5,3.8s.3,3.8,2.5,3.8,2.5-1.8,2.5-3.8S66,521.4,63.9,521.4Z"/><path class="s" d="M79.1,530.1a2.39,2.39,0,0,1-2.5-2.6v-6.1H75.4v-1.1h1.2v-3H78v3h2.1v1.1H78v6.1c0,.9.4,1.4,1.3,1.4h.8v1.2Z"/><path class="s" d="M89.3,529.1a4.11,4.11,0,0,1-5.6,0,6.94,6.94,0,0,1,0-7.8,4.11,4.11,0,0,1,5.6,0,6.94,6.94,0,0,1,0,7.8Zm-1-6.9a2.66,2.66,0,0,0-3.6,0,6,6,0,0,0,0,6,2.66,2.66,0,0,0,3.6,0,6,6,0,0,0,0-6Z"/><path class="s" d="M105.8,530.4a3.91,3.91,0,0,1-4.1,4.2,4.3,4.3,0,0,1-3.3-1.3l.9-.9a3.31,3.31,0,0,0,2.4,1c1.9,0,2.7-1.3,2.7-3v-1.5a3.66,3.66,0,0,1-5.2.4c-1-1-1.2-2.5-1.2-4.1s.2-3.1,1.2-4.1a3.5,3.5,0,0,1,2.4-.9,3,3,0,0,1,2.8,1.3v-1.2h1.4Zm-3.8-9c-2.2,0-2.5,1.8-2.5,3.7s.3,3.7,2.5,3.7,2.4-1.8,2.4-3.7S104.1,521.4,102,521.4Z"/><path class="s" d="M110.3,525.6c0,2.2,1,3.4,2.9,3.4a3.27,3.27,0,0,0,2.6-1.1l1,.9a4.47,4.47,0,0,1-3.6,1.5c-2.6,0-4.3-1.6-4.3-5,0-3.2,1.5-5,4-5s4,1.8,4,4.8v.6h-6.6Zm5.3-1.1a5.69,5.69,0,0,0-.3-1.6,2.51,2.51,0,0,0-4.6,0c-.3.5-.2.8-.3,1.6Z"/><path class="s" d="M126.3,530.1V524c0-1.8-.9-2.6-2.4-2.6s-2.4.9-2.4,2.6v6.1h-1.4v-9.8h1.4v1.1a3.49,3.49,0,0,1,2.8-1.2,3.33,3.33,0,0,1,2.5.9,3.62,3.62,0,0,1,1,2.7v6.3Z"/><path class="s" d="M132.2,525.6c0,2.2,1,3.4,2.9,3.4a3.27,3.27,0,0,0,2.6-1.1l1,.9a4.47,4.47,0,0,1-3.6,1.5c-2.6,0-4.3-1.6-4.3-5,0-3.2,1.5-5,4-5s4,1.8,4,4.8v.6h-6.6Zm5.2-1.1a5.69,5.69,0,0,0-.3-1.6,2.51,2.51,0,0,0-4.6,0c-.3.5-.2.8-.3,1.6Z"/><path class="s" d="M147.4,522.2a2.06,2.06,0,0,0-1.7-.7,2.42,2.42,0,0,0-2.4,2.6v6h-1.4v-9.8h1.4v1.2a3.29,3.29,0,0,1,2.8-1.3,3.15,3.15,0,0,1,2.4.9Z"/><path class="s" d="M155.9,530.1v-.9a4.43,4.43,0,0,1-5.6.2,2.72,2.72,0,0,1-.7-2c0-1.8,1.2-2.8,3.4-2.8h2.9v-.9c0-1.4-.7-2.2-2.5-2.2a2.63,2.63,0,0,0-2.5,1.1l-1-.9a4,4,0,0,1,3.5-1.5c2.7,0,3.9,1.1,3.9,3.3v6.7h-1.4Zm0-4.5h-2.7c-1.5,0-2.2.6-2.2,1.7s.7,1.7,2.3,1.7a3.06,3.06,0,0,0,2.2-.7,2.46,2.46,0,0,0,.5-1.7v-1Z"/><path class="s" d="M163.6,530.1a2.39,2.39,0,0,1-2.5-2.6v-6.1h-1.2v-1.1h1.2v-3h1.4v3h2.1v1.1h-2.1v6.1c0,.9.4,1.4,1.3,1.4h.8v1.2Z"/><path class="s" d="M168.4,525.6c0,2.2,1,3.4,2.9,3.4a3.27,3.27,0,0,0,2.6-1.1l1,.9a4.47,4.47,0,0,1-3.6,1.5c-2.6,0-4.3-1.6-4.3-5,0-3.2,1.5-5,4-5s4,1.8,4,4.8v.6h-6.6Zm5.2-1.1a5.69,5.69,0,0,0-.3-1.6,2.51,2.51,0,0,0-4.6,0c-.3.5-.2.8-.3,1.6Z"/><path class="s" d="M191.5,530.1l-3.2-6.3h-3.4v6.3h-1.5V515.9h5.5c2.5,0,4.2,1.5,4.2,4a3.71,3.71,0,0,1-3.1,3.8l3.4,6.5h-1.9Zm-2.9-12.9h-3.8v5.2h3.8c1.7,0,2.8-.8,2.8-2.6S190.3,517.2,188.6,517.2Z"/><path class="s" d="M196.5,525.6c0,2.2,1,3.4,2.9,3.4a3.27,3.27,0,0,0,2.6-1.1l1,.9a4.47,4.47,0,0,1-3.6,1.5c-2.6,0-4.3-1.6-4.3-5,0-3.2,1.5-5,4-5s4,1.8,4,4.8v.6h-6.6Zm5.2-1.1a5.69,5.69,0,0,0-.3-1.6,2.51,2.51,0,0,0-4.6,0c-.3.5-.2.8-.3,1.6Z"/><path class="s" d="M212.8,529.4a3.5,3.5,0,0,1-2.4.9,3.26,3.26,0,0,1-2.8-1.3v5.6h-1.4V520.4h1.4v1.2a3.26,3.26,0,0,1,2.8-1.3,3.09,3.09,0,0,1,2.4.9c1,1,1.2,2.6,1.2,4.2A5.62,5.62,0,0,1,212.8,529.4Zm-2.7-8c-2.2,0-2.5,1.8-2.5,3.8s.3,3.8,2.5,3.8,2.5-1.8,2.5-3.8S212.2,521.4,210.1,521.4Z"/><path class="s" d="M223.3,530.1V529a3.63,3.63,0,0,1-2.8,1.2,3.33,3.33,0,0,1-2.5-.9,3.71,3.71,0,0,1-1-2.8v-6.3h1.4v6.1c0,1.8.9,2.6,2.4,2.6a2.34,2.34,0,0,0,2.5-2.6v-6.1h1.4V530h-1.4Z"/><path class="s" d="M231.1,530.1a2.39,2.39,0,0,1-2.5-2.6v-6.1h-1.2v-1.1h1.2v-3H230v3h2.1v1.1H230v6.1c0,.9.4,1.4,1.3,1.4h.8v1.2Z"/><path class="s" d="M240.5,530.1v-.9a4.43,4.43,0,0,1-5.6.2,2.72,2.72,0,0,1-.7-2c0-1.8,1.2-2.8,3.4-2.8h2.9v-.9c0-1.4-.7-2.2-2.5-2.2a2.63,2.63,0,0,0-2.5,1.1l-1-.9a4,4,0,0,1,3.5-1.5c2.7,0,3.9,1.1,3.9,3.3v6.7h-1.4Zm0-4.5h-2.7c-1.5,0-2.2.6-2.2,1.7s.7,1.7,2.3,1.7a3.06,3.06,0,0,0,2.2-.7,2.46,2.46,0,0,0,.5-1.7v-1Z"/><path class="s" d="M248.2,530.1a2.39,2.39,0,0,1-2.5-2.6v-6.1h-1.2v-1.1h1.2v-3h1.4v3h2.1v1.1h-2.1v6.1c0,.9.4,1.4,1.3,1.4h.8v1.2Z"/><path class="s" d="M252,517.5v-1.6h1.6v1.6Zm.1,12.6v-9.8h1.4v9.8Z"/><path class="s" d="M263.5,529.1a4.11,4.11,0,0,1-5.6,0,6.94,6.94,0,0,1,0-7.8,4.11,4.11,0,0,1,5.6,0,5.23,5.23,0,0,1,1.2,3.9A5.69,5.69,0,0,1,263.5,529.1Zm-1.1-6.9a2.66,2.66,0,0,0-3.6,0,6,6,0,0,0,0,6,2.66,2.66,0,0,0,3.6,0,4.26,4.26,0,0,0,.8-3C263.2,524.1,263.2,522.9,262.4,522.2Z"/><path class="s" d="M274,530.1V524c0-1.8-.9-2.6-2.4-2.6s-2.4.9-2.4,2.6v6.1h-1.4v-9.8h1.4v1.1a3.49,3.49,0,0,1,2.8-1.2,3.33,3.33,0,0,1,2.5.9,3.62,3.62,0,0,1,1,2.7v6.3Z"/><path class="s" d="M278.9,530.1v-1.9h1.9v1.9Z"/><path class="s" d="M13.9,637.4V623.2h8.8v1.4H15.4v5h6.2V631H15.4v5.1h7.3v1.4H13.9Z"/><path class="s" d="M28.4,637.4a2.39,2.39,0,0,1-2.5-2.6v-6.1H24.7v-1.1h1.2v-3h1.4v3h2.1v1.1H27.3v6.1c0,.9.4,1.4,1.3,1.4h.8v1.2Z"/><path class="s" d="M38.6,637.4v-6.1c0-1.8-.9-2.6-2.4-2.6a2.3,2.3,0,0,0-2.5,2.6v6.1H32.3V623.2h1.4v5.5a3.49,3.49,0,0,1,2.8-1.2c2.3,0,3.5,1.4,3.5,3.6v6.3Z"/><path class="s" d="M44.5,632.8c0,2.2,1,3.4,2.9,3.4a3.27,3.27,0,0,0,2.6-1.1l1,.9a4.47,4.47,0,0,1-3.6,1.5c-2.6,0-4.3-1.6-4.3-5,0-3.2,1.5-5,4-5s4,1.8,4,4.8v.6H44.5Zm5.2-1.1a5.69,5.69,0,0,0-.3-1.6,2.51,2.51,0,0,0-4.6,0c-.3.5-.2.8-.3,1.6Z"/><path class="s" d="M59.7,629.4a2.06,2.06,0,0,0-1.7-.7,2.42,2.42,0,0,0-2.4,2.6v6H54.2v-9.8h1.4v1.2a3.29,3.29,0,0,1,2.8-1.3,3.15,3.15,0,0,1,2.4.9Z"/><path class="s" d="M62.9,632.8c0,2.2,1,3.4,2.9,3.4a3.27,3.27,0,0,0,2.6-1.1l1,.9a4.47,4.47,0,0,1-3.6,1.5c-2.6,0-4.3-1.6-4.3-5,0-3.2,1.5-5,4-5s4,1.8,4,4.8v.6H62.9Zm5.2-1.1a5.69,5.69,0,0,0-.3-1.6,2.51,2.51,0,0,0-4.6,0c-.3.5-.2.8-.3,1.6Z"/><path class="s" d="M78.8,637.4v-1.1a3.63,3.63,0,0,1-2.8,1.2,3.33,3.33,0,0,1-2.5-.9,3.71,3.71,0,0,1-1-2.8v-6.3h1.4v6.1c0,1.8.9,2.6,2.4,2.6a2.34,2.34,0,0,0,2.5-2.6v-6.1h1.4v9.8H78.8Z"/><path class="s" d="M96.5,637.4v-6.1c0-1.8-.9-2.6-2.4-2.6a2.36,2.36,0,0,0-2.5,2.5v6.2H90.2v-6.1c0-1.8-.9-2.6-2.4-2.6a2.34,2.34,0,0,0-2.5,2.6v6.1H83.9v-9.8h1.4v1.1a3.63,3.63,0,0,1,2.8-1.2,3.11,3.11,0,0,1,3,1.6,3.76,3.76,0,0,1,3.2-1.6,3.33,3.33,0,0,1,2.5.9,3.69,3.69,0,0,1,1.1,2.7v6.3Z"/><path class="s" d="M119,637.4v-6.1c0-1.8-.9-2.6-2.4-2.6a2.36,2.36,0,0,0-2.5,2.5v6.2h-1.4v-6.1c0-1.8-.9-2.6-2.4-2.6a2.34,2.34,0,0,0-2.5,2.6v6.1h-1.4v-9.8h1.4v1.1a3.63,3.63,0,0,1,2.8-1.2,3.11,3.11,0,0,1,3,1.6,3.76,3.76,0,0,1,3.2-1.6,3.33,3.33,0,0,1,2.5.9,3.69,3.69,0,0,1,1.1,2.7v6.3Z"/><path class="s" d="M129.5,637.4v-1a4.43,4.43,0,0,1-5.6.2,2.72,2.72,0,0,1-.7-2c0-1.8,1.2-2.8,3.4-2.8h2.9v-.9c0-1.4-.7-2.2-2.5-2.2a2.63,2.63,0,0,0-2.5,1.1l-1-.9a4,4,0,0,1,3.5-1.5c2.7,0,3.9,1.1,3.9,3.3v6.7Zm0-4.6h-2.7c-1.5,0-2.2.6-2.2,1.7s.7,1.7,2.3,1.7a3.06,3.06,0,0,0,2.2-.7,2.46,2.46,0,0,0,.5-1.7v-1Z"/><path class="s" d="M136.9,639.7a3.46,3.46,0,0,1-.7,1.2,2.64,2.64,0,0,1-1.9.7h-.6v-1.3h.4c1,0,1.3-.3,1.6-1.2l.7-1.9-3.5-9.6h1.6l2.7,7.9,2.7-7.9h1.6Z"/><path class="s" d="M155,636.6a3.5,3.5,0,0,1-2.4.9,3.26,3.26,0,0,1-2.8-1.3v1.2h-1.4V623.2h1.4v5.5a3.26,3.26,0,0,1,2.8-1.3,3.09,3.09,0,0,1,2.4.9c1,1,1.2,2.6,1.2,4.2A5.73,5.73,0,0,1,155,636.6Zm-2.7-7.9c-2.2,0-2.5,1.8-2.5,3.8s.3,3.8,2.5,3.8,2.5-1.8,2.5-3.8S154.5,628.7,152.3,628.7Z"/><path class="s" d="M160.2,632.8c0,2.2,1,3.4,2.9,3.4a3.27,3.27,0,0,0,2.6-1.1l1,.9a4.47,4.47,0,0,1-3.6,1.5c-2.6,0-4.3-1.6-4.3-5,0-3.2,1.5-5,4-5s4,1.8,4,4.8v.6h-6.6Zm5.2-1.1a5.69,5.69,0,0,0-.3-1.6,2.51,2.51,0,0,0-4.6,0c-.3.5-.2.8-.3,1.6Z"/><path class="s" d="M177.3,637.4a2.34,2.34,0,0,1-2.5-2.6V623.2h1.4v11.6c0,1,.3,1.4,1.3,1.4h.8v1.2Z"/><path class="s" d="M187.1,636.4a4.11,4.11,0,0,1-5.6,0,6.94,6.94,0,0,1,0-7.8,4.11,4.11,0,0,1,5.6,0,5.23,5.23,0,0,1,1.2,3.9A5.37,5.37,0,0,1,187.1,636.4Zm-1-7a2.66,2.66,0,0,0-3.6,0,6,6,0,0,0,0,6,2.66,2.66,0,0,0,3.6,0,4.26,4.26,0,0,0,.8-3C186.8,631.3,186.8,630.1,186.1,629.4Z"/><path class="s" d="M198.4,636a3.91,3.91,0,0,1-3.2,1.5c-2.5,0-4.4-1.7-4.4-5s1.9-5,4.4-5a3.79,3.79,0,0,1,3.2,1.5l-1,.9a2.7,2.7,0,0,0-2.3-1.1,2.84,2.84,0,0,0-2.3,1.1,3.87,3.87,0,0,0-.6,2.6,4.54,4.54,0,0,0,.6,2.6,2.71,2.71,0,0,0,2.3,1.1,3,3,0,0,0,2.3-1.1Z"/><path class="s" d="M207.6,637.4l-3.1-5-1.9,2.2v2.8h-1.4V623.2h1.4v9.5l4.4-5.1h1.8l-3.3,3.8,3.9,6.1h-1.8Z"/><path class="s" d="M212,632.8c0,2.2,1,3.4,2.9,3.4a3.27,3.27,0,0,0,2.6-1.1l1,.9a4.47,4.47,0,0,1-3.6,1.5c-2.6,0-4.3-1.6-4.3-5,0-3.2,1.5-5,4-5s4,1.8,4,4.8v.6H212Zm5.2-1.1a5.69,5.69,0,0,0-.3-1.6,2.51,2.51,0,0,0-4.6,0c-.3.5-.2.8-.3,1.6Z"/><path class="s" d="M227.6,637.4v-1.2a3.26,3.26,0,0,1-2.8,1.3,3.09,3.09,0,0,1-2.4-.9c-1-1-1.2-2.6-1.2-4.2s.2-3.2,1.2-4.2a3.5,3.5,0,0,1,2.4-.9,3,3,0,0,1,2.8,1.3v-5.5H229v14.3Zm-2.5-8.7c-2.2,0-2.5,1.8-2.5,3.8s.3,3.8,2.5,3.8,2.5-1.8,2.5-3.8S227.2,628.7,225.1,628.7Z"/><path class="s" d="M240.3,637.4a2.39,2.39,0,0,1-2.5-2.6v-6.1h-1.2v-1.1h1.2v-3h1.4v3h2.1v1.1h-2.1v6.1c0,.9.4,1.4,1.3,1.4h.8v1.2Z"/><path class="s" d="M250.5,636.4a4.11,4.11,0,0,1-5.6,0,6.94,6.94,0,0,1,0-7.8,4.11,4.11,0,0,1,5.6,0,5.23,5.23,0,0,1,1.2,3.9A5.37,5.37,0,0,1,250.5,636.4Zm-1-7a2.66,2.66,0,0,0-3.6,0,6,6,0,0,0,0,6,2.66,2.66,0,0,0,3.6,0,6,6,0,0,0,0-6Z"/><path class="s" d="M267,637.7a3.91,3.91,0,0,1-4.1,4.2,4.3,4.3,0,0,1-3.3-1.3l.9-.9a3.31,3.31,0,0,0,2.4,1c1.9,0,2.7-1.3,2.7-3v-1.5a3.66,3.66,0,0,1-5.2.4c-1-1-1.2-2.5-1.2-4.1s.2-3.1,1.2-4.1a3.5,3.5,0,0,1,2.4-.9,3,3,0,0,1,2.8,1.3v-1.2H267Zm-3.8-9c-2.2,0-2.5,1.8-2.5,3.7s.3,3.7,2.5,3.7,2.4-1.8,2.4-3.7S265.3,628.7,263.2,628.7Z"/><path class="s" d="M271.5,632.8c0,2.2,1,3.4,2.9,3.4a3.27,3.27,0,0,0,2.6-1.1l1,.9a4.47,4.47,0,0,1-3.6,1.5c-2.6,0-4.3-1.6-4.3-5,0-3.2,1.5-5,4-5s4,1.8,4,4.8v.6h-6.6Zm5.3-1.1a5.69,5.69,0,0,0-.3-1.6,2.51,2.51,0,0,0-4.6,0c-.3.5-.2.8-.3,1.6Z"/><path class="s" d="M287.5,637.4v-6.1c0-1.8-.9-2.6-2.4-2.6s-2.4.9-2.4,2.6v6.1h-1.4v-9.8h1.4v1.1a3.49,3.49,0,0,1,2.8-1.2,3.33,3.33,0,0,1,2.5.9,3.62,3.62,0,0,1,1,2.7v6.3Z"/><path class="s" d="M293.4,632.8c0,2.2,1,3.4,2.9,3.4a3.27,3.27,0,0,0,2.6-1.1l1,.9a4.47,4.47,0,0,1-3.6,1.5c-2.6,0-4.3-1.6-4.3-5,0-3.2,1.5-5,4-5s4,1.8,4,4.8v.6h-6.6Zm5.2-1.1a5.69,5.69,0,0,0-.3-1.6,2.51,2.51,0,0,0-4.6,0c-.3.5-.2.8-.3,1.6Z"/><path class="s" d="M308.6,629.4a2.06,2.06,0,0,0-1.7-.7,2.42,2.42,0,0,0-2.4,2.6v6h-1.4v-9.8h1.4v1.2a3.29,3.29,0,0,1,2.8-1.3,3.15,3.15,0,0,1,2.4.9Z"/><path class="s" d="M317.1,637.4v-1a4.43,4.43,0,0,1-5.6.2,2.72,2.72,0,0,1-.7-2c0-1.8,1.2-2.8,3.4-2.8h2.9v-.9c0-1.4-.7-2.2-2.5-2.2a2.63,2.63,0,0,0-2.5,1.1l-1-.9a4,4,0,0,1,3.5-1.5c2.7,0,3.9,1.1,3.9,3.3v6.7Zm0-4.6h-2.7c-1.5,0-2.2.6-2.2,1.7s.7,1.7,2.3,1.7a3.06,3.06,0,0,0,2.2-.7,2.46,2.46,0,0,0,.5-1.7v-1Z"/><path class="s" d="M324.8,637.4a2.39,2.39,0,0,1-2.5-2.6v-6.1h-1.2v-1.1h1.2v-3h1.4v3h2.1v1.1h-2.1v6.1c0,.9.4,1.4,1.3,1.4h.8v1.2Z"/><path class="s" d="M329.6,632.8c0,2.2,1,3.4,2.9,3.4a3.27,3.27,0,0,0,2.6-1.1l1,.9a4.47,4.47,0,0,1-3.6,1.5c-2.6,0-4.3-1.6-4.3-5,0-3.2,1.5-5,4-5s4,1.8,4,4.8v.6h-6.6Zm5.2-1.1a5.69,5.69,0,0,0-.3-1.6,2.51,2.51,0,0,0-4.6,0c-.3.5-.2.8-.3,1.6Z"/><path class="s" d="M22.1,657.4l-3.2-6.3H15.5v6.3H14V643.2h5.5c2.5,0,4.2,1.5,4.2,4a3.71,3.71,0,0,1-3.1,3.8l3.4,6.5H22.1Zm-2.8-12.9H15.5v5.2h3.8c1.7,0,2.8-.8,2.8-2.6A2.52,2.52,0,0,0,19.3,644.5Z"/><path class="s" d="M27.1,652.8c0,2.2,1,3.4,2.9,3.4a3.27,3.27,0,0,0,2.6-1.1l1,.9a4.47,4.47,0,0,1-3.6,1.5c-2.6,0-4.3-1.6-4.3-5,0-3.2,1.5-5,4-5s4,1.8,4,4.8v.6H27.1Zm5.2-1a5.69,5.69,0,0,0-.3-1.6,2.51,2.51,0,0,0-4.6,0c-.3.5-.2.8-.3,1.6Z"/><path class="s" d="M43.4,656.6a3.5,3.5,0,0,1-2.4.9,3.26,3.26,0,0,1-2.8-1.3v5.6H36.8V647.6h1.4v1.2a3.26,3.26,0,0,1,2.8-1.3,3.09,3.09,0,0,1,2.4.9c1,1,1.2,2.6,1.2,4.2A5.34,5.34,0,0,1,43.4,656.6Zm-2.7-7.9c-2.2,0-2.5,1.8-2.5,3.8s.3,3.8,2.5,3.8,2.5-1.8,2.5-3.8S42.9,648.7,40.7,648.7Z"/><path class="s" d="M53.9,657.4v-1.1a3.63,3.63,0,0,1-2.8,1.2,3.33,3.33,0,0,1-2.5-.9,3.71,3.71,0,0,1-1-2.8v-6.3H49v6.1c0,1.8.9,2.6,2.4,2.6a2.34,2.34,0,0,0,2.5-2.6v-6.1h1.4v9.8H53.9Z"/><path class="s" d="M61.7,657.4a2.39,2.39,0,0,1-2.5-2.6v-6.1H58v-1.1h1.2v-3h1.4v3h2.1v1.1H60.6v6.1c0,.9.4,1.4,1.3,1.4h.8v1.2Z"/><path class="s" d="M71.2,657.4v-1a3.42,3.42,0,0,1-2.8,1.1,3.4,3.4,0,0,1-2.8-.9,2.72,2.72,0,0,1-.7-2c0-1.8,1.2-2.8,3.4-2.8h2.9v-.9c0-1.4-.7-2.2-2.5-2.2a2.63,2.63,0,0,0-2.5,1.1l-1-.9a4,4,0,0,1,3.5-1.5c2.7,0,3.9,1.1,3.9,3.3v6.7Zm0-4.6H68.5c-1.5,0-2.2.6-2.2,1.7s.7,1.7,2.3,1.7a3.06,3.06,0,0,0,2.2-.7,2.46,2.46,0,0,0,.5-1.7v-1Z"/><path class="s" d="M78.9,657.4a2.39,2.39,0,0,1-2.5-2.6v-6.1H75.2v-1.1h1.2v-3h1.4v3h2.1v1.1H77.8v6.1c0,.9.4,1.4,1.3,1.4h.8v1.2Z"/><path class="s" d="M82.7,644.7v-1.6h1.6v1.6Zm0,12.7v-9.8h1.4v9.8Z"/><path class="s" d="M94.1,656.4a4.11,4.11,0,0,1-5.6,0,6.94,6.94,0,0,1,0-7.8,4.11,4.11,0,0,1,5.6,0,6.94,6.94,0,0,1,0,7.8Zm-1-7a2.66,2.66,0,0,0-3.6,0,6,6,0,0,0,0,6,2.66,2.66,0,0,0,3.6,0,6,6,0,0,0,0-6Z"/><path class="s" d="M104.7,657.4v-6.1c0-1.8-.9-2.6-2.4-2.6s-2.4.9-2.4,2.6v6.1H98.5v-9.8h1.4v1.1a3.49,3.49,0,0,1,2.8-1.2,3.33,3.33,0,0,1,2.5.9,3.62,3.62,0,0,1,1,2.7v6.3Z"/><path class="s" d="M109.6,657.4v-1.9h1.9v1.9Z"/><path class="s" d="M382.3,486.7H12.1a.79.79,0,0,1-.8-.8.74.74,0,0,1,.8-.8H382.3a.8.8,0,0,1,0,1.6Z"/><path class="s" d="M105.3,461h-2l-3-10.5-3,10.5h-2l-3.9-14.9h2.4l2.6,10.7,3-10.7h1.8l3,10.7,2.6-10.7h2.4Z"/><path class="s" d="M116.6,461v-6.5c0-1.7-.9-2.4-2.1-2.4a2.16,2.16,0,0,0-2.2,2.4V461h-2.1V446.1h2.1v5.4a3.87,3.87,0,0,1,5.4-.2,4,4,0,0,1,1.1,3v6.8h-2.2Z"/><path class="s" d="M120.9,448.3V446h2.3v2.3ZM121,461V450.4h2.1V461Z"/><path class="s" d="M128.7,461a2.75,2.75,0,0,1-2.9-3v-6h-1.2v-1.6h1.2v-3h2.1v3H130V452h-2.1v5.9a1.06,1.06,0,0,0,1.2,1.2h.9v1.8h-1.3Z"/><path class="s" d="M133.2,456.3c0,1.8.9,3,2.7,3a3.14,3.14,0,0,0,2.6-1.1l1.4,1.3a5,5,0,0,1-4,1.7c-2.7,0-4.8-1.4-4.8-5.5,0-3.5,1.8-5.4,4.5-5.4,2.9,0,4.5,2.1,4.5,5.2v.9h-6.9Zm4.8-1.5a4.2,4.2,0,0,0-.3-1.4,2.23,2.23,0,0,0-2.1-1.3,2.13,2.13,0,0,0-2.1,1.3,3.19,3.19,0,0,0-.3,1.4Z"/><path class="s" d="M144.7,461a2.72,2.72,0,0,1-2.9-2.9v-12h2.1V458c0,.8.3,1.2,1.2,1.2h.9V461Z"/><path class="s" d="M147.3,448.3V446h2.3v2.3Zm.1,12.7V450.4h2.1V461Z"/><path class="s" d="M155.3,461.1a6.17,6.17,0,0,1-4.5-1.5l1.4-1.4a4.11,4.11,0,0,0,3.1,1.1c1.3,0,2.3-.5,2.3-1.5,0-.7-.4-1.2-1.4-1.3l-1.7-.1c-2-.2-3.1-1.1-3.1-2.9,0-2.1,1.8-3.3,4-3.3a5.38,5.38,0,0,1,3.9,1.2l-1.3,1.4a3.85,3.85,0,0,0-2.6-.8c-1.3,0-1.9.5-1.9,1.4,0,.7.4,1.1,1.5,1.2l1.5.1c2.2.2,3.4,1.2,3.4,3C159.7,460,157.8,461.1,155.3,461.1Z"/><path class="s" d="M164.5,461a2.75,2.75,0,0,1-2.9-3v-6h-1.2v-1.6h1.2v-3h2.1v3h2.1V452h-2.1v5.9a1.06,1.06,0,0,0,1.2,1.2h.9v1.8h-1.3Z"/><path class="s" d="M169,456.3c0,1.8.9,3,2.7,3a3.14,3.14,0,0,0,2.6-1.1l1.4,1.3a5,5,0,0,1-4,1.7c-2.7,0-4.8-1.4-4.8-5.5,0-3.5,1.8-5.4,4.5-5.4,2.9,0,4.5,2.1,4.5,5.2v.9H169Zm4.8-1.5a4.2,4.2,0,0,0-.3-1.4,2.23,2.23,0,0,0-2.1-1.3,2.13,2.13,0,0,0-2.1,1.3,3.19,3.19,0,0,0-.3,1.4Z"/><path class="s" d="M183.8,461v-1.1a3.15,3.15,0,0,1-2.8,1.3,4.06,4.06,0,0,1-2.6-.9c-1-1.1-1.2-2.8-1.2-4.5s.2-3.4,1.2-4.5a3.57,3.57,0,0,1,2.6-.9,3.33,3.33,0,0,1,2.8,1.2v-5.4h2.1v14.9h-2.1Zm-2.2-8.9c-2,0-2.2,1.6-2.2,3.5s.3,3.5,2.2,3.5,2.2-1.6,2.2-3.5S183.5,452.1,181.6,452.1Z"/><path class="s" d="M202,459.1a5.08,5.08,0,0,1-4.2,1.9h-5.2V446.1h5.2A4.84,4.84,0,0,1,202,448c1.1,1.4,1.1,3.2,1.1,5.6S203.1,457.7,202,459.1Zm-1.9-10a3.39,3.39,0,0,0-2.6-1h-2.7V459h2.7a3.39,3.39,0,0,0,2.6-1c.7-.8.8-2.2.8-4.4S200.8,449.9,200.1,449.1Z"/><path class="s" d="M211.6,461v-1.1a3.78,3.78,0,0,1-2.8,1.2,3.62,3.62,0,0,1-2.6-1,4,4,0,0,1-1.1-3v-6.7h2.1v6.5c0,1.7.9,2.4,2.1,2.4a2.11,2.11,0,0,0,2.2-2.4v-6.5h2.1V461Z"/><path class="s" d="M219.2,461a2.75,2.75,0,0,1-2.9-3v-6h-1.2v-1.6h1.2v-3h2.1v3h2.1V452h-2.1v5.9a1.06,1.06,0,0,0,1.2,1.2h.9v1.8h-1.3Z"/><path class="s" d="M229.9,459.6a4.23,4.23,0,0,1-3.5,1.5c-2.4,0-4.7-1.5-4.7-5.5s2.4-5.4,4.7-5.4a4.23,4.23,0,0,1,3.5,1.5l-1.5,1.4a2.6,2.6,0,0,0-2-1,2.52,2.52,0,0,0-2,.9,5.93,5.93,0,0,0,0,5.2,2.38,2.38,0,0,0,2,.9,2.33,2.33,0,0,0,2-1Z"/><path class="s" d="M237.8,461v-6.5c0-1.7-.9-2.4-2.1-2.4a2.16,2.16,0,0,0-2.2,2.4V461h-2.1V446.1h2.1v5.4a3.87,3.87,0,0,1,5.4-.2,4,4,0,0,1,1.1,3v6.8h-2.2Z"/><path class="s" d="M249.8,461l-3.3-5.7-3.2,5.7h-2.6l4.6-7.7L241,446h2.6l2.9,5.4,3-5.4h2.6l-4.3,7.3,4.6,7.7Z"/><path class="s" d="M98.2,466.1V479H95.9V466.1H91.8v-2h10.5v2Z"/><path class="s" d="M109,477.9a4.32,4.32,0,0,1-3.2,1.3,4,4,0,0,1-3.2-1.3,7.43,7.43,0,0,1,0-8.4,4.32,4.32,0,0,1,3.2-1.3,4,4,0,0,1,3.2,1.3,7.43,7.43,0,0,1,0,8.4Zm-1.6-7.1a2.11,2.11,0,0,0-1.6-.6,2.27,2.27,0,0,0-1.6.6c-.7.7-.7,1.7-.7,2.9a4.19,4.19,0,0,0,.7,2.9,2.11,2.11,0,0,0,1.6.6,2.27,2.27,0,0,0,1.6-.6c.7-.7.7-1.7.7-2.9S108.1,471.4,107.4,470.8Z"/><path class="s" d="M118.8,479l-3-4.9-1.6,1.8V479h-2.1V464.1h2.1v9.2l4.1-4.9h2.6l-3.7,4.2,4.2,6.5h-2.6Z"/><path class="s" d="M123.3,474.3c0,1.8.9,3,2.7,3a3.14,3.14,0,0,0,2.6-1.1l1.4,1.3a5,5,0,0,1-4,1.7c-2.7,0-4.8-1.4-4.8-5.5,0-3.5,1.8-5.4,4.5-5.4,2.9,0,4.5,2.1,4.5,5.2v.9h-6.9Zm4.8-1.5a4.2,4.2,0,0,0-.3-1.4,2.23,2.23,0,0,0-2.1-1.3,2.13,2.13,0,0,0-2.1,1.3,3.19,3.19,0,0,0-.3,1.4Z"/><path class="s" d="M138.5,479v-6.5c0-1.7-.9-2.4-2.1-2.4a2.16,2.16,0,0,0-2.2,2.4V479h-2.1V468.4h2.1v1.1a3.78,3.78,0,0,1,2.8-1.2,3.62,3.62,0,0,1,2.6,1,4,4,0,0,1,1.1,3v6.8h-2.2Z"/><path class="s" d="M147.1,479V464.1h2.3V477h7.2v2Z"/><path class="s" d="M165,477.9a4.32,4.32,0,0,1-3.2,1.3,4,4,0,0,1-3.2-1.3,7.43,7.43,0,0,1,0-8.4,4.32,4.32,0,0,1,3.2-1.3,4,4,0,0,1,3.2,1.3,7.43,7.43,0,0,1,0,8.4Zm-1.6-7.1a2.11,2.11,0,0,0-1.6-.6,2.27,2.27,0,0,0-1.6.6c-.7.7-.7,1.7-.7,2.9a4.19,4.19,0,0,0,.7,2.9,2.11,2.11,0,0,0,1.6.6,2.27,2.27,0,0,0,1.6-.6c.7-.7.7-1.7.7-2.9A4.19,4.19,0,0,0,163.4,470.8Z"/><path class="s" d="M175.8,477.6a4.23,4.23,0,0,1-3.5,1.5c-2.4,0-4.7-1.5-4.7-5.5s2.4-5.4,4.7-5.4a4.23,4.23,0,0,1,3.5,1.5l-1.5,1.4a2.6,2.6,0,0,0-2-1,2.52,2.52,0,0,0-2,.9,5.93,5.93,0,0,0,0,5.2,2.38,2.38,0,0,0,2,.9,2.33,2.33,0,0,0,2-1Z"/><path class="s" d="M183.9,479l-3-4.9-1.6,1.8V479h-2.1V464.1h2.1v9.2l4.1-4.9H186l-3.7,4.2,4.2,6.5h-2.6Z"/><g class="v"><path class="s" d="M21.2,605.1c-4.9,0-8.8-3.4-8.8-8.4a8,8,0,0,1,4.5-7.2,7.3,7.3,0,0,1-3.9-6.6,7.83,7.83,0,0,1,8.2-8,7.83,7.83,0,0,1,8.2,8,7.22,7.22,0,0,1-3.8,6.6c2.5,1.5,4.4,3.7,4.4,7.2A8.42,8.42,0,0,1,21.2,605.1Zm0-14.2a5.8,5.8,0,1,0,0,11.6,5.68,5.68,0,0,0,5.8-5.8A5.74,5.74,0,0,0,21.2,590.9Zm0-13.3a5.07,5.07,0,0,0-5.2,5.3,5,5,0,0,0,5.2,5.3,5,5,0,0,0,5.2-5.3A5.07,5.07,0,0,0,21.2,577.6Z"/><path class="s" d="M44,584.9a5.25,5.25,0,0,1-5.6,5.6,5.25,5.25,0,0,1-5.6-5.6v-4.4a5.25,5.25,0,0,1,5.6-5.6,5.25,5.25,0,0,1,5.6,5.6Zm-2.5-4.3c0-2.3-.9-3.6-3.2-3.6s-3.3,1.3-3.3,3.6v4.2c0,2.3.9,3.6,3.3,3.6s3.2-1.3,3.2-3.6Zm.2,24.3H39.2l13.9-29.7h2.5Zm20.4-5.3a5.25,5.25,0,0,1-5.6,5.6,5.25,5.25,0,0,1-5.6-5.6v-4.4a5.25,5.25,0,0,1,5.6-5.6,5.25,5.25,0,0,1,5.6,5.6Zm-2.4-4.3c0-2.3-.9-3.6-3.2-3.6s-3.3,1.3-3.3,3.6v4.2c0,2.3.9,3.6,3.3,3.6s3.2-1.3,3.2-3.6Z"/></g><path class="s" d="M72.4,588.3V573.4H82v2H74.7v4.4h6.2v2H74.7v4.5H82v2Z"/><path class="s" d="M89.1,575.3v12.9H86.8V575.3H82.7v-2H93.2v2Z"/><path class="s" d="M103.1,588.3v-6.5H97v6.5H94.7V573.4H97v6.4h6.1v-6.4h2.3v14.9Z"/><path class="s" d="M72.4,606.3V591.4h2.3v12.9h7.2v2Z"/><path class="s" d="M90.3,605.1a4.32,4.32,0,0,1-3.2,1.3,4,4,0,0,1-3.2-1.3,7.43,7.43,0,0,1,0-8.4,4.32,4.32,0,0,1,3.2-1.3,4,4,0,0,1,3.2,1.3,5.74,5.74,0,0,1,1.3,4.2C91.5,602.7,91.3,604,90.3,605.1ZM88.6,598a2.11,2.11,0,0,0-1.6-.6,2.27,2.27,0,0,0-1.6.6c-.7.7-.7,1.7-.7,2.9a4.19,4.19,0,0,0,.7,2.9,2.11,2.11,0,0,0,1.6.6,2.27,2.27,0,0,0,1.6-.6c.7-.7.7-1.7.7-2.9S89.3,598.7,88.6,598Z"/><path class="s" d="M101.1,604.9a4.23,4.23,0,0,1-3.5,1.5c-2.4,0-4.7-1.5-4.7-5.5s2.4-5.4,4.7-5.4a4.23,4.23,0,0,1,3.5,1.5l-1.5,1.4a2.6,2.6,0,0,0-2-1,2.52,2.52,0,0,0-2,.9,5.93,5.93,0,0,0,0,5.2,2.38,2.38,0,0,0,2,.9,2.33,2.33,0,0,0,2-1Z"/><path class="s" d="M109.2,606.3l-3-4.9-1.6,1.8v3.1h-2.1V591.4h2.1v9.2l4.1-4.9h2.6l-3.7,4.2,4.2,6.5h-2.6Z"/><path class="s" d="M382.3,614H12.1a.79.79,0,0,1-.8-.8.74.74,0,0,1,.8-.8H382.3a.8.8,0,1,1,0,1.6Z"/><path class="s" d="M19.1,58.3H15.3v5.9H13.8V50h5.3a4,4,0,0,1,4.4,4.2C23.6,56.7,21.7,58.3,19.1,58.3Zm-.1-7H15.3V57H19c1.8,0,3-.9,3-2.8A2.71,2.71,0,0,0,19,51.3Z"/><path class="s" d="M31.7,56.2a2.06,2.06,0,0,0-1.7-.7,2.42,2.42,0,0,0-2.4,2.6v6H26.2V54.4h1.4v1.2a3.29,3.29,0,0,1,2.8-1.3,3.15,3.15,0,0,1,2.4.9Z"/><path class="s" d="M34.9,59.7c0,2.2,1,3.4,2.9,3.4A3.27,3.27,0,0,0,40.4,62l1,.9a4.47,4.47,0,0,1-3.6,1.5c-2.6,0-4.3-1.6-4.3-5,0-3.2,1.5-5,4-5s4,1.8,4,4.8v.6H34.9Zm5.2-1.1a5.69,5.69,0,0,0-.3-1.6,2.51,2.51,0,0,0-4.6,0c-.3.5-.2.8-.3,1.6Z"/><path class="s" d="M44.3,59.5V58.2h5.5v1.3Z"/><path class="s" d="M55.6,64.2a2.34,2.34,0,0,1-2.5-2.6V50h1.4V61.6c0,1,.3,1.4,1.3,1.4h.8v1.2Z"/><path class="s" d="M65.3,63.2a4.11,4.11,0,0,1-5.6,0,5.23,5.23,0,0,1-1.2-3.9,5.23,5.23,0,0,1,1.2-3.9,4.11,4.11,0,0,1,5.6,0,5.23,5.23,0,0,1,1.2,3.9A5.23,5.23,0,0,1,65.3,63.2Zm-1-7a2.66,2.66,0,0,0-3.6,0,4.26,4.26,0,0,0-.8,3,4.26,4.26,0,0,0,.8,3,2.66,2.66,0,0,0,3.6,0,4.26,4.26,0,0,0,.8-3A4.4,4.4,0,0,0,64.3,56.2Z"/><path class="s" d="M75.2,64.2v-.9a3.42,3.42,0,0,1-2.8,1.1,3.4,3.4,0,0,1-2.8-.9,2.72,2.72,0,0,1-.7-2c0-1.8,1.2-2.8,3.4-2.8h2.9v-.9c0-1.4-.7-2.2-2.5-2.2a2.63,2.63,0,0,0-2.5,1.1l-1-.9a4,4,0,0,1,3.5-1.5c2.7,0,3.9,1.1,3.9,3.3v6.7H75.2Zm0-4.5H72.5c-1.5,0-2.2.6-2.2,1.7s.7,1.7,2.3,1.7a3.06,3.06,0,0,0,2.2-.7,2.46,2.46,0,0,0,.5-1.7v-1Z"/><path class="s" d="M86,64.2V63a3.26,3.26,0,0,1-2.8,1.3,3.09,3.09,0,0,1-2.4-.9c-1-1-1.2-2.6-1.2-4.2s.2-3.2,1.2-4.2a3.5,3.5,0,0,1,2.4-.9A3,3,0,0,1,86,55.4V49.9h1.4V64.1H86Zm-2.5-8.7c-2.2,0-2.5,1.8-2.5,3.8s.3,3.8,2.5,3.8S86,61.3,86,59.3,85.7,55.5,83.5,55.5Z"/><path class="s" d="M91.9,59.7c0,2.2,1,3.4,2.9,3.4A3.27,3.27,0,0,0,97.4,62l1,.9a4.47,4.47,0,0,1-3.6,1.5c-2.6,0-4.3-1.6-4.3-5,0-3.2,1.5-5,4-5s4,1.8,4,4.8v.6H91.9Zm5.2-1.1a5.69,5.69,0,0,0-.3-1.6,2.51,2.51,0,0,0-4.6,0c-.3.5-.2.8-.3,1.6Z"/><path class="s" d="M107.5,64.2V63a3.26,3.26,0,0,1-2.8,1.3,3.09,3.09,0,0,1-2.4-.9c-1-1-1.2-2.6-1.2-4.2s.2-3.2,1.2-4.2a3.5,3.5,0,0,1,2.4-.9,3,3,0,0,1,2.8,1.3V49.9h1.4V64.1h-1.4ZM105,55.5c-2.2,0-2.5,1.8-2.5,3.8s.3,3.8,2.5,3.8,2.5-1.8,2.5-3.8S107.2,55.5,105,55.5Z"/><path class="s" d="M125.9,64.2l-3.2-6.3h-3.4v6.3h-1.5V50h5.5c2.5,0,4.2,1.5,4.2,4a3.71,3.71,0,0,1-3.1,3.8l3.4,6.5h-1.9Zm-2.8-12.9h-3.8v5.2h3.8c1.7,0,2.8-.8,2.8-2.6A2.48,2.48,0,0,0,123.1,51.3Z"/><path class="s" d="M130.9,59.7c0,2.2,1,3.4,2.9,3.4a3.27,3.27,0,0,0,2.6-1.1l1,.9a4.47,4.47,0,0,1-3.6,1.5c-2.6,0-4.3-1.6-4.3-5,0-3.2,1.5-5,4-5s4,1.8,4,4.8v.6h-6.6Zm5.2-1.1a5.69,5.69,0,0,0-.3-1.6,2.51,2.51,0,0,0-4.6,0c-.3.5-.2.8-.3,1.6Z"/><path class="s" d="M147.2,63.5a3.5,3.5,0,0,1-2.4.9,3.26,3.26,0,0,1-2.8-1.3v5.6h-1.4V54.4H142v1.2a3.26,3.26,0,0,1,2.8-1.3,3.09,3.09,0,0,1,2.4.9c1,1,1.2,2.6,1.2,4.2A5.73,5.73,0,0,1,147.2,63.5Zm-2.7-8c-2.2,0-2.5,1.8-2.5,3.8s.3,3.8,2.5,3.8,2.5-1.8,2.5-3.8S146.7,55.5,144.5,55.5Z"/><path class="s" d="M157.7,64.2V63.1a3.63,3.63,0,0,1-2.8,1.2,3.33,3.33,0,0,1-2.5-.9,3.71,3.71,0,0,1-1-2.8V54.4h1.4v6c0,1.8.9,2.6,2.4,2.6a2.34,2.34,0,0,0,2.5-2.6v-6h1.4v9.8Z"/><path class="s" d="M165.5,64.2a2.39,2.39,0,0,1-2.5-2.6V55.5h-1.2V54.4H163v-3h1.4v3h2.1v1.1h-2.1v6.1c0,.9.4,1.4,1.3,1.4h.8v1.2Z"/><path class="s" d="M175,64.2v-.9a4.43,4.43,0,0,1-5.6.2,2.72,2.72,0,0,1-.7-2c0-1.8,1.2-2.8,3.4-2.8H175v-.9c0-1.4-.7-2.2-2.5-2.2a2.63,2.63,0,0,0-2.5,1.1l-1-.9a4,4,0,0,1,3.5-1.5c2.7,0,3.9,1.1,3.9,3.3v6.7H175Zm0-4.5h-2.7c-1.5,0-2.2.6-2.2,1.7s.7,1.7,2.3,1.7a3.06,3.06,0,0,0,2.2-.7,2.46,2.46,0,0,0,.5-1.7v-1Z"/><path class="s" d="M182.7,64.2a2.39,2.39,0,0,1-2.5-2.6V55.5H179V54.4h1.2v-3h1.4v3h2.1v1.1h-2.1v6.1c0,.9.4,1.4,1.3,1.4h.8v1.2Z"/><path class="s" d="M186.5,51.6V50h1.6v1.6Zm.1,12.6V54.4H188v9.8Z"/><path class="s" d="M197.9,63.2a4.11,4.11,0,0,1-5.6,0,5.23,5.23,0,0,1-1.2-3.9,5.23,5.23,0,0,1,1.2-3.9,4.11,4.11,0,0,1,5.6,0,5.23,5.23,0,0,1,1.2,3.9A5.23,5.23,0,0,1,197.9,63.2Zm-1-7a2.66,2.66,0,0,0-3.6,0,4.26,4.26,0,0,0-.8,3,4.26,4.26,0,0,0,.8,3,2.66,2.66,0,0,0,3.6,0,4.26,4.26,0,0,0,.8-3A4.4,4.4,0,0,0,196.9,56.2Z"/><path class="s" d="M208.5,64.2V58.1c0-1.8-.9-2.6-2.4-2.6a2.34,2.34,0,0,0-2.5,2.6v6.1h-1.4V54.4h1.4v1a3.49,3.49,0,0,1,2.8-1.2,3.33,3.33,0,0,1,2.5.9,3.62,3.62,0,0,1,1,2.7v6.3h-1.4Z"/><path class="s" d="M225.7,64.5a3.91,3.91,0,0,1-4.1,4.2,4.3,4.3,0,0,1-3.3-1.3l.9-.9a3.31,3.31,0,0,0,2.4,1c1.9,0,2.7-1.3,2.7-3V63a3.66,3.66,0,0,1-5.2.4c-1-1-1.2-2.5-1.2-4.1s.2-3.1,1.2-4.1a3.5,3.5,0,0,1,2.4-.9,3,3,0,0,1,2.8,1.3V54.4h1.4V64.5Zm-3.9-9c-2.2,0-2.5,1.8-2.5,3.7s.3,3.7,2.5,3.7,2.4-1.8,2.4-3.7S223.9,55.5,221.8,55.5Z"/><path class="s" d="M229.2,51.6V50h1.6v1.6Zm.1,12.6V54.4h1.4v9.8Z"/><path class="s" d="M236.1,55.5v8.7h-1.5V55.5h-1.3V54.4h1.3V52.6a2.39,2.39,0,0,1,2.5-2.6h1v1.2h-.8c-.9,0-1.3.5-1.3,1.4v1.8h2.1v1.1Z"/><path class="s" d="M243.4,64.2a2.39,2.39,0,0,1-2.5-2.6V55.5h-1.3V54.4h1.2v-3h1.4v3h2.1v1.1h-2.1v6.1c0,.9.4,1.4,1.3,1.4h.8v1.2Z"/><path class="s" d="M259.3,62.9a3.91,3.91,0,0,1-3.2,1.5c-2.5,0-4.4-1.7-4.4-5s1.9-5,4.4-5a3.79,3.79,0,0,1,3.2,1.5l-1,.9a2.7,2.7,0,0,0-2.3-1.1,2.84,2.84,0,0,0-2.3,1.1,3.87,3.87,0,0,0-.6,2.6,4.33,4.33,0,0,0,.6,2.6,2.71,2.71,0,0,0,2.3,1.1,3,3,0,0,0,2.3-1.1Z"/><path class="s" d="M267.6,64.2v-.9a4.43,4.43,0,0,1-5.6.2,2.72,2.72,0,0,1-.7-2c0-1.8,1.2-2.8,3.4-2.8h2.9v-.9c0-1.4-.7-2.2-2.5-2.2a2.63,2.63,0,0,0-2.5,1.1l-1-.9a4,4,0,0,1,3.5-1.5c2.7,0,3.9,1.1,3.9,3.3v6.7h-1.4Zm0-4.5h-2.7c-1.5,0-2.2.6-2.2,1.7s.7,1.7,2.3,1.7a3.06,3.06,0,0,0,2.2-.7,2.46,2.46,0,0,0,.5-1.7v-1Z"/><path class="s" d="M278,56.2a2.06,2.06,0,0,0-1.7-.7,2.42,2.42,0,0,0-2.4,2.6v6h-1.4V54.4h1.4v1.2a3.29,3.29,0,0,1,2.8-1.3,3.15,3.15,0,0,1,2.4.9Z"/><path class="s" d="M286.2,64.2V63a3.26,3.26,0,0,1-2.8,1.3,3.09,3.09,0,0,1-2.4-.9c-1-1-1.2-2.6-1.2-4.2S280,56,281,55a3.5,3.5,0,0,1,2.4-.9,3,3,0,0,1,2.8,1.3V49.9h1.4V64.1h-1.4Zm-2.4-8.7c-2.2,0-2.5,1.8-2.5,3.8s.3,3.8,2.5,3.8,2.5-1.8,2.5-3.8S285.9,55.5,283.8,55.5Z"/><path class="s" d="M294.4,64.3a5.3,5.3,0,0,1-4-1.4l1-1a4.08,4.08,0,0,0,3.1,1.1c1.7,0,2.6-.6,2.6-1.7,0-.9-.5-1.3-1.6-1.4l-1.6-.1c-1.9-.2-2.9-1-2.9-2.6,0-1.8,1.5-2.9,3.6-2.9a5.07,5.07,0,0,1,3.5,1.1l-.9.9a4.46,4.46,0,0,0-2.6-.8c-1.4,0-2.2.6-2.2,1.6s.5,1.3,1.8,1.4l1.5.1c1.7.2,2.9.8,2.9,2.7C298.4,63.2,296.8,64.3,294.4,64.3Z"/><path class="s" d="M15.5,86.1a6.56,6.56,0,0,1-1.4-1.7,3.78,3.78,0,0,1-.4-2.1V71.9a4,4,0,0,1,.4-2.1,6.56,6.56,0,0,1,1.4-1.7l1,1a4.23,4.23,0,0,0-1.1,1.3,3.51,3.51,0,0,0-.3,1.6V82.2a2.71,2.71,0,0,0,.3,1.6,4.23,4.23,0,0,0,1.1,1.3Z"/><path class="s" d="M19.8,84.2V70h8.8v1.4H21.3v5h6.3v1.4H21.4v5.1h7.3v1.4H19.8Z"/><path class="s" d="M34.3,84.2a2.39,2.39,0,0,1-2.5-2.6V75.5H30.6V74.4h1.2v-3h1.4v3h2.1v1.1H33.2v6.1c0,.9.4,1.4,1.3,1.4h.8v1.2Z"/><path class="s" d="M44.5,84.2V78.1c0-1.8-.9-2.6-2.4-2.6a2.37,2.37,0,0,0-2.5,2.7v6.1H38.2V70h1.4v5.5a3.49,3.49,0,0,1,2.8-1.2c2.3,0,3.5,1.4,3.5,3.6v6.3Z"/><path class="s" d="M50.3,79.7c0,2.2,1,3.4,2.9,3.4A3.27,3.27,0,0,0,55.8,82l1,.9a4.47,4.47,0,0,1-3.6,1.5c-2.6,0-4.3-1.6-4.3-5,0-3.2,1.5-5,4-5s4,1.8,4,4.8v.6H50.3Zm5.2-1.1a5.69,5.69,0,0,0-.3-1.6,2.51,2.51,0,0,0-4.6,0c-.3.5-.2.8-.3,1.6Z"/><path class="s" d="M65.5,76.3a2.06,2.06,0,0,0-1.7-.7,2.42,2.42,0,0,0-2.4,2.6v6H60V74.4h1.4v1.2a3.29,3.29,0,0,1,2.8-1.3,3.15,3.15,0,0,1,2.4.9Z"/><path class="s" d="M74.9,82.9a3.91,3.91,0,0,1-3.2,1.5c-2.5,0-4.4-1.7-4.4-5s1.9-5,4.4-5a3.79,3.79,0,0,1,3.2,1.5l-1,.9a2.7,2.7,0,0,0-2.3-1.1,2.84,2.84,0,0,0-2.3,1.1,3.87,3.87,0,0,0-.6,2.6,4.33,4.33,0,0,0,.6,2.6,2.71,2.71,0,0,0,2.3,1.1A3,3,0,0,0,73.9,82Z"/><path class="s" d="M83.2,84.2v-.9a4.43,4.43,0,0,1-5.6.2,2.72,2.72,0,0,1-.7-2c0-1.8,1.2-2.8,3.4-2.8h2.9v-.9c0-1.4-.7-2.2-2.5-2.2a2.63,2.63,0,0,0-2.5,1.1l-1-.9a4,4,0,0,1,3.5-1.5c2.7,0,3.9,1.1,3.9,3.3v6.7H83.2Zm0-4.5H80.5c-1.5,0-2.2.6-2.2,1.7s.7,1.7,2.3,1.7a3.06,3.06,0,0,0,2.2-.7,2.46,2.46,0,0,0,.5-1.7v-1Z"/><path class="s" d="M93.7,76.3a2.06,2.06,0,0,0-1.7-.7,2.42,2.42,0,0,0-2.4,2.6v6H88.2V74.4h1.4v1.2a3.29,3.29,0,0,1,2.8-1.3,3.15,3.15,0,0,1,2.4.9Z"/><path class="s" d="M101.9,84.2V83a3.26,3.26,0,0,1-2.8,1.3,3.09,3.09,0,0,1-2.4-.9c-1-1-1.2-2.6-1.2-4.2s.2-3.2,1.2-4.2a3.5,3.5,0,0,1,2.4-.9,3,3,0,0,1,2.8,1.3V69.9h1.4V84.1h-1.4Zm-2.5-8.6c-2.2,0-2.5,1.8-2.5,3.8s.3,3.8,2.5,3.8,2.5-1.8,2.5-3.8S101.5,75.6,99.4,75.6Z"/><path class="s" d="M110,84.4a5.3,5.3,0,0,1-4-1.4l1-1a4.08,4.08,0,0,0,3.1,1.1c1.7,0,2.6-.6,2.6-1.7,0-.9-.5-1.3-1.6-1.4l-1.6-.1c-1.9-.2-2.9-1-2.9-2.6,0-1.8,1.5-2.9,3.6-2.9a5.07,5.07,0,0,1,3.5,1.1l-.9.9a4.46,4.46,0,0,0-2.6-.8c-1.4,0-2.2.6-2.2,1.6s.5,1.3,1.8,1.4l1.5.1c1.7.2,2.9.8,2.9,2.7C114,83.3,112.4,84.4,110,84.4Z"/><path class="s" d="M116.2,85.1a4.23,4.23,0,0,0,1.1-1.3,3.81,3.81,0,0,0,.3-1.6V72a3.51,3.51,0,0,0-.3-1.6,4.23,4.23,0,0,0-1.1-1.3l1-1a6.56,6.56,0,0,1,1.4,1.7,3.78,3.78,0,0,1,.4,2.1V82.3a4,4,0,0,1-.4,2.1,6.56,6.56,0,0,1-1.4,1.7Z"/><path class="s" d="M137.1,84.2h-1.3l-2.6-7.6-2.6,7.6h-1.3l-3.1-9.8h1.6l2.3,7.9,2.5-7.9h1.2l2.6,7.9,2.2-7.9h1.6Z"/><path class="s" d="M143.1,79.7c0,2.2,1,3.4,2.9,3.4a3.27,3.27,0,0,0,2.6-1.1l1,.9a4.47,4.47,0,0,1-3.6,1.5c-2.6,0-4.3-1.6-4.3-5,0-3.2,1.5-5,4-5s4,1.8,4,4.8v.6h-6.6Zm5.2-1.1A5.69,5.69,0,0,0,148,77a2.51,2.51,0,0,0-4.6,0c-.3.5-.2.8-.3,1.6Z"/><path class="s" d="M158.3,76.3a2.06,2.06,0,0,0-1.7-.7,2.42,2.42,0,0,0-2.4,2.6v6h-1.4V74.4h1.4v1.2a3.29,3.29,0,0,1,2.8-1.3,3.15,3.15,0,0,1,2.4.9Z"/><path class="s" d="M161.5,79.7c0,2.2,1,3.4,2.9,3.4A3.27,3.27,0,0,0,167,82l1,.9a4.47,4.47,0,0,1-3.6,1.5c-2.6,0-4.3-1.6-4.3-5,0-3.2,1.5-5,4-5s4,1.8,4,4.8v.6h-6.6Zm5.3-1.1a5.69,5.69,0,0,0-.3-1.6,2.51,2.51,0,0,0-4.6,0c-.3.5-.2.8-.3,1.6Z"/><path class="s" d="M183.5,84.5a3.91,3.91,0,0,1-4.1,4.2,4.3,4.3,0,0,1-3.3-1.3l.9-.9a3.31,3.31,0,0,0,2.4,1c1.9,0,2.7-1.3,2.7-3V83a3.66,3.66,0,0,1-5.2.4c-1-1-1.2-2.5-1.2-4.1s.2-3.1,1.2-4.1a3.5,3.5,0,0,1,2.4-.9,3,3,0,0,1,2.8,1.3V74.4h1.4V84.5Zm-3.9-8.9c-2.2,0-2.5,1.8-2.5,3.7s.3,3.7,2.5,3.7,2.4-1.8,2.4-3.7S181.7,75.6,179.6,75.6Z"/><path class="s" d="M187,71.6V70h1.6v1.6Zm.1,12.6V74.4h1.4v9.8Z"/><path class="s" d="M195.4,84.2h-1.3l-3.6-9.8h1.6l2.7,7.9,2.7-7.9h1.6Z"/><path class="s" d="M202,79.7c0,2.2,1,3.4,2.9,3.4a3.27,3.27,0,0,0,2.6-1.1l1,.9a4.47,4.47,0,0,1-3.6,1.5c-2.6,0-4.3-1.6-4.3-5,0-3.2,1.5-5,4-5s4,1.8,4,4.8v.6H202Zm5.2-1.1a5.69,5.69,0,0,0-.3-1.6,2.51,2.51,0,0,0-4.6,0c-.3.5-.2.8-.3,1.6Z"/><path class="s" d="M218,84.2V78.1c0-1.8-.9-2.6-2.4-2.6s-2.4.9-2.4,2.6v6.1h-1.4V74.4h1.4v1.1a3.49,3.49,0,0,1,2.8-1.2,3.33,3.33,0,0,1,2.5.9,3.62,3.62,0,0,1,1,2.7v6.3Z"/><path class="s" d="M234.2,83.2a4.11,4.11,0,0,1-5.6,0,5.23,5.23,0,0,1-1.2-3.9,5.23,5.23,0,0,1,1.2-3.9,4.11,4.11,0,0,1,5.6,0,5.23,5.23,0,0,1,1.2,3.9A5.23,5.23,0,0,1,234.2,83.2Zm-1-6.9a2.66,2.66,0,0,0-3.6,0,4.26,4.26,0,0,0-.8,3,4.26,4.26,0,0,0,.8,3,2.66,2.66,0,0,0,3.6,0,4.26,4.26,0,0,0,.8-3A4.26,4.26,0,0,0,233.2,76.3Z"/><path class="s" d="M244.7,84.2V83.1a3.63,3.63,0,0,1-2.8,1.2,3.33,3.33,0,0,1-2.5-.9,3.71,3.71,0,0,1-1-2.8V74.4h1.4v6.1c0,1.8.9,2.6,2.4,2.6a2.34,2.34,0,0,0,2.5-2.6V74.4h1.4v9.8Z"/><path class="s" d="M252.5,84.2a2.39,2.39,0,0,1-2.5-2.6V75.5h-1.2V74.4H250v-3h1.4v3h2.1v1.1h-2.1v6.1c0,.9.4,1.4,1.3,1.4h.8v1.2Z"/><path class="s" d="M266.9,84.2v-.9a4.43,4.43,0,0,1-5.6.2,2.72,2.72,0,0,1-.7-2c0-1.8,1.2-2.8,3.4-2.8h2.9v-.9c0-1.4-.7-2.2-2.5-2.2a2.63,2.63,0,0,0-2.5,1.1l-1-.9a4,4,0,0,1,3.5-1.5c2.7,0,3.9,1.1,3.9,3.3v6.7h-1.4Zm0-4.5h-2.7c-1.5,0-2.2.6-2.2,1.7s.7,1.7,2.3,1.7a3.06,3.06,0,0,0,2.2-.7,2.46,2.46,0,0,0,.5-1.7v-1Z"/><path class="s" d="M274.6,84.2a2.39,2.39,0,0,1-2.5-2.6V75.5h-1.2V74.4h1.2v-3h1.4v3h2.1v1.1h-2.1v6.1c0,.9.4,1.4,1.3,1.4h.8v1.2Z"/><path class="s" d="M292.4,82.7a4.82,4.82,0,0,1-3.7,1.5h-4.9V70h4.9a4.68,4.68,0,0,1,3.7,1.5c1.3,1.4,1.3,3.4,1.3,5.6S293.6,81.4,292.4,82.7Zm-1.2-10.3a3.48,3.48,0,0,0-2.8-1h-3.1V82.9h3.1a3.48,3.48,0,0,0,2.8-1c.9-1,.9-2.8.9-4.7S292.1,73.4,291.2,72.4Z"/><path class="s" d="M302.5,84.2v-.9a4.43,4.43,0,0,1-5.6.2,2.72,2.72,0,0,1-.7-2c0-1.8,1.2-2.8,3.4-2.8h2.9v-.9c0-1.4-.7-2.2-2.5-2.2a2.63,2.63,0,0,0-2.5,1.1l-1-.9a4,4,0,0,1,3.5-1.5c2.7,0,3.9,1.1,3.9,3.3v6.7h-1.4Zm0-4.5h-2.7c-1.5,0-2.2.6-2.2,1.7s.7,1.7,2.3,1.7a3.06,3.06,0,0,0,2.2-.7,2.46,2.46,0,0,0,.5-1.7v-1Z"/><path class="s" d="M314.1,83.5a3.5,3.5,0,0,1-2.4.9,3.26,3.26,0,0,1-2.8-1.3v5.6h-1.4V74.4h1.4v1.2a3.26,3.26,0,0,1,2.8-1.3,3.09,3.09,0,0,1,2.4.9c1,1,1.2,2.6,1.2,4.2S315.1,82.5,314.1,83.5Zm-2.7-7.9c-2.2,0-2.5,1.8-2.5,3.8s.3,3.8,2.5,3.8,2.5-1.8,2.5-3.8S313.5,75.6,311.4,75.6Z"/><path class="s" d="M325,83.5a3.5,3.5,0,0,1-2.4.9,3.26,3.26,0,0,1-2.8-1.3v5.6h-1.4V74.4h1.4v1.2a3.26,3.26,0,0,1,2.8-1.3,3.09,3.09,0,0,1,2.4.9c1,1,1.2,2.6,1.2,4.2S326,82.5,325,83.5Zm-2.7-7.9c-2.2,0-2.5,1.8-2.5,3.8s.3,3.8,2.5,3.8,2.5-1.8,2.5-3.8S324.4,75.6,322.3,75.6Z"/><path class="s" d="M338.9,80.1a4.77,4.77,0,0,1-4.9,4.2,4.9,4.9,0,0,1-3.6-1.4c-1.4-1.4-1.4-2.6-1.4-5.8s.1-4.5,1.4-5.8a4.9,4.9,0,0,1,3.6-1.4,4.78,4.78,0,0,1,4.9,4.2h-1.6a3.5,3.5,0,0,0-5.9-1.9c-.9.9-1,2-1,4.9s.1,4,1,4.9a3.5,3.5,0,0,0,5.9-1.9Z"/><path class="s" d="M348.3,83.2a4.11,4.11,0,0,1-5.6,0,5.23,5.23,0,0,1-1.2-3.9,5.23,5.23,0,0,1,1.2-3.9,4.11,4.11,0,0,1,5.6,0,5.23,5.23,0,0,1,1.2,3.9A5.23,5.23,0,0,1,348.3,83.2Zm-1-6.9a2.66,2.66,0,0,0-3.6,0,4.26,4.26,0,0,0-.8,3,4.26,4.26,0,0,0,.8,3,2.66,2.66,0,0,0,3.6,0,4.26,4.26,0,0,0,.8-3A4.26,4.26,0,0,0,347.3,76.3Z"/><path class="s" d="M358.9,84.2V78.1c0-1.8-.9-2.6-2.4-2.6s-2.4.9-2.4,2.6v6.1h-1.5V74.4H354v1.1a3.49,3.49,0,0,1,2.8-1.2,3.33,3.33,0,0,1,2.5.9,3.62,3.62,0,0,1,1,2.7v6.3Z"/><path class="s" d="M19.2,104.3v-.9a3.42,3.42,0,0,1-2.8,1.1,3.4,3.4,0,0,1-2.8-.9,2.72,2.72,0,0,1-.7-2c0-1.8,1.2-2.8,3.4-2.8h2.9v-.9c0-1.4-.7-2.2-2.5-2.2a2.63,2.63,0,0,0-2.5,1.1l-1-.9a4,4,0,0,1,3.5-1.5c2.7,0,3.9,1.1,3.9,3.3v6.7H19.2Zm0-4.6H16.5c-1.5,0-2.2.6-2.2,1.7s.7,1.7,2.3,1.7a3.06,3.06,0,0,0,2.2-.7,2.46,2.46,0,0,0,.5-1.7v-1Z"/><path class="s" d="M27.2,104.4a5.3,5.3,0,0,1-4-1.4l1-1a4.08,4.08,0,0,0,3.1,1.1c1.7,0,2.6-.6,2.6-1.7,0-.9-.5-1.3-1.6-1.4l-1.6-.1c-1.9-.2-2.9-1-2.9-2.6,0-1.8,1.5-2.9,3.6-2.9a5.07,5.07,0,0,1,3.5,1.1l-.9.9a4.46,4.46,0,0,0-2.6-.8c-1.4,0-2.2.6-2.2,1.6s.5,1.3,1.8,1.4l1.5.1c1.7.2,2.9.8,2.9,2.7C31.2,103.3,29.6,104.4,27.2,104.4Z"/><path class="s" d="M44.6,104.3v-.9a3.42,3.42,0,0,1-2.8,1.1,3.4,3.4,0,0,1-2.8-.9,2.72,2.72,0,0,1-.7-2c0-1.8,1.2-2.8,3.4-2.8h2.9v-.9c0-1.4-.7-2.2-2.5-2.2a2.63,2.63,0,0,0-2.5,1.1l-1-.9a4,4,0,0,1,3.5-1.5c2.7,0,3.9,1.1,3.9,3.3v6.7H44.6Zm0-4.6H41.9c-1.5,0-2.2.6-2.2,1.7s.7,1.7,2.3,1.7a3.06,3.06,0,0,0,2.2-.7,2.46,2.46,0,0,0,.5-1.7v-1Z"/><path class="s" d="M57.6,104.4a5.3,5.3,0,0,1-4-1.4l1-1a4.08,4.08,0,0,0,3.1,1.1c1.7,0,2.6-.6,2.6-1.7,0-.9-.5-1.3-1.6-1.4l-1.6-.1c-1.9-.2-2.9-1-2.9-2.6,0-1.8,1.5-2.9,3.6-2.9a5.07,5.07,0,0,1,3.5,1.1l-.9.9a4.46,4.46,0,0,0-2.6-.8c-1.4,0-2.2.6-2.2,1.6s.5,1.3,1.8,1.4l1.5.1c1.7.2,2.9.8,2.9,2.7C61.6,103.3,60,104.4,57.6,104.4Z"/><path class="s" d="M71,103.5a3.5,3.5,0,0,1-2.4.9,3.26,3.26,0,0,1-2.8-1.3v5.6H64.4V94.4h1.4v1.2a3.26,3.26,0,0,1,2.8-1.3,3.09,3.09,0,0,1,2.4.9c1,1,1.2,2.6,1.2,4.2S72,102.5,71,103.5Zm-2.7-7.9c-2.2,0-2.5,1.8-2.5,3.8s.3,3.8,2.5,3.8,2.5-1.8,2.5-3.8S70.5,95.6,68.3,95.6Z"/><path class="s" d="M76.2,99.7c0,2.2,1,3.4,2.9,3.4a3.27,3.27,0,0,0,2.6-1.1l1,.9a4.47,4.47,0,0,1-3.6,1.5c-2.6,0-4.3-1.6-4.3-5,0-3.2,1.5-5,4-5s4,1.8,4,4.8v.6H76.2Zm5.2-1.1a5.69,5.69,0,0,0-.3-1.6,2.51,2.51,0,0,0-4.6,0c-.3.5-.2.8-.3,1.6Z"/><path class="s" d="M93,102.9a3.91,3.91,0,0,1-3.2,1.5c-2.5,0-4.4-1.7-4.4-5s1.9-5,4.4-5A3.79,3.79,0,0,1,93,95.9l-1,.9a2.7,2.7,0,0,0-2.3-1.1,2.84,2.84,0,0,0-2.3,1.1,3.87,3.87,0,0,0-.6,2.6,4.33,4.33,0,0,0,.6,2.6,2.71,2.71,0,0,0,2.3,1.1A3,3,0,0,0,92,102Z"/><path class="s" d="M95.6,91.6V90h1.6v1.6Zm.1,12.7V94.4h1.4v9.8H95.7Z"/><path class="s" d="M106.3,104.3v-.9a4.43,4.43,0,0,1-5.6.2,2.72,2.72,0,0,1-.7-2c0-1.8,1.2-2.8,3.4-2.8h2.9v-.9c0-1.4-.7-2.2-2.5-2.2a2.63,2.63,0,0,0-2.5,1.1l-1-.9a4,4,0,0,1,3.5-1.5c2.7,0,3.9,1.1,3.9,3.3v6.7h-1.4Zm0-4.6h-2.7c-1.5,0-2.2.6-2.2,1.7s.7,1.7,2.3,1.7a3.06,3.06,0,0,0,2.2-.7,2.46,2.46,0,0,0,.5-1.7v-1Z"/><path class="s" d="M113.7,104.3a2.34,2.34,0,0,1-2.5-2.6V90.1h1.4v11.6c0,1,.3,1.4,1.3,1.4h.8v1.2Z"/><path class="s" d="M128.8,103.5a3.5,3.5,0,0,1-2.4.9,3.26,3.26,0,0,1-2.8-1.3v5.6h-1.4V94.4h1.4v1.2a3.26,3.26,0,0,1,2.8-1.3,3.09,3.09,0,0,1,2.4.9c1,1,1.2,2.6,1.2,4.2A6.07,6.07,0,0,1,128.8,103.5Zm-2.7-7.9c-2.2,0-2.5,1.8-2.5,3.8s.3,3.8,2.5,3.8,2.5-1.8,2.5-3.8S128.2,95.6,126.1,95.6Z"/><path class="s" d="M138.5,96.3a2.06,2.06,0,0,0-1.7-.7,2.42,2.42,0,0,0-2.4,2.6v6H133V94.4h1.4v1.2a3.29,3.29,0,0,1,2.8-1.3,3.15,3.15,0,0,1,2.4.9Z"/><path class="s" d="M147.2,103.3a4.11,4.11,0,0,1-5.6,0,5.23,5.23,0,0,1-1.2-3.9,5.23,5.23,0,0,1,1.2-3.9,4.11,4.11,0,0,1,5.6,0,5.23,5.23,0,0,1,1.2,3.9A5.37,5.37,0,0,1,147.2,103.3Zm-1-7a2.66,2.66,0,0,0-3.6,0,6,6,0,0,0,0,6,2.66,2.66,0,0,0,3.6,0,6,6,0,0,0,0-6Z"/><path class="s" d="M164.1,104.3V98.2c0-1.8-.9-2.6-2.4-2.6a2.36,2.36,0,0,0-2.5,2.5v6.2h-1.4V98.2c0-1.8-.9-2.6-2.4-2.6a2.34,2.34,0,0,0-2.5,2.6v6.1h-1.4V94.4h1.4v1.1a3.63,3.63,0,0,1,2.8-1.2,3.11,3.11,0,0,1,3,1.6,3.76,3.76,0,0,1,3.2-1.6,3.33,3.33,0,0,1,2.5.9,3.69,3.69,0,0,1,1.1,2.7v6.3h-1.4Z"/><path class="s" d="M175.4,103.3a4.11,4.11,0,0,1-5.6,0,5.23,5.23,0,0,1-1.2-3.9,5.23,5.23,0,0,1,1.2-3.9,4.11,4.11,0,0,1,5.6,0,5.23,5.23,0,0,1,1.2,3.9A5.86,5.86,0,0,1,175.4,103.3Zm-1.1-7a2.66,2.66,0,0,0-3.6,0,6,6,0,0,0,0,6,2.66,2.66,0,0,0,3.6,0,4.26,4.26,0,0,0,.8-3C175.1,98.2,175.1,97,174.3,96.3Z"/><path class="s" d="M182.4,104.3a2.39,2.39,0,0,1-2.5-2.6V95.6h-1.3V94.4h1.2v-3h1.4v3h2.1v1.1h-2.1v6.1c0,.9.4,1.4,1.3,1.4h.8v1.2h-.9Z"/><path class="s" d="M186.2,91.6V90h1.6v1.6Zm.1,12.7V94.4h1.4v9.8h-1.4Z"/><path class="s" d="M197.6,103.3a4.11,4.11,0,0,1-5.6,0,5.23,5.23,0,0,1-1.2-3.9,5.23,5.23,0,0,1,1.2-3.9,4.11,4.11,0,0,1,5.6,0,5.23,5.23,0,0,1,1.2,3.9A5.37,5.37,0,0,1,197.6,103.3Zm-1-7a2.66,2.66,0,0,0-3.6,0,6,6,0,0,0,0,6,2.66,2.66,0,0,0,3.6,0,6,6,0,0,0,0-6Z"/><path class="s" d="M208.2,104.3V98.2c0-1.8-.9-2.6-2.4-2.6s-2.4.9-2.4,2.6v6.1H202V94.4h1.4v1.1a3.49,3.49,0,0,1,2.8-1.2,3.33,3.33,0,0,1,2.5.9,3.62,3.62,0,0,1,1,2.7v6.3h-1.5Z"/><path class="s" d="M213.1,104.3v-1.9H215v1.9Z"/><path class="s" d="M382.3,40.8H12a.79.79,0,0,1-.8-.8.74.74,0,0,1,.8-.8H382.4a.79.79,0,0,1,.8.8A.88.88,0,0,1,382.3,40.8Z"/><g class="v"><path class="s" d="M15.3,31.7V29L27,14.1a7.17,7.17,0,0,0,1.7-4.4c0-3.2-1.9-5.3-5.2-5.3-2.8,0-5.2,1.5-5.2,5.4h-3c0-4.7,3.2-8.1,8.2-8.1s8.2,3.1,8.2,8c0,2.4-.8,3.9-2.4,6L18.9,29.1H31.7v2.7H15.3Z"/><path class="s" d="M46.1,11.7a5.25,5.25,0,0,1-5.6,5.6,5.25,5.25,0,0,1-5.6-5.6V7.4a5.25,5.25,0,0,1,5.6-5.6,5.25,5.25,0,0,1,5.6,5.6ZM43.7,7.4c0-2.3-.9-3.6-3.2-3.6s-3.3,1.3-3.3,3.6v4.2c0,2.3.9,3.6,3.3,3.6s3.2-1.3,3.2-3.6Zm.1,24.3H41.3L55.2,2h2.5Zm20.4-5.3A5.25,5.25,0,0,1,58.6,32,5.25,5.25,0,0,1,53,26.4V22a5.25,5.25,0,0,1,5.6-5.6A5.25,5.25,0,0,1,64.2,22Zm-2.4-4.3c0-2.3-.9-3.6-3.2-3.6s-3.3,1.3-3.3,3.6v4.2c0,2.3.9,3.6,3.3,3.6s3.2-1.3,3.2-3.6Z"/></g><path class="s" d="M84,13.2a5.08,5.08,0,0,1-4.2,1.9H74.6V.2h5.2A4.84,4.84,0,0,1,84,2.1c1.1,1.4,1.1,3.2,1.1,5.6S85.1,11.8,84,13.2Zm-1.9-10a3.39,3.39,0,0,0-2.6-1H76.8V13.1h2.7a3.39,3.39,0,0,0,2.6-1c.7-.8.8-2.2.8-4.4S82.8,4,82.1,3.2Z"/><path class="s" d="M92.9,15.1v-1a3.42,3.42,0,0,1-2.8,1.1,3.8,3.8,0,0,1-2.9-1,3,3,0,0,1-.8-2.3c0-1.8,1.2-3.1,3.7-3.1h2.8V8c0-1.4-.7-2-2.3-2a2.53,2.53,0,0,0-2.3,1L86.9,5.7a4.26,4.26,0,0,1,3.8-1.6c3,0,4.4,1.2,4.4,3.7v7.1H92.9Zm0-4.7H90.4c-1.3,0-2,.5-2,1.5s.6,1.5,2,1.5a2.43,2.43,0,0,0,1.9-.6,2.17,2.17,0,0,0,.5-1.6v-.8Z"/><path class="s" d="M104.8,14.3a3.57,3.57,0,0,1-2.6.9A3.33,3.33,0,0,1,99.4,14v5.4H97.3V4.5h2.1V5.6a3.26,3.26,0,0,1,2.8-1.3,4.06,4.06,0,0,1,2.6.9c1,1.1,1.2,2.7,1.2,4.5S105.8,13.2,104.8,14.3Zm-3.2-8.1c-2,0-2.2,1.6-2.2,3.5s.3,3.5,2.2,3.5,2.2-1.6,2.2-3.5S103.6,6.2,101.6,6.2Z"/><path class="s" d="M115.4,14.3a3.57,3.57,0,0,1-2.6.9A3.33,3.33,0,0,1,110,14v5.4h-2.1V4.5H110V5.6a3.26,3.26,0,0,1,2.8-1.3,4.06,4.06,0,0,1,2.6.9c1,1.1,1.2,2.7,1.2,4.5S116.4,13.2,115.4,14.3Zm-3.2-8.1c-2,0-2.2,1.6-2.2,3.5s.3,3.5,2.2,3.5,2.2-1.6,2.2-3.5S114.1,6.2,112.2,6.2Z"/><path class="s" d="M128.8,10.6a5.5,5.5,0,0,1-9.2,3.1c-1.5-1.5-1.5-3-1.5-6.1s0-4.6,1.5-6.1A5.12,5.12,0,0,1,123.5,0a5.06,5.06,0,0,1,5.3,4.6h-2.3a3.07,3.07,0,0,0-5.2-1.7c-.8.8-.9,1.7-.9,4.7s.1,3.9.9,4.7a2.94,2.94,0,0,0,2.2.9,3,3,0,0,0,3.1-2.6Z"/><path class="s" d="M137.7,14a4.32,4.32,0,0,1-3.2,1.3,4,4,0,0,1-3.2-1.3A5.74,5.74,0,0,1,130,9.8a5.74,5.74,0,0,1,1.3-4.2,4.32,4.32,0,0,1,3.2-1.3,4,4,0,0,1,3.2,1.3A5.74,5.74,0,0,1,139,9.8C138.9,11.6,138.7,12.9,137.7,14ZM136,6.9a2.11,2.11,0,0,0-1.6-.6,2.27,2.27,0,0,0-1.6.6c-.7.7-.7,1.7-.7,2.9a4.19,4.19,0,0,0,.7,2.9,2.11,2.11,0,0,0,1.6.6,2.27,2.27,0,0,0,1.6-.6c.7-.7.7-1.7.7-2.9S136.7,7.5,136,6.9Z"/><path class="s" d="M147.3,15.1V8.6c0-1.7-.9-2.4-2.1-2.4A2.16,2.16,0,0,0,143,8.6v6.5h-2.1V4.5H143V5.6a3.78,3.78,0,0,1,2.8-1.2,3.62,3.62,0,0,1,2.6,1,4,4,0,0,1,1.1,3v6.8h-2.2Z"/><path class="s" d="M83.1,33.1l-1-3H76.2l-1,3H72.8l5.5-14.9h1.8l5.5,14.9ZM79.2,21.5l-2.3,6.6h4.6Z"/><path class="s" d="M89.5,33.1a2.75,2.75,0,0,1-2.9-3v-6H85.4V22.5h1.2v-3h2.1v3h2.1v1.6H88.7V30a1.06,1.06,0,0,0,1.2,1.2h.9V33H89.5Z"/><path class="s" d="M95.6,33.1a2.75,2.75,0,0,1-2.9-3v-6H91.5V22.5h1.2v-3h2.1v3h2.1v1.6H94.8V30A1.06,1.06,0,0,0,96,31.2h.9V33H95.6Z"/><path class="s" d="M100.2,28.4c0,1.8.9,3,2.7,3a3.14,3.14,0,0,0,2.6-1.1l1.4,1.3a5,5,0,0,1-4,1.7c-2.7,0-4.8-1.4-4.8-5.5,0-3.5,1.8-5.4,4.5-5.4,2.9,0,4.5,2.1,4.5,5.2v.8Zm4.8-1.5a4.2,4.2,0,0,0-.3-1.4,2.23,2.23,0,0,0-2.1-1.3,2.13,2.13,0,0,0-2.1,1.3,3.19,3.19,0,0,0-.3,1.4Z"/><path class="s" d="M115.4,33.1V26.6c0-1.7-.9-2.4-2.1-2.4a2.16,2.16,0,0,0-2.2,2.4v6.5H109V22.5h2.1v1.1a3.78,3.78,0,0,1,2.8-1.2,3.62,3.62,0,0,1,2.6,1,4,4,0,0,1,1.1,3v6.8h-2.2Z"/><path class="s" d="M125.9,33.1V32a3.15,3.15,0,0,1-2.8,1.3,4.06,4.06,0,0,1-2.6-.9c-1-1.1-1.2-2.8-1.2-4.5s.2-3.4,1.2-4.5a3.57,3.57,0,0,1,2.6-.9,3.33,3.33,0,0,1,2.8,1.2V18.3H128V33.2h-2.1Zm-2.3-8.9c-2,0-2.2,1.6-2.2,3.5s.3,3.5,2.2,3.5,2.2-1.6,2.2-3.5S125.5,24.2,123.6,24.2Z"/><path class="s" d="M131.9,28.4c0,1.8.9,3,2.7,3a3.14,3.14,0,0,0,2.6-1.1l1.4,1.3a5,5,0,0,1-4,1.7c-2.7,0-4.8-1.4-4.8-5.5,0-3.5,1.8-5.4,4.5-5.4,2.9,0,4.5,2.1,4.5,5.2v.8Zm4.8-1.5a4.2,4.2,0,0,0-.3-1.4,2.23,2.23,0,0,0-2.1-1.3,2.13,2.13,0,0,0-2.1,1.3,3.19,3.19,0,0,0-.3,1.4Z"/><path class="s" d="M142.2,28.4c0,1.8.9,3,2.7,3a3.14,3.14,0,0,0,2.6-1.1l1.4,1.3a5,5,0,0,1-4,1.7c-2.7,0-4.8-1.4-4.8-5.5,0-3.5,1.8-5.4,4.5-5.4,2.9,0,4.5,2.1,4.5,5.2v.8Zm4.7-1.5a4.2,4.2,0,0,0-.3-1.4,2.23,2.23,0,0,0-2.1-1.3,2.13,2.13,0,0,0-2.1,1.3,3.19,3.19,0,0,0-.3,1.4Z"/><path class="s" d="M154.3,33.2a6.17,6.17,0,0,1-4.5-1.5l1.4-1.4a4.11,4.11,0,0,0,3.1,1.1c1.3,0,2.3-.5,2.3-1.5,0-.7-.4-1.2-1.4-1.3l-1.7-.1c-2-.2-3.1-1.1-3.1-2.9,0-2.1,1.8-3.3,4-3.3a5.38,5.38,0,0,1,3.9,1.2L157,24.9a3.85,3.85,0,0,0-2.6-.8c-1.3,0-1.9.5-1.9,1.4,0,.7.4,1.1,1.5,1.2l1.5.1c2.2.2,3.4,1.2,3.4,3C158.7,32.1,156.8,33.2,154.3,33.2Z"/><g class="v"><path class="s" d="M23.2,180.3V153.9l-5.6,4.9v-3.4l5.6-4.8h3v29.7Z"/><path class="s" d="M51.1,172.3a7.85,7.85,0,0,1-8.1,8.2,7.8,7.8,0,0,1-8.1-8.2V158.4a7.85,7.85,0,0,1,8.1-8.2,7.85,7.85,0,0,1,8.1,8.2Zm-3-13.7c0-3.3-1.8-5.7-5.1-5.7s-5.1,2.4-5.1,5.7v13.5c0,3.3,1.8,5.7,5.1,5.7s5.1-2.4,5.1-5.7Z"/><path class="s" d="M65.8,160.3a5.25,5.25,0,0,1-5.6,5.6,5.25,5.25,0,0,1-5.6-5.6v-4.4a5.25,5.25,0,0,1,5.6-5.6,5.25,5.25,0,0,1,5.6,5.6ZM63.4,156c0-2.3-.9-3.6-3.2-3.6s-3.3,1.3-3.3,3.6v4.2c0,2.3.9,3.6,3.3,3.6s3.2-1.3,3.2-3.6Zm.1,24.3H61l13.9-29.7h2.5ZM83.9,175a5.25,5.25,0,0,1-5.6,5.6,5.38,5.38,0,0,1-5.7-5.6v-4.4a5.6,5.6,0,1,1,11.2,0V175Zm-2.4-4.3c0-2.3-.9-3.6-3.2-3.6s-3.3,1.3-3.3,3.6v4.2c0,2.3.9,3.6,3.3,3.6s3.2-1.3,3.2-3.6Z"/></g><path class="s" d="M104.3,157.8A5.88,5.88,0,0,1,103,162a5.3,5.3,0,0,1-4.1,1.7,5.12,5.12,0,0,1-3.9-1.5c-1.5-1.5-1.5-3-1.5-6.1s0-4.6,1.5-6.1a5.12,5.12,0,0,1,3.9-1.5,5.27,5.27,0,0,1,5.4,4.6H102a3,3,0,0,0-3.1-2.6,2.94,2.94,0,0,0-2.2.9c-.8.8-.9,1.7-.9,4.7s.1,3.9.9,4.7a2.94,2.94,0,0,0,2.2.9,3.1,3.1,0,0,0,3.2-3.5v-.8H98.9v-1.9h5.5v2.3Z"/><path class="s" d="M106.5,163.6V148.7h9.6v2h-7.3v4.4H115v2h-6.2v4.5h7.3v2Z"/><path class="s" d="M127.3,163.6l-6.9-10.5v10.5h-2.3V148.7h2.1l6.9,10.5V148.7h2.3v14.9Z"/><path class="s" d="M102.6,181.6l-1-3h-6l-1,3H92.2l5.5-14.9h1.8l5.5,14.9Zm-4-11.5-2.3,6.6h4.6Z"/><path class="s" d="M112.2,181.6v-1.1a3.78,3.78,0,0,1-2.8,1.2,3.62,3.62,0,0,1-2.6-1,4,4,0,0,1-1.1-3v-6.8h2.1v6.5c0,1.7.9,2.4,2.1,2.4a2.11,2.11,0,0,0,2.2-2.4v-6.5h2.1v10.6h-2Z"/><path class="s" d="M124.4,180.2a4.23,4.23,0,0,1-3.5,1.5c-2.4,0-4.7-1.5-4.7-5.5s2.4-5.4,4.7-5.4a4.23,4.23,0,0,1,3.5,1.5l-1.5,1.4a2.6,2.6,0,0,0-2-1,2.52,2.52,0,0,0-2,.9,5.93,5.93,0,0,0,0,5.2,2.38,2.38,0,0,0,2,.9,2.33,2.33,0,0,0,2-1Z"/><path class="s" d="M129,181.6a2.75,2.75,0,0,1-2.9-3v-6h-1.2V171h1.2v-3h2.1v3h2.1v1.6h-2.1v5.9a1.06,1.06,0,0,0,1.2,1.2h.9v1.8H129Z"/><path class="s" d="M131.9,168.9v-2.3h2.3v2.3Zm0,12.7V171H134v10.6Z"/><path class="s" d="M143.5,180.5a4.32,4.32,0,0,1-3.2,1.3,4,4,0,0,1-3.2-1.3,7.43,7.43,0,0,1,0-8.4,4.32,4.32,0,0,1,3.2-1.3,4,4,0,0,1,3.2,1.3,5.74,5.74,0,0,1,1.3,4.2C144.8,178.1,144.6,179.4,143.5,180.5Zm-1.6-7.1a2.11,2.11,0,0,0-1.6-.6,2.27,2.27,0,0,0-1.6.6c-.7.7-.7,1.7-.7,2.9a4.19,4.19,0,0,0,.7,2.9,2.11,2.11,0,0,0,1.6.6,2.27,2.27,0,0,0,1.6-.6c.7-.7.7-1.7.7-2.9S142.6,174,141.9,173.4Z"/><path class="s" d="M153.1,181.6v-6.5c0-1.7-.9-2.4-2.1-2.4a2.16,2.16,0,0,0-2.2,2.4v6.5h-2.1V171h2.1v1.1a3.78,3.78,0,0,1,2.8-1.2,3.62,3.62,0,0,1,2.6,1,4,4,0,0,1,1.1,3v6.8h-2.2Z"/><g class="v"><path class="s" d="M29.3,347.4a7.92,7.92,0,0,1-5.9,2.2,8.38,8.38,0,0,1-6-2.1,8,8,0,0,1-2.1-5.2h3c.4,3,1.9,4.6,5,4.6a5.14,5.14,0,0,0,3.7-1.4c1.5-1.5,1.6-3.9,1.6-6.1,0-3.6-.7-7.2-5-7.2-2.6,0-4.3,1.1-4.9,2.9H16V319.5H31v2.7H18.8v9.4a6.93,6.93,0,0,1,5.3-2,6.79,6.79,0,0,1,5.1,1.9c2.1,2.3,2.5,5.1,2.5,8S31.4,345.2,29.3,347.4Z"/><path class="s" d="M51.1,341.4a7.85,7.85,0,0,1-8.1,8.2,7.8,7.8,0,0,1-8.1-8.2V327.5a7.85,7.85,0,0,1,8.1-8.2,7.85,7.85,0,0,1,8.1,8.2Zm-3-13.7c0-3.3-1.8-5.7-5.1-5.7s-5.1,2.4-5.1,5.7v13.5c0,3.3,1.8,5.7,5.1,5.7s5.1-2.4,5.1-5.7Z"/><path class="s" d="M65.8,329.3a5.25,5.25,0,0,1-5.6,5.6,5.25,5.25,0,0,1-5.6-5.6v-4.4a5.25,5.25,0,0,1,5.6-5.6,5.25,5.25,0,0,1,5.6,5.6ZM63.4,325c0-2.3-.9-3.6-3.2-3.6s-3.3,1.3-3.3,3.6v4.2c0,2.3.9,3.6,3.3,3.6s3.2-1.3,3.2-3.6Zm.1,24.3H61l13.9-29.7h2.5ZM83.9,344a5.25,5.25,0,0,1-5.6,5.6,5.38,5.38,0,0,1-5.7-5.6v-4.4a5.6,5.6,0,1,1,11.2,0V344Zm-2.4-4.3c0-2.3-.9-3.6-3.2-3.6s-3.3,1.3-3.3,3.6v4.2c0,2.3.9,3.6,3.3,3.6s3.2-1.3,3.2-3.6Z"/></g><path class="s" d="M104.9,332.7v-10l-3.4,7.3H99.8l-3.5-7.3v10H94V317.8h2.3l4.4,9.3,4.3-9.3h2.3v14.9Z"/><path class="s" d="M120.3,326.9a5.88,5.88,0,0,1-1.3,4.2,5.3,5.3,0,0,1-4.1,1.7,5.12,5.12,0,0,1-3.9-1.5c-1.5-1.5-1.5-3-1.5-6.1s0-4.6,1.5-6.1a5.12,5.12,0,0,1,3.9-1.5,5.27,5.27,0,0,1,5.4,4.6H118a3,3,0,0,0-3.1-2.6,2.94,2.94,0,0,0-2.2.9c-.8.8-.9,1.7-.9,4.7s.1,3.9.9,4.7a2.94,2.94,0,0,0,2.2.9,3.1,3.1,0,0,0,3.2-3.5v-.8h-3.2v-1.9h5.5v2.3Z"/><path class="s" d="M131.7,332.7l-6.9-10.5v10.5h-2.2V317.8h2.1l6.9,10.5V317.8h2.3v14.9Z"/><path class="s" d="M145.7,319.7v12.9h-2.3V319.7h-4.1v-2h10.5v2Z"/><path class="s" d="M156.6,331.5a4.32,4.32,0,0,1-3.2,1.3,4,4,0,0,1-3.2-1.3,7.43,7.43,0,0,1,0-8.4,4.32,4.32,0,0,1,3.2-1.3,4,4,0,0,1,3.2,1.3,5.74,5.74,0,0,1,1.3,4.2C157.8,329.2,157.6,330.5,156.6,331.5Zm-1.6-7.1a2.11,2.11,0,0,0-1.6-.6,2.27,2.27,0,0,0-1.6.6c-.7.7-.7,1.7-.7,2.9a4.19,4.19,0,0,0,.7,2.9,2.11,2.11,0,0,0,1.6.6,2.27,2.27,0,0,0,1.6-.6c.7-.7.7-1.7.7-2.9A4.34,4.34,0,0,0,155,324.4Z"/><path class="s" d="M166.4,332.7l-3-4.9-1.6,1.8v3.1h-2.1V317.8h2.1V327l4.1-4.9h2.6l-3.7,4.2,4.2,6.5h-2.6Z"/><path class="s" d="M170.9,328c0,1.8.9,3,2.7,3a3.14,3.14,0,0,0,2.6-1.1l1.4,1.3a5,5,0,0,1-4,1.7c-2.7,0-4.8-1.4-4.8-5.5,0-3.5,1.8-5.4,4.5-5.4,2.9,0,4.5,2.1,4.5,5.2v.9h-6.9Zm4.8-1.5a4.2,4.2,0,0,0-.3-1.4,2.23,2.23,0,0,0-2.1-1.3,2.13,2.13,0,0,0-2.1,1.3,3.19,3.19,0,0,0-.3,1.4Z"/><path class="s" d="M186.1,332.7v-6.5c0-1.7-.9-2.4-2.1-2.4a2.16,2.16,0,0,0-2.2,2.4v6.5h-2.2V322.1h2.1v1.1a3.78,3.78,0,0,1,2.8-1.2,3.62,3.62,0,0,1,2.6,1,4,4,0,0,1,1.1,3v6.8h-2.1Z"/><path class="s" d="M102.6,350.7l-1-3h-6l-1,3H92.2l5.5-14.9h1.8l5.5,14.9Zm-4-11.6-2.3,6.6h4.6Z"/><path class="s" d="M113.5,349.3a4.23,4.23,0,0,1-3.5,1.5c-2.4,0-4.7-1.5-4.7-5.5s2.4-5.4,4.7-5.4a4.23,4.23,0,0,1,3.5,1.5l-1.5,1.4a2.6,2.6,0,0,0-2-1,2.52,2.52,0,0,0-2,.9,5.93,5.93,0,0,0,0,5.2,2.38,2.38,0,0,0,2,.9,2.33,2.33,0,0,0,2-1Z"/><path class="s" d="M118.1,350.7a2.75,2.75,0,0,1-2.9-3v-6H114v-1.6h1.2v-3h2.1v3h2.1v1.6h-2.1v5.9a1.06,1.06,0,0,0,1.2,1.2h.9v1.8h-1.3Z"/><path class="s" d="M121,337.9v-2.3h2.3v2.3Zm.1,12.8V340.1h2.1v10.6Z"/><path class="s" d="M129.7,350.7H128l-3.9-10.6h2.3l2.5,7.5,2.5-7.5h2.3Z"/><path class="s" d="M140.1,350.7v-1a3.42,3.42,0,0,1-2.8,1.1,3.8,3.8,0,0,1-2.9-1,3,3,0,0,1-.8-2.3c0-1.8,1.2-3.1,3.7-3.1h2.8v-.8c0-1.4-.7-2-2.3-2a2.53,2.53,0,0,0-2.3,1l-1.4-1.3a4.26,4.26,0,0,1,3.8-1.6c3,0,4.4,1.2,4.4,3.7v7.1h-2.2Zm0-4.7h-2.5c-1.3,0-2,.5-2,1.5s.6,1.5,2,1.5a2.43,2.43,0,0,0,1.9-.6,2.17,2.17,0,0,0,.5-1.6V346Z"/><path class="s" d="M147.6,350.7a2.75,2.75,0,0,1-2.9-3v-6h-1.2v-1.6h1.2v-3h2.1v3h2.1v1.6h-2.1v5.9a1.06,1.06,0,0,0,1.2,1.2h.9v1.8h-1.3Z"/><path class="s" d="M150.5,337.9v-2.3h2.3v2.3Zm.1,12.8V340.1h2.1v10.6Z"/><path class="s" d="M162.2,349.5a4.32,4.32,0,0,1-3.2,1.3,4,4,0,0,1-3.2-1.3,7.43,7.43,0,0,1,0-8.4,4.32,4.32,0,0,1,3.2-1.3,4,4,0,0,1,3.2,1.3,5.74,5.74,0,0,1,1.3,4.2C163.5,347.2,163.2,348.5,162.2,349.5Zm-1.6-7.1a2.11,2.11,0,0,0-1.6-.6,2.27,2.27,0,0,0-1.6.6c-.7.7-.7,1.7-.7,2.9a4.19,4.19,0,0,0,.7,2.9,2.11,2.11,0,0,0,1.6.6,2.27,2.27,0,0,0,1.6-.6c.7-.7.7-1.7.7-2.9S161.3,343.1,160.6,342.4Z"/><path class="s" d="M171.8,350.7v-6.5c0-1.7-.9-2.4-2.1-2.4a2.16,2.16,0,0,0-2.2,2.4v6.5h-2.1V340.1h2.1v1.1a3.78,3.78,0,0,1,2.8-1.2,3.62,3.62,0,0,1,2.6,1,4,4,0,0,1,1.1,3v6.8h-2.2Z"/><path class="s" d="M16.9,212.7V200.1l-2.7,2.3v-1.6l2.7-2.3h1.4v14.2Z"/><path class="s" d="M31.4,208.9a3.73,3.73,0,0,1-3.9,3.9,3.78,3.78,0,0,1-3.9-3.9v-6.6a3.73,3.73,0,0,1,3.9-3.9,3.78,3.78,0,0,1,3.9,3.9Zm-1.5-6.5a2.51,2.51,0,1,0-5,0v6.5a2.51,2.51,0,1,0,5,0Z"/><path class="s" d="M39.4,203.2a2.52,2.52,0,0,1-2.7,2.7,2.52,2.52,0,0,1-2.7-2.7v-2.1a2.52,2.52,0,0,1,2.7-2.7,2.52,2.52,0,0,1,2.7,2.7Zm-1.2-2.1c0-1.1-.4-1.7-1.5-1.7s-1.6.6-1.6,1.7v2c0,1.1.4,1.7,1.6,1.7s1.5-.6,1.5-1.7Zm.1,11.6H37.1l6.7-14.2H45Zm9.8-2.5a2.7,2.7,0,0,1-5.4,0v-2.1a2.7,2.7,0,0,1,5.4,0Zm-1.2-2.1c0-1.1-.4-1.7-1.5-1.7s-1.6.6-1.6,1.7v2c0,1.1.4,1.7,1.6,1.7s1.5-.6,1.5-1.7Z"/><path class="s" d="M62.4,211.7a4.11,4.11,0,0,1-5.6,0,6.94,6.94,0,0,1,0-7.8,4.11,4.11,0,0,1,5.6,0,6.94,6.94,0,0,1,0,7.8Zm-1-6.9a2.66,2.66,0,0,0-3.6,0,6,6,0,0,0,0,6,2.66,2.66,0,0,0,3.6,0,6,6,0,0,0,0-6Z"/><path class="s" d="M68.5,204v8.7H67.1V204H65.8v-1.1h1.3v-1.8a2.39,2.39,0,0,1,2.5-2.6h1v1.2h-.8c-.9,0-1.3.5-1.3,1.4v1.8h2.1V204Z"/><path class="s" d="M86.4,212.7l-3.2-6.3H79.8v6.3H78.3V198.5h5.5c2.5,0,4.2,1.5,4.2,4a3.71,3.71,0,0,1-3.1,3.8l3.4,6.5H86.4Zm-2.9-12.8H79.7v5.2h3.8c1.7,0,2.8-.8,2.8-2.6S85.2,199.9,83.5,199.9Z"/><path class="s" d="M91.4,208.2c0,2.2,1,3.4,2.9,3.4a3.27,3.27,0,0,0,2.6-1.1l1,.9a4.47,4.47,0,0,1-3.6,1.5c-2.6,0-4.3-1.6-4.3-5,0-3.2,1.5-5,4-5s4,1.8,4,4.8v.6H91.4Zm5.2-1.1a5.69,5.69,0,0,0-.3-1.6,2.51,2.51,0,0,0-4.6,0c-.3.5-.2.8-.3,1.6Z"/><path class="s" d="M107.7,212a3.5,3.5,0,0,1-2.4.9,3.26,3.26,0,0,1-2.8-1.3v5.6h-1.4V203h1.4v1.2a3.26,3.26,0,0,1,2.8-1.3,3.09,3.09,0,0,1,2.4.9c1,1,1.2,2.6,1.2,4.2A5.34,5.34,0,0,1,107.7,212Zm-2.7-7.9c-2.2,0-2.5,1.8-2.5,3.8s.3,3.8,2.5,3.8,2.5-1.8,2.5-3.8S107.2,204.1,105,204.1Z"/><path class="s" d="M118.2,212.7v-1.1a3.63,3.63,0,0,1-2.8,1.2,3.33,3.33,0,0,1-2.5-.9,3.71,3.71,0,0,1-1-2.8v-6.3h1.4v6.1c0,1.8.9,2.6,2.4,2.6a2.34,2.34,0,0,0,2.5-2.6v-6.1h1.4v9.8h-1.4Z"/><path class="s" d="M126,212.7a2.39,2.39,0,0,1-2.5-2.6V204h-1.2v-1.1h1.2v-3h1.4v3H127V204h-2.1v6.1c0,.9.4,1.4,1.3,1.4h.8v1.2Z"/><path class="s" d="M135.4,212.7v-.9a4.43,4.43,0,0,1-5.6.2,2.72,2.72,0,0,1-.7-2c0-1.8,1.2-2.8,3.4-2.8h2.9v-.9c0-1.4-.7-2.2-2.5-2.2a2.63,2.63,0,0,0-2.5,1.1l-1-.9a4,4,0,0,1,3.5-1.5c2.7,0,3.9,1.1,3.9,3.3v6.7h-1.4Zm0-4.5h-2.7c-1.5,0-2.2.6-2.2,1.7s.7,1.7,2.3,1.7a3.06,3.06,0,0,0,2.2-.7,2.46,2.46,0,0,0,.5-1.7v-1Z"/><path class="s" d="M143.1,212.7a2.39,2.39,0,0,1-2.5-2.6V204h-1.2v-1.1h1.2v-3H142v3h2.1V204H142v6.1c0,.9.4,1.4,1.3,1.4h.8v1.2Z"/><path class="s" d="M146.9,200.1v-1.6h1.6v1.6Zm.1,12.6v-9.8h1.4v9.8Z"/><path class="s" d="M158.4,211.7a4.11,4.11,0,0,1-5.6,0,6.94,6.94,0,0,1,0-7.8,4.11,4.11,0,0,1,5.6,0,6.94,6.94,0,0,1,0,7.8Zm-1-6.9a2.66,2.66,0,0,0-3.6,0,6,6,0,0,0,0,6,2.66,2.66,0,0,0,3.6,0,6,6,0,0,0,0-6Z"/><path class="s" d="M169,212.7v-6.1c0-1.8-.9-2.6-2.4-2.6s-2.4.9-2.4,2.6v6.1h-1.4v-9.8h1.4V204a3.49,3.49,0,0,1,2.8-1.2,3.33,3.33,0,0,1,2.5.9,3.62,3.62,0,0,1,1,2.7v6.3Z"/><path class="s" d="M188.2,212.7h-1.3l-2.6-7.6-2.6,7.6h-1.3l-3.1-9.8h1.6l2.3,7.9,2.6-7.9H185l2.6,7.9,2.2-7.9h1.6Z"/><path class="s" d="M193.3,200.1v-1.6h1.6v1.6Zm.1,12.6v-9.8h1.4v9.8Z"/><path class="s" d="M200.9,212.7a2.34,2.34,0,0,1-2.5-2.6V198.5h1.4v11.6c0,1,.3,1.4,1.3,1.4h.8v1.2Z"/><path class="s" d="M206.7,212.7a2.34,2.34,0,0,1-2.5-2.6V198.5h1.4v11.6c0,1,.3,1.4,1.3,1.4h.8v1.2Z"/><path class="s" d="M221.8,212a3.5,3.5,0,0,1-2.4.9,3.26,3.26,0,0,1-2.8-1.3v1.2h-1.4V198.6h1.4v5.5a3.26,3.26,0,0,1,2.8-1.3,3.09,3.09,0,0,1,2.4.9c1,1,1.2,2.6,1.2,4.2A6.07,6.07,0,0,1,221.8,212Zm-2.7-7.9c-2.2,0-2.5,1.8-2.5,3.8s.3,3.8,2.5,3.8,2.5-1.8,2.5-3.8S221.2,204.1,219.1,204.1Z"/><path class="s" d="M226.9,208.2c0,2.2,1,3.4,2.9,3.4a3.27,3.27,0,0,0,2.6-1.1l1,.9a4.47,4.47,0,0,1-3.6,1.5c-2.6,0-4.3-1.6-4.3-5,0-3.2,1.5-5,4-5s4,1.8,4,4.8v.6h-6.6Zm5.3-1.1a5.69,5.69,0,0,0-.3-1.6,2.51,2.51,0,0,0-4.6,0c-.3.5-.2.8-.3,1.6Z"/><path class="s" d="M247.2,212.7v-.9a4.43,4.43,0,0,1-5.6.2,2.72,2.72,0,0,1-.7-2c0-1.8,1.2-2.8,3.4-2.8h2.9v-.9c0-1.4-.7-2.2-2.5-2.2a2.63,2.63,0,0,0-2.5,1.1l-1-.9a4,4,0,0,1,3.5-1.5c2.7,0,3.9,1.1,3.9,3.3v6.7h-1.4Zm0-4.5h-2.7c-1.5,0-2.2.6-2.2,1.7s.7,1.7,2.3,1.7a3.06,3.06,0,0,0,2.2-.7,2.46,2.46,0,0,0,.5-1.7v-1Z"/><path class="s" d="M258.4,212.7v-1.1a3.63,3.63,0,0,1-2.8,1.2,3.33,3.33,0,0,1-2.5-.9,3.71,3.71,0,0,1-1-2.8v-6.3h1.4v6.1c0,1.8.9,2.6,2.4,2.6a2.34,2.34,0,0,0,2.5-2.6v-6.1h1.4v9.8h-1.4Z"/><path class="s" d="M270.4,211.4a3.91,3.91,0,0,1-3.2,1.5c-2.5,0-4.4-1.7-4.4-5s1.9-5,4.4-5a3.79,3.79,0,0,1,3.2,1.5l-1,.9a2.7,2.7,0,0,0-2.3-1.1,2.84,2.84,0,0,0-2.3,1.1,3.87,3.87,0,0,0-.6,2.6,4.33,4.33,0,0,0,.6,2.6,2.71,2.71,0,0,0,2.3,1.1,3,3,0,0,0,2.3-1.1Z"/><path class="s" d="M275.9,212.7a2.39,2.39,0,0,1-2.5-2.6V204h-1.2v-1.1h1.2v-3h1.4v3h2.1V204h-2.1v6.1c0,.9.4,1.4,1.3,1.4h.8v1.2Z"/><path class="s" d="M279.7,200.1v-1.6h1.6v1.6Zm.1,12.6v-9.8h1.4v9.8Z"/><path class="s" d="M291.2,211.7a4.11,4.11,0,0,1-5.6,0,6.94,6.94,0,0,1,0-7.8,4.11,4.11,0,0,1,5.6,0,6.94,6.94,0,0,1,0,7.8Zm-1-6.9a2.66,2.66,0,0,0-3.6,0,6,6,0,0,0,0,6,2.66,2.66,0,0,0,3.6,0,6,6,0,0,0,0-6Z"/><path class="s" d="M301.8,212.7v-6.1c0-1.8-.9-2.6-2.4-2.6s-2.4.9-2.4,2.6v6.1h-1.4v-9.8H297V204a3.49,3.49,0,0,1,2.8-1.2,3.33,3.33,0,0,1,2.5.9,3.62,3.62,0,0,1,1,2.7v6.3Z"/><path class="s" d="M307.6,208.2c0,2.2,1,3.4,2.9,3.4a3.27,3.27,0,0,0,2.6-1.1l1,.9a4.47,4.47,0,0,1-3.6,1.5c-2.6,0-4.3-1.6-4.3-5,0-3.2,1.5-5,4-5s4,1.8,4,4.8v.6h-6.6Zm5.2-1.1a5.69,5.69,0,0,0-.3-1.6,2.51,2.51,0,0,0-4.6,0c-.3.5-.2.8-.3,1.6Z"/><path class="s" d="M323.2,212.7v-1.2a3.26,3.26,0,0,1-2.8,1.3,3.09,3.09,0,0,1-2.4-.9c-1-1-1.2-2.6-1.2-4.2s.2-3.2,1.2-4.2a3.5,3.5,0,0,1,2.4-.9,3,3,0,0,1,2.8,1.3v-5.5h1.4v14.2h-1.4Zm-2.5-8.6c-2.2,0-2.5,1.8-2.5,3.8s.3,3.8,2.5,3.8,2.5-1.8,2.5-3.8S322.9,204.1,320.7,204.1Z"/><path class="s" d="M333.1,200.1v-1.6h1.6v1.6Zm.1,12.6v-9.8h1.4v9.8Z"/><path class="s" d="M344.5,212.7v-6.1c0-1.8-.9-2.6-2.4-2.6s-2.4.9-2.4,2.6v6.1h-1.4v-9.8h1.4V204a3.49,3.49,0,0,1,2.8-1.2,3.33,3.33,0,0,1,2.5.9,3.62,3.62,0,0,1,1,2.7v6.3Z"/><path class="s" d="M14.5,228.2c0,2.2,1,3.4,2.9,3.4a3.27,3.27,0,0,0,2.6-1.1l1,.9a4.47,4.47,0,0,1-3.6,1.5c-2.6,0-4.3-1.6-4.3-5,0-3.2,1.5-5,4-5s4,1.8,4,4.8v.6H14.5Zm5.2-1.1a5.69,5.69,0,0,0-.3-1.6,2.51,2.51,0,0,0-4.6,0c-.3.5-.2.8-.3,1.6Z"/><path class="s" d="M29.5,232.8,27.1,229l-2.4,3.8H23l3.3-5L23.1,223h1.7l2.3,3.6,2.2-3.6H31l-3.2,4.8,3.3,5Z"/><path class="s" d="M40.8,231.4a3.91,3.91,0,0,1-3.2,1.5c-2.5,0-4.4-1.7-4.4-5s1.9-5,4.4-5a3.79,3.79,0,0,1,3.2,1.5l-1,.9a2.7,2.7,0,0,0-2.3-1.1,2.84,2.84,0,0,0-2.3,1.1,3.87,3.87,0,0,0-.6,2.6,4.33,4.33,0,0,0,.6,2.6,2.71,2.71,0,0,0,2.3,1.1,3,3,0,0,0,2.3-1.1Z"/><path class="s" d="M49.8,232.8v-6.1c0-1.8-.9-2.6-2.4-2.6a2.3,2.3,0,0,0-2.5,2.6v6.1H43.5V218.6h1.4v5.5a3.49,3.49,0,0,1,2.8-1.2c2.3,0,3.5,1.4,3.5,3.6v6.3Z"/><path class="s" d="M60.4,232.8v-.9a3.42,3.42,0,0,1-2.8,1.1,3.4,3.4,0,0,1-2.8-.9,2.72,2.72,0,0,1-.7-2c0-1.8,1.2-2.8,3.4-2.8h2.9v-.9c0-1.4-.7-2.2-2.5-2.2a2.63,2.63,0,0,0-2.5,1.1l-1-.9a4,4,0,0,1,3.5-1.5c2.7,0,3.9,1.1,3.9,3.3v6.7H60.4Zm0-4.6H57.6c-1.5,0-2.2.6-2.2,1.7s.7,1.7,2.3,1.7a3.06,3.06,0,0,0,2.2-.7,2.46,2.46,0,0,0,.5-1.7Z"/><path class="s" d="M71.6,232.8v-6.1c0-1.8-.9-2.6-2.4-2.6s-2.4.9-2.4,2.6v6.1H65.4V223h1.4v1.1a3.49,3.49,0,0,1,2.8-1.2,3.33,3.33,0,0,1,2.5.9,3.62,3.62,0,0,1,1,2.7v6.3Z"/><path class="s" d="M83.8,233.1a3.91,3.91,0,0,1-4.1,4.2,4.3,4.3,0,0,1-3.3-1.3l.9-.9a3.31,3.31,0,0,0,2.4,1c1.9,0,2.7-1.3,2.7-3v-1.5a3.66,3.66,0,0,1-5.2.4c-1-1-1.2-2.5-1.2-4.1s.2-3.1,1.2-4.1a3.5,3.5,0,0,1,2.4-.9,3,3,0,0,1,2.8,1.3V223h1.4Zm-3.9-9c-2.2,0-2.5,1.8-2.5,3.7s.3,3.7,2.5,3.7,2.4-1.8,2.4-3.7S82.1,224.1,79.9,224.1Z"/><path class="s" d="M88.3,228.2c0,2.2,1,3.4,2.9,3.4a3.27,3.27,0,0,0,2.6-1.1l1,.9a4.47,4.47,0,0,1-3.6,1.5c-2.6,0-4.3-1.6-4.3-5,0-3.2,1.5-5,4-5s4,1.8,4,4.8v.6H88.3Zm5.2-1.1a5.69,5.69,0,0,0-.3-1.6,2.51,2.51,0,0,0-4.6,0c-.3.5-.2.8-.3,1.6Z"/><path class="s" d="M104.7,224v8.7h-1.4V224H102v-1.1h1.3v-1.8a2.39,2.39,0,0,1,2.5-2.6h1v1.2H106c-.9,0-1.3.5-1.3,1.4v1.8h2.1V224Z"/><path class="s" d="M115.6,231.8a4.11,4.11,0,0,1-5.6,0,6.94,6.94,0,0,1,0-7.8,4.11,4.11,0,0,1,5.6,0,5.23,5.23,0,0,1,1.2,3.9A5.37,5.37,0,0,1,115.6,231.8Zm-1-7a2.66,2.66,0,0,0-3.6,0,6,6,0,0,0,0,6,2.66,2.66,0,0,0,3.6,0,6,6,0,0,0,0-6Z"/><path class="s" d="M125.4,224.8a2.06,2.06,0,0,0-1.7-.7,2.42,2.42,0,0,0-2.4,2.6v6h-1.4v-9.8h1.4v1.2a3.29,3.29,0,0,1,2.8-1.3,3.15,3.15,0,0,1,2.4.9Z"/><path class="s" d="M142.1,231.3a4.82,4.82,0,0,1-3.7,1.5h-4.9V218.6h4.9a4.68,4.68,0,0,1,3.7,1.5c1.3,1.4,1.3,3.4,1.3,5.6S143.4,229.9,142.1,231.3Zm-1.2-10.4a3.48,3.48,0,0,0-2.8-1H135v11.5h3.1a3.48,3.48,0,0,0,2.8-1c.9-1,.9-2.8.9-4.7S141.9,221.9,140.9,220.9Z"/><path class="s" d="M155.3,232.8l-1.1-3.2H148l-1.1,3.2h-1.6l5.2-14.2h1.3l5.2,14.2Zm-4.2-12.1-2.7,7.5h5.3Z"/><path class="s" d="M167.2,231.5a4.67,4.67,0,0,1-3.5,1.4,4.9,4.9,0,0,1-3.6-1.4c-1.4-1.4-1.4-2.6-1.4-5.8s.1-4.5,1.4-5.8a4.9,4.9,0,0,1,3.6-1.4,4.51,4.51,0,0,1,3.5,1.4c1.3,1.3,1.4,2.6,1.4,5.8S168.5,230.1,167.2,231.5Zm-1.1-10.7a3.63,3.63,0,0,0-5,0c-.9.9-1,2-1,4.9s.1,4,1,4.9a3.63,3.63,0,0,0,5,0c.9-.9,1-2,1-4.9S167,221.7,166.1,220.8Z"/><path class="s" d="M175,232.9a5.3,5.3,0,0,1-4-1.4l1-1a4.08,4.08,0,0,0,3.1,1.1c1.7,0,2.6-.6,2.6-1.7,0-.9-.5-1.3-1.6-1.4l-1.6-.1c-1.9-.2-2.9-1-2.9-2.6,0-1.8,1.5-2.9,3.6-2.9a5.07,5.07,0,0,1,3.5,1.1l-.9.9a4.46,4.46,0,0,0-2.6-.8c-1.4,0-2.2.6-2.2,1.6s.5,1.3,1.8,1.4l1.5.1c1.7.2,2.9.8,2.9,2.7C179,231.8,177.4,232.9,175,232.9Z"/><path class="s" d="M184.6,232.8a2.39,2.39,0,0,1-2.5-2.6v-6.1h-1.2V223h1.2v-3h1.4v3h2.1v1.1h-2.1v6.1c0,.9.4,1.4,1.3,1.4h.8v1.2Z"/><path class="s" d="M194.1,232.8v-.9a4.43,4.43,0,0,1-5.6.2,2.72,2.72,0,0,1-.7-2c0-1.8,1.2-2.8,3.4-2.8h2.9v-.9c0-1.4-.7-2.2-2.5-2.2a2.63,2.63,0,0,0-2.5,1.1l-1-.9a4,4,0,0,1,3.5-1.5c2.7,0,3.9,1.1,3.9,3.3v6.7h-1.4Zm0-4.6h-2.7c-1.5,0-2.2.6-2.2,1.7s.7,1.7,2.3,1.7a3.06,3.06,0,0,0,2.2-.7,2.46,2.46,0,0,0,.5-1.7v-1Z"/><path class="s" d="M206.1,231.4a3.91,3.91,0,0,1-3.2,1.5c-2.5,0-4.4-1.7-4.4-5s1.9-5,4.4-5a3.79,3.79,0,0,1,3.2,1.5l-1,.9a2.7,2.7,0,0,0-2.3-1.1,2.84,2.84,0,0,0-2.3,1.1,3.87,3.87,0,0,0-.6,2.6,4.33,4.33,0,0,0,.6,2.6,2.71,2.71,0,0,0,2.3,1.1,3,3,0,0,0,2.3-1.1Z"/><path class="s" d="M215.3,232.8l-3.1-5-1.9,2.2v2.8h-1.4V218.6h1.4v9.5l4.4-5.1h1.8l-3.3,3.8,3.9,6.1h-1.8Z"/><path class="s" d="M234.2,227.6a5.17,5.17,0,0,1-1.2,3.7,5.32,5.32,0,0,1-7.4.2c-1.4-1.4-1.4-2.6-1.4-5.8s.1-4.5,1.4-5.8a5.14,5.14,0,0,1,8.6,2.9h-1.5a3.45,3.45,0,0,0-3.5-2.9,3.32,3.32,0,0,0-2.5,1c-.9.9-1,2-1,4.9s.1,4,1,4.9a3.17,3.17,0,0,0,2.5,1,3.57,3.57,0,0,0,2.7-1.2,3.69,3.69,0,0,0,.8-2.6v-1.1h-3.5v-1.3h5Z"/><path class="s" d="M237.8,232.8V218.6h8.8V220h-7.3v5h6.2v1.4h-6.2v5.1h7.3v1.4h-8.8Z"/><path class="s" d="M258.9,232.8l-7.6-11.4v11.4h-1.5V218.6h1.4l7.6,11.4V218.6h1.5v14.2Z"/><path class="s" d="M271.9,232.8a2.39,2.39,0,0,1-2.5-2.6v-6.1h-1.2V223h1.2v-3h1.4v3h2.1v1.1h-2.1v6.1c0,.9.4,1.4,1.3,1.4h.8v1.2Z"/><path class="s" d="M282.1,231.8a4.11,4.11,0,0,1-5.6,0,6.94,6.94,0,0,1,0-7.8,4.11,4.11,0,0,1,5.6,0,5.23,5.23,0,0,1,1.2,3.9A5.37,5.37,0,0,1,282.1,231.8Zm-1-7a2.66,2.66,0,0,0-3.6,0,6,6,0,0,0,0,6,2.66,2.66,0,0,0,3.6,0,6,6,0,0,0,0-6Z"/><path class="s" d="M292.9,232.8l-3.1-5-1.9,2.2v2.8h-1.4V218.6h1.4v9.5l4.4-5.1h1.8l-3.3,3.8,3.9,6.1h-1.8Z"/><path class="s" d="M297.2,228.2c0,2.2,1,3.4,2.9,3.4a3.27,3.27,0,0,0,2.6-1.1l1,.9a4.47,4.47,0,0,1-3.6,1.5c-2.6,0-4.3-1.6-4.3-5,0-3.2,1.5-5,4-5s4,1.8,4,4.8v.6h-6.6Zm5.2-1.1a5.69,5.69,0,0,0-.3-1.6,2.51,2.51,0,0,0-4.6,0c-.3.5-.2.8-.3,1.6Z"/><path class="s" d="M313.2,232.8v-6.1c0-1.8-.9-2.6-2.4-2.6s-2.4.9-2.4,2.6v6.1H307V223h1.4v1.1a3.49,3.49,0,0,1,2.8-1.2,3.33,3.33,0,0,1,2.5.9,3.62,3.62,0,0,1,1,2.7v6.3Z"/><path class="s" d="M321.2,232.9a5.3,5.3,0,0,1-4-1.4l1-1a4.08,4.08,0,0,0,3.1,1.1c1.7,0,2.6-.6,2.6-1.7,0-.9-.5-1.3-1.6-1.4l-1.6-.1c-1.9-.2-2.9-1-2.9-2.6,0-1.8,1.5-2.9,3.6-2.9a5.07,5.07,0,0,1,3.5,1.1l-.9.9a4.46,4.46,0,0,0-2.6-.8c-1.4,0-2.2.6-2.2,1.6s.5,1.3,1.8,1.4l1.5.1c1.7.2,2.9.8,2.9,2.7C325.2,231.8,323.6,232.9,321.2,232.9Z"/><path class="s" d="M328,235.6V231h1.8v3.1Z"/><path class="s" d="M23,252.8H21.6L19,245.2l-2.6,7.6H15.1L12,243h1.6l2.3,7.9,2.6-7.9h1.1l2.6,7.9,2.2-7.9H26Z"/><path class="s" d="M34.4,252.8v-6.1c0-1.8-.9-2.6-2.4-2.6a2.3,2.3,0,0,0-2.5,2.6v6.1H28.1V238.6h1.4v5.5a3.49,3.49,0,0,1,2.8-1.2c2.3,0,3.5,1.4,3.5,3.6v6.3Z"/><path class="s" d="M39.2,240.2v-1.6h1.6v1.6Zm.1,12.6V243h1.4v9.8Z"/><path class="s" d="M51.4,251.5a3.91,3.91,0,0,1-3.2,1.5c-2.5,0-4.4-1.7-4.4-5s1.9-5,4.4-5a3.79,3.79,0,0,1,3.2,1.5l-1,.9a2.7,2.7,0,0,0-2.3-1.1,2.84,2.84,0,0,0-2.3,1.1,3.87,3.87,0,0,0-.6,2.6,4.33,4.33,0,0,0,.6,2.6,2.71,2.71,0,0,0,2.3,1.1,3,3,0,0,0,2.3-1.1Z"/><path class="s" d="M60.4,252.8v-6.1c0-1.8-.9-2.6-2.4-2.6a2.3,2.3,0,0,0-2.5,2.6v6.1H54.1V238.6h1.5v5.5a3.49,3.49,0,0,1,2.8-1.2c2.3,0,3.5,1.4,3.5,3.6v6.3Z"/><path class="s" d="M79.7,252.8H78.4l-2.6-7.6-2.6,7.6H71.9L68.8,243h1.6l2.3,7.9,2.6-7.9h1.2l2.6,7.9,2.2-7.9h1.6Z"/><path class="s" d="M84.8,240.2v-1.6h1.6v1.6Zm0,12.6V243h1.4v9.8Z"/><path class="s" d="M92.3,252.8a2.34,2.34,0,0,1-2.5-2.6V238.6h1.4v11.6c0,1,.3,1.4,1.3,1.4h.8v1.2Z"/><path class="s" d="M98.2,252.8a2.34,2.34,0,0,1-2.5-2.6V238.6h1.4v11.6c0,1,.3,1.4,1.3,1.4h.8v1.2Z"/><path class="s" d="M113.2,252.1a3.5,3.5,0,0,1-2.4.9,3.26,3.26,0,0,1-2.8-1.3v1.2h-1.4V238.7H108v5.5a3.26,3.26,0,0,1,2.8-1.3,3.09,3.09,0,0,1,2.4.9c1,1,1.2,2.6,1.2,4.2A5.73,5.73,0,0,1,113.2,252.1Zm-2.7-8c-2.2,0-2.5,1.8-2.5,3.8s.3,3.8,2.5,3.8,2.5-1.8,2.5-3.8S112.7,244.1,110.5,244.1Z"/><path class="s" d="M118.4,248.3c0,2.2,1,3.4,2.9,3.4a3.27,3.27,0,0,0,2.6-1.1l1,.9a4.47,4.47,0,0,1-3.6,1.5c-2.6,0-4.3-1.6-4.3-5,0-3.2,1.5-5,4-5s4,1.8,4,4.8v.6h-6.6Zm5.2-1.1a5.69,5.69,0,0,0-.3-1.6,2.51,2.51,0,0,0-4.6,0c-.3.5-.2.8-.3,1.6Z"/><path class="s" d="M139.3,252.8v-1.1a3.63,3.63,0,0,1-2.8,1.2,3.33,3.33,0,0,1-2.5-.9,3.71,3.71,0,0,1-1-2.8v-6.3h1.4V249c0,1.8.9,2.6,2.4,2.6a2.34,2.34,0,0,0,2.5-2.6v-6.1h1.4v9.8h-1.4Z"/><path class="s" d="M147.4,252.9a5.3,5.3,0,0,1-4-1.4l1-1a4.08,4.08,0,0,0,3.1,1.1c1.7,0,2.6-.6,2.6-1.7,0-.9-.5-1.3-1.6-1.4l-1.6-.1c-1.9-.2-2.9-1-2.9-2.6,0-1.8,1.5-2.9,3.6-2.9a5.07,5.07,0,0,1,3.5,1.1l-.9.9a4.46,4.46,0,0,0-2.6-.8c-1.4,0-2.2.6-2.2,1.6s.5,1.3,1.8,1.4l1.5.1c1.7.2,2.9.8,2.9,2.7C151.4,251.8,149.8,252.9,147.4,252.9Z"/><path class="s" d="M155.2,248.3c0,2.2,1,3.4,2.9,3.4a3.27,3.27,0,0,0,2.6-1.1l1,.9a4.47,4.47,0,0,1-3.6,1.5c-2.6,0-4.3-1.6-4.3-5,0-3.2,1.5-5,4-5s4,1.8,4,4.8v.6h-6.6Zm5.2-1.1a5.69,5.69,0,0,0-.3-1.6,2.51,2.51,0,0,0-4.6,0c-.3.5-.2.8-.3,1.6Z"/><path class="s" d="M170.7,252.8v-1.2a3.26,3.26,0,0,1-2.8,1.3,3.09,3.09,0,0,1-2.4-.9c-1-1-1.2-2.6-1.2-4.2s.2-3.2,1.2-4.2a3.5,3.5,0,0,1,2.4-.9,3,3,0,0,1,2.8,1.3v-5.5h1.4v14.2h-1.4Zm-2.4-8.7c-2.2,0-2.5,1.8-2.5,3.8s.3,3.8,2.5,3.8,2.5-1.8,2.5-3.8S170.4,244.1,168.3,244.1Z"/><path class="s" d="M183.5,252.8a2.39,2.39,0,0,1-2.5-2.6v-6.1h-1.2V243H181v-3h1.4v3h2.1v1.1h-2.1v6.1c0,.9.4,1.4,1.3,1.4h.8v1.2Z"/><path class="s" d="M193.7,251.8a4.11,4.11,0,0,1-5.6,0,6.94,6.94,0,0,1,0-7.8,4.11,4.11,0,0,1,5.6,0,6.94,6.94,0,0,1,0,7.8Zm-1-7a2.66,2.66,0,0,0-3.6,0,6,6,0,0,0,0,6,2.66,2.66,0,0,0,3.6,0,4.26,4.26,0,0,0,.8-3A4.4,4.4,0,0,0,192.7,244.8Z"/><path class="s" d="M206.1,252.9a5.3,5.3,0,0,1-4-1.4l1-1a4.08,4.08,0,0,0,3.1,1.1c1.7,0,2.6-.6,2.6-1.7,0-.9-.5-1.3-1.6-1.4l-1.6-.1c-1.9-.2-2.9-1-2.9-2.6,0-1.8,1.5-2.9,3.6-2.9a5.07,5.07,0,0,1,3.5,1.1l-.9.9a4.46,4.46,0,0,0-2.6-.8c-1.4,0-2.2.6-2.2,1.6s.5,1.3,1.8,1.4l1.5.1c1.7.2,2.9.8,2.9,2.7C210.1,251.8,208.5,252.9,206.1,252.9Z"/><path class="s" d="M219.1,252.8v-1.1a3.63,3.63,0,0,1-2.8,1.2,3.33,3.33,0,0,1-2.5-.9,3.71,3.71,0,0,1-1-2.8v-6.3h1.4V249c0,1.8.9,2.6,2.4,2.6a2.34,2.34,0,0,0,2.5-2.6v-6.1h1.4v9.8h-1.4Z"/><path class="s" d="M230.7,252.1a3.5,3.5,0,0,1-2.4.9,3.26,3.26,0,0,1-2.8-1.3v1.2h-1.4V238.7h1.4v5.5a3.26,3.26,0,0,1,2.8-1.3,3.09,3.09,0,0,1,2.4.9c1,1,1.2,2.6,1.2,4.2A5.73,5.73,0,0,1,230.7,252.1Zm-2.7-8c-2.2,0-2.5,1.8-2.5,3.8s.3,3.8,2.5,3.8,2.5-1.8,2.5-3.8S230.2,244.1,228,244.1Z"/><path class="s" d="M238.1,252.9a5.3,5.3,0,0,1-4-1.4l1-1a4.08,4.08,0,0,0,3.1,1.1c1.7,0,2.6-.6,2.6-1.7,0-.9-.5-1.3-1.6-1.4l-1.6-.1c-1.9-.2-2.9-1-2.9-2.6,0-1.8,1.5-2.9,3.6-2.9a5.07,5.07,0,0,1,3.5,1.1l-.9.9a4.46,4.46,0,0,0-2.6-.8c-1.4,0-2.2.6-2.2,1.6s.5,1.3,1.8,1.4l1.5.1c1.7.2,2.9.8,2.9,2.7C242.1,251.8,240.5,252.9,238.1,252.9Z"/><path class="s" d="M244.9,240.2v-1.6h1.6v1.6Zm0,12.6V243h1.4v9.8Z"/><path class="s" d="M255.9,252.8v-1.2a3.26,3.26,0,0,1-2.8,1.3,3.09,3.09,0,0,1-2.4-.9c-1-1-1.2-2.6-1.2-4.2s.2-3.2,1.2-4.2a3.5,3.5,0,0,1,2.4-.9,3,3,0,0,1,2.8,1.3v-5.5h1.4v14.2h-1.4Zm-2.5-8.7c-2.2,0-2.5,1.8-2.5,3.8s.3,3.8,2.5,3.8,2.5-1.8,2.5-3.8S255.5,244.1,253.4,244.1Z"/><path class="s" d="M260.8,240.2v-1.6h1.6v1.6Zm.1,12.6V243h1.4v9.8Z"/><path class="s" d="M265.1,252.8v-1.2l5.5-7.3h-5.2V243h6.8v1.2l-5.5,7.3h5.5v1.3Z"/><path class="s" d="M276,248.3c0,2.2,1,3.4,2.9,3.4a3.27,3.27,0,0,0,2.6-1.1l1,.9a4.47,4.47,0,0,1-3.6,1.5c-2.6,0-4.3-1.6-4.3-5,0-3.2,1.5-5,4-5s4,1.8,4,4.8v.6H276Zm5.2-1.1a5.69,5.69,0,0,0-.3-1.6,2.51,2.51,0,0,0-4.6,0c-.3.5-.2.8-.3,1.6Z"/><path class="s" d="M293.4,252.8a2.39,2.39,0,0,1-2.5-2.6v-6.1h-1.2V243h1.2v-3h1.4v3h2.1v1.1h-2.1v6.1c0,.9.4,1.4,1.3,1.4h.8v1.2Z"/><path class="s" d="M303.6,252.8v-6.1c0-1.8-.9-2.6-2.4-2.6a2.3,2.3,0,0,0-2.5,2.6v6.1h-1.4V238.6h1.4v5.5a3.49,3.49,0,0,1,2.8-1.2c2.3,0,3.5,1.4,3.5,3.6v6.3Z"/><path class="s" d="M309.5,248.3c0,2.2,1,3.4,2.9,3.4a3.27,3.27,0,0,0,2.6-1.1l1,.9a4.47,4.47,0,0,1-3.6,1.5c-2.6,0-4.3-1.6-4.3-5,0-3.2,1.5-5,4-5s4,1.8,4,4.8v.6h-6.6Zm5.2-1.1a5.69,5.69,0,0,0-.3-1.6,2.51,2.51,0,0,0-4.6,0c-.3.5-.2.8-.3,1.6Z"/><path class="s" d="M19.5,272.8v-1.2a3.26,3.26,0,0,1-2.8,1.3,3.09,3.09,0,0,1-2.4-.9c-1-1-1.2-2.6-1.2-4.2s.2-3.2,1.2-4.2a3.5,3.5,0,0,1,2.4-.9,3,3,0,0,1,2.8,1.3v-5.5h1.4v14.2H19.5ZM17,264.1c-2.2,0-2.5,1.8-2.5,3.8s.3,3.8,2.5,3.8,2.5-1.8,2.5-3.8S19.1,264.1,17,264.1Z"/><path class="s" d="M29.8,272.8,27.4,269,25,272.8H23.3l3.3-5L23.4,263h1.7l2.3,3.6,2.2-3.6h1.7l-3.2,4.8,3.3,5Z"/><path class="s" d="M42.9,271.3a4.82,4.82,0,0,1-3.7,1.5H34.3V258.6h4.9a4.68,4.68,0,0,1,3.7,1.5c1.3,1.4,1.3,3.4,1.3,5.6S44.2,270,42.9,271.3ZM41.7,261a3.48,3.48,0,0,0-2.8-1H35.8v11.5h3.1a3.48,3.48,0,0,0,2.8-1c.9-1,.9-2.8.9-4.7C42.7,263.7,42.7,261.9,41.7,261Z"/><path class="s" d="M56.1,272.8,55,269.6H48.8l-1.1,3.2H46.1l5.2-14.2h1.3l5.2,14.2Zm-4.3-12-2.7,7.5h5.3Z"/><path class="s" d="M68,271.5a4.67,4.67,0,0,1-3.5,1.4,4.9,4.9,0,0,1-3.6-1.4c-1.4-1.4-1.4-2.6-1.4-5.8s.1-4.5,1.4-5.8a4.9,4.9,0,0,1,3.6-1.4,4.51,4.51,0,0,1,3.5,1.4c1.3,1.3,1.4,2.6,1.4,5.8S69.3,270.2,68,271.5Zm-1.1-10.7a3.62,3.62,0,0,0-5,0c-.9.9-1,2-1,4.9s.1,4,1,4.9a3.62,3.62,0,0,0,5,0c.9-.9,1-2,1-4.9S67.8,261.7,66.9,260.8Z"/><path class="s" d="M72.7,261.8v-3.3h1.7v1.7Z"/><path class="s" d="M79.9,272.9a5.3,5.3,0,0,1-4-1.4l1-1a4.08,4.08,0,0,0,3.1,1.1c1.7,0,2.6-.6,2.6-1.7,0-.9-.5-1.3-1.6-1.4l-1.6-.1c-1.9-.2-2.9-1-2.9-2.6,0-1.8,1.5-2.9,3.6-2.9a5.07,5.07,0,0,1,3.5,1.1l-.9.9a4.46,4.46,0,0,0-2.6-.8c-1.4,0-2.2.6-2.2,1.6s.5,1.3,1.8,1.4l1.5.1c1.7.2,2.9.8,2.9,2.7C83.9,271.8,82.3,272.9,79.9,272.9Z"/><path class="s" d="M98.9,273.1a3.91,3.91,0,0,1-4.1,4.2,4.3,4.3,0,0,1-3.3-1.3l.9-.9a3.31,3.31,0,0,0,2.4,1c1.9,0,2.7-1.3,2.7-3v-1.5a3.66,3.66,0,0,1-5.2.4c-1-1-1.2-2.5-1.2-4.1s.2-3.1,1.2-4.1a3.5,3.5,0,0,1,2.4-.9,3,3,0,0,1,2.8,1.3V263h1.4Zm-3.8-9c-2.2,0-2.5,1.8-2.5,3.7s.3,3.7,2.5,3.7,2.4-1.8,2.4-3.7S97.2,264.1,95.1,264.1Z"/><path class="s" d="M108.9,271.8a4.11,4.11,0,0,1-5.6,0,6.94,6.94,0,0,1,0-7.8,4.11,4.11,0,0,1,5.6,0,5.23,5.23,0,0,1,1.2,3.9A5.69,5.69,0,0,1,108.9,271.8Zm-1.1-6.9a2.66,2.66,0,0,0-3.6,0,6,6,0,0,0,0,6,2.66,2.66,0,0,0,3.6,0,4.26,4.26,0,0,0,.8-3C108.6,266.8,108.6,265.6,107.8,264.9Z"/><path class="s" d="M116.4,272.8h-1.3l-3.6-9.8h1.6l2.7,7.9,2.7-7.9h1.6Z"/><path class="s" d="M123,268.3c0,2.2,1,3.4,2.9,3.4a3.27,3.27,0,0,0,2.6-1.1l1,.9a4.47,4.47,0,0,1-3.6,1.5c-2.6,0-4.3-1.6-4.3-5,0-3.2,1.5-5,4-5s4,1.8,4,4.8v.6H123Zm5.2-1.1a5.69,5.69,0,0,0-.3-1.6,2.51,2.51,0,0,0-4.6,0c-.3.5-.2.8-.3,1.6Z"/><path class="s" d="M138.2,264.9a2.06,2.06,0,0,0-1.7-.7,2.42,2.42,0,0,0-2.4,2.6v6h-1.4V263h1.4v1.2a3.29,3.29,0,0,1,2.8-1.3,3.15,3.15,0,0,1,2.4.9Z"/><path class="s" d="M147.4,272.8v-6.1c0-1.8-.9-2.6-2.4-2.6s-2.4.9-2.4,2.6v6.1h-1.4V263h1.4v1.1a3.49,3.49,0,0,1,2.8-1.2,3.33,3.33,0,0,1,2.5.9,3.62,3.62,0,0,1,1,2.7v6.3Z"/><path class="s" d="M157.9,272.8v-.9a4.43,4.43,0,0,1-5.6.2,2.72,2.72,0,0,1-.7-2c0-1.8,1.2-2.8,3.4-2.8h2.9v-.9c0-1.4-.7-2.2-2.5-2.2a2.63,2.63,0,0,0-2.5,1.1l-1-.9a4,4,0,0,1,3.5-1.5c2.7,0,3.9,1.1,3.9,3.3v6.7h-1.4Zm0-4.5h-2.7c-1.5,0-2.2.6-2.2,1.7s.7,1.7,2.3,1.7a3.06,3.06,0,0,0,2.2-.7,2.46,2.46,0,0,0,.5-1.7v-1Z"/><path class="s" d="M169.2,272.8v-6.1c0-1.8-.9-2.6-2.4-2.6s-2.4.9-2.4,2.6v6.1H163V263h1.4v1.1a3.49,3.49,0,0,1,2.8-1.2,3.33,3.33,0,0,1,2.5.9,3.62,3.62,0,0,1,1,2.7v6.3Z"/><path class="s" d="M181.2,271.5A3.91,3.91,0,0,1,178,273c-2.5,0-4.4-1.7-4.4-5s1.9-5,4.4-5a3.79,3.79,0,0,1,3.2,1.5l-1,.9a2.7,2.7,0,0,0-2.3-1.1,2.84,2.84,0,0,0-2.3,1.1,3.87,3.87,0,0,0-.6,2.6,4.33,4.33,0,0,0,.6,2.6,2.71,2.71,0,0,0,2.3,1.1,3,3,0,0,0,2.3-1.1Z"/><path class="s" d="M184.8,268.3c0,2.2,1,3.4,2.9,3.4a3.27,3.27,0,0,0,2.6-1.1l1,.9a4.47,4.47,0,0,1-3.6,1.5c-2.6,0-4.3-1.6-4.3-5,0-3.2,1.5-5,4-5s4,1.8,4,4.8v.6h-6.6Zm5.2-1.1a5.69,5.69,0,0,0-.3-1.6,2.51,2.51,0,0,0-4.6,0c-.3.5-.2.8-.3,1.6Z"/><path class="s" d="M206.1,272.1a3.5,3.5,0,0,1-2.4.9,3.26,3.26,0,0,1-2.8-1.3v1.2h-1.4V258.7h1.4v5.5a3.26,3.26,0,0,1,2.8-1.3,3.09,3.09,0,0,1,2.4.9c1,1,1.2,2.6,1.2,4.2A5.73,5.73,0,0,1,206.1,272.1Zm-2.7-8c-2.2,0-2.5,1.8-2.5,3.8s.3,3.8,2.5,3.8,2.5-1.8,2.5-3.8S205.6,264.1,203.4,264.1Z"/><path class="s" d="M216.6,272.8v-1.1a3.63,3.63,0,0,1-2.8,1.2,3.33,3.33,0,0,1-2.5-.9,3.71,3.71,0,0,1-1-2.8v-6.3h1.4V269c0,1.8.9,2.6,2.4,2.6a2.34,2.34,0,0,0,2.5-2.6v-6.1H218v9.8h-1.4Z"/><path class="s" d="M227.5,272.8v-1.2a3.26,3.26,0,0,1-2.8,1.3,3.09,3.09,0,0,1-2.4-.9c-1-1-1.2-2.6-1.2-4.2s.2-3.2,1.2-4.2a3.5,3.5,0,0,1,2.4-.9,3,3,0,0,1,2.8,1.3v-5.5h1.4v14.2h-1.4Zm-2.5-8.7c-2.2,0-2.5,1.8-2.5,3.8s.3,3.8,2.5,3.8,2.5-1.8,2.5-3.8S227.2,264.1,225,264.1Z"/><path class="s" d="M239.8,273.1a3.91,3.91,0,0,1-4.1,4.2,4.3,4.3,0,0,1-3.3-1.3l.9-.9a3.31,3.31,0,0,0,2.4,1c1.9,0,2.7-1.3,2.7-3v-1.5a3.66,3.66,0,0,1-5.2.4c-1-1-1.2-2.5-1.2-4.1s.2-3.1,1.2-4.1a3.5,3.5,0,0,1,2.4-.9,3,3,0,0,1,2.8,1.3V263h1.4v10.1Zm-3.9-9c-2.2,0-2.5,1.8-2.5,3.7s.3,3.7,2.5,3.7,2.4-1.8,2.4-3.7S238,264.1,235.9,264.1Z"/><path class="s" d="M244.3,268.3c0,2.2,1,3.4,2.9,3.4a3.27,3.27,0,0,0,2.6-1.1l1,.9a4.47,4.47,0,0,1-3.6,1.5c-2.6,0-4.3-1.6-4.3-5,0-3.2,1.5-5,4-5s4,1.8,4,4.8v.6h-6.6Zm5.2-1.1a5.69,5.69,0,0,0-.3-1.6,2.51,2.51,0,0,0-4.6,0c-.3.5-.2.8-.3,1.6Z"/><path class="s" d="M256.7,272.8a2.39,2.39,0,0,1-2.5-2.6v-6.1H253V263h1.2v-3h1.4v3h2.1v1.1h-2.1v6.1c0,.9.4,1.4,1.3,1.4h.8v1.2Z"/><path class="s" d="M260.6,272.8v-1.9h1.9v1.9Z"/><path class="s" d="M382.3,189.3H12a.79.79,0,0,1-.8-.8.74.74,0,0,1,.8-.8H382.4a.79.79,0,0,1,.8.8A.88.88,0,0,1,382.3,189.3Z"/><path class="s" d="M24.5,381.8V371l-3.9,8.6H19.3l-4-8.6v10.8H13.8V367.6h1.5l4.6,10.1,4.5-10.1h1.5v14.2Z"/><path class="s" d="M35.5,381.8v-.9a3.42,3.42,0,0,1-2.8,1.1,3.4,3.4,0,0,1-2.8-.9,2.72,2.72,0,0,1-.7-2c0-1.8,1.2-2.8,3.4-2.8h2.9v-.9c0-1.4-.7-2.2-2.5-2.2a2.63,2.63,0,0,0-2.5,1.1l-1-.9a4,4,0,0,1,3.5-1.5c2.7,0,3.9,1.1,3.9,3.3v6.7H35.5Zm0-4.6H32.8c-1.5,0-2.2.6-2.2,1.7s.7,1.7,2.3,1.7a3.06,3.06,0,0,0,2.2-.7,2.46,2.46,0,0,0,.5-1.7v-1Z"/><path class="s" d="M47.7,382.1a3.91,3.91,0,0,1-4.1,4.2,4.3,4.3,0,0,1-3.3-1.3l.9-.9a3.31,3.31,0,0,0,2.4,1c1.9,0,2.7-1.3,2.7-3v-1.5a3.66,3.66,0,0,1-5.2.4c-1-1-1.2-2.5-1.2-4.1s.2-3.1,1.2-4.1a3.5,3.5,0,0,1,2.4-.9,3,3,0,0,1,2.8,1.3V372h1.4Zm-3.9-9c-2.2,0-2.5,1.8-2.5,3.7s.3,3.7,2.5,3.7,2.4-1.8,2.4-3.7S45.9,373.1,43.8,373.1Z"/><path class="s" d="M57.6,381.8v-6.1c0-1.8-.9-2.6-2.4-2.6s-2.4.9-2.4,2.6v6.1H51.4V372h1.4v1.1a3.49,3.49,0,0,1,2.8-1.2,3.33,3.33,0,0,1,2.5.9,3.62,3.62,0,0,1,1,2.7v6.3Z"/><path class="s" d="M68.8,380.8a4.11,4.11,0,0,1-5.6,0,6.94,6.94,0,0,1,0-7.8,4.11,4.11,0,0,1,5.6,0,5.23,5.23,0,0,1,1.2,3.9A5.37,5.37,0,0,1,68.8,380.8Zm-1-7a2.66,2.66,0,0,0-3.6,0,6,6,0,0,0,0,6,2.66,2.66,0,0,0,3.6,0,6,6,0,0,0,0-6Z"/><path class="s" d="M75.6,381.8a2.34,2.34,0,0,1-2.5-2.6V367.6h1.4v11.6c0,1,.3,1.4,1.3,1.4h.8v1.2Z"/><path class="s" d="M78.9,369.1v-1.6h1.6v1.6Zm.1,12.7V372h1.4v9.8Z"/><path class="s" d="M89.6,381.8v-.9a4.43,4.43,0,0,1-5.6.2,2.72,2.72,0,0,1-.7-2c0-1.8,1.2-2.8,3.4-2.8h2.9v-.9c0-1.4-.7-2.2-2.5-2.2a2.63,2.63,0,0,0-2.5,1.1l-1-.9a4,4,0,0,1,3.5-1.5c2.7,0,3.9,1.1,3.9,3.3v6.7H89.6Zm0-4.6H86.9c-1.5,0-2.2.6-2.2,1.7s.7,1.7,2.3,1.7a3.06,3.06,0,0,0,2.2-.7,2.46,2.46,0,0,0,.5-1.7v-1Z"/><path class="s" d="M102.3,381.8a2.39,2.39,0,0,1-2.5-2.6v-6.1H98.6V372h1.2v-3h1.4v3h2.1v1.1h-2.1v6.1c0,.9.4,1.4,1.3,1.4h.8v1.2Z"/><path class="s" d="M112.5,380.8a4.11,4.11,0,0,1-5.6,0,6.94,6.94,0,0,1,0-7.8,4.11,4.11,0,0,1,5.6,0,5.23,5.23,0,0,1,1.2,3.9A5.37,5.37,0,0,1,112.5,380.8Zm-1-7a2.66,2.66,0,0,0-3.6,0,6,6,0,0,0,0,6,2.66,2.66,0,0,0,3.6,0,6,6,0,0,0,0-6Z"/><path class="s" d="M123.3,381.8l-3.1-5-1.9,2.2v2.8h-1.4V367.6h1.4v9.5l4.4-5.1h1.8l-3.3,3.8,3.9,6.1h-1.8Z"/><path class="s" d="M127.6,377.2c0,2.2,1,3.4,2.9,3.4a3.27,3.27,0,0,0,2.6-1.1l1,.9a4.47,4.47,0,0,1-3.6,1.5c-2.6,0-4.3-1.6-4.3-5,0-3.2,1.5-5,4-5s4,1.8,4,4.8v.6h-6.6Zm5.2-1.1a5.69,5.69,0,0,0-.3-1.6,2.51,2.51,0,0,0-4.6,0c-.3.5-.2.8-.3,1.6Z"/><path class="s" d="M143.6,381.8v-6.1c0-1.8-.9-2.6-2.4-2.6s-2.4.9-2.4,2.6v6.1h-1.4V372h1.4v1.1a3.49,3.49,0,0,1,2.8-1.2,3.33,3.33,0,0,1,2.5.9,3.62,3.62,0,0,1,1,2.7v6.3Z"/><path class="s" d="M151.6,381.9a5.3,5.3,0,0,1-4-1.4l1-1a4.08,4.08,0,0,0,3.1,1.1c1.7,0,2.6-.6,2.6-1.7,0-.9-.5-1.3-1.6-1.4l-1.6-.1c-1.9-.2-2.9-1-2.9-2.6,0-1.8,1.5-2.9,3.6-2.9a5.07,5.07,0,0,1,3.5,1.1l-.9.9a4.46,4.46,0,0,0-2.6-.8c-1.4,0-2.2.6-2.2,1.6s.5,1.3,1.8,1.4l1.5.1c1.7.2,2.9.8,2.9,2.7C155.6,380.8,154,381.9,151.6,381.9Z"/><path class="s" d="M176.1,381.8v-6.1c0-1.8-.9-2.6-2.4-2.6a2.36,2.36,0,0,0-2.5,2.5v6.2h-1.4v-6.1c0-1.8-.9-2.6-2.4-2.6a2.34,2.34,0,0,0-2.5,2.6v6.1h-1.4V372h1.4v1.1a3.63,3.63,0,0,1,2.8-1.2,3.11,3.11,0,0,1,3,1.6,3.76,3.76,0,0,1,3.2-1.6,3.33,3.33,0,0,1,2.5.9,3.69,3.69,0,0,1,1.1,2.7v6.3Z"/><path class="s" d="M186.6,381.8v-.9a4.43,4.43,0,0,1-5.6.2,2.72,2.72,0,0,1-.7-2c0-1.8,1.2-2.8,3.4-2.8h2.9v-.9c0-1.4-.7-2.2-2.5-2.2a2.63,2.63,0,0,0-2.5,1.1l-1-.9a4,4,0,0,1,3.5-1.5c2.7,0,3.9,1.1,3.9,3.3v6.7h-1.4Zm0-4.6h-2.7c-1.5,0-2.2.6-2.2,1.7s.7,1.7,2.3,1.7a3.06,3.06,0,0,0,2.2-.7,2.46,2.46,0,0,0,.5-1.7v-1Z"/><path class="s" d="M194,384.1a3.46,3.46,0,0,1-.7,1.2,2.64,2.64,0,0,1-1.9.7h-.6v-1.3h.4c1,0,1.3-.3,1.6-1.2l.7-1.9L190,372h1.6l2.7,7.9L197,372h1.6Z"/><path class="s" d="M212.1,381a3.5,3.5,0,0,1-2.4.9,3.26,3.26,0,0,1-2.8-1.3v1.2h-1.4V367.6h1.4v5.5a3.26,3.26,0,0,1,2.8-1.3,3.09,3.09,0,0,1,2.4.9c1,1,1.2,2.6,1.2,4.2S213.1,380,212.1,381Zm-2.7-7.9c-2.2,0-2.5,1.8-2.5,3.8s.3,3.8,2.5,3.8,2.5-1.8,2.5-3.8S211.5,373.1,209.4,373.1Z"/><path class="s" d="M217.3,377.2c0,2.2,1,3.4,2.9,3.4a3.27,3.27,0,0,0,2.6-1.1l1,.9a4.47,4.47,0,0,1-3.6,1.5c-2.6,0-4.3-1.6-4.3-5,0-3.2,1.5-5,4-5s4,1.8,4,4.8v.6h-6.6Zm5.2-1.1a5.69,5.69,0,0,0-.3-1.6,2.51,2.51,0,0,0-4.6,0c-.3.5-.2.8-.3,1.6Z"/><path class="s" d="M237.5,381.8v-.9a4.43,4.43,0,0,1-5.6.2,2.72,2.72,0,0,1-.7-2c0-1.8,1.2-2.8,3.4-2.8h2.9v-.9c0-1.4-.7-2.2-2.5-2.2a2.63,2.63,0,0,0-2.5,1.1l-1-.9a4,4,0,0,1,3.5-1.5c2.7,0,3.9,1.1,3.9,3.3v6.7h-1.4Zm0-4.6h-2.7c-1.5,0-2.2.6-2.2,1.7s.7,1.7,2.3,1.7a3.06,3.06,0,0,0,2.2-.7,2.46,2.46,0,0,0,.5-1.7v-1Z"/><path class="s" d="M249.5,380.4a3.91,3.91,0,0,1-3.2,1.5c-2.5,0-4.4-1.7-4.4-5s1.9-5,4.4-5a3.79,3.79,0,0,1,3.2,1.5l-1,.9a2.7,2.7,0,0,0-2.3-1.1,2.84,2.84,0,0,0-2.3,1.1,3.87,3.87,0,0,0-.6,2.6,4.33,4.33,0,0,0,.6,2.6,2.71,2.71,0,0,0,2.3,1.1,3,3,0,0,0,2.3-1.1Z"/><path class="s" d="M255,381.8a2.39,2.39,0,0,1-2.5-2.6v-6.1h-1.2V372h1.2v-3h1.4v3H256v1.1h-2.1v6.1c0,.9.4,1.4,1.3,1.4h.8v1.2Z"/><path class="s" d="M258.8,369.1v-1.6h1.6v1.6Zm.1,12.7V372h1.4v9.8Z"/><path class="s" d="M267.2,381.8h-1.3l-3.6-9.8h1.6l2.7,7.9,2.7-7.9h1.6Z"/><path class="s" d="M278.5,381.8v-.9a4.43,4.43,0,0,1-5.6.2,2.72,2.72,0,0,1-.7-2c0-1.8,1.2-2.8,3.4-2.8h2.9v-.9c0-1.4-.7-2.2-2.5-2.2a2.63,2.63,0,0,0-2.5,1.1l-1-.9a4,4,0,0,1,3.5-1.5c2.7,0,3.9,1.1,3.9,3.3v6.7h-1.4Zm0-4.6h-2.7c-1.5,0-2.2.6-2.2,1.7s.7,1.7,2.3,1.7a3.06,3.06,0,0,0,2.2-.7,2.46,2.46,0,0,0,.5-1.7v-1Z"/><path class="s" d="M286.2,381.8a2.39,2.39,0,0,1-2.5-2.6v-6.1h-1.2V372h1.2v-3h1.4v3h2.1v1.1h-2.1v6.1c0,.9.4,1.4,1.3,1.4h.8v1.2Z"/><path class="s" d="M290.9,377.2c0,2.2,1,3.4,2.9,3.4a3.27,3.27,0,0,0,2.6-1.1l1,.9a4.47,4.47,0,0,1-3.6,1.5c-2.6,0-4.3-1.6-4.3-5,0-3.2,1.5-5,4-5s4,1.8,4,4.8v.6h-6.6Zm5.3-1.1a5.69,5.69,0,0,0-.3-1.6,2.51,2.51,0,0,0-4.6,0c-.3.5-.2.8-.3,1.6Z"/><path class="s" d="M306.5,381.8v-1.2a3.26,3.26,0,0,1-2.8,1.3,3.09,3.09,0,0,1-2.4-.9c-1-1-1.2-2.6-1.2-4.2s.2-3.2,1.2-4.2a3.5,3.5,0,0,1,2.4-.9,3,3,0,0,1,2.8,1.3v-5.5h1.4v14.2h-1.4Zm-2.5-8.7c-2.2,0-2.5,1.8-2.5,3.8s.3,3.8,2.5,3.8,2.5-1.8,2.5-3.8S306.2,373.1,304,373.1Z"/><path class="s" d="M319.3,381.8a2.39,2.39,0,0,1-2.5-2.6v-6.1h-1.2V372h1.2v-3h1.4v3h2.1v1.1h-2.1v6.1c0,.9.4,1.4,1.3,1.4h.8v1.2Z"/><path class="s" d="M329.5,380.8a4.11,4.11,0,0,1-5.6,0,6.94,6.94,0,0,1,0-7.8,4.11,4.11,0,0,1,5.6,0,5.23,5.23,0,0,1,1.2,3.9A5.37,5.37,0,0,1,329.5,380.8Zm-1-7a2.66,2.66,0,0,0-3.6,0,6,6,0,0,0,0,6,2.66,2.66,0,0,0,3.6,0,6,6,0,0,0,0-6Z"/><path class="s" d="M20.9,402.1a3.91,3.91,0,0,1-4.1,4.2,4.3,4.3,0,0,1-3.3-1.3l.9-.9a3.31,3.31,0,0,0,2.4,1c1.9,0,2.7-1.3,2.7-3v-1.5a3.26,3.26,0,0,1-2.8,1.3,3.24,3.24,0,0,1-2.4-.9c-1-1-1.2-2.5-1.2-4.1s.2-3.1,1.2-4.1a3.5,3.5,0,0,1,2.4-.9,3,3,0,0,1,2.8,1.3V392h1.4Zm-3.9-9c-2.2,0-2.5,1.8-2.5,3.7s.3,3.7,2.5,3.7,2.4-1.8,2.4-3.7S19.1,393.1,17,393.1Z"/><path class="s" d="M25.3,397.3c0,2.2,1,3.4,2.9,3.4a3.27,3.27,0,0,0,2.6-1.1l1,.9a4.47,4.47,0,0,1-3.6,1.5c-2.6,0-4.3-1.6-4.3-5,0-3.2,1.5-5,4-5s4,1.8,4,4.8v.6H25.3Zm5.3-1.1a5.69,5.69,0,0,0-.3-1.6,2.51,2.51,0,0,0-4.6,0c-.3.5-.2.8-.3,1.6Z"/><path class="s" d="M41.3,401.8v-6.1c0-1.8-.9-2.6-2.4-2.6s-2.4.9-2.4,2.6v6.1H35.1V392h1.4v1.1a3.49,3.49,0,0,1,2.8-1.2,3.33,3.33,0,0,1,2.5.9,3.62,3.62,0,0,1,1,2.7v6.3Z"/><path class="s" d="M47.2,397.3c0,2.2,1,3.4,2.9,3.4a3.27,3.27,0,0,0,2.6-1.1l1,.9a4.47,4.47,0,0,1-3.6,1.5c-2.6,0-4.3-1.6-4.3-5,0-3.2,1.5-5,4-5s4,1.8,4,4.8v.6H47.2Zm5.2-1.1a5.69,5.69,0,0,0-.3-1.6,2.51,2.51,0,0,0-4.6,0c-.3.5-.2.8-.3,1.6Z"/><path class="s" d="M62.4,393.8a2.06,2.06,0,0,0-1.7-.7,2.42,2.42,0,0,0-2.4,2.6v6H56.9v-9.8h1.4v1.2a3.29,3.29,0,0,1,2.8-1.3,3.15,3.15,0,0,1,2.4.9Z"/><path class="s" d="M70.9,401.8v-.9a3.42,3.42,0,0,1-2.8,1.1,3.4,3.4,0,0,1-2.8-.9,2.72,2.72,0,0,1-.7-2c0-1.8,1.2-2.8,3.4-2.8h2.9v-.9c0-1.4-.7-2.2-2.5-2.2a2.63,2.63,0,0,0-2.5,1.1l-1-.9a4,4,0,0,1,3.5-1.5c2.7,0,3.9,1.1,3.9,3.3v6.7H70.9Zm0-4.5H68.2c-1.5,0-2.2.6-2.2,1.7s.7,1.7,2.3,1.7a3.06,3.06,0,0,0,2.2-.7,2.46,2.46,0,0,0,.5-1.7v-1Z"/><path class="s" d="M78.6,401.8a2.39,2.39,0,0,1-2.5-2.6v-6.1H74.9V392h1.2v-3h1.4v3h2.1v1.1H77.5v6.1c0,.9.4,1.4,1.3,1.4h.8v1.2Z"/><path class="s" d="M83.4,397.3c0,2.2,1,3.4,2.9,3.4a3.27,3.27,0,0,0,2.6-1.1l1,.9a4.47,4.47,0,0,1-3.6,1.5c-2.6,0-4.3-1.6-4.3-5,0-3.2,1.5-5,4-5s4,1.8,4,4.8v.6H83.4Zm5.2-1.1a5.69,5.69,0,0,0-.3-1.6,2.51,2.51,0,0,0-4.6,0c-.3.5-.2.8-.3,1.6Z"/><path class="s" d="M106.5,401.8l-3.2-6.3H99.9v6.3H98.4V387.6h5.5c2.5,0,4.2,1.5,4.2,4a3.71,3.71,0,0,1-3.1,3.8l3.4,6.5h-1.9Zm-2.9-12.9H99.8v5.2h3.8c1.7,0,2.8-.8,2.8-2.6S105.3,388.9,103.6,388.9Z"/><path class="s" d="M111.5,397.3c0,2.2,1,3.4,2.9,3.4a3.27,3.27,0,0,0,2.6-1.1l1,.9a4.47,4.47,0,0,1-3.6,1.5c-2.6,0-4.3-1.6-4.3-5,0-3.2,1.5-5,4-5s4,1.8,4,4.8v.6h-6.6Zm5.2-1.1a5.69,5.69,0,0,0-.3-1.6,2.51,2.51,0,0,0-4.6,0c-.3.5-.2.8-.3,1.6Z"/><path class="s" d="M127.8,401.1a3.5,3.5,0,0,1-2.4.9,3.26,3.26,0,0,1-2.8-1.3v5.6h-1.4V392.1h1.4v1.2a3.26,3.26,0,0,1,2.8-1.3,3.09,3.09,0,0,1,2.4.9c1,1,1.2,2.6,1.2,4.2A5.48,5.48,0,0,1,127.8,401.1Zm-2.7-8c-2.2,0-2.5,1.8-2.5,3.8s.3,3.8,2.5,3.8,2.5-1.8,2.5-3.8S127.2,393.1,125.1,393.1Z"/><path class="s" d="M138.3,401.8v-1.1a3.63,3.63,0,0,1-2.8,1.2,3.33,3.33,0,0,1-2.5-.9,3.71,3.71,0,0,1-1-2.8v-6.3h1.4V398c0,1.8.9,2.6,2.4,2.6a2.34,2.34,0,0,0,2.5-2.6v-6.1h1.4v9.8h-1.4Z"/><path class="s" d="M146.1,401.8a2.39,2.39,0,0,1-2.5-2.6v-6.1h-1.2V392h1.2v-3H145v3h2.1v1.1H145v6.1c0,.9.4,1.4,1.3,1.4h.8v1.2Z"/><path class="s" d="M155.5,401.8v-.9a4.43,4.43,0,0,1-5.6.2,2.72,2.72,0,0,1-.7-2c0-1.8,1.2-2.8,3.4-2.8h2.9v-.9c0-1.4-.7-2.2-2.5-2.2a2.63,2.63,0,0,0-2.5,1.1l-1-.9a4,4,0,0,1,3.5-1.5c2.7,0,3.9,1.1,3.9,3.3v6.7h-1.4Zm0-4.5h-2.7c-1.5,0-2.2.6-2.2,1.7s.7,1.7,2.3,1.7a3.06,3.06,0,0,0,2.2-.7,2.46,2.46,0,0,0,.5-1.7v-1Z"/><path class="s" d="M163.2,401.8a2.39,2.39,0,0,1-2.5-2.6v-6.1h-1.2V392h1.2v-3h1.4v3h2.1v1.1h-2.1v6.1c0,.9.4,1.4,1.3,1.4h.8v1.2Z"/><path class="s" d="M167,389.2v-1.6h1.6v1.6Zm.1,12.6V392h1.4v9.8Z"/><path class="s" d="M178.5,400.8a4.11,4.11,0,0,1-5.6,0,6.94,6.94,0,0,1,0-7.8,4.11,4.11,0,0,1,5.6,0,5.23,5.23,0,0,1,1.2,3.9A5.69,5.69,0,0,1,178.5,400.8Zm-1.1-7a2.66,2.66,0,0,0-3.6,0,6,6,0,0,0,0,6,2.66,2.66,0,0,0,3.6,0,4.26,4.26,0,0,0,.8-3A3.94,3.94,0,0,0,177.4,393.8Z"/><path class="s" d="M189,401.8v-6.1c0-1.8-.9-2.6-2.4-2.6s-2.4.9-2.4,2.6v6.1h-1.4V392h1.4v1.1a3.49,3.49,0,0,1,2.8-1.2,3.33,3.33,0,0,1,2.5.9,3.62,3.62,0,0,1,1,2.7v6.3Z"/><path class="s" d="M193.9,401.8v-1.9h1.9v1.9Z"/><path class="s" d="M382.3,358.4H12a.79.79,0,0,1-.8-.8.74.74,0,0,1,.8-.8H382.4a.79.79,0,0,1,.8.8A.88.88,0,0,1,382.3,358.4Z"/></svg>