<?xml version="1.0" encoding="UTF-8"?>
<svg width="81px" height="81px" viewBox="0 0 81 81" version="1.1" xmlns="http://www.w3.org/2000/svg" xmlns:xlink="http://www.w3.org/1999/xlink">
    <!-- Generator: Sketch 52.6 (67491) - http://www.bohemiancoding.com/sketch -->
    <title>t_blue</title>
    <desc>Created with Sketch.</desc>
    <g id="t_blue" stroke="none" stroke-width="1" fill="none" fill-rule="evenodd">
        <g id="Twitter_bird_logo_2012" transform="translate(0.000000, 8.000000)" fill="#1DA1F2">
            <path d="M25.4738887,66 C56.0419724,66 72.7572949,40.6102624 72.7572949,18.5940222 C72.7572949,17.8728668 72.7426442,17.1549652 72.7103801,16.4403093 C75.9552694,14.0884469 78.7757187,11.1534887 81,7.81247517 C78.0224107,9.13945966 74.8180214,10.0327802 71.4564868,10.4355871 C74.8876814,8.37282939 77.5218254,5.10978293 78.7643787,1.21978461 C75.5535067,3.12823792 71.9975721,4.51532052 68.2115948,5.26408187 C65.1789255,2.02539566 60.8615829,0 56.0809177,0 C46.9035271,0 39.4611725,7.46164811 39.4611725,16.6595789 C39.4611725,17.9670703 39.6069725,19.2388348 39.8920978,20.4586167 C26.0798447,19.7618297 13.8325194,13.1317825 5.63686225,3.05027635 C4.20962623,5.51258709 3.38666096,8.37282939 3.38666096,11.4247299 C3.38666096,17.2053154 6.32050755,22.3086015 10.7820301,25.2939099 C8.05554623,25.2094515 5.49429956,24.4590605 3.25543555,23.2100403 C3.25298924,23.2799463 3.25298924,23.3481 3.25298924,23.4228132 C3.25298924,31.4919146 8.98136789,38.2291616 16.5857225,39.7559226 C15.1892692,40.1376149 13.7199131,40.342264 12.2035799,40.342264 C11.1343692,40.342264 10.0926985,40.2367565 9.08019059,40.0417871 C11.1959292,46.6620891 17.3309278,51.4795107 24.6048024,51.6143247 C18.9169237,56.0841621 11.7515945,58.7462549 3.96417997,58.7462549 C2.62442393,58.7462549 1.30087333,58.6698521 0,58.5156131 C7.35487463,63.242085 16.0883798,66 25.4747477,66" id="path3611"></path>
        </g>
    </g>
</svg>